<svg width="40" height="40" viewBox="0 0 40 40" fill="none" xmlns="http://www.w3.org/2000/svg">
<path d="M37.6667 40C33.037 40 28.4537 39 23.9167 37C19.3796 35 15.2593 32.1482 11.5556 28.4444C7.85185 24.7407 5 20.6296 3 16.1111C1 11.5926 0 7 0 2.33333V0H13.1111L15.1667 11.1667L8.83333 17.5556C9.64815 19 10.5556 20.3704 11.5556 21.6667C12.5556 22.963 13.6296 24.1667 14.7778 25.2778C15.8519 26.3519 17.0278 27.3796 18.3056 28.3611C19.5833 29.3426 20.963 30.2593 22.4444 31.1111L28.8889 24.6667L40 26.9444V40H37.6667Z" fill="#2C6FFF"/>
</svg>
