<svg width="30" height="40" viewBox="0 0 30 40" fill="none" xmlns="http://www.w3.org/2000/svg">
<path d="M2.83533 28.7459C1.90476 27.4373 1.19956 26.0414 0.719738 24.5583C0.239913 23.0752 0 21.5485 0 19.9782C0 15.9069 1.42494 12.3955 4.27481 9.44384C7.12468 6.49218 10.5416 5.01636 14.5256 5.01636H14.8746L12.7372 2.87895L15.6598 0L23.4242 7.76445L15.6598 15.5289L12.7372 12.6499L14.8746 10.5125H14.6565C12.1265 10.5125 9.96728 11.4358 8.17884 13.2824C6.3904 15.129 5.49618 17.361 5.49618 19.9782C5.49618 20.8215 5.60523 21.643 5.82334 22.4427C6.04144 23.2425 6.36859 24.0204 6.8048 24.7764L2.83533 28.7459ZM14.2639 40L6.49945 32.2355L14.2639 24.4275L17.1865 27.3501L15.0491 29.4875H15.2672C17.7972 29.4875 19.9564 28.5569 21.7448 26.6957C23.5333 24.8346 24.4275 22.5954 24.4275 19.9782C24.4275 19.1349 24.3184 18.3133 24.1003 17.5136C23.8822 16.7139 23.5551 15.936 23.1189 15.1799L27.0883 11.2541C28.0189 12.5627 28.7241 13.9513 29.2039 15.4198C29.6837 16.8884 29.9237 18.4079 29.9237 19.9782C29.9237 24.0494 28.4987 27.5682 25.6489 30.5344C22.799 33.5005 19.382 34.9836 15.398 34.9836H15.0491L17.1865 37.0774L14.2639 40Z" fill="#2C6FFF"/>
</svg>
