<svg width="42" height="40" viewBox="0 0 42 40" fill="none" xmlns="http://www.w3.org/2000/svg">
<path d="M36.3939 40L24.2441 27.8502L28.9043 23.19L41.0541 35.3398L36.3939 40ZM5.76976 40L1.10957 35.3398L16.4216 20.0277L12.6491 16.2552L11.0957 17.8086L8.2663 14.9792V19.5284L6.7129 21.0818L0 14.3689L1.5534 12.8155H6.10264L3.32871 10.0416L11.2067 2.16366C11.9464 1.42395 12.7416 0.887656 13.5922 0.554785C14.4429 0.221914 15.3121 0.0554785 16.1997 0.0554785C17.0874 0.0554785 17.9565 0.221914 18.8072 0.554785C19.6579 0.887656 20.4531 1.42395 21.1928 2.16366L16.0888 7.26768L18.8627 10.0416L17.3093 11.595L21.0818 15.3675L26.0749 10.3745C25.927 9.96764 25.8067 9.5423 25.7143 9.09847C25.6218 8.65465 25.5756 8.21082 25.5756 7.76699C25.5756 5.58484 26.3245 3.7448 27.8225 2.24688C29.3204 0.74896 31.1604 0 33.3426 0C33.8974 0 34.4244 0.0554785 34.9237 0.166436C35.423 0.277393 35.9316 0.443828 36.4494 0.665742L30.957 6.15811L34.9515 10.1526L40.4438 4.66019C40.7027 5.17799 40.8784 5.68655 40.9709 6.18585C41.0633 6.68516 41.1096 7.21221 41.1096 7.76699C41.1096 9.94914 40.3606 11.7892 38.8627 13.2871C37.3648 14.785 35.5247 15.534 33.3426 15.534C32.8988 15.534 32.4549 15.497 32.0111 15.423C31.5673 15.3491 31.1419 15.2196 30.7351 15.0347L5.76976 40Z" fill="#2C6FFF"/>
</svg>
