<svg width="40" height="40" viewBox="0 0 40 40" fill="none" xmlns="http://www.w3.org/2000/svg">
<path d="M4.21053 29.4737V4.21053H0V0H8.42105V25.2632H40V29.4737H4.21053ZM8.42105 40C7.26316 40 6.27193 39.5877 5.44737 38.7632C4.62281 37.9386 4.21053 36.9474 4.21053 35.7895C4.21053 34.6316 4.62281 33.6403 5.44737 32.8158C6.27193 31.9912 7.26316 31.5789 8.42105 31.5789C9.57895 31.5789 10.5702 31.9912 11.3947 32.8158C12.2193 33.6403 12.6316 34.6316 12.6316 35.7895C12.6316 36.9474 12.2193 37.9386 11.3947 38.7632C10.5702 39.5877 9.57895 40 8.42105 40ZM10.5263 23.1579V10.5263H23.1579V23.1579H10.5263ZM25.2632 23.1579V10.5263H37.8947V23.1579H25.2632ZM35.7895 40C34.6316 40 33.6403 39.5877 32.8158 38.7632C31.9912 37.9386 31.5789 36.9474 31.5789 35.7895C31.5789 34.6316 31.9912 33.6403 32.8158 32.8158C33.6403 31.9912 34.6316 31.5789 35.7895 31.5789C36.9474 31.5789 37.9386 31.9912 38.7632 32.8158C39.5877 33.6403 40 34.6316 40 35.7895C40 36.9474 39.5877 37.9386 38.7632 38.7632C37.9386 39.5877 36.9474 40 35.7895 40Z" fill="#EC4765"/>
</svg>
