<svg width="45" height="40" viewBox="0 0 45 40" fill="none" xmlns="http://www.w3.org/2000/svg">
<path d="M35.7895 40L32.8421 37.0526L36.1579 33.6842H27.3684V29.4737H36.1579L32.7895 26.1053L35.7895 23.1579L44.2105 31.5789L35.7895 40ZM4.21053 33.6842C3.05263 33.6842 2.0614 33.2719 1.23684 32.4474C0.412281 31.6228 0 30.6316 0 29.4737V4.21053C0 3.05263 0.412281 2.0614 1.23684 1.23684C2.0614 0.412281 3.05263 0 4.21053 0H37.8947C39.0526 0 40.0439 0.412281 40.8684 1.23684C41.693 2.0614 42.1053 3.05263 42.1053 4.21053V20.6316C41.1579 20.0702 40.1491 19.6491 39.0789 19.3684C38.0088 19.0877 36.9123 18.9474 35.7895 18.9474C32.2807 18.9474 29.2982 20.1754 26.8421 22.6316C24.386 25.0877 23.1579 28.0702 23.1579 31.5789V33.6842H4.21053ZM21.0526 18.9474L37.8947 8.42105V4.21053L21.0526 14.7368L4.21053 4.21053V8.42105L21.0526 18.9474Z" fill="#2C6FFF"/>
</svg>
