<svg width="50" height="40" viewBox="0 0 50 40" fill="none" xmlns="http://www.w3.org/2000/svg">
<path d="M21.125 28.75C22.1667 29.7917 23.4792 30.2812 25.0625 30.2188C26.6458 30.1562 27.7917 29.5833 28.5 28.5L42.5 7.5L21.5 21.5C20.4167 22.25 19.8229 23.3854 19.7188 24.9062C19.6146 26.4271 20.0833 27.7083 21.125 28.75ZM7.75 40C6.83333 40 5.98958 39.8021 5.21875 39.4062C4.44792 39.0104 3.83333 38.4167 3.375 37.625C2.29167 35.6667 1.45833 33.6354 0.875 31.5312C0.291667 29.4271 0 27.25 0 25C0 21.5417 0.65625 18.2917 1.96875 15.25C3.28125 12.2083 5.0625 9.5625 7.3125 7.3125C9.5625 5.0625 12.2083 3.28125 15.25 1.96875C18.2917 0.65625 21.5417 0 25 0C28.4167 0 31.625 0.645833 34.625 1.9375C37.625 3.22917 40.25 4.98958 42.5 7.21875C44.75 9.44792 46.5417 12.0521 47.875 15.0312C49.2083 18.0104 49.8958 21.2083 49.9375 24.625C49.9792 26.9167 49.7188 29.1562 49.1562 31.3438C48.5938 33.5312 47.7292 35.625 46.5625 37.625C46.1042 38.4167 45.4896 39.0104 44.7188 39.4062C43.9479 39.8021 43.1042 40 42.1875 40H7.75Z" fill="#2C6FFF"/>
</svg>
