<svg width="70" height="26" viewBox="0 0 70 26" fill="none" xmlns="http://www.w3.org/2000/svg">
<rect width="70" height="26" rx="13" fill="#2C6FFF"/>
<path d="M14.1846 15.3955C14.1846 15.2178 14.1572 15.0583 14.1025 14.917C14.0524 14.7712 13.9567 14.639 13.8154 14.5205C13.6742 14.3975 13.4759 14.2767 13.2207 14.1582C12.9655 14.0397 12.6351 13.9167 12.2295 13.7891C11.7783 13.6432 11.3499 13.4792 10.9443 13.2969C10.5433 13.1146 10.1878 12.9027 9.87793 12.6611C9.57259 12.415 9.33105 12.1302 9.15332 11.8066C8.98014 11.4831 8.89355 11.1071 8.89355 10.6787C8.89355 10.264 8.9847 9.88802 9.16699 9.55078C9.34928 9.20898 9.60449 8.91732 9.93262 8.67578C10.2607 8.42969 10.6481 8.24056 11.0947 8.1084C11.5459 7.97624 12.0404 7.91016 12.5781 7.91016C13.3118 7.91016 13.9521 8.04232 14.499 8.30664C15.0459 8.57096 15.4697 8.93327 15.7705 9.39355C16.0758 9.85384 16.2285 10.3802 16.2285 10.9727H14.1914C14.1914 10.681 14.1299 10.4258 14.0068 10.207C13.8883 9.98372 13.7061 9.80827 13.46 9.68066C13.2184 9.55306 12.9131 9.48926 12.5439 9.48926C12.1885 9.48926 11.8923 9.54395 11.6553 9.65332C11.4183 9.75814 11.2406 9.90169 11.1221 10.084C11.0036 10.2617 10.9443 10.4622 10.9443 10.6855C10.9443 10.8542 10.9854 11.0068 11.0674 11.1436C11.154 11.2803 11.2816 11.4079 11.4502 11.5264C11.6188 11.6449 11.8262 11.7565 12.0723 11.8613C12.3184 11.9661 12.6032 12.0687 12.9268 12.1689C13.4691 12.333 13.9453 12.5176 14.3555 12.7227C14.7702 12.9277 15.1165 13.1579 15.3945 13.4131C15.6725 13.6683 15.8822 13.9577 16.0234 14.2812C16.1647 14.6048 16.2354 14.9717 16.2354 15.3818C16.2354 15.8148 16.151 16.2021 15.9824 16.5439C15.8138 16.8857 15.57 17.1751 15.251 17.4121C14.932 17.6491 14.5514 17.8291 14.1094 17.9521C13.6673 18.0752 13.1729 18.1367 12.626 18.1367C12.1338 18.1367 11.6484 18.0729 11.1699 17.9453C10.6914 17.8132 10.2562 17.6149 9.86426 17.3506C9.47689 17.0863 9.16699 16.749 8.93457 16.3389C8.70215 15.9287 8.58594 15.4434 8.58594 14.8828H10.6436C10.6436 15.1927 10.6914 15.4548 10.7871 15.6689C10.8828 15.8831 11.0173 16.0563 11.1904 16.1885C11.3682 16.3206 11.5778 16.4163 11.8193 16.4756C12.0654 16.5348 12.3343 16.5645 12.626 16.5645C12.9814 16.5645 13.2731 16.5143 13.501 16.4141C13.7334 16.3138 13.9043 16.1748 14.0137 15.9971C14.1276 15.8193 14.1846 15.6188 14.1846 15.3955ZM22.0801 8.04688V18H20.0361V8.04688H22.0801ZM25.1426 8.04688V9.65332H17.0215V8.04688H25.1426ZM32.9902 16.4004V18H27.6924V16.4004H32.9902ZM28.3623 8.04688V18H26.3115V8.04688H28.3623ZM32.2998 12.1006V13.6592H27.6924V12.1006H32.2998ZM32.9834 8.04688V9.65332H27.6924V8.04688H32.9834ZM38.0625 14.4521H35.5264V12.8525H38.0625C38.4544 12.8525 38.7734 12.7887 39.0195 12.6611C39.2656 12.529 39.4456 12.3467 39.5596 12.1143C39.6735 11.8818 39.7305 11.6198 39.7305 11.3281C39.7305 11.0319 39.6735 10.7562 39.5596 10.501C39.4456 10.2458 39.2656 10.0407 39.0195 9.88574C38.7734 9.73079 38.4544 9.65332 38.0625 9.65332H36.2373V18H34.1865V8.04688H38.0625C38.8418 8.04688 39.5094 8.18815 40.0654 8.4707C40.626 8.7487 41.0544 9.13379 41.3506 9.62598C41.6468 10.1182 41.7949 10.681 41.7949 11.3145C41.7949 11.957 41.6468 12.513 41.3506 12.9824C41.0544 13.4518 40.626 13.8141 40.0654 14.0693C39.5094 14.3245 38.8418 14.4521 38.0625 14.4521ZM53.1904 12.1484V13.8711C53.1904 14.6185 53.1107 15.2633 52.9512 15.8057C52.7917 16.3434 52.5615 16.7855 52.2607 17.1318C51.9645 17.4736 51.6113 17.7266 51.2012 17.8906C50.791 18.0547 50.3353 18.1367 49.834 18.1367C49.4329 18.1367 49.0592 18.0866 48.7129 17.9863C48.3665 17.8815 48.0544 17.7197 47.7764 17.501C47.5029 17.2822 47.266 17.0065 47.0654 16.6738C46.8695 16.3366 46.7191 15.9355 46.6143 15.4707C46.5094 15.0059 46.457 14.4727 46.457 13.8711V12.1484C46.457 11.401 46.5368 10.7607 46.6963 10.2275C46.8604 9.68978 47.0905 9.25 47.3867 8.9082C47.6875 8.56641 48.043 8.31576 48.4531 8.15625C48.8633 7.99219 49.319 7.91016 49.8203 7.91016C50.2214 7.91016 50.5928 7.96257 50.9346 8.06738C51.2809 8.16764 51.5931 8.32487 51.8711 8.53906C52.1491 8.75326 52.3861 9.02897 52.582 9.36621C52.778 9.69889 52.9284 10.0977 53.0332 10.5625C53.138 11.0228 53.1904 11.5514 53.1904 12.1484ZM51.2148 14.1309V11.8818C51.2148 11.5218 51.1943 11.2074 51.1533 10.9385C51.1169 10.6696 51.0599 10.4417 50.9824 10.2549C50.9049 10.0635 50.8092 9.90853 50.6953 9.79004C50.5814 9.67155 50.4515 9.58496 50.3057 9.53027C50.1598 9.47559 49.998 9.44824 49.8203 9.44824C49.597 9.44824 49.3988 9.49154 49.2256 9.57812C49.057 9.66471 48.9134 9.80371 48.7949 9.99512C48.6764 10.182 48.5853 10.4326 48.5215 10.7471C48.4622 11.057 48.4326 11.4352 48.4326 11.8818V14.1309C48.4326 14.4909 48.4508 14.8076 48.4873 15.0811C48.5283 15.3545 48.5876 15.5892 48.665 15.7852C48.7471 15.9766 48.8428 16.1338 48.9521 16.2568C49.0661 16.3753 49.196 16.4619 49.3418 16.5166C49.4922 16.5713 49.6562 16.5986 49.834 16.5986C50.0527 16.5986 50.2464 16.5553 50.415 16.4688C50.5882 16.3776 50.734 16.2363 50.8525 16.0449C50.9756 15.849 51.0667 15.5938 51.126 15.2793C51.1852 14.9648 51.2148 14.582 51.2148 14.1309ZM61.3389 16.4619V18H54.5303V16.6875L57.75 13.2354C58.0736 12.8753 58.3288 12.5586 58.5156 12.2852C58.7025 12.0072 58.8369 11.7588 58.9189 11.54C59.0055 11.3167 59.0488 11.1048 59.0488 10.9043C59.0488 10.6035 58.9987 10.346 58.8984 10.1318C58.7982 9.91309 58.6501 9.74447 58.4541 9.62598C58.2627 9.50749 58.0257 9.44824 57.7432 9.44824C57.4424 9.44824 57.1826 9.52116 56.9639 9.66699C56.7497 9.81283 56.5856 10.0156 56.4717 10.2754C56.3623 10.5352 56.3076 10.8291 56.3076 11.1572H54.332C54.332 10.5648 54.4733 10.0225 54.7559 9.53027C55.0384 9.03353 55.4372 8.63932 55.9521 8.34766C56.4671 8.05143 57.0778 7.90332 57.7842 7.90332C58.4814 7.90332 59.0693 8.01725 59.5479 8.24512C60.0309 8.46842 60.3955 8.79199 60.6416 9.21582C60.8923 9.63509 61.0176 10.1364 61.0176 10.7197C61.0176 11.0479 60.9652 11.3691 60.8604 11.6836C60.7555 11.9935 60.6051 12.3034 60.4092 12.6133C60.2178 12.9186 59.9854 13.2285 59.7119 13.543C59.4385 13.8574 59.1354 14.1833 58.8027 14.5205L57.0732 16.4619H61.3389Z" fill="white"/>
</svg>
