<svg width="20" height="20" viewBox="0 0 20 20" fill="none" xmlns="http://www.w3.org/2000/svg">
<rect width="20" height="20" fill="#2C6FFF"/>
<path d="M11.1953 13.8125L14.2734 16.25L12.7969 17.5312L9.76562 15.0938L11.1953 13.8125ZM14.3516 9.54688V10.0859C14.3516 10.9505 14.2344 11.7266 14 12.4141C13.7708 13.1016 13.4401 13.6875 13.0078 14.1719C12.5755 14.651 12.0651 15.0182 11.4766 15.2734C10.888 15.5286 10.2344 15.6562 9.51562 15.6562C8.80208 15.6562 8.14844 15.5286 7.55469 15.2734C6.96094 15.0182 6.44792 14.651 6.01562 14.1719C5.58333 13.6875 5.2474 13.1016 5.00781 12.4141C4.77344 11.7266 4.65625 10.9505 4.65625 10.0859V9.54688C4.65625 8.67708 4.77344 7.90104 5.00781 7.21875C5.2474 6.53125 5.58073 5.94531 6.00781 5.46094C6.4349 4.97656 6.94531 4.60677 7.53906 4.35156C8.13281 4.09635 8.78646 3.96875 9.5 3.96875C10.2188 3.96875 10.8724 4.09635 11.4609 4.35156C12.0547 4.60677 12.5677 4.97656 13 5.46094C13.4323 5.94531 13.7656 6.53125 14 7.21875C14.2344 7.90104 14.3516 8.67708 14.3516 9.54688ZM11.9844 10.0859V9.53125C11.9844 8.92708 11.9271 8.39583 11.8125 7.9375C11.7031 7.47917 11.5417 7.09375 11.3281 6.78125C11.1198 6.46875 10.862 6.23438 10.5547 6.07812C10.2474 5.91667 9.89583 5.83594 9.5 5.83594C9.10417 5.83594 8.7526 5.91667 8.44531 6.07812C8.13802 6.23438 7.88021 6.46875 7.67188 6.78125C7.46354 7.09375 7.30469 7.47917 7.19531 7.9375C7.08594 8.39583 7.03125 8.92708 7.03125 9.53125V10.0859C7.03125 10.6849 7.08594 11.2161 7.19531 11.6797C7.30469 12.138 7.46354 12.526 7.67188 12.8438C7.88542 13.1562 8.14583 13.3932 8.45312 13.5547C8.76562 13.7161 9.11979 13.7969 9.51562 13.7969C9.91146 13.7969 10.2604 13.7161 10.5625 13.5547C10.8698 13.3932 11.1276 13.1562 11.3359 12.8438C11.5495 12.526 11.7109 12.138 11.8203 11.6797C11.9297 11.2161 11.9844 10.6849 11.9844 10.0859Z" fill="white"/>
</svg>
