<svg width="68" height="48" viewBox="0 0 68 48" fill="none" xmlns="http://www.w3.org/2000/svg">
<path d="M17.9294 32.0471L12 25.9765C14.9176 23.0588 18.2588 20.8235 22.0235 19.2706C25.7882 17.7176 29.7412 16.9412 33.8824 16.9412C38.0235 16.9412 41.9882 17.7294 45.7765 19.3059C49.5647 20.8824 52.8941 23.1529 55.7647 26.1176L49.8353 32.0471C47.7176 29.9294 45.2824 28.2941 42.5294 27.1412C39.7765 25.9882 36.8941 25.4118 33.8824 25.4118C30.8706 25.4118 27.9882 25.9882 25.2353 27.1412C22.4824 28.2941 20.0471 29.9294 17.9294 32.0471ZM5.92941 20.0471L0 14.1176C4.47059 9.55294 9.63529 6.05882 15.4941 3.63529C21.3529 1.21176 27.4824 0 33.8824 0C40.2824 0 46.4118 1.21176 52.2706 3.63529C58.1294 6.05882 63.2941 9.55294 67.7647 14.1176L61.8353 20.0471C58.1176 16.3294 53.8471 13.4706 49.0235 11.4706C44.2 9.47059 39.1529 8.47059 33.8824 8.47059C28.6118 8.47059 23.5647 9.47059 18.7412 11.4706C13.9176 13.4706 9.64706 16.3294 5.92941 20.0471ZM33.8824 48L23.9294 37.9765C25.2471 36.6588 26.7647 35.6471 28.4824 34.9412C30.2 34.2353 32 33.8824 33.8824 33.8824C35.7647 33.8824 37.5647 34.2353 39.2824 34.9412C41 35.6471 42.5176 36.6588 43.8353 37.9765L33.8824 48Z" fill="url(#paint0_linear_5_379)" fill-opacity="0.9"/>
<defs>
<linearGradient id="paint0_linear_5_379" x1="33.8824" y1="0" x2="33.8824" y2="48" gradientUnits="userSpaceOnUse">
<stop stop-color="white"/>
<stop offset="1" stop-color="white" stop-opacity="0.6"/>
</linearGradient>
</defs>
</svg>
