<svg width="173" height="37" viewBox="0 0 173 37" fill="none" xmlns="http://www.w3.org/2000/svg">
<path d="M30.8538 0H172.854L142 36.7701H-9.53674e-07L30.8538 0Z" fill="url(#paint0_linear_456_437)"/>
<path d="M45.6669 10.4H47.7789V16.96H45.6669V10.4ZM40.4189 11.712L42.1629 11.04C42.4509 11.4027 42.7229 11.8027 42.9789 12.24C43.2349 12.6667 43.4643 13.0933 43.6669 13.52C43.8696 13.936 44.0296 14.3147 44.1469 14.656L42.2909 15.44C42.1949 15.0987 42.0456 14.7093 41.8429 14.272C41.6509 13.8347 41.4323 13.392 41.1869 12.944C40.9416 12.496 40.6856 12.0853 40.4189 11.712ZM51.0429 10.88L53.1869 11.52C52.9523 11.9893 52.7069 12.4693 52.4509 12.96C52.1949 13.44 51.9389 13.8987 51.6829 14.336C51.4376 14.7733 51.1976 15.1627 50.9629 15.504L49.2669 14.896C49.4803 14.5333 49.6989 14.1227 49.9229 13.664C50.1469 13.2053 50.3549 12.736 50.5469 12.256C50.7496 11.7653 50.9149 11.3067 51.0429 10.88ZM40.7869 15.952H52.9149V25.424H50.8669V17.888H40.7869V15.952ZM41.3469 19.36H51.6029V21.2H41.3469V19.36ZM40.4349 22.864H51.9229V24.768H40.4349V22.864ZM66.6909 16.928C66.6909 17.92 66.6163 18.8213 66.4669 19.632C66.3283 20.432 66.0829 21.1627 65.7309 21.824C65.3789 22.4747 64.8883 23.0613 64.2589 23.584C63.6296 24.1067 62.8349 24.5813 61.8749 25.008L60.1629 23.392C60.9309 23.1253 61.5923 22.8267 62.1469 22.496C62.7123 22.1653 63.1763 21.76 63.5389 21.28C63.9016 20.7893 64.1683 20.2027 64.3389 19.52C64.5203 18.8267 64.6109 17.9893 64.6109 17.008V12.752C64.6109 12.4213 64.6003 12.1333 64.5789 11.888C64.5576 11.632 64.5363 11.424 64.5149 11.264H66.8029C66.7816 11.424 66.7549 11.632 66.7229 11.888C66.7016 12.1333 66.6909 12.4213 66.6909 12.752V16.928ZM60.9149 11.408C60.8936 11.5573 60.8723 11.76 60.8509 12.016C60.8296 12.2613 60.8189 12.5387 60.8189 12.848V18.576C60.8189 18.8107 60.8243 19.04 60.8349 19.264C60.8456 19.4773 60.8509 19.6693 60.8509 19.84C60.8616 20 60.8723 20.1387 60.8829 20.256H58.6429C58.6643 20.1387 58.6803 20 58.6909 19.84C58.7016 19.6693 58.7123 19.4773 58.7229 19.264C58.7336 19.04 58.7389 18.8107 58.7389 18.576V12.848C58.7389 12.6133 58.7283 12.3733 58.7069 12.128C58.6963 11.8827 58.6749 11.6427 58.6429 11.408H60.9149ZM55.6349 14.288C55.7416 14.2987 55.8803 14.32 56.0509 14.352C56.2216 14.3733 56.4189 14.3947 56.6429 14.416C56.8669 14.4267 57.1123 14.432 57.3789 14.432H67.8749C68.3016 14.432 68.6483 14.4213 68.9149 14.4C69.1816 14.3787 69.4216 14.352 69.6349 14.32V16.448C69.4643 16.4267 69.2349 16.416 68.9469 16.416C68.6589 16.4053 68.3016 16.4 67.8749 16.4H57.3789C57.1123 16.4 56.8669 16.4053 56.6429 16.416C56.4296 16.416 56.2376 16.4213 56.0669 16.432C55.9069 16.4427 55.7629 16.4533 55.6349 16.464V14.288ZM71.7149 17.776C73.1549 17.4027 74.4563 16.9707 75.6189 16.48C76.7923 15.9787 77.8216 15.456 78.7069 14.912C79.2616 14.5707 79.8163 14.1813 80.3709 13.744C80.9363 13.296 81.4643 12.8373 81.9549 12.368C82.4563 11.8987 82.8776 11.4507 83.2189 11.024L84.9469 12.672C84.4563 13.152 83.9176 13.6373 83.3309 14.128C82.7549 14.6187 82.1523 15.088 81.5229 15.536C80.8936 15.984 80.2696 16.3947 79.6509 16.768C79.0429 17.12 78.3603 17.4827 77.6029 17.856C76.8563 18.2293 76.0669 18.5813 75.2349 18.912C74.4029 19.2427 73.5656 19.536 72.7229 19.792L71.7149 17.776ZM78.3709 15.936L80.6429 15.408V22.608C80.6429 22.8427 80.6483 23.0987 80.6589 23.376C80.6696 23.6533 80.6856 23.9093 80.7069 24.144C80.7283 24.3893 80.7549 24.576 80.7869 24.704H78.2589C78.2803 24.576 78.2963 24.3893 78.3069 24.144C78.3283 23.9093 78.3443 23.6533 78.3549 23.376C78.3656 23.0987 78.3709 22.8427 78.3709 22.608V15.936ZM91.7469 22.464C91.7469 22.2613 91.7469 21.9307 91.7469 21.472C91.7469 21.0027 91.7469 20.464 91.7469 19.856C91.7469 19.2373 91.7469 18.592 91.7469 17.92C91.7469 17.248 91.7469 16.6027 91.7469 15.984C91.7469 15.3547 91.7469 14.8 91.7469 14.32C91.7469 13.84 91.7469 13.488 91.7469 13.264C91.7469 12.9867 91.7309 12.6667 91.6989 12.304C91.6776 11.9413 91.6403 11.6213 91.5869 11.344H94.0829C94.0509 11.6213 94.0189 11.9307 93.9869 12.272C93.9549 12.6027 93.9389 12.9333 93.9389 13.264C93.9389 13.5627 93.9389 13.968 93.9389 14.48C93.9389 14.992 93.9389 15.5627 93.9389 16.192C93.9389 16.8107 93.9389 17.4453 93.9389 18.096C93.9389 18.736 93.9389 19.3547 93.9389 19.952C93.9389 20.5493 93.9389 21.072 93.9389 21.52C93.9389 21.9573 93.9389 22.272 93.9389 22.464C93.9389 22.6133 93.9443 22.8267 93.9549 23.104C93.9656 23.3707 93.9869 23.648 94.0189 23.936C94.0509 24.224 94.0723 24.48 94.0829 24.704H91.5869C91.6296 24.384 91.6669 24.0107 91.6989 23.584C91.7309 23.1573 91.7469 22.784 91.7469 22.464ZM93.4589 15.488C93.9923 15.6267 94.5896 15.808 95.2509 16.032C95.9123 16.2453 96.5789 16.4747 97.2509 16.72C97.9229 16.9653 98.5523 17.2107 99.1389 17.456C99.7363 17.6907 100.232 17.9093 100.627 18.112L99.7149 20.32C99.2669 20.0853 98.7709 19.8507 98.2269 19.616C97.6829 19.3707 97.1283 19.136 96.5629 18.912C96.0083 18.688 95.4589 18.48 94.9149 18.288C94.3816 18.096 93.8963 17.9253 93.4589 17.776V15.488ZM110.819 14.048H116.323V15.616H110.819V14.048ZM108.067 23.328C108.547 23.2533 109.102 23.1627 109.731 23.056C110.371 22.9493 111.048 22.8373 111.763 22.72C112.478 22.592 113.187 22.464 113.891 22.336L114.051 24C113.123 24.2133 112.19 24.4213 111.251 24.624C110.312 24.8373 109.459 25.024 108.691 25.184L108.067 23.328ZM109.731 11.12H111.587V23.76H109.731V11.12ZM110.819 11.12H117.203V18.608H110.819V16.96H115.299V12.768H110.819V11.12ZM114.147 17.504C114.35 18.464 114.627 19.3547 114.979 20.176C115.331 20.9867 115.779 21.7013 116.323 22.32C116.867 22.9387 117.534 23.4187 118.323 23.76C118.184 23.888 118.035 24.0427 117.875 24.224C117.715 24.416 117.56 24.6133 117.411 24.816C117.272 25.0293 117.16 25.2213 117.075 25.392C116.211 24.9333 115.486 24.336 114.899 23.6C114.323 22.8533 113.848 21.9893 113.475 21.008C113.102 20.0267 112.798 18.9493 112.563 17.776L114.147 17.504ZM116.467 18.72L117.971 19.76C117.534 20.1867 117.07 20.608 116.579 21.024C116.099 21.4293 115.656 21.776 115.251 22.064L114.067 21.152C114.323 20.9387 114.595 20.6933 114.883 20.416C115.182 20.1387 115.47 19.8507 115.747 19.552C116.024 19.2533 116.264 18.976 116.467 18.72ZM103.907 11.088H107.891V12.816H105.699V25.44H103.907V11.088ZM107.363 11.088H107.699L107.971 11.024L109.283 11.776C109.134 12.2453 108.974 12.7413 108.803 13.264C108.632 13.7867 108.462 14.304 108.291 14.816C108.12 15.328 107.95 15.792 107.779 16.208C108.302 16.8267 108.638 17.4133 108.787 17.968C108.947 18.512 109.027 19.0187 109.027 19.488C109.027 20.0213 108.968 20.4587 108.851 20.8C108.734 21.1413 108.542 21.408 108.275 21.6C108.147 21.696 107.998 21.7707 107.827 21.824C107.667 21.8773 107.502 21.92 107.331 21.952C107.182 21.9733 107.006 21.984 106.803 21.984C106.611 21.984 106.414 21.984 106.211 21.984C106.2 21.7387 106.158 21.4507 106.083 21.12C106.019 20.7893 105.923 20.5067 105.795 20.272C105.944 20.2827 106.078 20.288 106.195 20.288C106.323 20.288 106.435 20.288 106.531 20.288C106.616 20.288 106.696 20.2773 106.771 20.256C106.856 20.224 106.936 20.1867 107.011 20.144C107.107 20.0693 107.176 19.9573 107.219 19.808C107.272 19.648 107.294 19.456 107.283 19.232C107.283 18.8587 107.203 18.432 107.043 17.952C106.894 17.4613 106.579 16.9493 106.099 16.416C106.216 16.0533 106.334 15.6533 106.451 15.216C106.579 14.7787 106.696 14.3413 106.803 13.904C106.92 13.456 107.027 13.04 107.123 12.656C107.23 12.2613 107.31 11.936 107.363 11.68V11.088ZM122.291 15.232H131.139V17.072H122.291V15.232ZM126.723 19.072H132.115V20.88H126.723V19.072ZM125.715 16.304H127.715V24.032L125.715 23.792V16.304ZM121.891 17.952L123.891 18.16C123.678 19.792 123.315 21.232 122.803 22.48C122.291 23.728 121.576 24.7467 120.659 25.536C120.552 25.4187 120.403 25.2747 120.211 25.104C120.019 24.9333 119.816 24.768 119.603 24.608C119.4 24.448 119.224 24.32 119.075 24.224C119.939 23.584 120.59 22.7253 121.027 21.648C121.464 20.56 121.752 19.328 121.891 17.952ZM123.443 19.968C123.688 20.6933 124.008 21.2853 124.403 21.744C124.808 22.192 125.272 22.5333 125.795 22.768C126.328 22.992 126.91 23.1467 127.539 23.232C128.168 23.3173 128.835 23.36 129.539 23.36C129.71 23.36 129.939 23.36 130.227 23.36C130.526 23.36 130.851 23.36 131.203 23.36C131.566 23.36 131.934 23.36 132.307 23.36C132.68 23.3493 133.027 23.344 133.347 23.344C133.667 23.3333 133.934 23.3227 134.147 23.312C134.051 23.472 133.955 23.6693 133.859 23.904C133.774 24.128 133.694 24.3627 133.619 24.608C133.544 24.8533 133.491 25.0773 133.459 25.28H132.643H129.443C128.515 25.28 127.662 25.216 126.883 25.088C126.104 24.96 125.4 24.7253 124.771 24.384C124.152 24.0533 123.598 23.5733 123.107 22.944C122.627 22.3147 122.216 21.4933 121.875 20.48L123.443 19.968ZM125.683 10.432H127.731V13.344H125.683V10.432ZM119.859 12.048H133.603V16.064H131.635V13.856H121.747V16.064H119.859V12.048Z" fill="white"/>
<defs>
<linearGradient id="paint0_linear_456_437" x1="15.4269" y1="18.3851" x2="98.7559" y2="88.3064" gradientUnits="userSpaceOnUse">
<stop stop-color="#2C6FFF"/>
<stop offset="0.5" stop-color="#372CFF"/>
<stop offset="1" stop-color="#2CA7FF"/>
</linearGradient>
</defs>
</svg>
