<svg width="135" height="37" viewBox="0 0 135 37" fill="none" xmlns="http://www.w3.org/2000/svg">
<path d="M30.8538 0H134.854L104 36.7701H1.43051e-05L30.8538 0Z" fill="url(#paint0_linear_456_438)"/>
<path d="M41.2698 16.256L43.5578 16.816C43.3018 17.4347 43.0192 18.0693 42.7098 18.72C42.4112 19.3707 42.1018 20.0107 41.7818 20.64C41.4618 21.2693 41.1418 21.872 40.8218 22.448C40.5125 23.0133 40.2085 23.5253 39.9098 23.984L38.1178 23.424C38.4058 22.9333 38.6992 22.3947 38.9978 21.808C39.2965 21.2107 39.5845 20.5973 39.8618 19.968C40.1498 19.328 40.4112 18.6933 40.6458 18.064C40.8912 17.424 41.0992 16.8213 41.2698 16.256ZM36.2778 22.832C37.0245 22.8 37.8672 22.768 38.8058 22.736C39.7445 22.6933 40.7365 22.6507 41.7818 22.608C42.8272 22.5547 43.8885 22.5013 44.9658 22.448C46.0538 22.3947 47.1258 22.3413 48.1818 22.288L48.1178 24.176C46.7525 24.2613 45.3712 24.3467 43.9738 24.432C42.5765 24.5173 41.2378 24.592 39.9578 24.656C38.6885 24.7307 37.5418 24.8 36.5178 24.864L36.2778 22.832ZM44.3738 19.776L46.2298 18.928C46.6992 19.504 47.1685 20.1227 47.6378 20.784C48.1072 21.4453 48.5392 22.096 48.9338 22.736C49.3392 23.3653 49.6698 23.9413 49.9258 24.464L47.9258 25.52C47.7125 24.9973 47.4085 24.4053 47.0138 23.744C46.6192 23.072 46.1925 22.3893 45.7338 21.696C45.2752 21.0027 44.8218 20.3627 44.3738 19.776ZM39.5738 10.768L41.7658 11.376C41.4245 12.2187 41.0138 13.0453 40.5338 13.856C40.0645 14.6667 39.5632 15.424 39.0298 16.128C38.4965 16.8213 37.9578 17.424 37.4138 17.936C37.2858 17.7867 37.1045 17.6267 36.8698 17.456C36.6458 17.2747 36.4112 17.0987 36.1658 16.928C35.9312 16.7467 35.7285 16.6027 35.5578 16.496C36.1125 16.0587 36.6405 15.536 37.1418 14.928C37.6538 14.32 38.1178 13.6587 38.5338 12.944C38.9498 12.2293 39.2965 11.504 39.5738 10.768ZM46.0218 10.8C46.2565 11.2693 46.5338 11.7547 46.8538 12.256C47.1845 12.7573 47.5418 13.2533 47.9258 13.744C48.3205 14.224 48.7152 14.6827 49.1098 15.12C49.5045 15.5467 49.8832 15.9307 50.2458 16.272C50.0752 16.4 49.8885 16.5653 49.6858 16.768C49.4832 16.96 49.2858 17.1627 49.0938 17.376C48.9018 17.5787 48.7472 17.7707 48.6298 17.952C48.2458 17.5467 47.8512 17.0933 47.4458 16.592C47.0405 16.08 46.6352 15.5467 46.2298 14.992C45.8352 14.4267 45.4512 13.856 45.0778 13.28C44.7152 12.704 44.3845 12.1387 44.0858 11.584L46.0218 10.8ZM62.2778 11.456L63.5418 10.4C63.7872 10.56 64.0432 10.7467 64.3098 10.96C64.5872 11.1733 64.8432 11.3867 65.0778 11.6C65.3232 11.8133 65.5205 12.0053 65.6698 12.176L64.3098 13.344C64.1818 13.152 64.0005 12.9493 63.7658 12.736C63.5418 12.512 63.2965 12.288 63.0298 12.064C62.7738 11.84 62.5232 11.6373 62.2778 11.456ZM51.6698 13.136H66.0698V15.008H51.6698V13.136ZM52.2778 16.832H59.2058V18.688H52.2778V16.832ZM54.6938 17.888H56.6138V23.312H54.6938V17.888ZM51.6698 23.056C52.3098 22.9493 53.0618 22.8267 53.9258 22.688C54.8005 22.5387 55.7232 22.3787 56.6938 22.208C57.6752 22.0373 58.6512 21.8613 59.6218 21.68L59.7498 23.392C58.8752 23.584 57.9898 23.776 57.0938 23.968C56.1978 24.1493 55.3338 24.3253 54.5018 24.496C53.6698 24.6773 52.9018 24.8427 52.1978 24.992L51.6698 23.056ZM59.5418 10.464H61.6058C61.5738 11.7867 61.5898 13.0773 61.6538 14.336C61.7285 15.5947 61.8458 16.7733 62.0058 17.872C62.1658 18.9707 62.3578 19.936 62.5818 20.768C62.8058 21.6 63.0512 22.2507 63.3178 22.72C63.5952 23.1893 63.8885 23.424 64.1978 23.424C64.3792 23.424 64.5125 23.1947 64.5978 22.736C64.6938 22.2773 64.7632 21.5413 64.8058 20.528C65.0298 20.752 65.2965 20.9707 65.6058 21.184C65.9258 21.3973 66.2192 21.552 66.4858 21.648C66.4005 22.6613 66.2565 23.4453 66.0538 24C65.8618 24.544 65.6005 24.9173 65.2698 25.12C64.9498 25.3333 64.5338 25.44 64.0218 25.44C63.4458 25.44 62.9338 25.2427 62.4858 24.848C62.0378 24.4533 61.6485 23.9093 61.3178 23.216C60.9872 22.512 60.7098 21.6853 60.4858 20.736C60.2618 19.7867 60.0805 18.7573 59.9418 17.648C59.8032 16.528 59.7018 15.36 59.6378 14.144C59.5738 12.928 59.5418 11.7013 59.5418 10.464ZM73.9258 11.824H81.6378V13.568H73.9258V11.824ZM72.9818 14.928H82.3418V16.72H72.9818V14.928ZM73.3178 18.16H82.1978V19.92H73.3178V18.16ZM76.7898 10.384H78.6938V15.92H76.7898V10.384ZM78.6778 16.512H80.5818V23.296C80.5818 23.776 80.5232 24.1547 80.4058 24.432C80.2992 24.7093 80.0858 24.928 79.7658 25.088C79.4352 25.2267 79.0405 25.312 78.5818 25.344C78.1232 25.3867 77.5952 25.408 76.9978 25.408C76.9552 25.1307 76.8805 24.8107 76.7738 24.448C76.6672 24.0853 76.5445 23.7707 76.4058 23.504C76.8005 23.5147 77.1898 23.5253 77.5738 23.536C77.9578 23.536 78.2138 23.536 78.3418 23.536C78.4698 23.5253 78.5552 23.504 78.5978 23.472C78.6512 23.44 78.6778 23.3707 78.6778 23.264V16.512ZM73.8778 20.784L75.3018 19.904C75.5472 20.1387 75.7925 20.4 76.0378 20.688C76.2832 20.976 76.5125 21.264 76.7258 21.552C76.9498 21.8293 77.1205 22.0853 77.2378 22.32L75.7178 23.312C75.6112 23.0773 75.4565 22.816 75.2538 22.528C75.0512 22.2293 74.8272 21.9307 74.5818 21.632C74.3472 21.3227 74.1125 21.04 73.8778 20.784ZM67.2858 18.928C67.8085 18.8107 68.4005 18.6667 69.0618 18.496C69.7338 18.3253 70.4378 18.1387 71.1738 17.936C71.9205 17.7227 72.6618 17.5093 73.3978 17.296L73.6378 18.992C72.6352 19.3013 71.6112 19.616 70.5658 19.936C69.5312 20.2453 68.5925 20.5227 67.7498 20.768L67.2858 18.928ZM70.1498 10.416H71.9098V25.44H70.1498V10.416ZM68.0378 11.232L69.6538 11.504C69.5792 12.208 69.4885 12.9173 69.3818 13.632C69.2752 14.336 69.1472 15.0027 68.9978 15.632C68.8485 16.2613 68.6778 16.816 68.4858 17.296C68.3898 17.2107 68.2565 17.1147 68.0858 17.008C67.9152 16.9013 67.7445 16.7947 67.5738 16.688C67.4032 16.5707 67.2538 16.48 67.1258 16.416C67.2965 15.9893 67.4405 15.4933 67.5578 14.928C67.6858 14.3627 67.7872 13.7653 67.8618 13.136C67.9472 12.496 68.0058 11.8613 68.0378 11.232ZM68.4858 13.424H73.2538V15.248H68.1178L68.4858 13.424ZM91.9418 22.8L93.3018 21.536C93.8672 21.8027 94.4432 22.0853 95.0298 22.384C95.6165 22.6827 96.1712 22.9813 96.6938 23.28C97.2272 23.5787 97.6752 23.8453 98.0378 24.08L96.2618 25.376C95.9418 25.1307 95.5418 24.8587 95.0618 24.56C94.5925 24.2613 94.0858 23.9573 93.5418 23.648C93.0085 23.3387 92.4752 23.056 91.9418 22.8ZM83.3498 19.92H98.3418V21.728H83.3498V19.92ZM85.8778 16.032H95.7338V17.792H85.8778V16.032ZM88.2618 10.352H90.0538V20.72H88.2618V10.352ZM91.6058 10.352H93.4298V20.736H91.6058V10.352ZM84.9338 12.24H96.9018V20.592H94.9498V14.016H86.7898V20.592H84.9338V12.24ZM88.0698 21.552L89.8298 22.736C89.4138 23.0667 88.9232 23.4027 88.3578 23.744C87.8032 24.0747 87.2218 24.384 86.6138 24.672C86.0058 24.9707 85.4245 25.2213 84.8698 25.424C84.6992 25.2213 84.4645 24.9813 84.1658 24.704C83.8778 24.4373 83.6112 24.2133 83.3658 24.032C83.9418 23.8507 84.5285 23.6213 85.1258 23.344C85.7232 23.056 86.2778 22.7573 86.7898 22.448C87.3125 22.128 87.7392 21.8293 88.0698 21.552Z" fill="white"/>
<defs>
<linearGradient id="paint0_linear_456_438" x1="15.4269" y1="18.3851" x2="76.4566" y2="69.5951" gradientUnits="userSpaceOnUse">
<stop stop-color="#2C6FFF"/>
<stop offset="0.5" stop-color="#372CFF"/>
<stop offset="1" stop-color="#2CA7FF"/>
</linearGradient>
</defs>
</svg>
