<svg width="510" height="58" viewBox="0 0 510 58" fill="none" xmlns="http://www.w3.org/2000/svg">
<path d="M81.8179 0H510L428.182 58H0L81.8179 0Z" fill="url(#paint0_linear_202_3979)"/>
<path d="M78.6116 23.8652H68.4756L70.5192 16.2383H80.6552L82.1046 10.8291H89.8886L88.4392 16.2383H94.3192C94.0095 14.886 93.5213 13.155 92.7986 11.0455H101.479C102.732 16.4006 103.549 20.4574 103.873 23.2161C104.184 26.0289 104.367 27.4353 104.352 27.4894H96.1205C95.8036 23.8652 95.7759 22.2966 94.5959 18.1315L93.0596 23.8652H86.3956L85.2795 28.0303C85.8125 27.9221 86.219 27.868 86.5695 27.8139C94.117 27.6517 102.284 30.194 99.3936 41.6074C96.1239 53.183 86.4557 55.6171 80.1277 55.6171L82.3452 47.3411C87.7772 47.3411 90.1701 45.9347 91.3296 41.6074C92.3876 37.6587 90.0139 35.4409 83.9079 35.6573C83.7959 35.6573 83.6839 35.6573 83.5719 35.6573C83.4599 35.6573 83.3479 35.6573 83.2214 35.7113L80.7719 44.8529C79.8628 47.8279 78.667 49.9916 77.2262 51.398C74.2325 54.2108 71.3996 54.7517 69.371 54.5894C67.803 54.5894 66.351 54.1567 65.0294 53.2371C62.3717 51.4521 60.8913 47.9902 61.9428 43.2301C63.458 36.7391 69.2319 31.4922 77.2201 29.058L78.6116 23.8652ZM72.785 45.6102L75.0171 37.28C72.0372 38.5782 70.1714 40.5255 69.4197 43.1219C68.7135 45.3397 70.3256 46.6379 71.7546 46.5297C71.7961 46.5838 71.9226 46.5297 72.1611 46.4756C72.3996 46.4215 72.5986 46.097 72.785 45.6102ZM148.957 34.9541L150.102 30.6808H139.35L138.205 34.9541H148.957ZM108.347 45.2315L117.304 11.8027H135.896L137.838 4.55444H146.35L144.408 11.8027H163.672L154.802 44.907H146.29L146.942 42.4728H136.19L132.581 55.9417H124.069L127.678 42.4728H117.206L116.467 45.2315H108.347ZM119.221 34.9541H129.693L130.838 30.6808H120.366L119.221 34.9541ZM122.293 23.4866H132.765L133.881 19.3215H123.409L122.293 23.4866ZM141.277 23.4866H152.029L153.145 19.3215H142.393L141.277 23.4866ZM174.183 10.6127H182.583L174.495 40.796C173.35 45.0692 174.243 46.9624 177.265 47.1788C179.225 47.1788 181.483 46.692 183.914 45.7724C188.775 43.9333 193.206 41.6074 199.851 37.4964L197.199 47.3952C194.51 49.072 192.061 50.4784 189.796 51.6143C185.353 53.778 179.861 55.6712 174.442 55.8335C165.749 55.6712 163.457 50.6407 165.733 42.1483L174.183 10.6127ZM241.251 18.6183C241.433 17.1037 241.685 15.5351 241.994 13.9664H232.474L234.459 6.55584H250.923C247.526 21.3229 246.86 34.4672 257.252 40.201C255 41.4992 251.264 44.366 249.301 46.2593C243.973 42.5269 241.517 37.0636 240.862 30.5185C236.307 37.28 230.84 42.6351 224.366 46.3133C223.596 44.7988 221.23 41.7155 219.745 40.3632C228.506 36.09 234.681 28.3008 238.93 18.2938L241.251 18.6183ZM201.79 47.1788C204.42 45.9347 207.402 44.4201 210.188 42.7974L212.884 32.7363H207.116L209.058 25.488H222.778L218.227 42.4728C219.401 45.8265 222.846 47.1788 228.276 47.3952C235.036 47.6656 247.847 47.5034 256.1 46.8002C254.697 48.6934 252.394 52.4798 251.379 54.8058C244.165 55.1844 232.992 55.2926 226.079 54.968C219.488 54.6976 215.426 53.3453 212.846 49.1802C210.028 51.1275 207.154 53.0748 203.507 55.4008L201.79 47.1788ZM212.849 10.5045L220.158 5.79855C222.756 8.01632 225.945 11.37 227.183 13.8582L219.295 19.0511C218.338 16.5628 215.389 12.9387 212.849 10.5045ZM282.107 21.2147H268.947L271.266 12.56H292.322C291.917 14.0746 290.252 20.0788 286.927 28.5171C288.42 29.004 289.87 29.6531 291.306 30.3563C292.524 27.273 293.562 24.0275 294.475 20.6197H301.867C301.519 21.9179 300.415 26.2453 297.563 33.5477C298.774 34.2509 299.749 34.7918 300.473 35.2245C301.127 35.7113 301.461 35.9277 301.517 35.9277L298.908 45.6642C298.867 45.6102 298.394 45.2856 297.504 44.6365C296.599 44.0415 295.36 43.2301 293.815 42.3106C291.587 47.0706 288.941 51.7225 285.811 55.6712H276.851C276.865 55.6171 277.375 54.968 278.466 53.6157C280.534 50.9112 283.969 45.8265 287.603 38.7405C286.085 37.9291 284.635 37.28 283.226 36.685L283.141 36.7932C278.852 45.0692 272.031 52.9666 266.162 53.3453C260.353 53.2912 258.736 47.8279 261.949 39.3896C264.983 32.2495 272.852 27.5435 279.995 27.2189C280.898 24.893 281.646 22.7293 282.107 21.2147ZM268.776 44.6365C272.235 44.4742 275.789 37.0636 276.296 35.1704C275.064 35.1704 273.913 35.495 272.802 36.09C270.62 37.3341 269.287 39.1732 268.548 40.4714C267.891 41.8778 267.727 42.9056 267.931 43.6088C268.135 44.3119 268.384 44.6365 268.776 44.6365ZM324.442 25.2175C325.893 27.3271 328.936 32.8986 329.638 34.2509L323.406 40.5796C323.098 39.0109 322.544 36.9014 321.862 34.8459L316.21 55.9417H308.426L313.455 37.1718C310.914 41.0123 308.18 44.5283 305.539 47.0706C305.405 44.8529 304.483 41.6074 303.787 39.606C308.36 35.495 313.055 28.8417 316.274 22.8916H309.778L311.763 15.481H319.267L322.195 4.55444H329.979L327.051 15.481H333.491L331.506 22.8916H325.066L324.442 25.2175ZM324.516 55.4549L337.416 7.31313H364.408L351.624 55.0221H343.448L344.158 52.3716H333.126L332.3 55.4549H324.516ZM335.025 45.2856H346.057L347.535 39.7682H336.503L335.025 45.2856ZM338.402 32.6822H349.434L350.913 27.1648H339.88L338.402 32.6822ZM341.779 20.0788H352.811L354.246 14.7237H343.214L341.779 20.0788ZM408.189 16.1301C410.2 13.6419 412.712 9.90953 414.179 7.15085L421.41 9.42271C418.566 12.7223 415.778 16.0219 413.672 18.2397L408.189 16.1301ZM365.751 19.6461L367.389 13.5337H389.117L388.436 16.076C390.779 14.0205 393.021 10.6668 394.422 7.52949L400.696 8.77361C399.151 12.4518 396.608 16.5087 393.631 19.0511L388.276 16.671L387.479 19.6461H365.751ZM358.763 55.1303L363.793 36.3604H381.265L376.757 53.183H366.061L365.539 55.1303H358.763ZM364.439 34.5754L366.004 28.7335H383.196L381.631 34.5754H364.439ZM366.439 27.1107L368.004 21.2688H385.196L383.631 27.1107H366.439ZM370.665 11.965L372.231 6.1231H389.143L387.577 11.965H370.665ZM367.699 47.0706H371.507L372.739 42.4728H368.931L367.699 47.0706ZM380.147 40.7419C382.952 38.6323 385.675 34.7377 387.416 31.1676L394.11 32.5199C392.266 36.685 389.341 41.1205 386.011 43.9333L380.147 40.7419ZM377.994 49.6129C388.398 46.3133 393.339 40.201 394.398 36.2523L396.673 27.7598H405.017L402.742 36.2523C402.524 37.0636 402.39 37.9832 402.409 38.9569C404.42 36.4686 406.577 33.2231 408.028 30.7349L415.413 33.0608C412.469 36.5227 409.455 40.0387 407.152 42.3646L402.617 40.6878C403.303 43.771 405.667 47.0706 411.33 49.3425C409.396 51.1275 406.456 54.1567 404.829 56.0499C399.263 53.8321 396.527 48.3688 396.25 45.0151C394.063 48.3688 387.883 53.6698 380.749 56.0499C380.331 54.2648 379.044 51.1275 377.994 49.6129ZM385.432 24.5684C398.134 21.0525 400.291 14.886 403.451 4.55444H411.403C410.032 9.04406 408.623 13.0469 406.8 16.5087C410.572 18.9429 415.19 22.1884 417.493 24.4602L410.537 30.3563C408.834 28.3549 405.387 25.5421 402.078 23.0539C398.856 26.2994 394.465 28.8958 388.245 30.789C387.969 28.8958 386.721 26.0289 385.432 24.5684Z" fill="white"/>
<path d="M427.971 38.6014L431.758 18.49L433.924 9.02938H444.95L442.045 18.49L435.055 38.6014H427.971ZM426.954 55.4997C425.106 55.4997 423.736 54.865 422.845 53.5957C421.953 52.3263 421.756 50.7594 422.256 48.8951C422.756 47.0307 423.786 45.4837 425.348 44.254C426.92 42.9846 428.63 42.35 430.478 42.35C432.367 42.35 433.757 42.9846 434.649 44.254C435.552 45.4837 435.753 47.0307 435.254 48.8951C434.754 50.7594 433.718 52.3263 432.146 53.5957C430.574 54.865 428.843 55.4997 426.954 55.4997Z" fill="white"/>
<defs>
<linearGradient id="paint0_linear_202_3979" x1="0" y1="29" x2="510" y2="29" gradientUnits="userSpaceOnUse">
<stop stop-color="#2C6FFF"/>
<stop offset="0.5" stop-color="#372CFF"/>
<stop offset="1" stop-color="#2CA7FF"/>
</linearGradient>
</defs>
</svg>
