<svg width="498" height="57" viewBox="0 0 498 57" fill="none" xmlns="http://www.w3.org/2000/svg">
<path d="M79.8447 0H497.7L417.855 56H0L79.8447 0Z" fill="url(#paint0_linear_5_467)"/>
<path d="M84.9751 21.2147H64.7031L67.0366 12.5059H99.2366C97.3317 16.689 95.0797 20.5656 92.4804 24.1357C89.9185 27.7058 87.2804 30.9332 84.566 33.8181C85.6759 35.9457 86.8155 37.893 87.9847 39.66C89.1912 41.4271 90.2614 42.7974 91.1951 43.771C92.1759 44.7086 92.6801 45.1954 92.7078 45.2315L89.9395 55.5631C88.3003 54.1567 86.8382 52.7863 85.553 51.4521C84.2679 50.1178 82.9432 48.5131 81.579 46.6379C80.2244 44.7267 78.9742 42.6351 77.8283 40.3632C74.8262 43.0678 71.86 45.4298 68.9296 47.4493C66.0461 49.4326 63.4321 51.0374 61.0876 52.2635C58.7431 53.4895 56.8823 54.373 55.5054 54.914C54.1188 55.4909 53.4068 55.7794 53.3695 55.7794L55.9639 46.097C59.6371 44.5103 63.0708 42.563 66.2652 40.2551C69.497 37.9471 72.6429 35.3327 75.7029 32.4117C78.7629 29.4908 81.8536 25.7584 84.9751 21.2147ZM101.118 42.0942L109.278 11.6405H117.846L115.933 18.7806H139.901L137.625 27.273H113.657L109.903 41.2828C109.611 42.6531 109.764 43.753 110.363 44.5824C111.009 45.3758 112.475 45.8265 114.761 45.9347C118.036 45.9708 120.986 45.8986 123.611 45.7183C126.235 45.538 129.355 45.1774 132.972 44.6365L130.653 53.2912C127.197 53.6518 124.049 53.9042 121.211 54.0485C118.362 54.2288 115.249 54.2829 111.871 54.2108C107.813 54.0305 104.728 53.0027 102.617 51.1275C100.506 49.2523 100.006 46.2412 101.118 42.0942ZM141.41 9.80135C141.642 8.93588 141.532 8.23268 141.08 7.69177C140.637 7.11479 139.986 6.8263 139.128 6.8263C138.269 6.8263 137.464 7.11479 136.712 7.69177C136.007 8.23268 135.538 8.93588 135.306 9.80135C135.084 10.6308 135.176 11.334 135.581 11.9109C136.034 12.4518 136.689 12.7223 137.548 12.7223C138.406 12.7223 139.207 12.4518 139.949 11.9109C140.701 11.334 141.188 10.6308 141.41 9.80135ZM134.775 5.09536C136.42 3.83322 138.195 3.20214 140.099 3.20214C142.003 3.20214 143.434 3.85125 144.393 5.14945C145.399 6.41159 145.655 7.96223 145.162 9.80135C144.67 11.6405 143.582 13.1911 141.9 14.4532C140.255 15.7154 138.481 16.3465 136.577 16.3465C134.673 16.3465 133.236 15.7154 132.268 14.4532C131.3 13.1911 131.062 11.6405 131.554 9.80135C132.047 7.96223 133.121 6.39356 134.775 5.09536ZM140.862 36.8473L143.137 28.3549H169.009L166.734 36.8473H140.862ZM209.909 25.0553L207.634 33.5477H184.114L178.157 55.7794H169.309L181.455 10.4505H190.303L186.389 25.0553H209.909ZM193.416 19.1051L195.706 10.5586H199.962L197.672 19.1051H193.416ZM200.08 19.1051L202.37 10.5586H206.626L204.336 19.1051H200.08ZM251.71 48.0984C252.308 48.0984 252.799 47.9361 253.185 47.6116C253.57 47.287 253.95 46.6379 254.322 45.6642C254.733 44.6906 255.279 43.14 255.961 41.0123C256.543 41.6254 257.485 42.2204 258.787 42.7974C260.125 43.3744 261.386 43.8251 262.568 44.1497C261.458 47.1788 260.368 49.5048 259.299 51.1275C258.229 52.7503 257.01 53.8862 255.641 54.5353C254.31 55.1844 252.599 55.509 250.509 55.509H244.013C241.511 55.509 239.689 55.2024 238.547 54.5894C237.395 54.0124 236.736 53.0568 236.571 51.7225C236.406 50.3883 236.652 48.4951 237.309 46.0429L239.28 38.6864H233.904C232.681 41.8598 231.219 44.5283 229.519 46.692C227.829 48.8196 225.46 50.6948 222.412 52.3175C219.364 53.9403 215.371 55.2565 210.434 56.2662C210.341 55.2205 210.034 53.9944 209.515 52.588C208.986 51.2177 208.409 50.0998 207.782 49.2343C211.689 48.5852 214.776 47.7919 217.044 46.8543C219.311 45.9167 221.024 44.8168 222.184 43.5547C223.343 42.2925 224.338 40.6698 225.168 38.6864H218.728L227.454 6.1231H265.03L256.304 38.6864H247.624L245.668 45.9888C245.416 46.9264 245.369 47.5214 245.525 47.7738C245.729 47.9902 246.297 48.0984 247.23 48.0984H251.71ZM233.467 12.9387L232.902 15.0483H254.35L254.915 12.9387H233.467ZM231.221 21.3229L230.655 23.4325H252.103L252.669 21.3229H231.221ZM228.96 29.7612L228.394 31.8708H249.842L250.408 29.7612H228.96ZM283.844 39.9846C283.693 39.1552 283.391 37.9832 282.938 36.4686L277.721 55.9417H269.825L274.144 39.8223C271.677 43.176 269.418 45.8265 267.365 47.7738C267.309 46.7281 267.12 45.4839 266.797 44.0415C266.474 42.599 266.108 41.3189 265.698 40.201C267.552 38.5782 269.498 36.5408 271.536 34.0886C273.584 31.6004 275.455 29.0761 277.149 26.5157H270.765L272.722 19.2133H279.666L280.97 14.3451C278.961 14.5975 277.018 14.8139 275.141 14.9942C275.204 14.2008 275.166 13.2272 275.027 12.0732C274.935 10.8832 274.781 9.85544 274.565 8.98997C277.78 8.55724 280.972 7.99829 284.143 7.31313C287.36 6.5919 290.106 5.81658 292.382 4.98717L296.135 11.0455C294.084 11.7306 291.797 12.3256 289.272 12.8305L287.562 19.2133H292.266L292.512 18.2938H304.664L304.998 17.0497H295.478L296.652 12.6682H306.172L306.52 11.37H296.16L297.392 6.77221H307.752L308.346 4.55444H316.466L315.872 6.77221H326.904L325.672 11.37H314.64L314.292 12.6682H324.148L322.974 17.0497H313.118L312.784 18.2938H324.824L323.549 23.0539H291.629L290.701 26.5157H285.605L285.373 27.3812C286.029 28.1385 286.845 29.2023 287.822 30.5726C288.809 31.9069 289.564 32.9887 290.089 33.8181L283.844 39.9846ZM309.651 47.1247C312.758 49.3245 315.126 51.0734 316.757 52.3716L308.73 55.9958C307.879 55.1303 306.76 54.0845 305.371 52.8585C304.01 51.6684 302.713 50.5866 301.48 49.6129L305.731 47.1247H296.771L299.856 49.6129C297.848 50.839 295.391 52.0651 292.487 53.2912C289.62 54.5173 286.932 55.4909 284.424 56.2122C283.588 54.7336 282.38 53.1109 280.801 51.3439C282.522 50.9112 284.38 50.3161 286.375 49.5589C288.38 48.7655 290.24 47.9541 291.955 47.1247H288.147L294.249 24.3521H320.737L314.635 47.1247H309.651ZM300.283 29.004L299.862 30.5726H311.398L311.819 29.004H300.283ZM298.703 34.9L298.268 36.5227H309.804L310.239 34.9H298.703ZM297.108 40.8501L296.674 42.4728H308.21L308.644 40.8501H297.108ZM336.27 25.1093H327.982L330.142 17.0497H338.822C339.474 15.1745 340.178 13.101 340.937 10.8291H349.281C348.522 13.101 347.836 15.1745 347.222 17.0497H359.43L357.27 25.1093H344.614C344.327 25.9027 344.058 26.696 343.808 27.4894C343.559 28.2827 343.313 29.058 343.073 29.8153H352.145L350.044 37.6587H340.804C339.721 40.7239 339.316 43.14 339.589 44.907C339.91 46.6379 341.334 47.5214 343.863 47.5575C345.852 47.5214 347.352 47.2149 348.366 46.6379C349.416 46.0609 350.249 45.3217 350.864 44.4201C351.516 43.5186 351.973 42.581 352.234 41.6074C352.533 40.4895 352.736 39.2453 352.842 37.875C352.985 36.5047 353.066 34.8098 353.084 32.7904H361.484C361.477 36.5768 361.083 39.9305 360.3 42.8515C360.03 43.8612 359.528 45.1053 358.796 46.5838C358.074 48.0263 356.978 49.4687 355.509 50.9112C354.039 52.3536 352.19 53.5436 349.96 54.4812C347.72 55.4549 344.93 55.9778 341.588 56.0499C337.677 56.0138 334.886 55.0762 333.213 53.2371C331.531 51.434 330.745 49.1442 330.854 46.3674C331.01 43.5547 331.602 40.6517 332.628 37.6587H324.62L326.721 29.8153H334.841C335.044 29.058 335.252 28.2827 335.464 27.4894C335.714 26.696 335.983 25.9027 336.27 25.1093ZM377.649 11.2077H386.049C386.039 11.2438 385.853 11.7306 385.49 12.6682C385.126 13.6058 384.653 14.8139 384.071 16.2924C383.525 17.7709 382.955 19.3395 382.362 20.9984C384.336 18.3659 386.292 16.2924 388.228 14.7778C390.212 13.2272 392.343 12.3797 394.622 12.2355C399.205 12.1273 402.007 13.9304 403.028 17.6447C404.049 21.359 403.646 26.6239 401.82 33.4395C399.965 40.3632 396.397 45.7364 391.117 49.5589C385.837 53.3813 379.076 55.2746 370.835 55.2385L373.024 47.0706C377.813 46.8903 381.525 46.2052 384.158 45.0151C386.839 43.7891 388.902 42.1483 390.349 40.0928C391.796 38.0373 392.82 35.8195 393.42 33.4395C394.5 29.6891 394.975 26.66 394.847 24.3521C394.766 22.0081 393.932 20.8 392.346 20.7279C391.179 20.764 389.952 21.2328 388.665 22.1343C387.378 23.0358 386.22 24.1537 385.191 25.488C384.161 26.8223 383.188 28.1565 382.27 29.4908C381.4 30.789 380.736 31.8708 380.28 32.7363C379.929 33.3493 379.492 34.2148 378.969 35.3327C378.455 36.4145 377.98 37.7668 377.546 39.3896C377.456 40.0026 377.353 40.5255 377.237 40.9583C377.159 41.391 377.115 41.6254 377.105 41.6614H368.481C368.491 41.6254 368.623 40.9222 368.878 39.5519C369.133 38.1815 369.509 36.4326 370.004 34.305C370.546 32.1413 371.137 29.8694 371.774 27.4894C372.485 25.2536 373.286 22.8916 374.177 20.4034C375.068 17.9151 375.862 15.7875 376.559 14.0205C377.257 12.2535 377.62 11.3159 377.649 11.2077Z" fill="white"/>
<path d="M408.302 38.6014L412.09 18.49L414.255 9.02938H425.281L422.377 18.49L415.386 38.6014H408.302ZM407.286 55.4997C405.438 55.4997 404.068 54.865 403.176 53.5957C402.284 52.3263 402.088 50.7594 402.587 48.8951C403.087 47.0307 404.117 45.4837 405.679 44.254C407.251 42.9846 408.961 42.35 410.809 42.35C412.698 42.35 414.089 42.9846 414.981 44.254C415.883 45.4837 416.084 47.0307 415.585 48.8951C415.085 50.7594 414.05 52.3263 412.477 53.5957C410.905 54.865 409.175 55.4997 407.286 55.4997Z" fill="white"/>
<defs>
<linearGradient id="paint0_linear_5_467" x1="0" y1="28" x2="497.7" y2="28" gradientUnits="userSpaceOnUse">
<stop stop-color="#2C6FFF"/>
<stop offset="0.5" stop-color="#372CFF"/>
<stop offset="1" stop-color="#2CA7FF"/>
</linearGradient>
</defs>
</svg>
