<svg width="161" height="151" viewBox="0 0 161 151" fill="none" xmlns="http://www.w3.org/2000/svg">
<path d="M66.4037 105.611C83.5235 105.611 91.9796 102.809 98.9832 98.3738C100.123 97.6608 101.154 96.7872 102.044 95.7799C109.307 88.3354 109.229 65.9759 109.229 65.9759C108.924 57.1704 107.262 48.4648 104.301 40.1666L92.5243 7.14617C92.2338 6.04445 91.5887 5.06901 90.6886 4.37048C89.7884 3.67194 88.6834 3.28917 87.544 3.28125C86.3788 3.28238 85.2449 3.65893 84.3105 4.35509C83.376 5.05125 82.6908 6.02996 82.3562 7.14617L77.1684 21.2829H55.1981L50.0102 7.14617C49.6685 6.03426 48.9813 5.06015 48.0485 4.36519C47.1157 3.67023 45.9857 3.29055 44.8224 3.28125C43.6831 3.28917 42.578 3.67194 41.6779 4.37048C40.7778 5.06901 40.1327 6.04445 39.8421 7.14617L27.988 40.1406C25.0272 48.4828 23.3736 57.2324 23.0855 66.0797C23.0855 66.0797 23.0855 88.4391 30.2706 95.8836C31.1531 96.8989 32.1852 97.7736 33.3314 98.4775C40.335 102.913 48.8949 105.715 65.8849 105.715L66.4037 105.611Z" fill="white"/>
<path d="M66.4037 105.611C83.5235 105.611 91.9796 102.809 98.9832 98.3738C100.123 97.6608 101.154 96.7872 102.044 95.7799C109.307 88.3354 109.229 65.9759 109.229 65.9759C108.924 57.1704 107.262 48.4648 104.301 40.1666L92.5243 7.14617C92.2338 6.04445 91.5887 5.06901 90.6886 4.37048C89.7884 3.67194 88.6834 3.28917 87.544 3.28125C86.3788 3.28238 85.2449 3.65893 84.3105 4.35509C83.376 5.05125 82.6908 6.02996 82.3562 7.14617L77.1684 21.2829H55.1981L50.0102 7.14617C49.6685 6.03426 48.9813 5.06015 48.0485 4.36519C47.1157 3.67023 45.9857 3.29055 44.8224 3.28125C43.6831 3.28917 42.578 3.67194 41.6779 4.37048C40.7778 5.06901 40.1327 6.04445 39.8421 7.14617L27.988 40.1406C25.0272 48.4828 23.3736 57.2324 23.0855 66.0797C23.0855 66.0797 23.0855 88.4391 30.2706 95.8836C31.1531 96.8989 32.1852 97.7736 33.3314 98.4775C40.335 102.913 48.8949 105.715 65.8849 105.715L66.4037 105.611Z" stroke="#231815" stroke-width="6.56258" stroke-linecap="round" stroke-linejoin="round"/>
<path d="M27.1582 112.096H11.932C9.66862 112.096 7.49798 111.197 5.89755 109.596C4.29713 107.996 3.39802 105.825 3.39802 103.562C3.39802 101.298 4.29713 99.1278 5.89755 97.5274C7.49798 95.9269 9.66862 95.0278 11.932 95.0278H27.1582" fill="#E60012"/>
<path d="M27.1582 112.096H11.932C9.66862 112.096 7.49798 111.197 5.89755 109.596C4.29713 107.996 3.39802 105.825 3.39802 103.562C3.39802 101.298 4.29713 99.1278 5.89755 97.5274C7.49798 95.9269 9.66862 95.0278 11.932 95.0278H27.1582" stroke="#231815" stroke-width="6.79603" stroke-linecap="round" stroke-linejoin="round"/>
<path d="M65.6514 121.641C39.2195 121.459 25.0308 112.043 25.0308 112.043L27.2357 95.0532C41.5021 106.233 65.2623 105.766 65.2623 105.766H66.4036C66.4036 105.766 90.1378 106.155 104.456 95.0532L106.635 112.043C106.635 112.043 92.4723 121.459 66.0145 121.641H65.6514Z" fill="#E60012"/>
<path d="M65.6514 121.641C39.2195 121.459 25.0308 112.043 25.0308 112.043L27.2357 95.0532C41.5021 106.233 65.2623 105.766 65.2623 105.766H66.4036C66.4036 105.766 90.1378 106.155 104.456 95.0532L106.635 112.043C106.635 112.043 92.4723 121.459 66.0145 121.641H65.6514Z" stroke="#231815" stroke-width="6.71821" stroke-linecap="round" stroke-linejoin="round"/>
<path d="M68.2461 72.5128L74.2121 67.9734C74.8016 67.5583 75.2317 66.9543 75.4312 66.2615C75.4761 65.5379 75.2649 64.8217 74.8346 64.2382L73.4599 62.1372C73.1861 61.7241 72.822 61.3786 72.3951 61.127C71.9682 60.8753 71.4896 60.724 70.9956 60.6846H61.3463C60.8568 60.7278 60.3834 60.8809 59.9613 61.1324C59.5391 61.3839 59.1791 61.7273 58.908 62.1372L57.5333 64.342C57.1132 64.9277 56.9281 65.6496 57.0145 66.3652C57.1819 67.0523 57.586 67.6584 58.1558 68.0772L64.1218 72.5128H68.2461Z" fill="#231815"/>
<path d="M45.8865 15.6022C45.8349 15.408 45.7203 15.2365 45.5607 15.1144C45.4011 14.9924 45.2055 14.9267 45.0046 14.9277C44.8046 14.918 44.6078 14.9809 44.4505 15.1048C44.2931 15.2288 44.1859 15.4054 44.1486 15.6022L41.5028 22.5019C41.0878 23.5654 41.5028 24.7068 42.7998 24.7068H46.5091C48.0914 24.7068 48.4805 23.9027 48.0395 22.5019L45.8865 15.6022Z" fill="#231815"/>
<path d="M86.4033 15.6022C86.4507 15.4057 86.5642 15.2315 86.7248 15.1088C86.8853 14.986 87.0832 14.9221 87.2852 14.9277C87.4852 14.918 87.682 14.9809 87.8393 15.1048C87.9967 15.2288 88.1039 15.4054 88.1412 15.6022L90.7351 22.5019C91.1501 23.5654 90.8648 24.7068 89.4641 24.7068H85.7288C84.1725 24.7068 83.7834 23.9027 84.1984 22.5019L86.4033 15.6022Z" fill="#231815"/>
<path d="M52.2926 42.6304H50.2434C49.1547 42.6304 48.272 43.513 48.272 44.6017V52.6169C48.272 53.7057 49.1547 54.5883 50.2434 54.5883H52.2926C53.3813 54.5883 54.264 53.7057 54.264 52.6169V44.6017C54.264 43.513 53.3813 42.6304 52.2926 42.6304Z" fill="#231815"/>
<path d="M82.2012 42.6304H80.152C79.0632 42.6304 78.1806 43.513 78.1806 44.6017V52.6169C78.1806 53.7057 79.0632 54.5883 80.152 54.5883H82.2012C83.2899 54.5883 84.1725 53.7057 84.1725 52.6169V44.6017C84.1725 43.513 83.2899 42.6304 82.2012 42.6304Z" fill="#231815"/>
<path d="M66.3775 77.3372V66.7021" stroke="#231815" stroke-width="5.3175" stroke-linejoin="round"/>
<path d="M66.3784 75.8589L73.0188 79.5682L79.6592 76.5333L74.9123 89.1397H57.5851L52.942 76.5333L59.4527 79.5682L66.2228 75.8589H66.3784Z" stroke="#231815" stroke-width="4.51339" stroke-linejoin="round"/>
<path d="M108.944 91.7076C108.264 90.7802 107.309 90.0907 106.214 89.7368C105.12 89.3829 103.942 89.3827 102.848 89.7362C102.848 89.7362 98.205 90.67 98.9572 98.4517V132.639C98.8523 134.612 99.1687 136.583 99.8855 138.424C100.602 140.264 101.703 141.931 103.114 143.312C104.525 144.694 106.214 145.759 108.069 146.437C109.925 147.115 111.903 147.39 113.872 147.243C113.872 147.243 128.554 147.943 128.554 132.639V98.6592C128.554 98.6592 129.436 91.7076 124.689 89.7362C123.613 89.3966 122.458 89.4043 121.387 89.7581C120.316 90.112 119.384 90.794 118.723 91.7076C118.723 91.7076 118.593 86.1047 113.535 86.1047C113.535 86.1047 108.736 85.975 108.736 91.7076" fill="white"/>
<path d="M108.944 91.7076C108.264 90.7802 107.309 90.0907 106.214 89.7368C105.12 89.3829 103.942 89.3827 102.848 89.7362C102.848 89.7362 98.205 90.67 98.9572 98.4517V132.639C98.8523 134.612 99.1687 136.583 99.8855 138.424C100.602 140.264 101.703 141.931 103.114 143.312C104.525 144.694 106.214 145.759 108.069 146.437C109.925 147.115 111.903 147.39 113.872 147.243C113.872 147.243 128.554 147.943 128.554 132.639V98.6592C128.554 98.6592 129.436 91.7076 124.689 89.7362C123.613 89.3966 122.458 89.4043 121.387 89.7581C120.316 90.112 119.384 90.794 118.723 91.7076C118.723 91.7076 118.593 86.1047 113.535 86.1047C113.613 86.1047 108.944 85.975 108.944 91.7076Z" stroke="#231815" stroke-width="6.19943" stroke-linecap="round" stroke-linejoin="round"/>
<path d="M113.795 113.004C110.475 113.004 107.778 111.006 107.778 108.542C107.778 106.078 110.371 104.055 113.795 104.055C117.219 104.055 119.813 106.078 119.813 108.542C119.813 111.006 117.219 113.004 113.795 113.004Z" fill="#231815"/>
<path d="M97.4281 83.5104L88.7904 81.5391C86.1965 82.0578 85.1849 87.9719 86.5337 94.742C87.8826 101.512 91.0471 106.622 93.641 106.233L100.904 100.916" fill="#FFF100"/>
<path d="M97.4281 83.5104L88.7904 81.5391C86.1965 82.0578 85.1849 87.9719 86.5337 94.742C87.8826 101.512 91.0471 106.622 93.641 106.233L100.904 100.916" stroke="#231815" stroke-width="4.69497" stroke-linecap="round" stroke-linejoin="round"/>
<path d="M143.936 61.2812L97.9199 83.3554C97.9199 83.3554 94.6516 84.3151 96.3117 92.7453C96.3117 92.7453 97.8161 100.371 101.499 100.942L152.444 103.873" fill="#FFF100"/>
<path d="M143.936 61.2812L97.9199 83.3554C97.9199 83.3554 94.6516 84.3151 96.3117 92.7453C96.3117 92.7453 97.8161 100.371 101.499 100.942L152.444 103.873" stroke="#231815" stroke-width="5.55096" stroke-linecap="round" stroke-linejoin="round"/>
<path d="M140.59 84.056C142.898 95.7805 148.372 104.548 153.067 103.64C157.761 102.732 159.499 92.4862 157.165 80.7877C154.83 69.0892 149.383 60.3218 144.688 61.2296C139.993 62.1375 138.255 72.3575 140.59 84.056Z" fill="#FFF100"/>
<path d="M140.59 84.056C142.898 95.7805 148.372 104.548 153.067 103.64C157.761 102.732 159.499 92.4862 157.165 80.7877C154.83 69.0892 149.383 60.3218 144.688 61.2296C139.993 62.1375 138.255 72.3575 140.59 84.056Z" stroke="#231815" stroke-width="5.55096" stroke-linejoin="round"/>
<path d="M95.6112 32.8774C93.2547 36.1372 90.7083 39.2552 87.9851 42.2155L98.3607 47.1958C98.7384 43.4961 99.5302 39.8504 100.721 36.3273" fill="white"/>
<path d="M88.0374 24.4993C89.4122 19.7265 95.0928 22.061 95.0928 22.061C97.3374 22.9267 99.3172 24.3631 100.837 26.2283C102.356 28.0935 103.362 30.3228 103.756 32.696C103.929 33.5054 103.8 34.3499 103.394 35.071C102.988 35.7922 102.333 36.3404 101.552 36.6128C97.7127 37.6504 94.3665 33.7855 94.3665 33.7855C91.7073 30.7131 89.296 27.4344 87.1555 23.9805C85.1043 21.6259 82.2035 20.1801 79.0884 19.96C75.8201 19.96 73.9006 21.7757 75.2754 23.7211C77.0392 26.315 80.0741 31.5028 83.4981 33.2148C84.973 33.9789 86.6098 34.3777 88.2708 34.3777C89.9319 34.3777 91.5687 33.9789 93.0436 33.2148" fill="white"/>
<path d="M88.0374 24.4993C89.4122 19.7265 95.0928 22.061 95.0928 22.061C97.3374 22.9267 99.3172 24.3631 100.837 26.2283C102.356 28.0935 103.362 30.3228 103.756 32.696C103.929 33.5054 103.8 34.3499 103.394 35.071C102.988 35.7922 102.333 36.3404 101.552 36.6128C97.7127 37.6504 94.3665 33.7855 94.3665 33.7855C91.7073 30.7131 89.296 27.4344 87.1555 23.9805C85.1043 21.6259 82.2035 20.1801 79.0884 19.96C75.8201 19.96 73.9006 21.7757 75.2754 23.7211C77.0392 26.315 80.0741 31.5028 83.4981 33.2148C84.973 33.9789 86.6098 34.3777 88.2708 34.3777C89.9319 34.3777 91.5687 33.9789 93.0436 33.2148" stroke="#231815" stroke-width="4.30588"/>
<path d="M62.5388 23.0468C62.1238 19.2338 68.0898 19.6747 68.0898 19.6747C75.0155 20.3751 78.4654 29.2722 78.4654 29.2722C78.7123 30.0909 78.6311 30.9736 78.239 31.7336C77.8469 32.4936 77.1746 33.0713 76.3643 33.3446C75.1848 33.6563 73.9464 33.6701 72.7602 33.3849C71.574 33.0997 70.4772 32.5243 69.5683 31.7105C66.9694 29.1122 64.6243 26.272 62.5648 23.2284C61.5622 22.1777 60.3537 21.3451 59.0147 20.7827C57.6758 20.2204 56.2352 19.9403 54.783 19.9601C51.4888 19.9601 50.0103 22.2686 51.4369 24.1103C53.3305 26.7042 56.0022 31.1398 59.5299 32.6961C61.0609 33.3423 62.7248 33.6112 64.3814 33.4803C66.038 33.3494 67.639 32.8225 69.0495 31.9439" fill="white"/>
<path d="M62.5388 23.0468C62.1238 19.2338 68.0898 19.6747 68.0898 19.6747C75.0155 20.3751 78.4654 29.2722 78.4654 29.2722C78.7123 30.0909 78.6311 30.9736 78.239 31.7336C77.8469 32.4936 77.1746 33.0713 76.3643 33.3446C75.1848 33.6563 73.9464 33.6701 72.7602 33.3849C71.574 33.0997 70.4772 32.5243 69.5683 31.7105C66.9694 29.1122 64.6243 26.272 62.5648 23.2284C61.5622 22.1777 60.3537 21.3451 59.0147 20.7827C57.6758 20.2204 56.2352 19.9403 54.783 19.9601C51.4888 19.9601 50.0103 22.2686 51.4369 24.1103C53.3305 26.7042 56.0022 31.1398 59.5299 32.6961C61.0609 33.3423 62.7248 33.6112 64.3814 33.4803C66.038 33.3494 67.639 32.8225 69.0495 31.9439" stroke="#231815" stroke-width="4.30588"/>
<path d="M38.9082 24.5771C38.4932 20.7641 44.3554 20.79 44.3554 20.79C46.7384 21.3114 48.9509 22.4265 50.7875 24.0318C52.6242 25.6372 54.0253 27.6807 54.8607 29.9725C55.5611 32.5664 52.2668 33.6299 52.2668 33.6299C51.0873 33.9415 49.8488 33.9554 48.6626 33.6701C47.4764 33.3849 46.3797 32.8095 45.4708 31.9957C42.867 30.017 40.6435 27.5826 38.9082 24.8106C38.1574 23.9963 37.1656 23.4438 36.0781 23.2337C34.9906 23.0237 33.8644 23.1672 32.8644 23.6433C32.3021 23.9253 31.8023 24.3175 31.3945 24.7964C30.9868 25.2753 30.6794 25.8313 30.4907 26.4314C30.3019 27.0314 30.2357 27.6633 30.2959 28.2894C30.3561 28.9155 30.5415 29.5231 30.8411 30.0762C31.5086 31.4046 32.4319 32.588 33.5582 33.5585C34.6844 34.5289 35.9913 35.2672 37.4037 35.7309C38.9037 36.2465 40.5202 36.3201 42.0607 35.943C43.6013 35.5659 45.0011 34.754 46.0933 33.6039" fill="white"/>
<path d="M38.9082 24.5771C38.4932 20.7641 44.3554 20.79 44.3554 20.79C46.7384 21.3114 48.9509 22.4265 50.7875 24.0318C52.6242 25.6372 54.0253 27.6807 54.8607 29.9725C55.5611 32.5664 52.2668 33.6299 52.2668 33.6299C51.0873 33.9415 49.8488 33.9554 48.6626 33.6701C47.4764 33.3849 46.3797 32.8095 45.4708 31.9957C42.867 30.017 40.6435 27.5826 38.9082 24.8106C38.1574 23.9963 37.1656 23.4438 36.0781 23.2337C34.9906 23.0237 33.8644 23.1672 32.8644 23.6433C32.3021 23.9253 31.8023 24.3175 31.3945 24.7964C30.9868 25.2753 30.6794 25.8313 30.4907 26.4314C30.3019 27.0314 30.2357 27.6633 30.2959 28.2894C30.3561 28.9155 30.5415 29.5231 30.8411 30.0762C31.5086 31.4046 32.4319 32.588 33.5582 33.5585C34.6844 34.5289 35.9913 35.2672 37.4037 35.7309C38.9037 36.2465 40.5202 36.3201 42.0607 35.943C43.6013 35.5659 45.0011 34.754 46.0933 33.6039" stroke="#231815" stroke-width="4.30588"/>
<path d="M95.6112 32.8774C93.2547 36.1372 90.7083 39.2552 87.9851 42.2155L98.3607 47.1958C98.7384 43.4961 99.5302 39.8504 100.721 36.3273" stroke="#231815" stroke-width="4.254" stroke-linejoin="round"/>
<path d="M95.6112 32.8774C93.2547 36.1372 90.7083 39.2552 87.9851 42.2155L98.3607 47.1958C98.7384 43.4961 99.5302 39.8504 100.721 36.3273" stroke="#231815" stroke-width="4.254" stroke-linejoin="round"/>
<path d="M103.912 26.4192C103.912 26.4192 109.437 21.6983 114.132 17.2887L102.304 10.7261C102.304 10.7261 103.238 14.9023 99.4765 22.4765" fill="white"/>
<path d="M103.756 27.5086C106.67 23.5902 110.17 20.1432 114.132 17.2887L102.304 10.7261C102.202 14.9287 101.052 19.0393 98.9574 22.684" stroke="#231815" stroke-width="4.254" stroke-linecap="round" stroke-linejoin="round"/>
</svg>
