<svg width="173" height="57" viewBox="0 0 173 57" fill="none" xmlns="http://www.w3.org/2000/svg">
<path d="M13.9459 46.4095H6.87562L8.24554 41.2969H15.3159C16.2794 41.2969 17.1028 41.1397 17.786 40.8252C18.4692 40.5108 19.0217 40.0769 19.4434 39.5235C19.8815 38.9575 20.1949 38.3224 20.3836 37.618C20.5858 36.8634 20.6296 36.1654 20.515 35.524C20.4135 34.8825 20.1155 34.3669 19.621 33.977C19.1298 33.5745 18.4025 33.3733 17.439 33.3733H12.9468L6.95654 55.7292H0.101074L7.46124 28.2606H18.8089C21.0875 28.2606 22.9393 28.6631 24.3643 29.4681C25.8022 30.273 26.7752 31.3798 27.2832 32.7884C27.7945 34.1845 27.8092 35.7818 27.3273 37.5803C26.8521 39.3537 25.9949 40.9007 24.7557 42.2213C23.5164 43.5419 21.9705 44.5732 20.118 45.3153C18.2819 46.0447 16.2246 46.4095 13.9459 46.4095ZM54.0449 41.4478L53.7467 42.5609C53.1839 44.6613 52.3724 46.5478 51.3122 48.2206C50.2684 49.8808 49.0347 51.302 47.6112 52.4843C46.191 53.6539 44.6414 54.5532 42.9625 55.1821C41.287 55.7983 39.5377 56.1065 37.7148 56.1065C35.8789 56.1065 34.2818 55.7983 32.9235 55.1821C31.5815 54.5532 30.5074 53.6539 29.701 52.4843C28.911 51.302 28.4325 49.8808 28.2653 48.2206C28.1146 46.5478 28.3206 44.6613 28.8834 42.5609L29.1817 41.4478C29.7445 39.3474 30.5494 37.4608 31.5966 35.7881C32.6568 34.1153 33.8905 32.6941 35.2977 31.5244C36.7212 30.3422 38.2708 29.4429 39.9463 28.8266C41.6382 28.1978 43.4022 27.8833 45.2381 27.8833C47.061 27.8833 48.6435 28.1978 49.9854 28.8266C51.3437 29.4429 52.4178 30.3422 53.2078 31.5244C54.0012 32.6941 54.4797 34.1153 54.6435 35.7881C54.8073 37.4608 54.6077 39.3474 54.0449 41.4478ZM46.7936 42.5609L47.1019 41.4101C47.4659 40.0517 47.6623 38.8569 47.6913 37.8256C47.7366 36.7817 47.6193 35.9076 47.3393 35.2032C47.0592 34.4989 46.6213 33.9707 46.0256 33.6185C45.4463 33.2538 44.7204 33.0714 43.848 33.0714C42.9365 33.0714 42.0934 33.2538 41.3186 33.6185C40.5471 33.9707 39.8392 34.4989 39.1947 35.2032C38.5503 35.9076 37.971 36.7817 37.4569 37.8256C36.9592 38.8569 36.5284 40.0517 36.1644 41.4101L35.8561 42.5609C35.4955 43.9066 35.286 45.1015 35.2276 46.1454C35.1857 47.1767 35.2965 48.0508 35.5601 48.7677C35.8368 49.4846 36.2648 50.0254 36.8442 50.3902C37.4365 50.7549 38.1884 50.9373 39.0999 50.9373C39.9723 50.9373 40.7959 50.7549 41.5707 50.3902C42.3455 50.0254 43.0569 49.4846 43.7047 48.7677C44.3655 48.0508 44.9513 47.1767 45.462 46.1454C45.9891 45.1015 46.433 43.9066 46.7936 42.5609ZM68.4183 28.2606L61.0581 55.7292H54.2222L61.5823 28.2606H68.4183ZM96.9925 28.2606L89.6323 55.7292H82.7964L77.3177 38.6368L72.7378 55.7292H65.8823L73.2425 28.2606H80.098L85.5767 45.353L90.1566 28.2606H96.9925ZM114.512 28.2606L107.152 55.7292H100.296L107.657 28.2606H114.512ZM123.067 28.2606L121.697 33.3733H97.9273L99.2972 28.2606H123.067ZM160.68 45.919L158.052 55.7292H118.364L120.589 47.4282L143.844 28.8643C145.937 27.0784 147.667 25.4811 149.034 24.0724C150.408 22.6387 151.471 21.3432 152.224 20.1861C153.003 19.029 153.517 17.9851 153.766 17.0544C154.191 15.4697 154.297 14.1491 154.086 13.0926C153.907 12.011 153.423 11.1934 152.633 10.64C151.87 10.0866 150.812 9.80995 149.457 9.80995C148.103 9.80995 146.817 10.1873 145.599 10.9419C144.382 11.6965 143.311 12.7279 142.388 14.0359C141.49 15.3439 140.823 16.8154 140.384 18.4505H127.181C128.084 15.0798 129.756 11.9984 132.197 9.20625C134.664 6.41412 137.644 4.18796 141.135 2.52778C144.634 0.842436 148.388 -0.000233573 152.399 -0.000233573C156.591 -0.000233573 159.938 0.628624 162.44 1.88634C164.941 3.14406 166.588 4.96774 167.38 7.3574C168.205 9.72191 168.169 12.5769 167.273 15.9224C166.76 17.8342 165.956 19.6704 164.859 21.4312C163.762 23.192 162.395 24.9403 160.759 26.6759C159.128 28.3864 157.224 30.1472 155.046 31.9583C152.894 33.7694 150.478 35.6937 147.796 37.7312L138.259 45.919H160.68Z" fill="url(#paint0_linear_5_2312)"/>
<defs>
<linearGradient id="paint0_linear_5_2312" x1="5.30945" y1="28.2003" x2="158.324" y2="69.2003" gradientUnits="userSpaceOnUse">
<stop stop-color="#2C6FFF"/>
<stop offset="0.5" stop-color="#372CFF"/>
<stop offset="1" stop-color="#2CA7FF"/>
</linearGradient>
</defs>
</svg>
