<svg width="179" height="57" viewBox="0 0 179 57" fill="none" xmlns="http://www.w3.org/2000/svg">
<path d="M16.0128 46.4095H8.94251L10.3124 41.2969H17.3827C18.3463 41.2969 19.1697 41.1397 19.8529 40.8252C20.5361 40.5108 21.0885 40.0769 21.5103 39.5235C21.9484 38.9575 22.2618 38.3224 22.4505 37.618C22.6527 36.8634 22.6965 36.1654 22.5819 35.524C22.4804 34.8825 22.1823 34.3669 21.6879 33.977C21.1967 33.5745 20.4694 33.3733 19.5059 33.3733H15.0137L9.02344 55.7292H2.16797L9.52814 28.2606H20.8758C23.1544 28.2606 25.0062 28.6631 26.4312 29.4681C27.8691 30.273 28.8421 31.3798 29.3501 32.7884C29.8614 34.1845 29.8761 35.7818 29.3942 37.5803C28.919 39.3537 28.0618 40.9007 26.8225 42.2213C25.5833 43.5419 24.0374 44.5732 22.1849 45.3153C20.3488 46.0447 18.2915 46.4095 16.0128 46.4095ZM56.1118 41.4478L55.8136 42.5609C55.2508 44.6613 54.4393 46.5478 53.3791 48.2206C52.3353 49.8808 51.1016 51.302 49.6781 52.4843C48.2579 53.6539 46.7083 54.5532 45.0294 55.1821C43.3539 55.7983 41.6046 56.1065 39.7817 56.1065C37.9458 56.1065 36.3487 55.7983 34.9903 55.1821C33.6484 54.5532 32.5743 53.6539 31.7679 52.4843C30.9779 51.302 30.4994 49.8808 30.3322 48.2206C30.1815 46.5478 30.3875 44.6613 30.9503 42.5609L31.2486 41.4478C31.8114 39.3474 32.6163 37.4608 33.6635 35.7881C34.7237 34.1153 35.9574 32.6941 37.3645 31.5244C38.7881 30.3422 40.3377 29.4429 42.0132 28.8266C43.7051 28.1978 45.4691 27.8833 47.305 27.8833C49.1279 27.8833 50.7104 28.1978 52.0523 28.8266C53.4106 29.4429 54.4847 30.3422 55.2747 31.5244C56.0681 32.6941 56.5466 34.1153 56.7104 35.7881C56.8741 37.4608 56.6746 39.3474 56.1118 41.4478ZM48.8605 42.5609L49.1688 41.4101C49.5328 40.0517 49.7292 38.8569 49.7582 37.8256C49.8035 36.7817 49.6862 35.9076 49.4062 35.2032C49.1261 34.4989 48.6882 33.9707 48.0925 33.6185C47.5131 33.2538 46.7873 33.0714 45.9149 33.0714C45.0034 33.0714 44.1603 33.2538 43.3855 33.6185C42.614 33.9707 41.9061 34.4989 41.2616 35.2032C40.6172 35.9076 40.0379 36.7817 39.5238 37.8256C39.0261 38.8569 38.5953 40.0517 38.2313 41.4101L37.923 42.5609C37.5624 43.9066 37.3529 45.1015 37.2945 46.1454C37.2526 47.1767 37.3634 48.0508 37.627 48.7677C37.9037 49.4846 38.3317 50.0254 38.9111 50.3902C39.5034 50.7549 40.2553 50.9373 41.1668 50.9373C42.0392 50.9373 42.8628 50.7549 43.6376 50.3902C44.4124 50.0254 45.1237 49.4846 45.7716 48.7677C46.4324 48.0508 47.0182 47.1767 47.5289 46.1454C48.056 45.1015 48.4999 43.9066 48.8605 42.5609ZM70.4852 28.2606L63.125 55.7292H56.2891L63.6492 28.2606H70.4852ZM99.0594 28.2606L91.6992 55.7292H84.8633L79.3846 38.6368L74.8047 55.7292H67.9492L75.3094 28.2606H82.1649L87.6436 45.353L92.2234 28.2606H99.0594ZM116.579 28.2606L109.219 55.7292H102.363L109.723 28.2606H116.579ZM125.134 28.2606L123.764 33.3733H99.9942L101.364 28.2606H125.134ZM141.209 22.9405H147.615C149.256 22.9405 150.671 22.6638 151.861 22.1104C153.084 21.5319 154.094 20.7269 154.891 19.6956C155.695 18.6391 156.289 17.394 156.673 15.9602C156.97 14.8534 156.995 13.8346 156.75 12.9039C156.531 11.9732 156 11.2312 155.159 10.6778C154.324 10.0992 153.139 9.80995 151.602 9.80995C150.561 9.80995 149.488 10.0238 148.384 10.4514C147.286 10.8539 146.311 11.4324 145.458 12.187C144.631 12.9417 144.072 13.8598 143.782 14.9414H130.579C131.415 11.8223 133.015 9.15594 135.379 6.94236C137.775 4.70362 140.59 2.99313 143.824 1.81088C147.09 0.60347 150.416 -0.000233573 153.801 -0.000233573C157.838 -0.000233573 161.218 0.60347 163.941 1.81088C166.671 2.99313 168.569 4.75393 169.635 7.09328C170.734 9.40748 170.825 12.2751 169.908 15.6961C169.403 17.5826 168.472 19.356 167.115 21.0162C165.759 22.6764 164.092 24.1353 162.114 25.3931C160.137 26.6508 157.944 27.6444 155.535 28.3738C153.158 29.0782 150.668 29.4303 148.064 29.4303H139.47L141.209 22.9405ZM138.671 32.4111L140.37 26.0722H148.964C151.802 26.0722 154.309 26.3866 156.484 27.0155C158.666 27.6192 160.442 28.5248 161.811 29.7322C163.18 30.9396 164.081 32.4363 164.514 34.2222C164.954 35.983 164.867 38.0079 164.254 40.297C163.566 42.8627 162.419 45.1518 160.812 47.1641C159.205 49.1765 157.253 50.8744 154.955 52.2579C152.657 53.6413 150.122 54.6978 147.348 55.4273C144.581 56.1316 141.687 56.4838 138.667 56.4838C136.297 56.4838 134.008 56.1819 131.8 55.5782C129.599 54.9494 127.693 53.9935 126.084 52.7106C124.481 51.4026 123.35 49.7424 122.692 47.7301C122.066 45.6926 122.13 43.2652 122.885 40.4479H136.088C135.778 41.605 135.821 42.6615 136.216 43.6174C136.643 44.5481 137.343 45.2901 138.314 45.8435C139.286 46.3969 140.423 46.6736 141.725 46.6736C143.339 46.6736 144.784 46.3843 146.059 45.8058C147.367 45.2021 148.455 44.3971 149.323 43.391C150.192 42.3848 150.791 41.2654 151.121 40.0329C151.62 38.1714 151.692 36.6873 151.338 35.5805C151.009 34.4738 150.301 33.6688 149.211 33.1657C148.148 32.6626 146.77 32.4111 145.078 32.4111H138.671Z" fill="url(#paint0_linear_5_2314)"/>
<defs>
<linearGradient id="paint0_linear_5_2314" x1="7.37634" y1="28.2003" x2="160.39" y2="69.2003" gradientUnits="userSpaceOnUse">
<stop stop-color="#2C6FFF"/>
<stop offset="0.5" stop-color="#372CFF"/>
<stop offset="1" stop-color="#2CA7FF"/>
</linearGradient>
</defs>
</svg>
