<svg width="163" height="56" viewBox="0 0 163 56" fill="none" xmlns="http://www.w3.org/2000/svg">
<path d="M13.946 45.6175H6.87565L8.24557 40.5049H15.3159C16.2794 40.5049 17.1028 40.3477 17.786 40.0332C18.4692 39.7188 19.0217 39.2849 19.4434 38.7315C19.8815 38.1655 20.1949 37.5304 20.3836 36.8261C20.5859 36.0714 20.6297 35.3734 20.5151 34.732C20.4135 34.0905 20.1155 33.5749 19.621 33.185C19.1299 32.7825 18.4025 32.5813 17.439 32.5813H12.9468L6.95657 54.9372H0.101105L7.46127 27.4687H18.8089C21.0876 27.4687 22.9394 27.8711 24.3643 28.6761C25.8023 29.481 26.7752 30.5878 27.2832 31.9964C27.7946 33.3925 27.8093 34.9898 27.3274 36.7883C26.8522 38.5617 25.995 40.1087 24.7557 41.4293C23.5164 42.7499 21.9705 43.7812 20.1181 44.5233C18.282 45.2528 16.2246 45.6175 13.946 45.6175ZM54.045 40.6558L53.7467 41.7689C53.1839 43.8693 52.3724 45.7558 51.3122 47.4286C50.2684 49.0888 49.0348 50.51 47.6112 51.6923C46.191 52.8619 44.6415 53.7612 42.9625 54.3901C41.287 55.0063 39.5378 55.3145 37.7148 55.3145C35.8789 55.3145 34.2818 55.0063 32.9235 54.3901C31.5816 53.7612 30.5074 52.8619 29.701 51.6923C28.9111 50.51 28.4325 49.0888 28.2654 47.4286C28.1146 45.7558 28.3206 43.8693 28.8834 41.7689L29.1817 40.6558C29.7445 38.5554 30.5495 36.6688 31.5966 34.9961C32.6568 33.3233 33.8905 31.9021 35.2977 30.7324C36.7212 29.5502 38.2708 28.6509 39.9463 28.0346C41.6383 27.4058 43.4022 27.0913 45.2382 27.0913C47.0611 27.0913 48.6435 27.4058 49.9854 28.0346C51.3437 28.6509 52.4179 29.5502 53.2078 30.7324C54.0012 31.9021 54.4798 33.3233 54.6435 34.9961C54.8073 36.6688 54.6078 38.5554 54.045 40.6558ZM46.7936 41.7689L47.102 40.6181C47.4659 39.2597 47.6624 38.0649 47.6913 37.0336C47.7367 35.9897 47.6193 35.1156 47.3393 34.4112C47.0593 33.7069 46.6214 33.1787 46.0256 32.8265C45.4463 32.4618 44.7204 32.2794 43.848 32.2794C42.9366 32.2794 42.0934 32.4618 41.3186 32.8265C40.5472 33.1787 39.8392 33.7069 39.1948 34.4112C38.5503 35.1156 37.971 35.9897 37.4569 37.0336C36.9593 38.0649 36.5284 39.2597 36.1645 40.6181L35.8561 41.7689C35.4955 43.1146 35.286 44.3095 35.2277 45.3534C35.1857 46.3847 35.2965 47.2588 35.5602 47.9757C35.8368 48.6926 36.2648 49.2334 36.8442 49.5982C37.4366 49.9629 38.1885 50.1453 39.0999 50.1453C39.9723 50.1453 40.7959 49.9629 41.5707 49.5982C42.3456 49.2334 43.0569 48.6926 43.7047 47.9757C44.3655 47.2588 44.9513 46.3847 45.462 45.3534C45.9892 44.3095 46.433 43.1146 46.7936 41.7689ZM68.4183 27.4687L61.0581 54.9372H54.2222L61.5824 27.4687H68.4183ZM96.9925 27.4687L89.6324 54.9372H82.7964L77.3177 37.8448L72.7378 54.9372H65.8824L73.2425 27.4687H80.098L85.5767 44.561L90.1566 27.4687H96.9925ZM114.512 27.4687L107.152 54.9372H100.296L107.657 27.4687H114.512ZM123.067 27.4687L121.697 32.5813H97.9273L99.2972 27.4687H123.067ZM162.225 0.000135258L147.505 54.9372H134.341L145.219 14.3381L131.27 17.998L133.858 8.33879L161.014 0.000135258H162.225Z" fill="url(#paint0_linear_5_663)"/>
<defs>
<linearGradient id="paint0_linear_5_663" x1="5.30948" y1="27.4083" x2="158.324" y2="68.4083" gradientUnits="userSpaceOnUse">
<stop stop-color="#2C6FFF"/>
<stop offset="0.5" stop-color="#372CFF"/>
<stop offset="1" stop-color="#2CA7FF"/>
</linearGradient>
</defs>
</svg>
