<svg width="160" height="53" viewBox="0 0 160 53" fill="none" xmlns="http://www.w3.org/2000/svg">
<g filter="url(#filter0_d_5_3166)">
<rect width="143" height="50" transform="matrix(1 0 -0.258819 0.965926 12.941 0)" fill="url(#paint0_linear_5_3166)"/>
<path d="M31.792 27.9781C31.8607 27.7215 31.8833 27.4914 31.8598 27.2876C31.8383 27.0763 31.7463 26.8801 31.5839 26.699C31.4215 26.5179 31.1654 26.3368 30.8155 26.1557C30.4754 25.967 30.0123 25.7708 29.4263 25.5671C28.741 25.3256 28.0911 25.0539 27.4767 24.7521C26.8643 24.4427 26.3393 24.0842 25.9016 23.6767C25.4659 23.2617 25.1617 22.7787 24.989 22.2278C24.8183 21.6694 24.8321 21.0204 25.0302 20.2809C25.2203 19.5715 25.5552 18.9339 26.035 18.3679C26.5168 17.7944 27.1043 17.3076 27.7974 16.9077C28.5003 16.5002 29.2785 16.1908 30.132 15.9795C30.9875 15.7607 31.8879 15.6512 32.8332 15.6512C34.0832 15.6512 35.1282 15.8625 35.9681 16.2851C36.8178 16.7002 37.4091 17.2925 37.7419 18.0623C38.0845 18.8244 38.1164 19.7262 37.8373 20.7676H33.7475C33.8587 20.3526 33.8669 19.9866 33.7721 19.6696C33.6852 19.3527 33.4902 19.1037 33.1872 18.9225C32.8841 18.7414 32.467 18.6509 31.9357 18.6509C31.4201 18.6509 30.9663 18.7263 30.5743 18.8773C30.1823 19.0282 29.8621 19.2319 29.6136 19.4885C29.3672 19.7375 29.2036 20.013 29.1227 20.3148C29.056 20.5639 29.0656 20.7903 29.1517 20.994C29.2475 21.1902 29.405 21.3751 29.6241 21.5487C29.8511 21.7222 30.1347 21.8882 30.475 22.0467C30.8232 22.2052 31.2193 22.3599 31.6632 22.5108C32.4946 22.79 33.2154 23.1032 33.8255 23.4503C34.4455 23.7899 34.939 24.1785 35.3061 24.6162C35.683 25.0464 35.9227 25.5369 36.0251 26.0878C36.1353 26.6386 36.0974 27.2612 35.9113 27.9555C35.7132 28.695 35.3888 29.3515 34.9383 29.925C34.4877 30.4986 33.9315 30.9853 33.2697 31.3853C32.6098 31.7777 31.8659 32.0757 31.0379 32.2795C30.2098 32.4832 29.3193 32.5851 28.3661 32.5851C27.4911 32.5851 26.6562 32.4795 25.8612 32.2682C25.0761 32.0493 24.3995 31.7173 23.8313 31.2721C23.2651 30.8193 22.869 30.242 22.643 29.5402C22.4268 28.8308 22.4491 27.9894 22.71 27.0159H26.835C26.7055 27.4989 26.6628 27.9064 26.7066 28.2384C26.7504 28.5705 26.874 28.8384 27.0772 29.0421C27.2824 29.2383 27.5604 29.3817 27.9112 29.4723C28.2639 29.5553 28.6825 29.5968 29.1669 29.5968C29.6903 29.5968 30.1314 29.5251 30.4901 29.3817C30.8509 29.2308 31.1378 29.0346 31.351 28.7931C31.5661 28.5441 31.7131 28.2724 31.792 27.9781ZM48.051 26.7782H52.1526C51.7905 27.9253 51.1993 28.9365 50.3788 29.8119C49.5583 30.6872 48.5628 31.3702 47.3923 31.8607C46.2316 32.3436 44.9482 32.5851 43.5419 32.5851C42.4013 32.5851 41.4313 32.4002 40.6319 32.0305C39.8404 31.6607 39.2251 31.1287 38.7862 30.4344C38.355 29.7402 38.1078 28.8988 38.0446 27.9102C37.9891 26.9216 38.1272 25.8085 38.4588 24.571L38.6984 23.6767C39.0301 22.4391 39.4963 21.326 40.0971 20.3375C40.7078 19.3414 41.4186 18.4962 42.2296 17.8019C43.0505 17.1001 43.9519 16.5643 44.9338 16.1946C45.9156 15.8248 46.9457 15.6399 48.0238 15.6399C49.5082 15.6399 50.6933 15.8965 51.5793 16.4096C52.4652 16.9228 53.0691 17.6284 53.391 18.5264C53.7149 19.4168 53.7749 20.4318 53.5712 21.5713H49.4696C49.6198 20.9525 49.6489 20.4356 49.557 20.0205C49.4671 19.5979 49.2317 19.281 48.8509 19.0697C48.47 18.8584 47.9163 18.7528 47.1897 18.7528C46.6819 18.7528 46.2162 18.8433 45.7927 19.0244C45.3692 19.2055 44.9798 19.4923 44.6247 19.8847C44.2695 20.2771 43.9455 20.7865 43.6527 21.4128C43.3697 22.0316 43.1109 22.7787 42.8764 23.6541L42.6307 24.571C42.3962 25.4463 42.2507 26.1934 42.1942 26.8122C42.1378 27.431 42.1781 27.9366 42.3152 28.329C42.4522 28.7214 42.6868 29.0119 43.0191 29.2006C43.3612 29.3817 43.8135 29.4723 44.376 29.4723C45.001 29.4723 45.5536 29.3779 46.0339 29.1893C46.5161 28.9931 46.927 28.6988 47.2665 28.3064C47.6081 27.9064 47.8696 27.397 48.051 26.7782ZM65.1637 29.3025L64.3448 32.3587H55.251L56.0699 29.3025H65.1637ZM61.132 15.8776L56.7159 32.3587H52.6026L57.0187 15.8776H61.132ZM65.8359 22.4203L65.0443 25.3746H57.1224L57.914 22.4203H65.8359ZM68.796 15.8776L67.9741 18.9452H58.8452L59.6671 15.8776H68.796ZM84.6984 15.8776L80.2823 32.3587H76.1807L72.8935 22.1033L70.1455 32.3587H66.0323L70.4484 15.8776H74.5616L77.8489 26.133L80.5968 15.8776H84.6984ZM95.4449 29.3025L94.626 32.3587H85.5323L86.3512 29.3025H95.4449ZM91.4132 15.8776L86.9971 32.3587H82.8838L87.2999 15.8776H91.4132ZM96.1171 22.4203L95.3255 25.3746H87.4036L88.1953 22.4203H96.1171ZM99.0773 15.8776L98.2553 18.9452H89.1264L89.9484 15.8776H99.0773Z" fill="white"/>
<path d="M128.648 34.6829L127.071 40.569H103.258L104.593 35.5885L118.546 24.4501C119.802 23.3786 120.84 22.4202 121.66 21.575C122.484 20.7147 123.122 19.9374 123.574 19.2432C124.041 18.5489 124.35 17.9226 124.499 17.3642C124.754 16.4133 124.818 15.621 124.691 14.9871C124.584 14.3381 124.293 13.8476 123.82 13.5155C123.362 13.1835 122.726 13.0175 121.914 13.0175C121.101 13.0175 120.33 13.2439 119.599 13.6967C118.868 14.1494 118.226 14.7682 117.672 15.553C117.134 16.3379 116.733 17.2208 116.47 18.2018H108.548C109.09 16.1794 110.093 14.3305 111.558 12.6553C113.038 10.98 114.826 9.6443 116.921 8.64819C119.02 7.63698 121.272 7.13138 123.679 7.13138C126.194 7.13138 128.202 7.5087 129.703 8.26333C131.204 9.01796 132.192 10.1122 132.668 11.546C133.162 12.9647 133.141 14.6777 132.603 16.685C132.296 17.832 131.813 18.9338 131.155 19.9903C130.497 21.0468 129.677 22.0957 128.695 23.1371C127.716 24.1634 126.574 25.2199 125.267 26.3065C123.976 27.3932 122.526 28.5478 120.917 29.7703L115.195 34.6829H128.648Z" fill="white"/>
</g>
<defs>
<filter id="filter0_d_5_3166" x="0" y="0" width="159.941" height="52.2964" filterUnits="userSpaceOnUse" color-interpolation-filters="sRGB">
<feFlood flood-opacity="0" result="BackgroundImageFix"/>
<feColorMatrix in="SourceAlpha" type="matrix" values="0 0 0 0 0 0 0 0 0 0 0 0 0 0 0 0 0 0 127 0" result="hardAlpha"/>
<feOffset dx="4" dy="4"/>
<feComposite in2="hardAlpha" operator="out"/>
<feColorMatrix type="matrix" values="0 0 0 0 0.172549 0 0 0 0 0.435294 0 0 0 0 1 0 0 0 0.4 0"/>
<feBlend mode="normal" in2="BackgroundImageFix" result="effect1_dropShadow_5_3166"/>
<feBlend mode="normal" in="SourceGraphic" in2="effect1_dropShadow_5_3166" result="shape"/>
</filter>
<linearGradient id="paint0_linear_5_3166" x1="0" y1="25" x2="143" y2="25" gradientUnits="userSpaceOnUse">
<stop stop-color="#2C6FFF"/>
<stop offset="0.5" stop-color="#372CFF"/>
<stop offset="1" stop-color="#2CA7FF"/>
</linearGradient>
</defs>
</svg>
