<svg width="160" height="53" viewBox="0 0 160 53" fill="none" xmlns="http://www.w3.org/2000/svg">
<g filter="url(#filter0_d_5_3153)">
<rect width="143" height="50" transform="matrix(1 0 -0.258819 0.965926 12.941 0)" fill="url(#paint0_linear_5_3153)"/>
<path d="M31.792 27.9781C31.8607 27.7215 31.8833 27.4914 31.8598 27.2876C31.8383 27.0763 31.7463 26.8801 31.5839 26.699C31.4215 26.5179 31.1653 26.3368 30.8154 26.1557C30.4754 25.967 30.0123 25.7708 29.4263 25.5671C28.741 25.3256 28.0911 25.0539 27.4767 24.7521C26.8643 24.4427 26.3392 24.0842 25.9015 23.6767C25.4659 23.2617 25.1617 22.7787 24.989 22.2278C24.8183 21.6694 24.832 21.0204 25.0302 20.2809C25.2203 19.5715 25.5552 18.9339 26.035 18.3679C26.5168 17.7944 27.1042 17.3076 27.7973 16.9077C28.5003 16.5002 29.2785 16.1908 30.132 15.9795C30.9875 15.7607 31.8879 15.6512 32.8332 15.6512C34.0832 15.6512 35.1282 15.8625 35.9681 16.2851C36.8178 16.7002 37.4091 17.2925 37.7419 18.0623C38.0845 18.8244 38.1163 19.7262 37.8373 20.7676H33.7474C33.8587 20.3526 33.8669 19.9866 33.7721 19.6696C33.6852 19.3527 33.4902 19.1037 33.1871 18.9225C32.8841 18.7414 32.467 18.6509 31.9357 18.6509C31.4201 18.6509 30.9663 18.7263 30.5743 18.8773C30.1823 19.0282 29.862 19.2319 29.6136 19.4885C29.3672 19.7375 29.2036 20.013 29.1227 20.3148C29.0559 20.5639 29.0656 20.7903 29.1516 20.994C29.2475 21.1902 29.405 21.3751 29.6241 21.5487C29.851 21.7222 30.1347 21.8882 30.475 22.0467C30.8232 22.2052 31.2192 22.3599 31.6632 22.5108C32.4946 22.79 33.2154 23.1032 33.8255 23.4503C34.4454 23.7899 34.939 24.1785 35.3061 24.6162C35.683 25.0464 35.9226 25.5369 36.025 26.0878C36.1352 26.6386 36.0973 27.2612 35.9113 27.9555C35.7132 28.695 35.3888 29.3515 34.9382 29.925C34.4877 30.4986 33.9315 30.9853 33.2696 31.3853C32.6098 31.7777 31.8659 32.0757 31.0378 32.2795C30.2098 32.4832 29.3192 32.5851 28.3661 32.5851C27.4911 32.5851 26.6561 32.4795 25.8612 32.2682C25.0761 32.0493 24.3994 31.7173 23.8312 31.2721C23.265 30.8193 22.8689 30.242 22.6429 29.5402C22.4268 28.8308 22.4491 27.9894 22.7099 27.0159H26.8349C26.7055 27.4989 26.6627 27.9064 26.7066 28.2384C26.7504 28.5705 26.874 28.8384 27.0772 29.0421C27.2824 29.2383 27.5604 29.3817 27.9111 29.4723C28.2639 29.5553 28.6825 29.5968 29.1668 29.5968C29.6903 29.5968 30.1314 29.5251 30.4901 29.3817C30.8508 29.2308 31.1378 29.0346 31.3509 28.7931C31.5661 28.5441 31.7131 28.2724 31.792 27.9781ZM48.051 26.7782H52.1525C51.7905 27.9253 51.1992 28.9365 50.3787 29.8119C49.5582 30.6872 48.5627 31.3702 47.3923 31.8607C46.2316 32.3436 44.9481 32.5851 43.5419 32.5851C42.4013 32.5851 41.4313 32.4002 40.6319 32.0305C39.8404 31.6607 39.2251 31.1287 38.7861 30.4344C38.355 29.7402 38.1078 28.8988 38.0445 27.9102C37.9891 26.9216 38.1272 25.8085 38.4588 24.571L38.6984 23.6767C39.03 22.4391 39.4963 21.326 40.0971 20.3375C40.7077 19.3414 41.4186 18.4962 42.2296 17.8019C43.0505 17.1001 43.9518 16.5643 44.9337 16.1946C45.9156 15.8248 46.9456 15.6399 48.0238 15.6399C49.5081 15.6399 50.6933 15.8965 51.5792 16.4096C52.4652 16.9228 53.0691 17.6284 53.391 18.5264C53.7149 19.4168 53.7749 20.4318 53.5712 21.5713H49.4696C49.6198 20.9525 49.6489 20.4356 49.557 20.0205C49.4671 19.5979 49.2317 19.281 48.8508 19.0697C48.47 18.8584 47.9162 18.7528 47.1897 18.7528C46.6819 18.7528 46.2162 18.8433 45.7927 19.0244C45.3691 19.2055 44.9798 19.4923 44.6246 19.8847C44.2695 20.2771 43.9455 20.7865 43.6527 21.4128C43.3697 22.0316 43.1109 22.7787 42.8764 23.6541L42.6307 24.571C42.3961 25.4463 42.2506 26.1934 42.1942 26.8122C42.1378 27.431 42.1781 27.9366 42.3151 28.329C42.4522 28.7214 42.6868 29.0119 43.0191 29.2006C43.3612 29.3817 43.8135 29.4723 44.376 29.4723C45.001 29.4723 45.5536 29.3779 46.0338 29.1893C46.5161 28.9931 46.927 28.6988 47.2665 28.3064C47.608 27.9064 47.8695 27.397 48.051 26.7782ZM65.1637 29.3025L64.3447 32.3587H55.251L56.0699 29.3025H65.1637ZM61.1319 15.8776L56.7158 32.3587H52.6026L57.0187 15.8776H61.1319ZM65.8359 22.4203L65.0442 25.3746H57.1224L57.914 22.4203H65.8359ZM68.796 15.8776L67.974 18.9452H58.8451L59.6671 15.8776H68.796ZM84.6983 15.8776L80.2822 32.3587H76.1807L72.8935 22.1033L70.1455 32.3587H66.0322L70.4483 15.8776H74.5616L77.8488 26.133L80.5968 15.8776H84.6983ZM95.4449 29.3025L94.626 32.3587H85.5322L86.3512 29.3025H95.4449ZM91.4132 15.8776L86.9971 32.3587H82.8838L87.2999 15.8776H91.4132ZM96.1171 22.4203L95.3255 25.3746H87.4036L88.1952 22.4203H96.1171ZM99.0772 15.8776L98.2553 18.9452H89.1264L89.9483 15.8776H99.0772Z" fill="white"/>
<path d="M129.575 7.6068L120.742 40.569H112.844L119.371 16.2096L111.001 18.4055L112.554 12.61L128.848 7.6068H129.575Z" fill="white"/>
</g>
<defs>
<filter id="filter0_d_5_3153" x="3.69549e-06" y="0" width="159.941" height="52.2964" filterUnits="userSpaceOnUse" color-interpolation-filters="sRGB">
<feFlood flood-opacity="0" result="BackgroundImageFix"/>
<feColorMatrix in="SourceAlpha" type="matrix" values="0 0 0 0 0 0 0 0 0 0 0 0 0 0 0 0 0 0 127 0" result="hardAlpha"/>
<feOffset dx="4" dy="4"/>
<feComposite in2="hardAlpha" operator="out"/>
<feColorMatrix type="matrix" values="0 0 0 0 0.172549 0 0 0 0 0.435294 0 0 0 0 1 0 0 0 0.4 0"/>
<feBlend mode="normal" in2="BackgroundImageFix" result="effect1_dropShadow_5_3153"/>
<feBlend mode="normal" in="SourceGraphic" in2="effect1_dropShadow_5_3153" result="shape"/>
</filter>
<linearGradient id="paint0_linear_5_3153" x1="0" y1="25" x2="143" y2="25" gradientUnits="userSpaceOnUse">
<stop stop-color="#2C6FFF"/>
<stop offset="0.5" stop-color="#372CFF"/>
<stop offset="1" stop-color="#2CA7FF"/>
</linearGradient>
</defs>
</svg>
