<svg width="96" height="96" viewBox="0 0 96 96" fill="none" xmlns="http://www.w3.org/2000/svg">
<g clip-path="url(#clip0_368_533)">
<rect width="96" height="96" rx="48" fill="#E3F3FB"/>
<path d="M68.59 75.4102C61.904 72.8976 59.886 71.403 58.7271 70.0997C57.5719 68.7965 57.2181 67.1358 57.2181 62.9192V49.8037L47.8463 52.1106L38.4744 49.8037V62.9192C38.4744 67.1395 38.1206 68.8001 36.9654 70.0997C35.8102 71.3994 33.7885 72.894 27.1026 75.4102C20.4239 77.9228 40.3661 89.9373 40.3661 89.9373H55.3228C55.3228 89.9373 75.2614 77.9228 68.5863 75.4102H68.59Z" fill="white"/>
<path d="M55.3312 90.6564C55.0857 90.6564 54.8475 90.5336 54.7139 90.3062C54.5081 89.9632 54.6164 89.5192 54.9594 89.3134C60.6056 85.9091 69.4756 79.5373 69.2373 76.9235C69.2229 76.7791 69.1904 76.4001 68.342 76.0788C61.7933 73.6167 59.5478 72.0968 58.194 70.5734C56.898 69.1149 56.5009 67.3243 56.5009 62.9127V50.7178L48.0243 52.8044C47.9124 52.8333 47.7933 52.8333 47.6778 52.8044L39.2012 50.7178V62.9127C39.2012 67.3243 38.8077 69.1149 37.5081 70.5734C36.1543 72.0968 33.9124 73.6167 27.3601 76.0788C26.5117 76.3965 26.4756 76.7791 26.4648 76.9235C26.2265 79.5373 35.0965 85.9091 40.7428 89.3134C41.0857 89.5192 41.194 89.9632 40.9882 90.3062C40.7825 90.6492 40.3384 90.7575 39.9955 90.5517C37.4287 89.003 24.6345 81.0679 25.0243 76.7936C25.0821 76.1437 25.4503 75.2557 26.8511 74.7286C33.4937 72.2304 35.3781 70.7936 36.4251 69.6167C37.4431 68.4723 37.7536 66.9055 37.7536 62.9163V49.8008C37.7536 49.5806 37.8547 49.3676 38.0316 49.234C38.2049 49.0968 38.4359 49.0499 38.6489 49.1004L47.8475 51.364L57.046 49.1004C57.2626 49.0463 57.4901 49.0968 57.6633 49.234C57.8366 49.3712 57.9413 49.5806 57.9413 49.8008V62.9163C57.9413 66.9055 58.2518 68.4723 59.2698 69.6167C60.3168 70.7972 62.2049 72.234 68.8438 74.7286C70.2446 75.2557 70.6092 76.1401 70.6706 76.7936C71.0605 81.0643 58.2698 89.003 55.6994 90.5517C55.5839 90.6203 55.454 90.6564 55.3276 90.6564H55.3312Z" fill="#111111"/>
<path d="M71.5536 76.0932L67.3153 74.4073C65.864 73.8116 61.4128 71.6961 61.4128 71.6961C61.4128 71.6961 60.7269 68.4506 59.4994 68.2087C58.9471 68.1004 57.9687 69.0354 55.4236 70.4361C53.0301 71.7538 50.5391 72.4181 50.2214 72.7394C49.6438 73.3278 49.7594 75.8296 49.7594 75.8296L47.8604 78.0029L45.9615 75.8296C45.9615 75.8296 46.0121 73.3856 45.4994 72.7394C44.7882 71.8405 43.0482 71.6925 40.2936 70.4361C38.2575 69.5047 36.7702 68.1004 36.2178 68.2087C34.9904 68.4506 34.3045 71.6961 34.3045 71.6961C34.3045 71.6961 29.8424 73.8116 28.3911 74.4073L24.1529 76.0932C20.8279 77.3387 18.4092 77.6383 16.485 80.9668C14.8857 83.7322 13.7305 101.552 13.7305 101.552H81.9832C81.9832 101.552 80.8279 83.7322 79.2287 80.9668C77.3045 77.6383 74.8857 77.3387 71.5608 76.0932H71.5536Z" fill="#FFDB43"/>
<path d="M81.9712 95.2766C81.6066 95.2766 81.2925 95.0023 81.2528 94.6304C80.9351 91.6629 79.8412 83.4896 78.5921 81.3308C77.1228 78.7893 75.3503 78.1828 72.899 77.3416C72.3864 77.1647 71.8557 76.9842 71.2925 76.7712L67.0398 75.0781C65.5813 74.4788 61.2744 72.4355 61.0939 72.3488C60.8918 72.2514 60.7438 72.0673 60.6968 71.847C60.408 70.486 59.7726 69.0781 59.3864 68.9301C59.1914 68.9842 58.6896 69.3019 58.2022 69.6124C57.6174 69.9842 56.816 70.4933 55.7618 71.0709C54.3142 71.8687 52.8737 72.4174 51.8196 72.8182C51.3755 72.9878 50.8773 73.1756 50.7113 73.2694C50.538 73.551 50.4189 74.7351 50.4694 75.8001C50.4766 75.9878 50.4152 76.1683 50.2925 76.3091L48.3936 78.4824C48.1192 78.7965 47.5813 78.7965 47.3069 78.4824L45.408 76.3091C45.2889 76.1756 45.2275 75.9987 45.2311 75.8182C45.2528 74.6918 45.1084 73.4391 44.9243 73.19C44.6355 72.8254 43.9134 72.5763 42.917 72.2333C42.1264 71.9626 41.1445 71.6232 39.9856 71.0925C38.9604 70.6232 38.0867 70.0528 37.3828 69.5943C36.9856 69.3344 36.5055 69.0203 36.2889 68.9409C35.9026 69.1395 35.2853 70.5149 35.0037 71.847C34.9568 72.0673 34.8087 72.255 34.6066 72.3488C34.4225 72.4355 30.1084 74.4788 28.6571 75.0745L24.4116 76.764C23.834 76.9806 23.3069 77.1611 22.7943 77.338C20.343 78.1792 18.5705 78.7857 17.1012 81.3272C15.8521 83.486 14.7582 91.6593 14.4405 94.6268C14.3972 95.0239 14.0434 95.3091 13.6463 95.2694C13.2492 95.2261 12.964 94.8723 13.0037 94.4752C13.0506 94.0275 14.1914 83.4716 15.8521 80.6052C17.5921 77.5943 19.7871 76.8434 22.325 75.9734C22.8232 75.8037 23.3467 75.6232 23.8918 75.4174L28.1192 73.7351C29.3069 73.2478 32.6318 71.6846 33.6716 71.1936C33.9423 70.0781 34.6716 67.7748 36.0723 67.5005C36.6499 67.3886 37.2239 67.764 38.1734 68.3849C38.834 68.8182 39.6607 69.3561 40.5885 69.7785C41.6824 70.2766 42.6282 70.6052 43.39 70.8651C44.6174 71.2875 45.5055 71.5943 46.0578 72.2911C46.603 72.9806 46.6824 74.6449 46.6788 75.5655L47.8521 76.9084L49.0181 75.5727C48.9929 74.616 49.0506 72.894 49.6968 72.2333C49.9279 71.9987 50.2925 71.8507 51.3069 71.4644C52.3214 71.0781 53.7077 70.551 55.0687 69.8001C56.0831 69.2405 56.8304 68.7676 57.4297 68.3849C58.455 67.7351 59.0217 67.3741 59.6319 67.4933C61.0326 67.7676 61.7618 70.0709 62.0326 71.1864C63.0723 71.6774 66.3936 73.2405 67.5849 73.7315L71.816 75.4138C72.3503 75.6124 72.8701 75.7929 73.3683 75.9626C75.9098 76.8326 78.1012 77.5871 79.8412 80.5943C81.4983 83.4608 82.6391 94.0167 82.6896 94.4644C82.7329 94.8615 82.4441 95.2153 82.047 95.2586C82.0217 95.2586 81.9965 95.2622 81.9712 95.2622V95.2766Z" fill="#111111"/>
<path d="M22.3363 94.1944C21.9681 94.1944 21.654 93.9165 21.6179 93.541L20.5349 82.3316C20.4952 81.9345 20.7876 81.5807 21.1847 81.5446C21.5818 81.5049 21.9356 81.7973 21.9717 82.1944L23.0547 93.4038C23.0944 93.8009 22.802 94.1547 22.4049 94.1908C22.3796 94.1908 22.358 94.1908 22.3363 94.1908V94.1944Z" fill="#CCCCCC"/>
<path d="M73.3621 94.1942C73.3404 94.1942 73.3151 94.1942 73.2935 94.1942C72.8964 94.1545 72.6076 93.8043 72.6437 93.4072L73.7267 82.1978C73.7664 81.8007 74.1202 81.5119 74.5137 81.548C74.9108 81.5877 75.1996 81.9379 75.1635 82.335L74.0805 93.5444C74.0444 93.9162 73.7303 94.1978 73.3621 94.1978V94.1942Z" fill="#CCCCCC"/>
<path d="M53.4712 76.793C53.1824 76.793 52.9116 76.6197 52.7997 76.3345C52.6553 75.9627 52.8358 75.5439 53.2077 75.3995C56.612 74.0565 58.9008 72.4175 58.9261 72.3995C59.251 72.1648 59.7022 72.237 59.9333 72.5619C60.1679 72.8869 60.0957 73.3381 59.7708 73.5692C59.6734 73.6414 57.3087 75.3345 53.7383 76.7425C53.6517 76.7749 53.5614 76.793 53.4748 76.793H53.4712Z" fill="#111111"/>
<path d="M40.2893 75.8904C40.2063 75.8904 40.1233 75.8759 40.0402 75.8471C35.9861 74.3561 33.8778 72.2983 33.7911 72.2117C33.5095 71.9301 33.5059 71.4752 33.7875 71.19C34.0691 70.9084 34.524 70.9048 34.8092 71.1828C34.8272 71.2009 36.8056 73.1178 40.542 74.4897C40.9175 74.6269 41.1088 75.042 40.9716 75.4175C40.8633 75.7099 40.589 75.8904 40.2929 75.8904H40.2893Z" fill="#111111"/>
<path d="M46.9695 94.0281C46.576 94.0281 46.2547 93.7104 46.2475 93.3169L46.0742 80.1906C46.0742 79.9451 46.1934 79.7104 46.3991 79.5768L47.0128 79.1761C47.345 78.9595 47.7926 79.0498 48.0128 79.3855C48.2295 79.7176 48.1392 80.1653 47.8035 80.3855L47.5219 80.5696L47.6915 93.3025C47.6952 93.6996 47.3775 94.0281 46.9804 94.0353C46.9804 94.0353 46.9731 94.0353 46.9695 94.0353V94.0281Z" fill="#CCCCCC"/>
<path d="M58.0482 18.19C53.9074 16.2911 51.3514 17.9807 51.3514 17.9807C51.3514 17.9807 49.1023 16.1251 44.4597 16.9229C40.124 17.6666 34.5752 21.2478 31.8532 28.8796C28.2467 38.9915 31.3911 44.5005 31.3911 44.5005L65.698 47.8218C65.698 47.8218 69.1745 42.7171 68.3153 33.8651C67.1456 23.5799 61.8677 19.9482 58.0446 18.1973L58.0482 18.19Z" fill="white"/>
<path d="M65.6996 48.5375C65.5588 48.5375 65.418 48.4978 65.2952 48.4112C64.9667 48.1874 64.8801 47.7361 65.1039 47.4076C65.1364 47.3607 68.4216 42.3823 67.6021 33.9274C66.4649 23.9347 61.4324 20.5339 57.7465 18.8444C54.0136 17.1332 51.7718 18.5664 51.7465 18.5809C51.483 18.7542 51.1328 18.7361 50.8909 18.5339C50.8115 18.469 48.7934 16.9058 44.5804 17.6278C40.4866 18.3282 35.1725 21.7144 32.5335 29.1152C29.0786 38.8047 31.9884 44.0827 32.0209 44.1332C32.2194 44.4798 32.1003 44.9202 31.7537 45.1188C31.4071 45.3173 30.9667 45.1946 30.7682 44.8516C30.6346 44.6134 27.4974 38.9383 31.1761 28.6314C34.0245 20.6495 39.844 16.978 44.3385 16.209C48.1653 15.552 50.501 16.6061 51.3963 17.1404C52.3638 16.6964 54.8548 15.931 58.3494 17.5339C64.6237 20.4076 68.1219 25.7217 69.0389 33.7758C69.9126 42.7975 66.4468 48.0033 66.2988 48.2199C66.158 48.4256 65.9306 48.5339 65.7032 48.5339L65.6996 48.5375Z" fill="#111111"/>
<path d="M64.5706 42.3855C64.5706 42.3855 62.1771 42.7934 61.549 33.4252C61.1519 27.4974 57.2024 24.4577 57.2024 24.4577L43.8414 23.1797C43.8414 23.1797 40.9064 23.9703 38.0147 29.4107C35.3829 34.3602 35.8955 39.8728 34.0977 39.7176C33.8306 39.6959 33.6067 39.6057 33.4154 39.4685C31.8775 39.075 30.0724 39.8042 29.7692 44.0967C29.4587 48.4793 31.8883 51.0533 33.8089 51.4685C33.9316 52.3205 34.1049 53.158 34.3504 53.9125C35.9641 58.6598 41.0002 64.0569 45.2963 65.6346C45.2963 65.6346 46.0652 65.9125 47.1483 66.0064C48.2349 66.1003 49.0363 65.9631 49.0363 65.9631C53.5418 65.1544 59.4371 60.714 61.8522 56.3205C62.2277 55.6201 62.5454 54.8259 62.8125 54.0064C64.7764 53.9342 67.6176 51.8187 68.0724 47.4504C68.5851 42.5154 66.3107 41.8981 64.567 42.3891L64.5706 42.3855Z" fill="white"/>
<path d="M47.9147 66.7615C47.6656 66.7615 47.384 66.7506 47.0879 66.7254C45.9219 66.6243 45.0879 66.3282 45.0518 66.3138C40.5609 64.664 35.3479 59.0936 33.6656 54.1441C33.4598 53.5196 33.2937 52.812 33.1638 52.0322C30.8641 51.2308 28.7414 48.3066 29.0446 44.043C29.2179 41.6351 29.8677 40.0033 30.9869 39.2019C31.7233 38.6712 32.6222 38.5232 33.5898 38.7687C33.6764 38.7903 33.7594 38.8301 33.8316 38.8806C33.9291 38.9492 34.0302 38.9889 34.1565 38.9997C34.4959 38.8481 34.8352 37.256 35.088 36.0936C35.4995 34.173 36.0663 31.5412 37.3768 29.0719C40.3804 23.4185 43.5212 22.5196 43.6511 22.4835C44.0374 22.3788 44.4309 22.6062 44.5356 22.9925C44.6403 23.3752 44.4129 23.7687 44.0338 23.877C43.976 23.895 41.3082 24.7506 38.6511 29.7506C37.4345 32.0394 36.9147 34.4546 36.4995 36.3968C35.9977 38.729 35.6042 40.5737 34.0338 40.4366C34.0266 40.4366 34.023 40.4366 34.0157 40.4366C33.6908 40.4041 33.3912 40.3066 33.1241 40.1405C32.6222 40.0358 32.189 40.1153 31.8316 40.3716C31.3154 40.7434 30.662 41.7037 30.4851 44.1441C30.1999 48.1297 32.3443 50.4113 33.958 50.7578C34.254 50.8228 34.4778 51.0611 34.5212 51.3607C34.6475 52.2416 34.8208 53.025 35.0338 53.682C36.5681 58.1875 41.4778 63.4582 45.5428 64.9528C45.5428 64.9528 46.2432 65.1983 47.2107 65.2813C48.1782 65.3643 48.9074 65.2452 48.9147 65.2452C53.171 64.4799 58.9219 60.1441 61.2179 55.9672C61.5392 55.3643 61.8461 54.6243 62.1241 53.7759C62.2179 53.4871 62.4814 53.2885 62.7847 53.2777C64.4345 53.2163 66.9399 51.3427 67.3515 47.368C67.6186 44.7867 67.0771 43.7398 66.5717 43.3138C65.9905 42.8264 65.189 42.9564 64.7594 43.0755C64.7089 43.09 64.662 43.0972 64.6114 43.1008C64.3695 43.1189 63.8966 43.0792 63.3587 42.6171C62.0049 41.4546 61.1493 38.3752 60.8208 33.469C60.4526 27.9636 56.7883 25.0539 56.7522 25.025C56.4381 24.7795 56.3804 24.3282 56.6222 24.0142C56.8641 23.7001 57.319 23.6387 57.6331 23.8842C57.8064 24.0178 61.8461 27.1947 62.2612 33.3752C62.745 40.6026 64.2612 41.5485 64.5031 41.6532C65.662 41.3607 66.7233 41.5593 67.4995 42.2127C68.6186 43.155 69.0518 44.942 68.7847 47.5196C68.3443 51.7723 65.745 54.2813 63.3407 54.6712C63.0771 55.4149 62.7883 56.0828 62.4851 56.6568C59.9652 61.2452 53.8641 65.8264 49.1602 66.6712C49.1277 66.6748 48.6367 66.7579 47.9074 66.7579L47.9147 66.7615Z" fill="#111111"/>
<path d="M64.8868 38.7576C64.8868 38.7576 61.486 36.0103 49.8615 34.9959C38.2369 33.9778 34.4102 36.0933 34.4102 36.0933C34.4102 36.0933 33.2369 18.3424 51.1792 19.9128C69.125 21.4832 64.8868 38.7612 64.8868 38.7612V38.7576Z" fill="white"/>
<path d="M41.9245 35.8477C41.5562 35.8477 41.2422 35.5698 41.2061 35.1943C40.5165 28.1546 45.1916 22.8694 45.3902 22.6456C45.6573 22.3495 46.1122 22.3243 46.4082 22.5914C46.7043 22.8586 46.7295 23.3134 46.4624 23.6095C46.3974 23.6817 42.0147 28.6744 42.6393 35.0499C42.679 35.447 42.3866 35.8008 41.9895 35.8405C41.9642 35.8405 41.9425 35.8405 41.9173 35.8405L41.9245 35.8477Z" fill="#A3A3A3"/>
<path d="M54.1984 36.2118C54.0648 36.2118 53.9313 36.1757 53.8121 36.0999C53.4764 35.8869 53.3753 35.4392 53.5919 35.1035C53.5955 35.0962 54.2923 33.941 54.3031 31.8038C54.3176 28.6558 52.8194 23.4031 52.8049 23.349C52.6966 22.9663 52.9168 22.5656 53.2995 22.4573C53.6822 22.349 54.0829 22.5692 54.1912 22.9518C54.2562 23.1757 55.7616 28.4573 55.7435 31.8147C55.7291 34.3995 54.8446 35.8219 54.8049 35.8833C54.6677 36.0999 54.4331 36.219 54.1948 36.219L54.1984 36.2118Z" fill="#A3A3A3"/>
<path d="M49.1126 35.8227C48.9609 35.8227 48.8093 35.7793 48.683 35.6855C48.553 35.5916 47.4122 34.6999 47.5277 31.9201C47.701 27.7721 49.7263 21.6277 49.8129 21.3678C49.9393 20.9887 50.3472 20.7829 50.7263 20.9093C51.1054 21.0357 51.3111 21.4436 51.1848 21.8227C51.1631 21.884 49.1378 28.0357 48.9718 31.9779C48.8887 33.9346 49.5422 34.5194 49.5494 34.523C49.8743 34.7541 49.9393 35.1945 49.7082 35.5194C49.5674 35.7144 49.3472 35.8154 49.1198 35.8154L49.1126 35.8227Z" fill="#A3A3A3"/>
<path d="M64.5318 43.1073C64.2971 43.1073 63.8531 43.0387 63.3657 42.6236C62.0083 41.4611 61.1527 38.3853 60.8242 33.4755C60.4524 27.9196 57.7845 25.0856 57.7556 25.0568C57.4812 24.7716 57.4885 24.3131 57.7737 24.0351C58.0589 23.7571 58.5137 23.7643 58.7917 24.0495C58.9181 24.1759 61.8531 27.2553 62.2646 33.3781C62.7737 40.9629 64.4163 41.6272 64.5318 41.6633C64.6184 41.6597 64.7087 41.6705 64.7917 41.6994C65.1708 41.8257 65.3765 42.2337 65.2502 42.6127C65.1527 42.9051 64.8892 43.0929 64.5968 43.1073C64.5751 43.1073 64.5534 43.1073 64.5282 43.1073H64.5318Z" fill="#111111"/>
<path d="M34.1931 40.4469C34.1389 40.4469 34.0884 40.4469 34.0306 40.4397C33.6335 40.4036 33.3411 40.0534 33.3736 39.6563C33.4097 39.2592 33.7562 38.9667 34.157 38.9992C34.4963 38.8476 34.8357 37.2555 35.0847 36.0967C35.4963 34.1761 36.0631 31.5407 37.3736 29.075C37.5613 28.7213 37.9981 28.5877 38.3483 28.7754C38.7021 28.9631 38.8357 29.4 38.6479 29.7501C37.4313 32.0389 36.9115 34.4541 36.4963 36.3963C36.0125 38.649 35.6263 40.4433 34.1894 40.4433L34.1931 40.4469Z" fill="#111111"/>
<path d="M64.5706 42.3858L64.3432 44.4039L63.6537 49.8587L62.8125 54.0031C64.7764 53.9309 67.6176 51.8154 68.0724 47.4472C68.5851 42.5122 66.3107 41.8948 64.567 42.3858H64.5706Z" fill="white"/>
<path d="M62.8134 54.7245C62.6004 54.7245 62.4019 54.6306 62.2611 54.4682C62.1167 54.2985 62.0589 54.0747 62.1058 53.8581L62.947 49.7137C63.0264 49.3238 63.4091 49.0711 63.799 49.1505C64.1889 49.2299 64.4416 49.6126 64.3621 50.0025L63.7376 53.0711C65.2647 52.479 67.0156 50.6342 67.3549 47.3707C67.6221 44.7895 67.0806 43.7426 66.5751 43.3166C66.1672 42.9736 65.6473 42.9339 65.2286 42.9844L65.0625 44.4826C65.0192 44.8797 64.6618 45.1649 64.2647 45.1216C63.8676 45.0783 63.5824 44.7209 63.6257 44.3238L63.8531 42.3057C63.8856 42.0133 64.0914 41.7714 64.3766 41.692C65.5896 41.349 66.7015 41.5368 67.5102 42.2155C68.6293 43.1577 69.0625 44.9447 68.7954 47.5223C68.3224 52.0783 65.3766 54.6342 62.8423 54.7281C62.8351 54.7281 62.8242 54.7281 62.817 54.7281L62.8134 54.7245Z" fill="#111111"/>
<path d="M65.9592 55.3355C65.8545 56.5268 64.804 57.4077 63.6127 57.303C62.4213 57.1983 61.5405 56.1478 61.6452 54.9564C61.7499 53.7651 62.8004 52.8842 63.9917 52.9889C65.1831 53.0936 66.0639 54.1441 65.9592 55.3355Z" fill="#FFDB43"/>
<path d="M63.8055 58.036C63.7189 58.036 63.6322 58.0324 63.5456 58.0252C61.9607 57.8844 60.7838 56.48 60.921 54.8952C61.0618 53.3103 62.4662 52.1335 64.051 52.2706C64.8199 52.3392 65.5167 52.7002 66.0113 53.2923C66.5059 53.8844 66.7405 54.6316 66.6755 55.4006C66.6069 56.1696 66.2459 56.8663 65.6539 57.3609C65.1304 57.8013 64.4806 58.036 63.8055 58.036ZM63.7983 53.7039C63.0582 53.7039 62.4264 54.2706 62.3615 55.0215C62.2929 55.8158 62.8813 56.5161 63.6719 56.5883C64.4625 56.6569 65.1665 56.0685 65.2387 55.2779C65.2712 54.8952 65.1557 54.5197 64.9066 54.2237C64.6575 53.9277 64.3109 53.7472 63.9283 53.7111C63.8849 53.7075 63.8416 53.7039 63.8019 53.7039H63.7983Z" fill="#111111"/>
<path d="M29.7653 44.0969C29.4548 48.4796 31.8844 51.0536 33.805 51.4687L33.6967 47.2413L33.9675 41.7503L34.0974 39.7214C32.4656 38.9344 30.1191 39.1474 29.7689 44.0969H29.7653Z" fill="white"/>
<path d="M33.8064 52.1869C33.7558 52.1869 33.7053 52.1833 33.6548 52.1725C31.1782 51.6418 28.7197 48.6129 29.0446 44.0425C29.2288 41.4577 29.9652 39.7754 31.2324 39.0389C32.1457 38.5082 33.2721 38.5191 34.4093 39.0678C34.6728 39.1942 34.8353 39.4721 34.8172 39.7645L34.6872 41.7934C34.662 42.1905 34.319 42.4938 33.9219 42.4685C33.5248 42.4432 33.2215 42.1003 33.2468 41.7032L33.3407 40.1978C32.9363 40.075 32.4165 40.0245 31.9544 40.2916C31.384 40.6201 30.6692 41.5588 30.4851 44.1472C30.2504 47.418 31.6548 49.5407 33.0555 50.3891L32.9724 47.2591C32.9616 46.862 33.2757 46.5299 33.6764 46.5191C34.0735 46.5082 34.4057 46.8223 34.4165 47.223L34.5248 51.4505C34.532 51.6707 34.4345 51.8837 34.2649 52.0245C34.1349 52.1328 33.9688 52.1905 33.8028 52.1905L33.8064 52.1869Z" fill="#111111"/>
<path d="M30.4772 52.2334C30.3725 53.4248 31.2569 54.4753 32.4483 54.58C33.6396 54.6847 34.6902 53.8002 34.7949 52.6089C34.8995 51.4176 34.0151 50.367 32.8237 50.2623C31.6324 50.1576 30.5819 51.0421 30.4772 52.2334Z" fill="#FFDB43"/>
<path d="M32.6378 55.3094C32.5548 55.3094 32.4718 55.3094 32.3851 55.2986C30.7967 55.1614 29.6198 53.757 29.757 52.1722C29.8942 50.5874 31.2985 49.4069 32.8833 49.544C34.4682 49.6812 35.6487 51.0856 35.5115 52.6704C35.3815 54.1722 34.118 55.3094 32.6378 55.3094ZM32.6342 50.9736C31.8942 50.9736 31.2624 51.5404 31.1974 52.2913C31.1288 53.0856 31.7173 53.7859 32.5115 53.8545C33.3021 53.9231 34.0061 53.3347 34.0747 52.5404C34.1071 52.1578 33.988 51.7823 33.7425 51.4863C33.4934 51.1903 33.1469 51.0098 32.7606 50.9773C32.7173 50.9737 32.6775 50.97 32.6342 50.97V50.9736Z" fill="#111111"/>
<path d="M50.9808 43.7972C50.8761 43.7972 50.7714 43.7683 50.6811 43.7069C50.6811 43.7069 50.136 43.364 49.1396 43.2773C48.1432 43.1907 47.5476 43.4325 47.5439 43.4362C47.2696 43.5517 46.9519 43.4253 46.8364 43.151C46.7208 42.8766 46.8436 42.5625 47.1143 42.4434C47.1974 42.4073 47.9663 42.0896 49.2371 42.2015C50.5078 42.3134 51.2082 42.7611 51.284 42.8116C51.5331 42.9777 51.5981 43.3134 51.432 43.5625C51.3273 43.7177 51.1577 43.8044 50.9808 43.8044V43.7972Z" fill="#FFDB43"/>
<path d="M41.9392 48.5335C39.6577 48.5335 37.979 47.4902 37.1703 46.4794C35.4663 44.353 35.8887 41.6382 36.5855 40.3314C36.7262 40.0678 37.0548 39.9667 37.3183 40.1075C37.5818 40.2483 37.6829 40.5768 37.5421 40.8404C37.1522 41.5696 36.4772 43.8837 38.0151 45.8043C38.7804 46.7573 40.5349 47.7429 42.9645 47.3711C46.5385 46.8259 46.6035 43.5696 46.5999 43.5371C46.5421 42.6924 46.358 42.1436 46.0584 41.9054C45.8237 41.7176 45.784 41.3783 45.9717 41.1436C46.1595 40.909 46.4988 40.8693 46.7335 41.057C47.4735 41.6454 47.6288 42.7104 47.6793 43.4613C47.7371 44.3025 47.1089 47.8332 43.1234 48.4397C42.7118 48.501 42.3147 48.5299 41.9356 48.5299L41.9392 48.5335Z" fill="#FFDB43"/>
<path d="M56.5631 49.8114C55.8231 49.8114 55.018 49.6923 54.1696 49.4035C50.3501 48.1147 50.3465 44.5262 50.5487 43.7104C50.7292 42.9811 51.0685 41.9558 51.8989 41.5046C52.1624 41.3602 52.4909 41.4613 52.6317 41.7212C52.7761 41.9847 52.675 42.3132 52.4151 42.454C52.0794 42.6345 51.805 43.1472 51.5992 43.9667C51.592 43.9992 51.0902 47.2158 54.5162 48.3746C56.8447 49.1616 58.7436 48.4974 59.6606 47.6887C61.509 46.0678 61.2454 43.6706 60.9891 42.8836C60.8953 42.5984 61.0505 42.2952 61.3357 42.2013C61.6209 42.1075 61.9241 42.2627 62.018 42.5479C62.4765 43.9558 62.4187 46.7067 60.3754 48.501C59.5884 49.1905 58.2382 49.8042 56.5631 49.8042V49.8114Z" fill="#FFDB43"/>
<path d="M40.7506 41.4828C41.1261 41.1615 41.5773 40.9918 41.9889 41.0171C42.3102 41.0388 42.6315 41.2085 42.895 41.4973C43.2669 41.9016 43.469 42.4792 43.4293 43.0027C43.3896 43.4828 43.1152 43.9666 42.6892 44.3023C42.3571 44.5622 41.9853 44.6886 41.6351 44.6633C41.6243 44.6633 41.6098 44.6633 41.599 44.6633C40.8373 44.5839 40.1116 43.5767 40.1333 42.6344C40.1441 42.2373 40.3752 41.8077 40.7506 41.4864V41.4828Z" fill="#111111"/>
<path d="M39.5522 42.8437C39.462 42.8437 39.3681 42.8257 39.2779 42.7896C38.9132 42.638 38.7363 42.2228 38.8844 41.8546C39.249 40.9484 40.5739 39.3167 42.9674 39.638C44.8049 39.8834 45.6136 41.4141 45.6461 41.4791C45.8266 41.8329 45.6894 42.2697 45.332 42.4502C44.9782 42.6307 44.545 42.4935 44.3609 42.1434C44.3356 42.0964 43.8446 41.212 42.7761 41.0676C40.9457 40.8221 40.2887 42.2372 40.2201 42.3997C40.1046 42.6741 39.8338 42.8437 39.5522 42.8437Z" fill="#111111"/>
<path d="M56.5772 42.9524C56.2631 42.5697 55.848 42.3242 55.4364 42.2809C55.1151 42.2448 54.7721 42.3603 54.4581 42.5986C54.0249 42.9307 53.7216 43.465 53.6711 43.9885C53.6241 44.4686 53.8155 44.9957 54.1765 45.3964C54.4581 45.7105 54.8046 45.8982 55.1512 45.9343C55.162 45.9343 55.1765 45.9343 55.1873 45.9343C55.9526 45.9885 56.8407 45.1221 56.9851 44.1907C57.0429 43.8008 56.8913 43.3351 56.5772 42.9524Z" fill="#111111"/>
<path d="M59.1584 44.9847C58.8119 44.9847 58.5086 44.7356 58.4472 44.3855C58.4328 44.3097 58.0501 42.4035 55.8263 42.2086C55.2162 42.1544 54.6458 42.6237 54.6386 42.631C54.3317 42.8837 53.8769 42.8476 53.6241 42.5443C53.3678 42.2411 53.4039 41.7898 53.7036 41.5335C53.8083 41.4432 54.7505 40.6707 55.9527 40.7754C58.635 41.01 59.6891 43.0822 59.8732 44.1436C59.9418 44.5371 59.6783 44.9089 59.2848 44.9775C59.2451 44.9847 59.2018 44.9884 59.1621 44.9884L59.1584 44.9847Z" fill="#111111"/>
<path d="M39.4689 38.5405C39.2415 38.5405 39.0213 38.4178 38.9094 38.2048C38.7469 37.8979 38.8624 37.5152 39.1729 37.3528C39.2993 37.2842 42.3426 35.7102 45.3245 37.1253C45.6386 37.2734 45.7758 37.6524 45.6242 37.9665C45.4762 38.2806 45.0971 38.4178 44.783 38.2661C42.3823 37.1253 39.7866 38.4575 39.7613 38.4719C39.6675 38.5225 39.5664 38.5441 39.4689 38.5441V38.5405Z" fill="#111111"/>
<path d="M59.6626 40.7282C59.511 40.7282 59.3593 40.674 59.2366 40.5621C59.2149 40.5405 56.8142 38.3997 54.2799 39.0964C53.9442 39.1903 53.594 38.9917 53.5038 38.656C53.4099 38.3202 53.6084 37.9701 53.9442 37.8798C57.1608 36.9953 59.9731 39.5224 60.0886 39.6307C60.3449 39.8654 60.363 40.2661 60.1283 40.5224C60.0019 40.6596 59.8323 40.7282 59.6626 40.7282Z" fill="#111111"/>
<path d="M46.498 58.9921L48.9818 59.2592C50.5919 58.418 51.4366 55.8765 51.4366 55.8765L44.6641 55.2881C44.6641 55.2881 45.0973 57.8549 46.4944 58.9921H46.498Z" fill="white"/>
<path d="M48.9823 59.8914C48.7549 59.8914 48.5347 59.7687 48.4228 59.5521C48.2603 59.2416 48.3795 58.8626 48.6899 58.7001C49.5058 58.2741 50.152 57.2236 50.5275 56.4294L45.4842 55.9925C45.7116 56.7651 46.1484 57.8951 46.8957 58.5016C47.1665 58.7218 47.2062 59.1189 46.986 59.3896C46.7657 59.6604 46.3686 59.7001 46.0979 59.4799C44.5311 58.2055 44.0618 55.5052 44.0401 55.3896C44.0076 55.1983 44.0654 54.9998 44.199 54.8553C44.3325 54.7109 44.5239 54.6387 44.7188 54.6532L51.4914 55.2416C51.6827 55.2597 51.8596 55.3608 51.9643 55.5232C52.069 55.6857 52.0979 55.8878 52.0365 56.0683C52.0004 56.1803 51.087 58.8626 49.2748 59.812C49.1809 59.8626 49.0798 59.8842 48.9823 59.8842V59.8914Z" fill="#111111"/>
<path d="M49.2801 51.3025C49.1754 51.1581 48.8505 51.2808 48.439 51.252C48.031 51.205 47.7314 51.0317 47.6014 51.1545C47.4714 51.2808 47.5473 51.9848 48.3631 52.0787C49.1826 52.1292 49.3848 51.4505 49.2765 51.3025H49.2801Z" fill="#111111"/>
<path d="M52.8243 74.4906C52.6149 73.783 51.8099 73.2054 50.4705 72.1368C49.5175 71.3787 48.4958 70.4003 47.2431 70.6855C45.9904 70.9707 41.976 73.2559 41.976 73.2559C41.976 73.2559 41.6041 71.0971 40.7485 67.3209C39.8965 63.5664 37.8099 58.7108 35.781 60.1729C34.5211 61.079 36.3406 64.2343 37.3045 69.3317C38.7449 76.9527 38.763 90.3787 38.763 90.3787L38.3514 104.552H48.6474L48.9038 92.209C48.9038 92.209 49.9146 91.0465 50.0445 89.3173C50.1059 88.5158 50.1456 86.5158 50.1456 86.5158C50.1456 86.5158 50.9001 87.0357 51.6438 86.3642C52.3875 85.6927 52.3622 85.1296 52.4886 84.0393C52.6691 82.487 52.7341 81.2379 52.7341 81.2379C52.7341 81.2379 53.3658 80.2559 53.3334 79.1115C53.2973 77.9671 52.4922 76.996 52.4922 76.996C52.4922 76.996 53.0445 75.1945 52.8316 74.487L52.8243 74.4906Z" fill="white"/>
<path d="M48.64 95.2777C48.6147 95.2777 48.5858 95.2776 48.5606 95.274C48.1635 95.2307 47.8783 94.8733 47.9216 94.4762L48.1779 92.1332C48.1923 91.9888 48.2537 91.848 48.3512 91.7397C48.3584 91.7325 49.2068 90.7181 49.3187 89.2668C49.3765 88.4943 49.4162 86.5267 49.4162 86.5051C49.4198 86.2379 49.5714 85.9997 49.8097 85.8769C50.0443 85.7542 50.3295 85.7722 50.5497 85.9239C50.6544 85.9852 50.8891 86.0719 51.1562 85.83C51.6111 85.4221 51.64 85.1405 51.7302 84.3137L51.77 83.9564C51.9469 82.4473 52.0082 81.2163 52.0118 81.2018C52.0191 81.0755 52.0588 80.9527 52.1274 80.848C52.1274 80.8408 52.6364 80.0286 52.6111 79.1332C52.5858 78.2596 51.9396 77.4618 51.9324 77.4545C51.7808 77.2668 51.7302 77.0141 51.7988 76.7867C52.0299 76.0322 52.2248 74.9852 52.1382 74.6928C52.0154 74.2777 51.3801 73.7722 50.4198 73.0141L50.0263 72.7036C49.9288 72.6278 49.8313 72.5484 49.7339 72.469C48.9396 71.8228 48.1923 71.2163 47.4089 71.3932C46.5678 71.5845 43.9144 72.9925 42.3367 73.8878C42.131 74.0033 41.8855 74.0141 41.6725 73.913C41.4595 73.8119 41.3079 73.6134 41.2682 73.3823C41.2645 73.3607 40.8891 71.1946 40.0479 67.4834C39.2754 64.0719 37.8205 61.0791 36.7339 60.6675C36.5967 60.617 36.4378 60.5917 36.2032 60.7578C35.8241 61.0286 36.3079 62.682 36.7736 64.2776C37.1635 65.6134 37.6472 67.274 38.0118 69.1946C39.4487 76.7939 39.4811 89.8228 39.4811 90.3751C39.4811 90.4004 39.4811 90.4221 39.4811 90.4473L39.0696 94.6206C39.0299 95.0177 38.6761 95.3065 38.279 95.2668C37.8819 95.2271 37.5931 94.8733 37.6328 94.4762L38.0407 90.339C38.0407 89.5665 37.9721 76.7397 36.5967 69.4618C36.2465 67.6098 35.7736 65.9852 35.3909 64.682C34.6472 62.1332 34.1562 60.4509 35.362 59.5845C35.9469 59.1621 36.6003 59.0719 37.2465 59.3138C39.8313 60.2921 41.297 66.4582 41.4559 67.1585C41.9721 69.4365 42.3151 71.1405 42.5064 72.1332C43.8025 71.4221 46.1093 70.2018 47.0876 69.978C48.557 69.6423 49.7158 70.5845 50.6472 71.339C50.7411 71.4148 50.8349 71.4906 50.9288 71.5665L51.3187 71.8769C52.5389 72.8408 53.2718 73.4257 53.5281 74.2813C53.7339 74.9816 53.4667 76.1874 53.2862 76.8589C53.575 77.2993 54.0299 78.1369 54.0588 79.0899C54.0913 80.1477 53.658 81.0719 53.4487 81.4509C53.4234 81.8517 53.3548 82.8878 53.2104 84.1224L53.1743 84.4654C53.0768 85.3896 52.9974 86.1188 52.131 86.8986C51.705 87.2813 51.2537 87.4184 50.8494 87.4257C50.8313 88.0719 50.8025 88.9058 50.77 89.3715C50.6508 90.913 49.9252 92.0538 49.6039 92.4906L49.3692 94.6278C49.3295 94.9961 49.0154 95.2704 48.6508 95.2704L48.64 95.2777Z" fill="#111111"/>
<path d="M52.4875 77.7215C52.3323 77.7215 52.177 77.671 52.0471 77.5699C50.8955 76.6782 49.0399 75.3353 48.52 75.1403C48.1373 75.0789 46.3467 75.7324 44.7149 76.5483C44.3575 76.7251 43.9243 76.5807 43.7474 76.227C43.5705 75.8696 43.7149 75.4363 44.0687 75.2594C45.4875 74.5483 48.0182 73.4147 49.0218 73.7901C49.9424 74.1331 52.4406 76.0501 52.9316 76.4291C53.2456 76.6746 53.3034 77.1259 53.0615 77.4436C52.9207 77.6277 52.7041 77.7251 52.4911 77.7251L52.4875 77.7215Z" fill="#111111"/>
<path d="M52.7288 81.9638C52.5555 81.9638 52.3859 81.9024 52.2451 81.7797C50.7216 80.4114 48.8516 78.8374 48.3787 78.5883C47.9888 78.5883 46.635 79.0396 45.3534 79.5991C44.9888 79.758 44.5628 79.5919 44.4039 79.2237C44.2451 78.8591 44.4111 78.4331 44.7794 78.2742C46.8552 77.3717 48.209 77.0107 48.8046 77.2056C49.487 77.4259 51.8588 79.4945 53.209 80.7075C53.505 80.9746 53.5303 81.4295 53.2631 81.7255C53.1187 81.8843 52.9238 81.9638 52.7252 81.9638H52.7288Z" fill="#111111"/>
<path d="M50.0764 89.108C49.7226 89.108 49.4121 88.8481 49.3616 88.487C49.0655 86.4221 47.1233 84.2271 47.1053 84.2055C46.9572 84.043 46.8959 83.8192 46.932 83.6026L47.2027 81.9997C47.2424 81.7723 47.3868 81.5737 47.5962 81.4726C47.8056 81.3715 48.0511 81.3751 48.2533 81.4834L49.5782 82.191C49.8309 82.3246 49.9789 82.5954 49.9572 82.8806C49.9284 83.2524 49.8814 84.3354 49.9825 84.8553C50.1341 85.617 50.5313 85.9167 50.5493 85.9275C50.8814 86.1477 50.9681 86.5881 50.7479 86.9239C50.6865 87.0177 50.6035 87.0936 50.5132 87.1477C50.6396 87.5195 50.737 87.9022 50.7912 88.2849C50.8489 88.6784 50.5746 89.0466 50.1775 89.1008C50.1414 89.1044 50.1089 89.108 50.0764 89.108ZM48.4121 83.5123C48.4338 83.5412 48.459 83.5701 48.4843 83.599C48.4843 83.4726 48.4915 83.3535 48.4952 83.2452L48.4627 83.2271L48.4157 83.5123H48.4121Z" fill="#111111"/>
<path d="M88.5105 60.793L77.247 55.5403C76.3372 55.1143 75.2542 55.5114 74.8282 56.4212L63.6946 80.2948C63.2686 81.2046 63.6657 82.2876 64.5755 82.7136L75.839 87.9663C76.7488 88.3923 77.8318 87.9952 78.2578 87.0854L85.7885 70.9338L87.8823 66.4428L89.3877 63.2118C89.8137 62.302 89.4202 61.219 88.5069 60.793H88.5105Z" fill="white"/>
<path d="M76.6085 88.8589C76.2439 88.8589 75.8793 88.7795 75.5363 88.6206L64.2728 83.3679C63.6591 83.0827 63.1898 82.5701 62.9587 81.9347C62.7277 81.2957 62.7566 80.6062 63.0454 79.9925L74.1789 56.1188C74.4641 55.5051 74.9768 55.0358 75.6121 54.8047C76.2511 54.5737 76.9407 54.6026 77.5544 54.8878L88.8179 60.1405C89.4316 60.4257 89.901 60.9383 90.132 61.5737C90.363 62.2127 90.3342 62.9022 90.0454 63.5159L88.5399 66.747C88.3703 67.108 87.9407 67.2668 87.5797 67.0972C87.2186 66.9275 87.0634 66.4979 87.2295 66.1369L88.7349 62.9058C88.8576 62.6387 88.8721 62.3426 88.771 62.0683C88.6699 61.7939 88.4677 61.5737 88.2042 61.4473L76.9407 56.1946C76.3919 55.9383 75.7385 56.1766 75.4822 56.7253L64.3486 80.599C64.2259 80.8661 64.2114 81.1621 64.3125 81.4365C64.4136 81.7109 64.6158 81.9311 64.8793 82.0574L76.1428 87.3102C76.6916 87.5665 77.345 87.3282 77.6013 86.7795L85.132 70.6278C85.3017 70.2668 85.7313 70.1116 86.0923 70.2777C86.4533 70.4473 86.6085 70.8769 86.4425 71.238L78.9118 87.3896C78.6266 88.0033 78.114 88.4726 77.4786 88.7037C77.1934 88.8083 76.901 88.8589 76.6085 88.8589Z" fill="#111111"/>
<path d="M76.5637 61.5656C76.4626 61.5656 76.3579 61.544 76.2605 61.497C75.8994 61.3274 75.7442 60.8978 75.9103 60.5367L76.5204 59.2263C76.6901 58.8653 77.1197 58.71 77.4807 58.8761C77.8417 59.0458 77.9969 59.4754 77.8309 59.8364L77.2207 61.1468C77.098 61.4104 76.8381 61.5656 76.5673 61.5656H76.5637Z" fill="#111111"/>
<path d="M75.943 89.563C76.203 87.8915 77.1957 85.4908 77.1957 85.4908L74.3762 82.6677C74.3762 82.6677 69.4665 80.4655 69.0188 78.8915C68.5712 77.3175 69.8131 76.7471 69.8131 76.7471C69.8131 76.7471 68.4232 75.9637 68.9069 74.6532C69.3907 73.3427 71.1633 73.8337 71.1633 73.8337C71.1633 73.8337 69.8167 73.0034 70.5784 71.8301C71.3365 70.6532 73.7517 71.3139 73.7517 71.3139C73.7517 71.3139 78.4521 72.4438 79.712 73.1478C81.1849 73.9709 85.5712 76.3716 85.5712 76.3716L84.6434 72.4799C84.6434 72.4799 80.86 68.2092 81.4809 66.6785C82.1091 65.1298 83.6975 65.8626 84.2463 66.5233C84.795 67.1839 87.304 70.1947 87.8672 71.0178C88.4304 71.8373 89.8997 77.498 89.8961 78.285C89.8961 78.7182 88.6145 81.7904 87.434 85.2705C86.304 88.6063 85.4882 95.2742 80.434 95.2742C76.7228 95.2742 75.4485 92.8193 75.9539 89.563H75.943Z" fill="white"/>
<path d="M80.4228 95.9993C78.5816 95.9993 77.1809 95.4506 76.2531 94.3712C75.2639 93.2159 74.9101 91.5156 75.2278 89.4542C75.43 88.1473 76.0401 86.4614 76.3469 85.6672L73.9571 83.2737C72.6069 82.66 68.8054 80.7972 68.3217 79.0896C68.0257 78.0426 68.3 77.2665 68.7007 76.7502C68.2206 76.2015 67.8632 75.3856 68.2278 74.4037C68.513 73.6311 69.0942 73.2593 69.7044 73.1076C69.6899 73.0607 69.6755 73.0102 69.6646 72.9596C69.5491 72.447 69.6538 71.9235 69.9679 71.4361C70.9859 69.8621 73.6358 70.5336 73.9354 70.613C74.4047 70.725 78.7513 71.7827 80.0581 72.5156C80.9787 73.0318 83.0654 74.1798 84.4841 74.956L83.9751 72.8224C82.9065 71.5986 80.1015 68.1437 80.8018 66.4073C81.1087 65.6491 81.6682 65.169 82.3686 65.0607C83.2928 64.9163 84.2856 65.4578 84.791 66.0643L84.9282 66.2304C86.2062 67.7683 87.9643 69.8982 88.4516 70.6094C89.1123 71.5733 90.6105 77.4037 90.6069 78.2881C90.6069 78.6166 90.4264 79.1293 89.661 81.1834C89.2098 82.3964 88.6466 83.9055 88.1051 85.5011C87.921 86.0463 87.7404 86.6961 87.5491 87.3892C86.5455 91.021 85.1701 95.9957 80.4192 95.9957L80.4228 95.9993ZM70.4264 74.465C70.0979 74.465 69.7116 74.5481 69.5816 74.9055C69.3145 75.6311 70.1303 76.1004 70.1664 76.1185C70.4011 76.252 70.5455 76.5047 70.5347 76.7755C70.5238 77.0463 70.3614 77.2881 70.1159 77.4037C69.9679 77.4795 69.4661 77.8116 69.7152 78.6961C69.9354 79.4686 72.4589 81.0174 74.6755 82.0138C74.7549 82.0499 74.8271 82.1004 74.8921 82.1618L77.7116 84.9849C77.9173 85.1907 77.9787 85.5011 77.8668 85.7719C77.856 85.7935 76.9029 88.1112 76.661 89.678C76.4841 90.8152 76.4625 92.3892 77.3542 93.4325C77.9932 94.1798 79.0257 94.5553 80.4264 94.5553C84.0762 94.5553 85.235 90.3712 86.1628 87.0065C86.3578 86.2954 86.5455 85.6239 86.7441 85.039C87.2928 83.4217 87.8596 81.9018 88.3145 80.678C88.708 79.6203 89.1159 78.53 89.1701 78.252C89.1303 77.382 87.708 72.0643 87.2675 71.4253C86.9318 70.9343 85.7729 69.4975 83.8271 67.1509L83.6863 66.9849C83.4553 66.7069 82.939 66.4325 82.596 66.4867C82.5202 66.4975 82.3145 66.53 82.1448 66.9488C81.9101 67.5336 83.3542 69.9416 85.1809 71.9993C85.2603 72.0896 85.3145 72.1943 85.3433 72.3098L86.2711 76.2015C86.3361 76.4795 86.235 76.7683 86.0076 76.9416C85.7802 77.1148 85.4733 77.1365 85.2242 76.9993C85.1809 76.9741 80.8199 74.5878 79.3614 73.7719C78.4011 73.234 74.8668 72.317 73.5852 72.0101C72.9679 71.8441 71.5383 71.6744 71.1881 72.2195C71.0545 72.4253 71.0618 72.5553 71.0798 72.6347C71.1376 72.9055 71.448 73.1546 71.5491 73.2195C71.8488 73.4109 71.9679 73.7972 71.8235 74.1221C71.6791 74.447 71.3181 74.6203 70.9751 74.5264C70.9715 74.5264 70.7224 74.4614 70.4336 74.4614L70.4264 74.465Z" fill="#111111"/>
<path d="M71.1602 73.833L82.5392 79.2734L77.7522 76.2987L71.1602 73.833Z" fill="white"/>
<path d="M82.5383 79.9955C82.4083 79.9955 82.2783 79.9594 82.1592 79.8872L77.4336 76.9522L70.9101 74.5117C70.5383 74.3709 70.3469 73.9558 70.4877 73.5839C70.6285 73.2121 71.0437 73.0208 71.4155 73.1616L78.0076 75.6273C78.0509 75.6453 78.0942 75.6634 78.1339 75.6886L82.9209 78.6634C83.2603 78.8728 83.365 79.3204 83.152 79.6561C83.0148 79.8764 82.7801 79.9991 82.5383 79.9991V79.9955Z" fill="#111111"/>
<path d="M69.8086 76.7471L80.1588 82.3572L75.8772 79.2814L69.8086 76.7471Z" fill="white"/>
<path d="M80.1588 83.079C80.0144 83.079 79.8664 83.0356 79.7365 82.9418L75.5198 79.9129L69.5307 77.4111C69.1624 77.2559 68.9892 76.8335 69.1408 76.4652C69.296 76.097 69.7184 75.9237 70.0866 76.0754L76.1552 78.6096C76.2058 78.6313 76.2527 78.6566 76.2996 78.6891L80.5812 81.7649C80.9061 81.9959 80.9783 82.4472 80.7473 82.7721C80.6065 82.9671 80.3863 83.0717 80.1588 83.0717V83.079Z" fill="#111111"/>
</g>
<defs>
<clipPath id="clip0_368_533">
<rect width="96" height="96" rx="48" fill="white"/>
</clipPath>
</defs>
</svg>
