<svg width="96" height="96" viewBox="0 0 96 96" fill="none" xmlns="http://www.w3.org/2000/svg">
<g clip-path="url(#clip0_368_619)">
<rect width="96" height="96" rx="48" fill="#F7F6EB"/>
<path d="M65.8249 55.2722L31.8594 54.5898C36.6393 62.3338 32.2446 64.9163 32.2446 64.9163C32.2446 64.9163 33.2167 66.8973 37.5784 65.9728C40.8726 65.2758 41.4962 64.3807 49.3245 64.289C58.3964 64.179 57.8242 65.6757 62.3179 66.2186C64.6804 66.5047 66.9914 64.9714 66.9914 64.9714C66.9914 64.9714 62.5454 63.0785 65.8249 55.2685V55.2722Z" fill="#A3A3A3"/>
<path d="M62.9223 66.989C62.6948 66.989 62.4637 66.978 62.2326 66.9487C60.5708 66.7469 59.551 66.4167 58.5716 66.0976C56.8511 65.5363 55.0756 64.9567 49.3383 65.0264C43.5716 65.0961 41.7961 65.6024 39.9179 66.1379C39.2649 66.325 38.5862 66.5158 37.7352 66.6955C32.8709 67.7263 31.642 65.3456 31.5906 65.2429C31.4219 64.898 31.5466 64.4835 31.8768 64.2891C31.9061 64.2707 32.7865 63.7168 33.1754 62.3485C33.7146 60.4556 33.047 57.9061 31.2385 54.9787C31.0257 54.6339 31.1321 54.1827 31.4769 53.9699C31.8218 53.7572 32.273 53.8635 32.4857 54.2084C34.485 57.4476 35.2077 60.2539 34.6391 62.5539C34.3493 63.7168 33.7807 64.5018 33.3185 64.9751C33.8724 65.3382 35.0719 65.7601 37.427 65.2612C38.2304 65.0925 38.8834 64.9054 39.5107 64.7256C41.4879 64.1644 43.3551 63.6324 49.3163 63.5591C55.2957 63.4894 57.1886 64.1057 59.0228 64.7036C59.9802 65.0154 60.8863 65.3126 62.405 65.496C63.5899 65.639 64.7895 65.2465 65.6002 64.887C64.3199 63.6801 62.6912 60.8481 65.149 54.9934C65.3067 54.6192 65.7359 54.4432 66.1101 54.6009C66.4843 54.7586 66.6603 55.1878 66.5026 55.562C63.5716 62.5393 67.1336 64.2377 67.2876 64.3074C67.5298 64.4175 67.6985 64.6523 67.7205 64.92C67.7425 65.1878 67.6215 65.4446 67.3977 65.5914C67.3023 65.6537 65.2517 66.9927 62.9186 66.9927L62.9223 66.989Z" fill="#111111"/>
<path d="M70.489 75.8147C63.6951 73.2615 61.6445 71.7428 60.4669 70.4185C59.2894 69.0943 58.9336 67.4068 58.9336 63.1221V49.7949L49.4105 52.139L39.8873 49.7949V63.1221C39.8873 67.4105 39.5278 69.0979 38.354 70.4185C37.1801 71.7428 35.1258 73.2579 28.332 75.8147C21.5455 78.3679 41.8096 90.5763 41.8096 90.5763H57.0077C57.0077 90.5763 77.2681 78.3679 70.4853 75.8147H70.489Z" fill="white"/>
<path d="M57.0158 91.3099C56.7664 91.3099 56.5243 91.1852 56.3885 90.9541C56.1795 90.6056 56.2895 90.1544 56.638 89.9453C62.3753 86.486 71.3885 80.0113 71.1464 77.3554C71.1318 77.2087 71.0987 76.8235 70.2367 76.497C63.5822 73.9952 61.3005 72.4508 59.9249 70.9027C58.6079 69.4207 58.2044 67.6012 58.2044 63.1184V50.7266L49.591 52.847C49.4773 52.8763 49.3563 52.8763 49.2389 52.847L40.6255 50.7266V63.1184C40.6255 67.6012 40.222 69.4207 38.9051 70.9027C37.5294 72.4508 35.2514 73.9952 28.5932 76.497C27.7312 76.8198 27.6945 77.2087 27.6835 77.3554C27.4414 80.0113 36.4546 86.486 42.1919 89.9453C42.5404 90.1544 42.6505 90.6056 42.4414 90.9541C42.2323 91.3026 41.7811 91.4126 41.4326 91.2035C38.8244 89.6298 25.8236 81.5667 26.2198 77.2233C26.2785 76.563 26.6527 75.6606 28.076 75.125C34.8258 72.5865 36.7407 71.1265 37.8045 69.9306C38.839 68.7677 39.1545 67.1756 39.1545 63.1221V49.7949C39.1545 49.5711 39.2572 49.3547 39.437 49.2189C39.6131 49.0795 39.8478 49.0318 40.0643 49.0832L49.4113 51.3833L58.7583 49.0832C58.9784 49.0282 59.2095 49.0795 59.3856 49.2189C59.5617 49.3583 59.6681 49.5711 59.6681 49.7949V63.1221C59.6681 67.1793 59.9836 68.7677 61.018 69.9306C62.0819 71.1301 64.0004 72.5902 70.7466 75.125C72.1699 75.6606 72.5404 76.5594 72.6028 77.2233C72.999 81.563 60.0019 89.6298 57.39 91.2035C57.2726 91.2732 57.1406 91.3099 57.0122 91.3099H57.0158Z" fill="#111111"/>
<path d="M36.7773 83.1807L49.4149 93.0449L61.6196 83.1807H51.2454H36.7773Z" fill="#FFDB43"/>
<path d="M49.414 93.7788C49.2563 93.7788 49.0949 93.7274 48.9628 93.6247L36.3253 83.7605C36.0795 83.566 35.9804 83.2395 36.0831 82.9424C36.1859 82.6453 36.4647 82.4472 36.7765 82.4472H51.2446C51.6481 82.4472 51.9782 82.7773 51.9782 83.1808C51.9782 83.5844 51.6481 83.9145 51.2446 83.9145H38.9078L49.403 92.106L61.1565 82.6086C61.472 82.3555 61.9342 82.4031 62.1873 82.7186C62.4404 83.0341 62.3928 83.4963 62.0773 83.7494L49.8726 93.6137C49.7368 93.7238 49.5754 93.7751 49.4104 93.7751L49.414 93.7788Z" fill="#111111"/>
<path d="M73.4952 76.5124L70.5935 75.1845L70.7989 74.1353C70.7989 74.1353 70.1276 73.7061 67.8018 71.9343C66.1217 70.654 65.3734 69.5388 64.3866 69.5792C63.4108 69.6195 63.0256 70.2505 62.1856 71.1016C61.2758 72.0187 60.1459 72.4589 59.7277 73.398C59.2435 74.4801 57.4864 80.1368 57.4864 80.1368C57.4864 80.1368 53.1027 86.7949 49.4123 91.2116C47.9082 89.7443 41.1291 81.1713 41.1291 81.1713L41.1437 79.3921L39.2362 77.6826C39.2362 77.6826 38.8987 76.2666 38.3594 73.6694C38.0366 72.1104 38.088 70.3862 36.9471 69.814C35.355 69.0179 33.2824 70.5953 31.1474 72.1801C29.1188 73.6841 27.2112 74.5095 27.2112 74.5095L27.5451 75.4449L25.3367 76.5124C21.9581 77.778 19.5003 79.183 17.5451 82.5652C15.92 85.3752 15.1936 91.8763 14.7461 97.2688H84.0931C83.6419 91.8763 82.9192 85.3752 81.2941 82.5652C79.3389 79.183 76.8811 77.778 73.5025 76.5124H73.4952Z" fill="white"/>
<path d="M14.7362 96.0021C14.7141 96.0021 14.6958 96.0021 14.6738 96.0021C14.2703 95.9691 13.9695 95.6133 14.0025 95.2097C14.5491 88.6543 15.4148 84.7622 16.8968 82.198C18.9254 78.691 21.5153 77.1613 25.0333 75.837L26.618 75.0703L26.5043 74.7585C26.3723 74.3954 26.5483 73.9918 26.9042 73.8378C26.9225 73.8304 28.764 73.0234 30.6936 71.5927L30.822 71.4973C33.023 69.8649 35.2974 68.1775 37.26 69.1569C38.4852 69.7695 38.6907 71.1525 38.8888 72.4878C38.9401 72.829 38.9915 73.1848 39.0612 73.5186C39.472 75.4959 39.7655 76.7981 39.8792 77.2897L41.6144 78.8451C41.7721 78.9845 41.8601 79.1863 41.8601 79.399L41.8491 80.9214C42.7736 82.0879 47.4434 87.961 49.362 90.1034C52.6378 86.0718 56.3062 80.5692 56.8051 79.8209C57.4691 77.6969 58.6393 74.0028 59.0465 73.1004C59.384 72.3484 60.026 71.8752 60.6422 71.4166C60.9871 71.1635 61.3429 70.8994 61.6511 70.5876C61.8015 70.4372 61.9335 70.2941 62.0582 70.162C62.6672 69.5127 63.2431 68.8965 64.34 68.8524C65.3048 68.8121 66.0017 69.4357 66.8895 70.2281C67.271 70.5692 67.7075 70.9581 68.2321 71.3579C70.4772 73.0711 71.1705 73.5186 71.1778 73.5223C71.4309 73.6837 71.5593 73.9882 71.5043 74.2816L71.4089 74.7622L73.7604 75.837C77.282 77.1613 79.8756 78.691 81.9042 82.2017C83.3862 84.7659 84.2519 88.658 84.7985 95.2134C84.8315 95.6169 84.5307 95.9728 84.1272 96.0058C83.7237 96.0388 83.3679 95.738 83.3348 95.3345C82.9863 91.1342 82.3627 85.9251 80.6312 82.9353C78.8081 79.7805 76.53 78.4452 73.2174 77.2017C73.2028 77.1943 73.1844 77.1907 73.1698 77.1833L70.2681 75.8554C69.9599 75.7123 69.7875 75.3785 69.8535 75.0447L69.9673 74.4724C69.5381 74.1679 68.7273 73.5846 67.3407 72.5245C66.7721 72.0916 66.3136 71.6844 65.9137 71.3249C65.2497 70.7343 64.7728 70.3051 64.4023 70.3198C63.9291 70.3381 63.7053 70.5546 63.1294 71.1672C62.9937 71.3103 62.8506 71.4643 62.6929 71.6257C62.304 72.0182 61.8822 72.3301 61.5117 72.6015C61.0017 72.9794 60.5615 73.3022 60.3818 73.7057C60.114 74.3073 59.2959 76.7578 58.2028 80.2684C58.1771 80.3565 58.1441 80.4555 58.0854 80.5472C58.0414 80.6133 53.6356 87.2897 49.9599 91.6881C49.8279 91.8458 49.6371 91.9412 49.4353 91.9485C49.2336 91.9596 49.0318 91.8825 48.8851 91.7395C47.3627 90.2574 40.8147 81.9816 40.5395 81.6294C40.4368 81.4973 40.3818 81.3359 40.3818 81.1672L40.3928 79.7182L38.731 78.2288C38.621 78.1298 38.5403 77.9977 38.5072 77.851C38.5072 77.8363 38.1624 76.3946 37.6268 73.8158C37.5498 73.4416 37.4948 73.0674 37.4397 72.7042C37.2893 71.6918 37.1463 70.738 36.6034 70.4665C35.4442 69.8869 33.5403 71.3029 31.6951 72.6712L31.5667 72.7666C30.18 73.7974 28.8557 74.5127 28.1111 74.8869L28.2211 75.1951C28.3495 75.5472 28.1881 75.9397 27.8506 76.1048L25.6422 77.1723C25.6239 77.1833 25.6019 77.1907 25.5799 77.198C22.2637 78.4416 19.9893 79.7769 18.1661 82.9317C16.4383 85.9214 15.8147 91.1268 15.4625 95.3308C15.4295 95.7123 15.1103 96.0021 14.7325 96.0021H14.7362Z" fill="#111111"/>
<path d="M28.9053 79.6995C28.832 79.6995 28.7586 79.6885 28.6889 79.6665C28.4761 79.6005 28.3037 79.4391 28.223 79.23L26.8547 75.7083C26.708 75.3305 26.8951 74.9049 27.2729 74.7582C27.6507 74.6115 28.0763 74.7986 28.223 75.1764L29.2575 77.8433C31.3962 76.4163 34.4152 74.5234 35.3837 74.5234C36.4658 74.5234 36.7263 75.5946 36.851 76.1082L36.8694 76.1889C36.9721 76.6071 37.1005 76.9519 37.1005 76.9556C37.2435 77.3334 37.0491 77.7589 36.6713 77.8983C36.2934 78.0414 35.8679 77.8507 35.7285 77.4691C35.7212 77.4508 35.5708 77.0436 35.446 76.5374L35.424 76.453C35.391 76.3246 35.3433 76.1265 35.2956 76.0091C34.5326 76.2182 31.6603 77.9754 29.3162 79.5711C29.1915 79.6555 29.0484 79.6995 28.9017 79.6995H28.9053Z" fill="#111111"/>
<path d="M69.1301 80.2903C68.965 80.2903 68.8036 80.2353 68.6715 80.1289C66.2541 78.1847 63.5175 76.035 62.6077 75.3931C62.5086 75.6205 62.4023 75.9727 62.3509 76.2771C62.2812 76.677 61.9034 76.9448 61.5035 76.8751C61.1037 76.8054 60.8359 76.4275 60.9056 76.0277C61.0156 75.3821 61.3128 74.2522 62.0354 73.9C62.3582 73.7423 62.7141 73.7533 63.0406 73.9294C63.6532 74.2595 67.0574 76.9595 68.7742 78.3314L69.9041 74.9565C70.0325 74.5713 70.447 74.3659 70.8322 74.4943C71.2174 74.6227 71.4228 75.0372 71.2944 75.4224L69.8307 79.7951C69.7537 80.0226 69.5703 80.1986 69.3428 80.2647C69.2731 80.283 69.2071 80.294 69.1374 80.294L69.1301 80.2903Z" fill="#111111"/>
<path d="M48.7886 94.2415C48.7262 94.2415 48.6602 94.2342 48.5978 94.2158C48.2053 94.1094 47.9742 93.7059 48.0806 93.3171L48.7005 91.0207C48.8069 90.6282 49.2104 90.397 49.5993 90.5034C49.9918 90.6098 50.2229 91.0133 50.1165 91.4022L49.4966 93.6986C49.4085 94.0251 49.1114 94.2415 48.7886 94.2415Z" fill="#111111"/>
<path d="M60.5182 20.7709C58.3098 18.2214 55.5072 17.297 53.6583 17.0805C51.516 16.8274 49.8212 17.4547 49.8212 17.4547C48.5226 16.3395 46.5013 16.7907 44.7551 17.0879C42.5101 17.4694 37.2313 18.1811 34.5167 23.5296C31.2188 30.0299 30.0706 34.8942 27.9906 41.7577C27.0956 44.7034 25.8997 47.6308 25.841 50.6866C25.7823 53.746 27.7816 56.4569 31.2445 57.6895C35.1293 59.0761 35.2357 61.5193 35.2357 61.5193L63.673 60.7893C63.673 60.7893 63.9151 58.68 67.1322 56.9778C74.8615 52.8876 71.1601 44.8979 69.491 40.4701C67.8219 36.0424 65.3604 26.3432 60.5255 20.7673L60.5182 20.7709Z" fill="#A3A3A3"/>
<path d="M35.2276 62.2532C34.8388 62.2532 34.5123 61.9451 34.4939 61.5526C34.4866 61.4829 34.2995 59.5606 30.987 58.3794C27.2892 57.0588 25.0295 54.1058 25.0992 50.6722C25.1469 48.141 25.9393 45.7162 26.7023 43.3721C26.9004 42.7631 27.0985 42.1542 27.2819 41.5452C27.6377 40.3677 27.9679 39.2452 28.287 38.1667C29.8571 32.8438 31.0934 28.6399 33.8556 23.196C36.6509 17.6934 42.0765 16.7874 44.3949 16.3985L44.9928 16.2958C46.6546 16.006 48.5218 15.6832 49.9598 16.6369C50.6238 16.4535 52.0545 16.1454 53.7419 16.3471C55.0515 16.5012 58.3898 17.1945 61.0677 20.287C65.0112 24.8358 67.3406 31.835 69.0427 36.9488C69.4646 38.2217 69.8314 39.3222 70.1689 40.2099C70.2716 40.4814 70.3817 40.7712 70.4991 41.0683C72.2929 45.7125 75.2937 53.4858 67.4653 57.6237C64.681 59.0948 64.4022 60.8079 64.3912 60.8813C64.3325 61.2774 63.9657 61.5599 63.5695 61.5086C63.1733 61.4572 62.8909 61.1014 62.9349 60.7052C62.9459 60.6025 63.2614 58.1887 66.7793 56.3288C73.4521 52.7998 70.8512 46.0573 69.1271 41.5966C69.0097 41.2958 68.8997 41.0023 68.7933 40.7272C68.4485 39.8101 68.0779 38.6986 67.6488 37.411C65.987 32.4146 63.7126 25.5768 59.9598 21.2481C57.6157 18.5445 54.7104 17.9392 53.5695 17.8035C51.6436 17.5761 50.0846 18.1336 50.0699 18.1373C49.8204 18.229 49.5416 18.1777 49.3399 18.0053C48.3934 17.1945 46.794 17.4697 45.246 17.7411L44.637 17.8438C42.3589 18.2217 37.6231 19.0141 35.1653 23.8563C32.4653 29.1791 31.2438 33.3244 29.6957 38.5775C29.3766 39.6597 29.0464 40.7822 28.6869 41.9671C28.4998 42.5871 28.298 43.2033 28.0963 43.8233C27.3663 46.0683 26.6106 48.3868 26.5666 50.6978C26.5115 53.4821 28.3971 55.8959 31.4822 56.9964C35.7815 58.5298 35.954 61.3655 35.9613 61.4865C35.9796 61.8901 35.6642 62.2349 35.2606 62.2532C35.2496 62.2532 35.2386 62.2532 35.2276 62.2532Z" fill="#111111"/>
<path d="M39.3927 27.3449C39.3927 27.3449 37.2833 29.0286 37.0266 34.5606C36.7221 41.0609 33.8717 40.8922 33.8717 40.8922C33.6003 40.8922 33.3655 40.8225 33.1601 40.6978C31.568 40.4336 29.8072 41.3324 29.8769 45.7051C29.9502 50.1695 32.6355 52.5613 34.6201 52.8071C34.8182 53.6581 35.0676 54.4909 35.3868 55.2355C37.4411 59.898 43.017 64.9164 47.5071 66.1343C47.5071 66.1343 48.3105 66.3471 49.4147 66.3471C50.5188 66.3471 51.3222 66.1343 51.3222 66.1343C55.8123 64.9164 61.3883 59.898 63.4425 55.2355C63.6223 54.8137 64.4954 52.5209 64.3046 47.3595C64.2349 45.4813 63.9084 42.9722 63.9084 42.9722C61.59 42.3082 58.8241 40.3419 56.2232 35.2282C53.7287 30.3273 53.714 27.8768 52.0559 25.419C51.7367 24.9457 49.7045 24.4138 47.8079 24.4102C45.7903 24.4102 44.51 24.8504 44.51 24.8504C44.51 24.8504 42.7822 24.4102 41.5937 25.0961C40.4822 25.7381 40.7976 26.5195 40.7976 26.5195L39.389 27.3449H39.3927Z" fill="white"/>
<path d="M49.4143 67.0769C48.2257 67.0769 47.3563 66.8495 47.3196 66.8421C42.6278 65.5692 36.8574 60.3895 34.7151 55.5325C34.4546 54.9199 34.2199 54.2193 34.0181 53.4416C31.619 52.8326 29.2125 50.063 29.1428 45.7196C29.1025 43.2655 29.6197 41.5597 30.6799 40.6463C31.3769 40.0446 32.2756 39.8135 33.2771 39.9786C33.3688 39.9933 33.4532 40.0263 33.5339 40.0703C33.6476 40.14 33.776 40.1547 33.9154 40.162C33.9154 40.162 36.0357 40.074 36.2925 34.5311C36.3365 33.5663 36.4429 32.6492 36.6006 31.8091C36.619 31.6844 37.1766 27.9977 40.4011 25.9104C40.7422 25.6903 41.1971 25.7857 41.4172 26.1268C41.6373 26.468 41.5419 26.9229 41.2008 27.143C38.5485 28.8598 38.0533 32.0182 38.0496 32.0512C37.8992 32.8583 37.8039 33.7057 37.7598 34.6008C37.6168 37.6382 36.9198 39.7402 35.6799 40.8554C34.8508 41.6 34.0511 41.633 33.864 41.6294C33.5302 41.6294 33.2184 41.556 32.9249 41.4093C32.4077 41.3469 31.9748 41.4643 31.6373 41.7578C31.1458 42.1796 30.5698 43.2068 30.6102 45.6976C30.6762 49.7585 33.0496 51.8788 34.7114 52.0843C35.0159 52.1209 35.2653 52.3484 35.335 52.6455C35.5405 53.5296 35.7862 54.3036 36.0614 54.9529C38.013 59.3807 43.4532 64.278 47.6975 65.4298C47.6975 65.4298 48.4275 65.6169 49.4143 65.6169C50.4011 65.6169 51.1311 65.4298 51.1384 65.4298C55.3791 64.2816 60.8193 59.3807 62.7708 54.9456C62.9323 54.5641 63.754 52.3704 63.5705 47.3924C63.5192 46.0461 63.3321 44.344 63.2367 43.5369C60.3167 42.5135 57.7378 39.8355 55.5661 35.5656C54.2932 33.0637 53.6476 31.1672 53.1267 29.6411C52.6204 28.1518 52.2169 26.9779 51.4466 25.8297C51.2191 25.4922 51.3108 25.0373 51.6447 24.8099C51.9821 24.5824 52.437 24.6741 52.6645 25.008C53.5449 26.3176 53.9961 27.6382 54.517 29.1642C55.0489 30.7233 55.6505 32.4878 56.8758 34.8942C58.9631 38.9955 61.3842 41.4716 64.0768 42.2603C64.3666 42.33 64.594 42.5722 64.6344 42.8766C64.6491 42.9793 64.9682 45.4408 65.0379 47.33C65.2287 52.4841 64.3813 54.9016 64.1171 55.5215C61.9711 60.3895 56.2008 65.5692 51.5163 66.8385C51.4759 66.8495 50.6028 67.0769 49.4143 67.0769Z" fill="#111111"/>
<path d="M66.0735 44.01C65.2555 44.01 64.4741 43.8999 63.7038 43.6798C63.3149 43.5698 63.0875 43.1626 63.2012 42.7738C63.3149 42.3849 63.7184 42.1611 64.1073 42.2712C64.896 42.4986 65.6994 42.583 66.5651 42.528C66.9686 42.506 67.3171 42.8104 67.3428 43.214C67.3685 43.6175 67.0603 43.966 66.6568 43.9917C66.4587 44.0027 66.2643 44.01 66.0735 44.01Z" fill="#111111"/>
<path d="M51.8291 25.8296C51.6016 25.8296 51.3815 25.7269 51.2348 25.5288C50.9744 25.1767 50.6882 24.8318 50.3544 24.4833C48.6779 22.7299 46.2862 22.9353 46.2605 22.9389C45.8606 22.9793 45.4975 22.6822 45.4608 22.2823C45.4204 21.8788 45.7102 21.523 46.1138 21.4789C46.2385 21.4643 49.2355 21.1855 51.4182 23.4709C51.7961 23.867 52.1262 24.2559 52.4234 24.6631C52.6618 24.9896 52.5921 25.4481 52.2656 25.6902C52.1336 25.7856 51.9832 25.8333 51.8328 25.8333L51.8291 25.8296Z" fill="#111111"/>
<path d="M43.8073 22.3591C43.5029 22.3591 43.2204 22.1683 43.114 21.8675C43.0443 21.6731 42.7765 20.635 44.1632 19.3143C45.6782 17.8727 49.4603 16.7905 49.6217 16.7465C50.0106 16.6364 50.4178 16.8639 50.5278 17.2527C50.6379 17.6416 50.4104 18.0488 50.0216 18.1588C49.0274 18.4413 46.2138 19.3914 45.1757 20.3782C44.5263 20.9981 44.5153 21.3833 44.5153 21.442C44.6107 21.8088 44.4126 22.194 44.0458 22.3224C43.9651 22.3518 43.8844 22.3628 43.8037 22.3628L43.8073 22.3591Z" fill="#111111"/>
<path d="M35.5406 28.5991C35.3976 28.5991 35.2508 28.5588 35.1261 28.4708C34.7923 28.2396 34.7079 27.7848 34.939 27.4509C35.005 27.3556 36.5751 25.0995 38.8935 23.966C42.118 22.3922 44.807 24.1677 44.9207 24.2411C45.2545 24.4686 45.3462 24.9234 45.1188 25.2609C44.8913 25.5947 44.4364 25.6828 44.1026 25.459C44.0072 25.3967 41.9786 24.0944 39.5392 25.2829C37.5729 26.2404 36.1643 28.2617 36.1496 28.28C36.0065 28.4854 35.7791 28.5955 35.5443 28.5955L35.5406 28.5991Z" fill="#111111"/>
<path d="M33.9231 42.9573L33.8718 40.892C32.1513 40.239 29.7962 40.6646 29.8769 45.7049C29.9503 50.1693 32.6355 52.5611 34.6201 52.8069L34.1359 48.5369L33.9231 42.9536V42.9573Z" fill="white"/>
<path d="M34.6198 53.5402C34.5904 53.5402 34.5611 53.5402 34.5281 53.5328C31.9749 53.2137 29.2163 50.367 29.1429 45.7118C29.0989 43.0779 29.6968 41.3098 30.9147 40.4551C31.7915 39.8388 32.936 39.7507 34.1319 40.2019C34.4107 40.3083 34.5978 40.5724 34.6051 40.8696L34.6565 42.9349C34.6675 43.3384 34.3446 43.6759 33.9411 43.6869C33.5339 43.6942 33.2001 43.3751 33.1891 42.9716L33.1524 41.4418C32.7306 41.3538 32.2023 41.3465 31.7584 41.6583C31.2119 42.0435 30.5699 43.0559 30.6102 45.6935C30.6653 49.0281 32.272 51.0493 33.765 51.783L33.4055 48.6209C33.3615 48.2173 33.6477 47.8542 34.0512 47.8102C34.4547 47.7625 34.8179 48.0523 34.8619 48.4558L35.3461 52.7258C35.3718 52.9496 35.2948 53.1733 35.1334 53.3311C34.994 53.4668 34.8105 53.5438 34.6161 53.5438L34.6198 53.5402Z" fill="#111111"/>
<path d="M38.8987 39.6924C38.752 39.6924 38.6052 39.6448 38.4878 39.542C38.2164 39.3146 38.1797 38.9074 38.4071 38.6359C39.2655 37.6125 41.727 36.0131 44.9002 37.2823C45.2303 37.4144 45.3881 37.7886 45.2597 38.115C45.1276 38.4452 44.7534 38.6029 44.4269 38.4745C41.3162 37.231 39.4123 39.4393 39.3939 39.4613C39.2655 39.6117 39.0858 39.6924 38.9024 39.6924H38.8987Z" fill="#111111"/>
<path d="M59.9307 39.6924C59.7473 39.6924 59.5639 39.6154 59.4392 39.4613C59.3621 39.3733 57.4913 37.242 54.4062 38.4745C54.076 38.6066 53.7018 38.4452 53.5734 38.115C53.4414 37.7849 53.6028 37.4107 53.9329 37.2823C57.1061 36.0131 59.5676 37.6125 60.426 38.6359C60.6534 38.9074 60.6167 39.3109 60.3453 39.542C60.2242 39.6411 60.0775 39.6924 59.9344 39.6924H59.9307Z" fill="#111111"/>
<path d="M39.2967 44.0069C39.2967 44.0069 39.2783 44.0069 39.271 44.0069C38.8675 43.9922 38.5483 43.6511 38.563 43.2476C38.563 43.1705 38.6547 41.3877 40.6026 40.2945C42.7559 39.0876 44.6635 40.511 44.7442 40.5697C45.067 40.8154 45.1294 41.2776 44.8836 41.5968C44.6378 41.9159 44.1793 41.9783 43.8601 41.7362C43.8014 41.6922 42.6202 40.8448 41.3253 41.5711C40.1074 42.2534 40.034 43.2879 40.034 43.2953C40.0193 43.6914 39.6928 44.0033 39.3003 44.0033L39.2967 44.0069Z" fill="#111111"/>
<path d="M41.1681 43.4454C41.1681 44.5019 41.9788 45.3566 42.9803 45.3566C43.9817 45.3566 44.7924 44.5019 44.7924 43.4454C44.7924 42.3889 43.9817 41.5342 42.9803 41.5342C41.9788 41.5342 41.1681 42.3889 41.1681 43.4454Z" fill="#111111"/>
<path d="M59.5274 44.0066C59.1349 44.0066 58.8084 43.6948 58.7938 43.2986C58.7938 43.2656 58.7094 42.2495 57.5025 41.5745C56.2002 40.8445 55.0153 41.7029 54.964 41.7396C54.6412 41.978 54.1826 41.9157 53.9405 41.5928C53.6984 41.27 53.7608 40.8151 54.0799 40.5694C54.1606 40.507 56.0645 39.0873 58.2215 40.2942C60.1694 41.3874 60.2575 43.1702 60.2611 43.2473C60.2758 43.6508 59.9603 43.992 59.5531 44.0066C59.5458 44.0066 59.5348 44.0066 59.5274 44.0066Z" fill="#111111"/>
<path d="M55.8434 45.3566C56.8443 45.3566 57.6556 44.5009 57.6556 43.4454C57.6556 42.3899 56.8443 41.5342 55.8434 41.5342C54.8426 41.5342 54.0312 42.3899 54.0312 43.4454C54.0312 44.5009 54.8426 45.3566 55.8434 45.3566Z" fill="#111111"/>
<path d="M50.2708 51.2693C50.1534 51.1336 49.8343 51.284 49.4161 51.295C48.9979 51.284 48.6787 51.1336 48.5613 51.2693C48.4403 51.4087 48.5797 52.1167 49.4161 52.1387C50.2524 52.1167 50.3918 51.4124 50.2708 51.273V51.2693Z" fill="#111111"/>
<path d="M48.2393 59.4839L50.5834 59.5279C52.3295 58.5705 53.0375 55.6064 53.0375 55.6064H45.7852C45.7852 55.6064 46.5298 58.4825 48.2393 59.4839Z" fill="white"/>
<path d="M50.5836 60.1693C50.3562 60.1693 50.1361 60.0482 50.0187 59.8355C49.8499 59.5237 49.96 59.1348 50.2718 58.9624C51.1852 58.4598 51.8235 57.1796 52.1647 56.2478H46.6694C47.0253 57.1612 47.6709 58.4048 48.5587 58.9257C48.8631 59.1055 48.9658 59.498 48.7898 59.8025C48.61 60.1069 48.2175 60.2096 47.913 60.0336C45.9945 58.911 45.1948 55.8993 45.1617 55.7709C45.1104 55.5802 45.1544 55.3747 45.2755 55.217C45.3965 55.0592 45.5836 54.9675 45.7817 54.9675H53.0341V54.9639C53.2322 54.9639 53.4156 55.0556 53.5366 55.2096C53.6577 55.3637 53.7017 55.5655 53.6577 55.7562C53.6247 55.8883 52.8617 59.0064 50.8881 60.0886C50.789 60.1436 50.6826 60.1693 50.5799 60.1693H50.5836Z" fill="#111111"/>
<path d="M44.0122 54.9857C43.8949 54.9857 43.7775 54.949 43.6748 54.872C43.4363 54.6849 43.3886 54.3401 43.5757 54.1016L43.9022 53.6798C44.0893 53.4377 44.4341 53.3936 44.6725 53.5807C44.911 53.7678 44.9587 54.1126 44.7716 54.3511L44.4451 54.7729C44.3351 54.9123 44.1737 54.9857 44.0086 54.9857H44.0122Z" fill="#111111"/>
<path d="M74.7086 71.2842H45.3615C44.3491 71.2842 43.5273 72.1059 43.5273 73.1184V105.272H76.5427V73.1184C76.5427 72.1059 75.721 71.2842 74.7086 71.2842Z" fill="#FFDB43"/>
<path d="M48.662 75.6861H47.1946C46.7911 75.6861 46.4609 75.3559 46.4609 74.9524C46.4609 74.5489 46.7911 74.2188 47.1946 74.2188H48.662C49.0655 74.2188 49.3956 74.5489 49.3956 74.9524C49.3956 75.3559 49.0655 75.6861 48.662 75.6861Z" fill="#111111"/>
<path d="M43.5266 96.0018C43.1231 96.0018 42.793 95.6716 42.793 95.2681V73.1147C42.793 71.6987 43.9448 70.5469 45.3608 70.5469H74.7079C76.1239 70.5469 77.2757 71.6987 77.2757 73.1147V94.1676C77.2757 94.5711 76.9456 94.9012 76.542 94.9012C76.1385 94.9012 75.8084 94.5711 75.8084 94.1676V73.1147C75.8084 72.5095 75.3131 72.0142 74.7079 72.0142H45.3608C44.7556 72.0142 44.2603 72.5095 44.2603 73.1147V95.2681C44.2603 95.6716 43.9302 96.0018 43.5266 96.0018Z" fill="#111111"/>
<path d="M76.5402 86.4242V92.3743C76.5402 92.3743 73.7559 89.6634 70.9276 86.9671C68.213 84.3772 65.48 81.7727 64.1337 82.8915C62.7654 84.0287 65.2416 86.4022 67.6407 88.9517C70.0545 91.5159 72.3949 94.2488 72.3949 94.2488C72.3949 94.2488 69.7097 93.086 66.9987 91.857C64.2218 90.5988 61.1293 88.4565 60.0288 89.8761C58.6788 91.6149 61.962 93.6252 61.962 93.6252C61.962 93.6252 60.2196 93.2327 59.8674 94.7331C59.827 94.9018 59.827 95.0706 59.8527 95.2356L84.0787 95.2686C82.4499 93.1813 81.6649 91.3582 81.2027 90.6318C80.3663 89.3259 76.5438 86.4205 76.5438 86.4205L76.5402 86.4242Z" fill="white"/>
<path d="M84.0755 96.002C83.8554 96.002 83.639 95.9066 83.4959 95.7195C82.2817 94.1605 81.5223 92.7518 81.0234 91.8164C80.8473 91.4862 80.6933 91.2038 80.5796 91.0277C80.1247 90.316 78.5179 88.9367 77.2743 87.9316V92.3703C77.2743 92.6638 77.0983 92.9316 76.8268 93.0453C76.5553 93.159 76.2399 93.1003 76.0308 92.8949C76.0014 92.8692 73.2171 90.1546 70.4218 87.4914C68.4409 85.6021 65.4475 82.7481 64.6038 83.4488C64.4937 83.5405 64.4827 83.6102 64.479 83.6726C64.4314 84.4943 66.1738 86.3322 67.5751 87.8105L68.1731 88.4415C70.5722 90.9873 72.9273 93.7386 72.953 93.7643C73.1768 94.0247 73.1878 94.4026 72.986 94.6777C72.7842 94.9528 72.4174 95.0519 72.1056 94.9162C72.0799 94.9052 69.3837 93.7349 66.6984 92.517C66.0711 92.2309 65.4292 91.9044 64.8092 91.5889C63.2428 90.7892 61.0931 89.6924 60.6089 90.3197C60.4585 90.5104 60.4108 90.6939 60.4512 90.914C60.5869 91.6623 61.6874 92.5867 62.3477 92.9939C62.6522 93.181 62.7769 93.5625 62.6449 93.8963C62.5091 94.2302 62.1533 94.4136 61.8048 94.3366C61.5663 94.2852 60.7556 94.1751 60.5869 94.8978C60.5722 94.9675 60.5685 95.0409 60.5796 95.1216C60.6419 95.5214 60.3705 95.8956 59.9706 95.9616C59.5707 96.024 59.1929 95.7525 59.1305 95.3527C59.0902 95.0849 59.0975 94.8244 59.1562 94.5677C59.3213 93.8633 59.7175 93.4158 60.1944 93.1517C59.6625 92.6234 59.1489 91.9374 59.0095 91.1818C58.8958 90.5545 59.0462 89.9455 59.4497 89.4246C60.6786 87.8399 63.0117 89.0284 65.4768 90.2867C66.0821 90.5948 66.7057 90.914 67.3037 91.1854C68.1144 91.5523 68.9251 91.9154 69.6625 92.2456C68.8994 91.3908 68.0043 90.4077 67.1056 89.4539L66.5113 88.8267C64.5891 86.8017 62.9273 85.0519 63.0117 83.5919C63.041 83.0966 63.2648 82.6564 63.6647 82.3263C65.5135 80.7892 68.3895 83.5332 71.4343 86.4349C73.0814 88.0049 74.7285 89.5933 75.807 90.6388V86.4202C75.807 86.1414 75.9647 85.8883 76.2142 85.7636C76.4636 85.6388 76.7608 85.6682 76.9845 85.8369C77.3881 86.1414 80.9354 88.8597 81.8158 90.239C81.9589 90.4627 82.1166 90.7562 82.3147 91.1231C82.7916 92.0108 83.5143 93.3571 84.6551 94.8171C84.9046 95.1363 84.8459 95.5985 84.5267 95.8479C84.391 95.9506 84.2333 96.002 84.0755 96.002Z" fill="#111111"/>
<path d="M77.7887 93.7492C77.675 93.7492 77.5613 93.7235 77.4549 93.6684L76.2077 93.0265C75.8482 92.8431 75.7051 92.3992 75.8885 92.0397C76.0719 91.6802 76.5158 91.5371 76.8753 91.7205L78.1225 92.3625C78.482 92.5459 78.6251 92.9898 78.4417 93.3493C78.3133 93.6024 78.0565 93.7492 77.7887 93.7492Z" fill="#111111"/>
<path d="M64.8153 96.0023C64.6906 96.0023 64.5659 95.9692 64.4485 95.9032L61.5945 94.2561C61.2423 94.0544 61.1213 93.6068 61.3267 93.2546C61.5285 92.9025 61.976 92.7814 62.3282 92.9869L65.1822 94.634C65.5343 94.8357 65.6554 95.2833 65.45 95.6354C65.3142 95.8702 65.0684 96.0023 64.8153 96.0023Z" fill="#111111"/>
<path d="M31.5613 76.409C30.3765 75.2572 29.8262 74.3951 29.8262 74.3951C29.9069 74.8353 28.8394 71.2513 27.8049 67.4362C27.2583 65.4259 25.7983 60.3159 24.2099 59.2117C23.6707 58.8375 22.871 58.6798 22.1593 59.2227C21.6824 59.5895 21.3743 60.2902 21.7704 61.8272C22.0382 62.8727 25.6112 74.6152 25.7029 75.4993C25.7029 75.4993 24.298 74.4428 22.9333 75.1178C21.5687 75.7927 21.1432 77.5682 21.1432 77.5682C21.1432 77.5682 19.6978 77.5719 18.8981 78.4156C18.0947 79.2557 18.1864 80.8111 18.1864 80.8111C18.1864 80.8111 16.8658 80.7707 16.0331 82.0033C15.1454 83.3129 15.0133 85.0297 16.3816 87.1464C17.3794 88.6871 19.9326 95.2682 19.9326 95.2682H32.2437C32.2437 95.2682 34.0045 88.0378 34.298 86.4934C34.8519 83.5844 35.5049 81.0055 34.6244 79.1787C34.0669 78.0194 32.3574 77.1831 31.5613 76.4127V76.409Z" fill="white"/>
<path d="M19.9299 96.0019C19.6364 96.0019 19.3576 95.8258 19.2476 95.5323C18.5433 93.7202 16.5477 88.7569 15.7626 87.5426C13.9981 84.8133 14.6034 82.7994 15.4215 81.5888C16.0414 80.6754 16.8741 80.3122 17.4684 80.1692C17.5271 79.5272 17.7252 78.5808 18.3635 77.9095C19.0348 77.2051 19.9959 76.963 20.5939 76.8786C20.8543 76.2 21.4486 75.0334 22.6041 74.4612C23.3232 74.1053 24.0385 74.109 24.6328 74.2411C24.0715 72.2161 22.9453 68.4194 22.1933 65.8882C21.61 63.9256 21.1515 62.3739 21.0561 62.0107C20.6416 60.3929 20.858 59.2924 21.7091 58.6395C22.7472 57.8471 23.8954 58.1039 24.6218 58.6064C25.8984 59.4905 27.1676 62.3152 28.5066 67.2418C29.3576 70.3783 30.2307 73.3533 30.4508 74.0173C30.5352 74.142 31.0598 74.9014 32.0686 75.8808C32.2997 76.1046 32.6555 76.3614 33.0333 76.6292C33.8771 77.2345 34.8345 77.9205 35.2821 78.8522C36.1735 80.7084 35.7186 83.0305 35.1904 85.7158C35.1317 86.0129 35.073 86.3174 35.0143 86.6219C34.7208 88.1699 33.0223 95.1398 32.949 95.4333C32.8536 95.8258 32.4574 96.0679 32.0612 95.9725C31.6687 95.8772 31.4266 95.481 31.522 95.0848C31.5403 95.0114 33.2828 87.8544 33.5689 86.3467C33.6276 86.0386 33.6863 85.7341 33.745 85.4333C34.2219 83.0012 34.6364 80.9028 33.9541 79.4869C33.668 78.8926 32.8719 78.3203 32.1713 77.8177C31.7494 77.5133 31.3496 77.2271 31.0414 76.9263C30.1133 76.0239 29.5484 75.2829 29.3209 74.9564C29.1412 74.751 29.0385 74.4172 28.9248 74.054C28.8074 73.6761 28.646 73.1369 28.4552 72.4839C28.0187 70.9909 27.5198 69.2154 27.0869 67.616C25.4178 61.4751 24.2182 60.1068 23.7817 59.8023C23.5946 59.6703 23.0994 59.4098 22.5968 59.795C22.2667 60.0481 22.2263 60.6681 22.4721 61.6365C22.5601 61.974 23.037 63.5881 23.5946 65.459C25.4251 71.6255 26.3679 74.8574 26.4266 75.4113C26.4559 75.7011 26.3129 75.9836 26.0598 76.1266C25.8066 76.2697 25.4912 76.2513 25.2564 76.0753C25.2491 76.0716 24.1852 75.3049 23.2498 75.7671C22.2153 76.277 21.8485 77.7187 21.8448 77.7334C21.7641 78.0599 21.4706 78.291 21.1331 78.2946C20.8176 78.2946 19.8895 78.4157 19.4163 78.9146C18.9468 79.4098 18.8881 80.415 18.9064 80.7634C18.9174 80.9689 18.8404 81.1706 18.6973 81.3174C18.5543 81.4641 18.3562 81.5448 18.1507 81.5375C18.1141 81.5375 17.2116 81.5448 16.6284 82.4069C15.7993 83.6321 15.9204 85.0885 16.9842 86.7392C18.0113 88.324 20.4985 94.7216 20.6049 94.9931C20.7516 95.3709 20.5645 95.7965 20.1867 95.9432C20.0986 95.9762 20.0106 95.9946 19.9226 95.9946L19.9299 96.0019Z" fill="#111111"/>
<path d="M22.7763 90.1031C22.138 90.1031 21.5438 89.8207 21.1659 89.5015L18.8585 87.4435C18.5577 87.1721 18.5283 86.7099 18.7998 86.4091C19.0713 86.1083 19.5335 86.0789 19.8343 86.3504L22.127 88.3937C22.2591 88.5 22.7873 88.8705 23.2202 88.4267C23.7191 87.9131 23.2275 87.1868 23.1285 87.0547L19.6252 83.0672C19.3574 82.7627 19.3867 82.3005 19.6912 82.0327C19.9957 81.7649 20.4579 81.7942 20.7257 82.0987L24.2473 86.1046C24.2473 86.1046 24.2657 86.1229 24.273 86.1339C24.7719 86.7649 25.4139 88.2726 24.273 89.4465C23.8108 89.9234 23.2789 90.1031 22.7763 90.1031Z" fill="#111111"/>
<path d="M25.2086 87.9282C25.2086 87.9282 25.1719 87.9282 25.1536 87.9282C23.9577 87.8989 23.0076 86.9158 22.9012 86.802C22.6261 86.5049 22.6407 86.0427 22.9379 85.7639C23.235 85.4888 23.6972 85.5034 23.9724 85.7969C24.1338 85.9656 24.7024 86.4499 25.1939 86.4572C25.315 86.4572 25.5058 86.4389 25.7259 86.2261C26.3568 85.6135 26.0597 84.9055 25.7038 84.4213C25.5058 84.1498 22.439 79.9055 22.3069 79.7221C22.0685 79.3919 22.1455 78.9334 22.472 78.6986C22.8022 78.4601 23.2607 78.5335 23.4955 78.8637C23.5285 78.9077 26.687 83.2841 26.8814 83.5482C27.8388 84.8431 27.7875 86.2701 26.7457 87.2789C26.3091 87.7008 25.7772 87.9246 25.2086 87.9246V87.9282Z" fill="#111111"/>
<path d="M27.7335 85.3487C26.8898 85.3487 26.1524 84.8828 25.7746 84.505C25.4884 84.2188 25.4848 83.753 25.7746 83.4668C26.0607 83.1807 26.5266 83.177 26.8127 83.4668C26.9448 83.5952 27.6564 84.2152 28.3534 83.6209C28.9257 83.1293 28.4818 82.1242 28.4782 82.1132C28.3131 81.7464 28.4745 81.3098 28.8413 81.1447C29.2082 80.976 29.641 81.1337 29.8098 81.5006C30.1546 82.2453 30.4407 83.764 29.3072 84.7361C28.7826 85.1873 28.2397 85.3524 27.7335 85.3524V85.3487Z" fill="#111111"/>
<path d="M25.8415 92.3482C25.5334 92.3482 25.2509 92.1538 25.1445 91.8493C24.1137 88.7862 25.5517 86.4604 25.6141 86.3614C25.8305 86.0202 26.2854 85.9175 26.6265 86.134C26.9677 86.3504 27.0704 86.8053 26.854 87.1464C26.81 87.2161 25.7351 88.999 26.5348 91.3797C26.6632 91.7649 26.4578 92.1794 26.0726 92.3078C25.9956 92.3335 25.9149 92.3482 25.8378 92.3482H25.8415Z" fill="#111111"/>
<path d="M29.5966 81.2626C29.3912 81.2626 29.1858 81.1746 29.039 81.0058C29.0134 80.9765 28.3824 80.2355 26.9958 78.504C25.279 76.3617 24.8974 74.0909 26.0713 72.9794C26.5922 72.4842 27.2122 72.2567 27.8688 72.3118C29.2555 72.4328 30.3046 73.8048 30.4183 73.9589C30.6605 74.2854 30.5908 74.7439 30.2643 74.986C29.9378 75.2281 29.4792 75.1584 29.2371 74.8319C29.0464 74.5752 28.3567 73.8268 27.7368 73.7718C27.59 73.7608 27.3663 73.7718 27.0801 74.0432C26.5959 74.5018 26.8637 75.9875 28.144 77.5832C29.5123 79.2927 30.1506 80.041 30.1579 80.0484C30.422 80.3565 30.3853 80.8187 30.0772 81.0829C29.9378 81.2002 29.769 81.2589 29.6003 81.2589L29.5966 81.2626Z" fill="#111111"/>
</g>
<defs>
<clipPath id="clip0_368_619">
<rect width="96" height="96" rx="48" fill="white"/>
</clipPath>
</defs>
</svg>
