<svg width="96" height="96" viewBox="0 0 96 96" fill="none" xmlns="http://www.w3.org/2000/svg">
<g clip-path="url(#clip0_368_383)">
<rect width="96" height="96" rx="48" fill="#FEEDF0"/>
<path d="M69.4715 75.095C62.7998 72.5877 60.786 71.0963 59.6296 69.7958C58.4769 68.4954 58.1238 66.8382 58.1238 62.6306V49.543L48.7719 51.8449L39.42 49.543V62.6306C39.42 66.8418 39.067 68.499 37.9142 69.7958C36.7614 71.0963 34.744 72.5841 28.0723 75.095C21.4078 77.6023 41.3077 89.5912 41.3077 89.5912H56.2325C56.2325 89.5912 76.1288 77.6023 69.4679 75.095H69.4715Z" fill="white"/>
<path d="M56.2394 90.3121C55.9944 90.3121 55.7567 90.1896 55.6234 89.9627C55.418 89.6204 55.5261 89.1774 55.8684 88.972C61.5026 85.5749 70.3537 79.2166 70.116 76.6085C70.1016 76.4644 70.0691 76.0861 69.2226 75.7655C62.6878 73.3086 60.447 71.792 59.0961 70.2718C57.8029 68.8164 57.4066 67.0296 57.4066 62.6274V50.4584L48.9481 52.5406C48.8364 52.5694 48.7175 52.5694 48.6022 52.5406L40.1437 50.4584V62.6274C40.1437 67.0296 39.7511 68.8164 38.4542 70.2718C37.1033 71.792 34.8662 73.3086 28.3278 75.7655C27.4812 76.0825 27.4452 76.4644 27.4344 76.6085C27.1966 79.2166 36.0478 85.5749 41.682 88.972C42.0242 89.1774 42.1323 89.6204 41.9269 89.9627C41.7216 90.3049 41.2785 90.413 40.9363 90.2076C38.3749 88.6622 25.6079 80.7441 25.997 76.4788C26.0546 75.8303 26.4221 74.9441 27.8198 74.4182C34.4483 71.9253 36.3288 70.4915 37.3735 69.3171C38.3894 68.1752 38.6992 66.6117 38.6992 62.631V49.5434C38.6992 49.3236 38.8 49.1111 38.9766 48.9778C39.1495 48.8409 39.3764 48.7941 39.5926 48.8445L48.7716 51.1033L57.9506 48.8445C58.1667 48.7905 58.3937 48.8409 58.5666 48.9778C58.7395 49.1147 58.844 49.3236 58.844 49.5434V62.631C58.844 66.6117 59.1538 68.1752 60.1697 69.3171C61.2144 70.4951 63.0948 71.9289 69.7233 74.4182C71.121 74.9441 71.4849 75.8267 71.5461 76.4788C71.9352 80.7405 59.1718 88.6622 56.6069 90.2076C56.4916 90.2761 56.3619 90.3121 56.2358 90.3121H56.2394Z" fill="#111111"/>
<path d="M72.43 75.7793L68.9212 74.3852C68.4601 74.2015 67.9522 74.1835 67.4767 74.3312C65.0702 75.0805 57.0008 77.3896 48.7764 77.3896C40.5521 77.3896 32.4826 75.0805 30.0762 74.3312C29.6043 74.1835 29.0928 74.2015 28.6316 74.3852L25.1229 75.7793C21.805 77.0222 19.3914 78.4019 17.4713 81.7233C15.8754 84.4828 15.1658 98.903 14.7227 104.199H82.8302C82.3871 98.903 81.6775 84.4828 80.0816 81.7233C78.1615 78.4019 75.7479 77.0222 72.43 75.7793Z" fill="white"/>
<path d="M21.2211 78.8451C21.4696 78.5966 21.4696 78.1931 21.2211 77.9445C21.1598 77.8833 21.0878 77.8364 21.0121 77.8076C20.7095 78.0166 20.4213 78.2363 20.1367 78.4741C20.1547 78.611 20.2124 78.7442 20.3168 78.8487C20.5654 79.0973 20.9689 79.0973 21.2174 78.8487L21.2211 78.8451Z" fill="#BBBBBB"/>
<path d="M18.8999 81.1653C19.1485 80.9168 19.1485 80.5133 18.8999 80.2647C18.8063 80.1711 18.691 80.1134 18.5721 80.0918C18.3415 80.3836 18.1146 80.7006 17.8984 81.032C17.9273 81.0789 17.9561 81.1257 17.9993 81.1689C18.2479 81.4175 18.6513 81.4175 18.8999 81.1689V81.1653Z" fill="#BBBBBB"/>
<path d="M28.1808 76.5255C28.4294 76.2769 28.4294 75.8735 28.1808 75.6249C27.9322 75.3763 27.5287 75.3763 27.2802 75.6249C27.0316 75.8735 27.0316 76.2769 27.2802 76.5255C27.5287 76.7741 27.9322 76.7741 28.1808 76.5255Z" fill="#BBBBBB"/>
<path d="M24.956 77.9442C24.7074 78.1928 24.7074 78.5963 24.956 78.8448C25.2045 79.0934 25.608 79.0934 25.8566 78.8448C26.1051 78.5963 26.1051 78.1928 25.8566 77.9442C25.608 77.6957 25.2045 77.6957 24.956 77.9442Z" fill="#BBBBBB"/>
<path d="M22.6356 80.2646C22.3871 80.5131 22.3871 80.9166 22.6356 81.1652C22.8842 81.4137 23.2877 81.4137 23.5363 81.1652C23.7848 80.9166 23.7848 80.5131 23.5363 80.2646C23.2877 80.016 22.8842 80.016 22.6356 80.2646Z" fill="#BBBBBB"/>
<path d="M20.3192 82.581C20.0707 82.8295 20.0707 83.233 20.3192 83.4816C20.5678 83.7301 20.9713 83.7301 21.2198 83.4816C21.4684 83.233 21.4684 82.8295 21.2198 82.581C20.9713 82.3324 20.5678 82.3324 20.3192 82.581Z" fill="#BBBBBB"/>
<path d="M17.9989 84.9013C17.7504 85.1498 17.7504 85.5533 17.9989 85.8019C18.2475 86.0504 18.651 86.0504 18.8995 85.8019C19.1481 85.5533 19.1481 85.1498 18.8995 84.9013C18.651 84.6527 18.2475 84.6527 17.9989 84.9013Z" fill="#BBBBBB"/>
<path d="M16.5812 88.1251C16.8298 87.8766 16.8298 87.4731 16.5812 87.2245C16.3326 86.9759 15.9292 86.9759 15.6806 87.2245C15.6518 87.2533 15.6266 87.2822 15.605 87.3146C15.5725 87.4803 15.5401 87.6424 15.5077 87.8117C15.5329 87.927 15.5905 88.0351 15.677 88.1251C15.9256 88.3737 16.329 88.3737 16.5776 88.1251H16.5812Z" fill="#BBBBBB"/>
<path d="M32.8214 76.5255C33.07 76.2769 33.07 75.8735 32.8214 75.6249C32.5728 75.3763 32.1694 75.3763 31.9208 75.6249C31.6722 75.8735 31.6722 76.2769 31.9208 76.5255C32.1694 76.7741 32.5728 76.7741 32.8214 76.5255Z" fill="#BBBBBB"/>
<path d="M29.5966 77.9442C29.348 78.1928 29.348 78.5963 29.5966 78.8448C29.8451 79.0934 30.2486 79.0934 30.4972 78.8448C30.7458 78.5963 30.7458 78.1928 30.4972 77.9442C30.2486 77.6957 29.8451 77.6957 29.5966 77.9442Z" fill="#BBBBBB"/>
<path d="M27.2763 80.2646C27.0277 80.5131 27.0277 80.9166 27.2763 81.1652C27.5248 81.4137 27.9283 81.4137 28.1769 81.1652C28.4254 80.9166 28.4254 80.5131 28.1769 80.2646C27.9283 80.016 27.5248 80.016 27.2763 80.2646Z" fill="#BBBBBB"/>
<path d="M25.8605 83.4855C26.109 83.2369 26.109 82.8334 25.8605 82.5849C25.6119 82.3363 25.2084 82.3363 24.9599 82.5849C24.7113 82.8334 24.7113 83.2369 24.9599 83.4855C25.2084 83.734 25.6119 83.734 25.8605 83.4855Z" fill="#BBBBBB"/>
<path d="M22.6356 84.9013C22.3871 85.1498 22.3871 85.5533 22.6356 85.8019C22.8842 86.0504 23.2877 86.0504 23.5363 85.8019C23.7848 85.5533 23.7848 85.1498 23.5363 84.9013C23.2877 84.6527 22.8842 84.6527 22.6356 84.9013Z" fill="#BBBBBB"/>
<path d="M21.2198 87.2206C20.9713 86.972 20.5678 86.972 20.3192 87.2206C20.0707 87.4692 20.0707 87.8726 20.3192 88.1212C20.5678 88.3698 20.9713 88.3698 21.2198 88.1212C21.4684 87.8726 21.4684 87.4692 21.2198 87.2206Z" fill="#BBBBBB"/>
<path d="M17.9989 89.5409C17.7504 89.7895 17.7504 90.193 17.9989 90.4415C18.2475 90.6901 18.651 90.6901 18.8995 90.4415C19.1481 90.193 19.1481 89.7895 18.8995 89.5409C18.651 89.2924 18.2475 89.2924 17.9989 89.5409Z" fill="#BBBBBB"/>
<path d="M16.5792 91.8612C16.3307 91.6127 15.9272 91.6127 15.6786 91.8612C15.43 92.1098 15.43 92.5133 15.6786 92.7618C15.9272 93.0104 16.3307 93.0104 16.5792 92.7618C16.8278 92.5133 16.8278 92.1098 16.5792 91.8612Z" fill="#BBBBBB"/>
<path d="M34.2372 77.9442C33.9886 78.1928 33.9886 78.5963 34.2372 78.8448C34.4858 79.0934 34.8892 79.0934 35.1378 78.8448C35.3864 78.5963 35.3864 78.1928 35.1378 77.9442C34.8892 77.6957 34.4858 77.6957 34.2372 77.9442Z" fill="#BBBBBB"/>
<path d="M31.9169 80.2646C31.6683 80.5131 31.6683 80.9166 31.9169 81.1652C32.1655 81.4137 32.5689 81.4137 32.8175 81.1652C33.0661 80.9166 33.0661 80.5131 32.8175 80.2646C32.5689 80.016 32.1655 80.016 31.9169 80.2646Z" fill="#BBBBBB"/>
<path d="M30.5011 82.581C30.2525 82.3324 29.8491 82.3324 29.6005 82.581C29.3519 82.8295 29.3519 83.233 29.6005 83.4816C29.8491 83.7301 30.2525 83.7301 30.5011 83.4816C30.7497 83.233 30.7497 82.8295 30.5011 82.581Z" fill="#BBBBBB"/>
<path d="M28.1808 85.8048C28.4294 85.5562 28.4294 85.1528 28.1808 84.9042C27.9322 84.6556 27.5287 84.6556 27.2802 84.9042C27.0316 85.1528 27.0316 85.5562 27.2802 85.8048C27.5287 86.0534 27.9322 86.0534 28.1808 85.8048Z" fill="#BBBBBB"/>
<path d="M25.8605 87.2206C25.6119 86.972 25.2084 86.972 24.9599 87.2206C24.7113 87.4692 24.7113 87.8726 24.9599 88.1212C25.2084 88.3698 25.6119 88.3698 25.8605 88.1212C26.109 87.8726 26.109 87.4692 25.8605 87.2206Z" fill="#BBBBBB"/>
<path d="M23.5402 90.4454C23.7887 90.1969 23.7887 89.7934 23.5402 89.5448C23.2916 89.2963 22.8881 89.2963 22.6396 89.5448C22.391 89.7934 22.391 90.1969 22.6396 90.4454C22.8881 90.694 23.2916 90.694 23.5402 90.4454Z" fill="#BBBBBB"/>
<path d="M21.2198 91.8612C20.9713 91.6127 20.5678 91.6127 20.3192 91.8612C20.0707 92.1098 20.0707 92.5133 20.3192 92.7618C20.5678 93.0104 20.9713 93.0104 21.2198 92.7618C21.4684 92.5133 21.4684 92.1098 21.2198 91.8612Z" fill="#BBBBBB"/>
<path d="M38.8778 78.8448C39.1264 79.0934 39.5299 79.0934 39.7784 78.8448C40.027 78.5963 40.027 78.1928 39.7784 77.9442C39.5299 77.6957 39.1264 77.6957 38.8778 77.9442C38.6293 78.1928 38.6293 78.5963 38.8778 78.8448Z" fill="#BBBBBB"/>
<path d="M36.5575 80.2646C36.309 80.5131 36.309 80.9166 36.5575 81.1652C36.8061 81.4137 37.2096 81.4137 37.4581 81.1652C37.7067 80.9166 37.7067 80.5131 37.4581 80.2646C37.2096 80.016 36.8061 80.016 36.5575 80.2646Z" fill="#BBBBBB"/>
<path d="M35.1416 82.581C34.893 82.3324 34.4896 82.3324 34.241 82.581C33.9924 82.8295 33.9924 83.233 34.241 83.4816C34.4896 83.7301 34.893 83.7301 35.1416 83.4816C35.3902 83.233 35.3902 82.8295 35.1416 82.581Z" fill="#BBBBBB"/>
<path d="M32.8214 85.8048C33.07 85.5562 33.07 85.1528 32.8214 84.9042C32.5728 84.6556 32.1694 84.6556 31.9208 84.9042C31.6722 85.1528 31.6722 85.5562 31.9208 85.8048C32.1694 86.0534 32.5728 86.0534 32.8214 85.8048Z" fill="#BBBBBB"/>
<path d="M30.5011 87.2206C30.2525 86.972 29.8491 86.972 29.6005 87.2206C29.3519 87.4692 29.3519 87.8726 29.6005 88.1212C29.8491 88.3698 30.2525 88.3698 30.5011 88.1212C30.7497 87.8726 30.7497 87.4692 30.5011 87.2206Z" fill="#BBBBBB"/>
<path d="M28.1808 90.4454C28.4294 90.1969 28.4294 89.7934 28.1808 89.5448C27.9322 89.2963 27.5287 89.2963 27.2802 89.5448C27.0316 89.7934 27.0316 90.1969 27.2802 90.4454C27.5287 90.694 27.9322 90.694 28.1808 90.4454Z" fill="#BBBBBB"/>
<path d="M25.8605 91.8612C25.6119 91.6127 25.2084 91.6127 24.9599 91.8612C24.7113 92.1098 24.7113 92.5133 24.9599 92.7618C25.2084 93.0104 25.6119 93.0104 25.8605 92.7618C26.109 92.5133 26.109 92.1098 25.8605 91.8612Z" fill="#BBBBBB"/>
<path d="M44.4191 78.8448C44.6676 78.5963 44.6676 78.1928 44.4191 77.9442C44.1705 77.6957 43.767 77.6957 43.5185 77.9442C43.2699 78.1928 43.2699 78.5963 43.5185 78.8448C43.767 79.0934 44.1705 79.0934 44.4191 78.8448Z" fill="#BBBBBB"/>
<path d="M41.1981 80.2646C40.9496 80.5131 40.9496 80.9166 41.1981 81.1652C41.4467 81.4137 41.8502 81.4137 42.0988 81.1652C42.3473 80.9166 42.3473 80.5131 42.0988 80.2646C41.8502 80.016 41.4467 80.016 41.1981 80.2646Z" fill="#BBBBBB"/>
<path d="M38.8778 82.581C38.6293 82.8295 38.6293 83.233 38.8778 83.4816C39.1264 83.7301 39.5299 83.7301 39.7784 83.4816C40.027 83.233 40.027 82.8295 39.7784 82.581C39.5299 82.3324 39.1264 82.3324 38.8778 82.581Z" fill="#BBBBBB"/>
<path d="M37.462 85.8048C37.7106 85.5562 37.7106 85.1528 37.462 84.9042C37.2135 84.6556 36.81 84.6556 36.5614 84.9042C36.3129 85.1528 36.3129 85.5562 36.5614 85.8048C36.81 86.0534 37.2135 86.0534 37.462 85.8048Z" fill="#BBBBBB"/>
<path d="M35.1416 87.2206C34.893 86.972 34.4896 86.972 34.241 87.2206C33.9924 87.4692 33.9924 87.8726 34.241 88.1212C34.4896 88.3698 34.893 88.3698 35.1416 88.1212C35.3902 87.8726 35.3902 87.4692 35.1416 87.2206Z" fill="#BBBBBB"/>
<path d="M32.8214 90.4454C33.07 90.1969 33.07 89.7934 32.8214 89.5448C32.5728 89.2963 32.1694 89.2963 31.9208 89.5448C31.6722 89.7934 31.6722 90.1969 31.9208 90.4454C32.1694 90.694 32.5728 90.694 32.8214 90.4454Z" fill="#BBBBBB"/>
<path d="M30.5011 91.8612C30.2525 91.6127 29.8491 91.6127 29.6005 91.8612C29.3519 92.1098 29.3519 92.5133 29.6005 92.7618C29.8491 93.0104 30.2525 93.0104 30.5011 92.7618C30.7497 92.5133 30.7497 92.1098 30.5011 91.8612Z" fill="#BBBBBB"/>
<path d="M49.0597 78.8448C49.3083 78.5963 49.3083 78.1928 49.0597 77.9442C48.8111 77.6957 48.4076 77.6957 48.1591 77.9442C47.9105 78.1928 47.9105 78.5963 48.1591 78.8448C48.4076 79.0934 48.8111 79.0934 49.0597 78.8448Z" fill="#BBBBBB"/>
<path d="M45.8349 80.2646C45.5863 80.5131 45.5863 80.9166 45.8349 81.1652C46.0834 81.4137 46.4869 81.4137 46.7355 81.1652C46.984 80.9166 46.984 80.5131 46.7355 80.2646C46.4869 80.016 46.0834 80.016 45.8349 80.2646Z" fill="#BBBBBB"/>
<path d="M43.5185 82.581C43.2699 82.8295 43.2699 83.233 43.5185 83.4816C43.767 83.7301 44.1705 83.7301 44.4191 83.4816C44.6676 83.233 44.6676 82.8295 44.4191 82.581C44.1705 82.3324 43.767 82.3324 43.5185 82.581Z" fill="#BBBBBB"/>
<path d="M42.1027 84.9013C41.8541 84.6527 41.4506 84.6527 41.2021 84.9013C40.9535 85.1498 40.9535 85.5533 41.2021 85.8019C41.4506 86.0504 41.8541 86.0504 42.1027 85.8019C42.3512 85.5533 42.3512 85.1498 42.1027 84.9013Z" fill="#BBBBBB"/>
<path d="M39.7823 88.1251C40.0309 87.8766 40.0309 87.4731 39.7823 87.2245C39.5338 86.9759 39.1303 86.9759 38.8817 87.2245C38.6332 87.4731 38.6332 87.8766 38.8817 88.1251C39.1303 88.3737 39.5338 88.3737 39.7823 88.1251Z" fill="#BBBBBB"/>
<path d="M37.462 90.4454C37.7106 90.1969 37.7106 89.7934 37.462 89.5448C37.2135 89.2963 36.81 89.2963 36.5614 89.5448C36.3129 89.7934 36.3129 90.1969 36.5614 90.4454C36.81 90.694 37.2135 90.694 37.462 90.4454Z" fill="#BBBBBB"/>
<path d="M35.1416 91.8612C34.893 91.6127 34.4896 91.6127 34.241 91.8612C33.9924 92.1098 33.9924 92.5133 34.241 92.7618C34.4896 93.0104 34.893 93.0104 35.1416 92.7618C35.3902 92.5133 35.3902 92.1098 35.1416 91.8612Z" fill="#BBBBBB"/>
<path d="M53.6964 78.8448C53.945 78.5963 53.945 78.1928 53.6964 77.9442C53.4478 77.6957 53.0444 77.6957 52.7958 77.9442C52.5472 78.1928 52.5472 78.5963 52.7958 78.8448C53.0444 79.0934 53.4478 79.0934 53.6964 78.8448Z" fill="#BBBBBB"/>
<path d="M50.4755 80.2646C50.2269 80.5131 50.2269 80.9166 50.4755 81.1652C50.7241 81.4137 51.1275 81.4137 51.3761 81.1652C51.6247 80.9166 51.6247 80.5131 51.3761 80.2646C51.1275 80.016 50.7241 80.016 50.4755 80.2646Z" fill="#BBBBBB"/>
<path d="M48.1552 82.581C47.9066 82.8295 47.9066 83.233 48.1552 83.4816C48.4037 83.7301 48.8072 83.7301 49.0558 83.4816C49.3044 83.233 49.3044 82.8295 49.0558 82.581C48.8072 82.3324 48.4037 82.3324 48.1552 82.581Z" fill="#BBBBBB"/>
<path d="M45.8349 84.9013C45.5863 85.1498 45.5863 85.5533 45.8349 85.8019C46.0834 86.0504 46.4869 86.0504 46.7355 85.8019C46.984 85.5533 46.984 85.1498 46.7355 84.9013C46.4869 84.6527 46.0834 84.6527 45.8349 84.9013Z" fill="#BBBBBB"/>
<path d="M44.4191 88.1251C44.6676 87.8766 44.6676 87.4731 44.4191 87.2245C44.1705 86.9759 43.767 86.9759 43.5185 87.2245C43.2699 87.4731 43.2699 87.8766 43.5185 88.1251C43.767 88.3737 44.1705 88.3737 44.4191 88.1251Z" fill="#BBBBBB"/>
<path d="M42.1027 90.4454C42.3512 90.1969 42.3512 89.7934 42.1027 89.5448C41.8541 89.2963 41.4506 89.2963 41.2021 89.5448C40.9535 89.7934 40.9535 90.1969 41.2021 90.4454C41.4506 90.694 41.8541 90.694 42.1027 90.4454Z" fill="#BBBBBB"/>
<path d="M39.7823 91.8612C39.5338 91.6127 39.1303 91.6127 38.8817 91.8612C38.6332 92.1098 38.6332 92.5133 38.8817 92.7618C39.1303 93.0104 39.5338 93.0104 39.7823 92.7618C40.0309 92.5133 40.0309 92.1098 39.7823 91.8612Z" fill="#BBBBBB"/>
<path d="M57.4364 78.8448C57.685 79.0934 58.0885 79.0934 58.337 78.8448C58.5856 78.5963 58.5856 78.1928 58.337 77.9442C58.0885 77.6957 57.685 77.6957 57.4364 77.9442C57.1879 78.1928 57.1879 78.5963 57.4364 78.8448Z" fill="#BBBBBB"/>
<path d="M55.1161 80.2646C54.8675 80.5131 54.8675 80.9166 55.1161 81.1652C55.3647 81.4137 55.7682 81.4137 56.0167 81.1652C56.2653 80.9166 56.2653 80.5131 56.0167 80.2646C55.7682 80.016 55.3647 80.016 55.1161 80.2646Z" fill="#BBBBBB"/>
<path d="M52.7958 82.581C52.5472 82.8295 52.5472 83.233 52.7958 83.4816C53.0444 83.7301 53.4478 83.7301 53.6964 83.4816C53.945 83.233 53.945 82.8295 53.6964 82.581C53.4478 82.3324 53.0444 82.3324 52.7958 82.581Z" fill="#BBBBBB"/>
<path d="M50.4755 84.9013C50.2269 85.1498 50.2269 85.5533 50.4755 85.8019C50.7241 86.0504 51.1275 86.0504 51.3761 85.8019C51.6247 85.5533 51.6247 85.1498 51.3761 84.9013C51.1275 84.6527 50.7241 84.6527 50.4755 84.9013Z" fill="#BBBBBB"/>
<path d="M49.0597 87.2206C48.8111 86.972 48.4076 86.972 48.1591 87.2206C47.9105 87.4692 47.9105 87.8726 48.1591 88.1212C48.4076 88.3698 48.8111 88.3698 49.0597 88.1212C49.3083 87.8726 49.3083 87.4692 49.0597 87.2206Z" fill="#BBBBBB"/>
<path d="M46.7394 90.4454C46.9879 90.1969 46.9879 89.7934 46.7394 89.5448C46.4908 89.2963 46.0873 89.2963 45.8388 89.5448C45.5902 89.7934 45.5902 90.1969 45.8388 90.4454C46.0873 90.694 46.4908 90.694 46.7394 90.4454Z" fill="#BBBBBB"/>
<path d="M44.4191 91.8612C44.1705 91.6127 43.767 91.6127 43.5185 91.8612C43.2699 92.1098 43.2699 92.5133 43.5185 92.7618C43.767 93.0104 44.1705 93.0104 44.4191 92.7618C44.6676 92.5133 44.6676 92.1098 44.4191 91.8612Z" fill="#BBBBBB"/>
<path d="M65.298 76.5255C65.5465 76.2769 65.5465 75.8735 65.298 75.6249C65.0494 75.3763 64.6459 75.3763 64.3974 75.6249C64.1488 75.8735 64.1488 76.2769 64.3974 76.5255C64.6459 76.7741 65.0494 76.7741 65.298 76.5255Z" fill="#BBBBBB"/>
<path d="M62.0771 77.9442C61.8285 78.1928 61.8285 78.5963 62.0771 78.8448C62.3256 79.0934 62.7291 79.0934 62.9777 78.8448C63.2262 78.5963 63.2262 78.1928 62.9777 77.9442C62.7291 77.6957 62.3256 77.6957 62.0771 77.9442Z" fill="#BBBBBB"/>
<path d="M59.7567 80.2646C59.5082 80.5131 59.5082 80.9166 59.7567 81.1652C60.0053 81.4137 60.4088 81.4137 60.6573 81.1652C60.9059 80.9166 60.9059 80.5131 60.6573 80.2646C60.4088 80.016 60.0053 80.016 59.7567 80.2646Z" fill="#BBBBBB"/>
<path d="M57.4364 82.581C57.1879 82.8295 57.1879 83.233 57.4364 83.4816C57.685 83.7301 58.0885 83.7301 58.337 83.4816C58.5856 83.233 58.5856 82.8295 58.337 82.581C58.0885 82.3324 57.685 82.3324 57.4364 82.581Z" fill="#BBBBBB"/>
<path d="M55.1161 84.9013C54.8675 85.1498 54.8675 85.5533 55.1161 85.8019C55.3647 86.0504 55.7682 86.0504 56.0167 85.8019C56.2653 85.5533 56.2653 85.1498 56.0167 84.9013C55.7682 84.6527 55.3647 84.6527 55.1161 84.9013Z" fill="#BBBBBB"/>
<path d="M53.6964 87.2206C53.4478 86.972 53.0444 86.972 52.7958 87.2206C52.5472 87.4692 52.5472 87.8726 52.7958 88.1212C53.0444 88.3698 53.4478 88.3698 53.6964 88.1212C53.945 87.8726 53.945 87.4692 53.6964 87.2206Z" fill="#BBBBBB"/>
<path d="M51.3761 90.4454C51.6247 90.1969 51.6247 89.7934 51.3761 89.5448C51.1275 89.2963 50.7241 89.2963 50.4755 89.5448C50.2269 89.7934 50.2269 90.1969 50.4755 90.4454C50.7241 90.694 51.1275 90.694 51.3761 90.4454Z" fill="#BBBBBB"/>
<path d="M49.0597 91.8612C48.8111 91.6127 48.4076 91.6127 48.1591 91.8612C47.9105 92.1098 47.9105 92.5133 48.1591 92.7618C48.4076 93.0104 48.8111 93.0104 49.0597 92.7618C49.3083 92.5133 49.3083 92.1098 49.0597 91.8612Z" fill="#BBBBBB"/>
<path d="M69.038 76.5255C69.2866 76.7741 69.69 76.7741 69.9386 76.5255C70.1872 76.2769 70.1872 75.8735 69.9386 75.6249C69.69 75.3763 69.2866 75.3763 69.038 75.6249C68.7894 75.8735 68.7894 76.2769 69.038 76.5255Z" fill="#BBBBBB"/>
<path d="M66.7177 77.9442C66.4691 78.1928 66.4691 78.5963 66.7177 78.8448C66.9662 79.0934 67.3697 79.0934 67.6183 78.8448C67.8669 78.5963 67.8669 78.1928 67.6183 77.9442C67.3697 77.6957 66.9662 77.6957 66.7177 77.9442Z" fill="#BBBBBB"/>
<path d="M64.3974 80.2646C64.1488 80.5131 64.1488 80.9166 64.3974 81.1652C64.6459 81.4137 65.0494 81.4137 65.298 81.1652C65.5465 80.9166 65.5465 80.5131 65.298 80.2646C65.0494 80.016 64.6459 80.016 64.3974 80.2646Z" fill="#BBBBBB"/>
<path d="M62.0768 82.581C61.8282 82.8295 61.8282 83.233 62.0768 83.4816C62.3254 83.7301 62.7288 83.7301 62.9774 83.4816C63.226 83.233 63.226 82.8295 62.9774 82.581C62.7288 82.3324 62.3254 82.3324 62.0768 82.581Z" fill="#BBBBBB"/>
<path d="M60.6573 84.9013C60.4088 84.6527 60.0053 84.6527 59.7567 84.9013C59.5082 85.1498 59.5082 85.5533 59.7567 85.8019C60.0053 86.0504 60.4088 86.0504 60.6573 85.8019C60.9059 85.5533 60.9059 85.1498 60.6573 84.9013Z" fill="#BBBBBB"/>
<path d="M58.337 88.1251C58.5856 87.8766 58.5856 87.4731 58.337 87.2245C58.0885 86.9759 57.685 86.9759 57.4364 87.2245C57.1879 87.4731 57.1879 87.8766 57.4364 88.1251C57.685 88.3737 58.0885 88.3737 58.337 88.1251Z" fill="#BBBBBB"/>
<path d="M56.0167 90.4454C56.2653 90.1969 56.2653 89.7934 56.0167 89.5448C55.7682 89.2963 55.3647 89.2963 55.1161 89.5448C54.8675 89.7934 54.8675 90.1969 55.1161 90.4454C55.3647 90.694 55.7682 90.694 56.0167 90.4454Z" fill="#BBBBBB"/>
<path d="M53.6964 91.8612C53.4478 91.6127 53.0444 91.6127 52.7958 91.8612C52.5472 92.1098 52.5472 92.5133 52.7958 92.7618C53.0444 93.0104 53.4478 93.0104 53.6964 92.7618C53.945 92.5133 53.945 92.1098 53.6964 91.8612Z" fill="#BBBBBB"/>
<path d="M71.3544 77.9442C71.1058 78.1928 71.1058 78.5963 71.3544 78.8448C71.603 79.0934 72.0064 79.0934 72.255 78.8448C72.5036 78.5963 72.5036 78.1928 72.255 77.9442C72.0064 77.6957 71.603 77.6957 71.3544 77.9442Z" fill="#BBBBBB"/>
<path d="M69.038 80.2646C68.7894 80.5131 68.7894 80.9166 69.038 81.1652C69.2866 81.4137 69.69 81.4137 69.9386 81.1652C70.1872 80.9166 70.1872 80.5131 69.9386 80.2646C69.69 80.016 69.2866 80.016 69.038 80.2646Z" fill="#BBBBBB"/>
<path d="M66.7177 82.581C66.4691 82.8295 66.4691 83.233 66.7177 83.4816C66.9662 83.7301 67.3697 83.7301 67.6183 83.4816C67.8669 83.233 67.8669 82.8295 67.6183 82.581C67.3697 82.3324 66.9662 82.3324 66.7177 82.581Z" fill="#BBBBBB"/>
<path d="M65.298 84.9013C65.0494 84.6527 64.6459 84.6527 64.3974 84.9013C64.1488 85.1498 64.1488 85.5533 64.3974 85.8019C64.6459 86.0504 65.0494 86.0504 65.298 85.8019C65.5465 85.5533 65.5465 85.1498 65.298 84.9013Z" fill="#BBBBBB"/>
<path d="M62.9774 88.1251C63.226 87.8766 63.226 87.4731 62.9774 87.2245C62.7288 86.9759 62.3254 86.9759 62.0768 87.2245C61.8282 87.4731 61.8282 87.8766 62.0768 88.1251C62.3254 88.3737 62.7288 88.3737 62.9774 88.1251Z" fill="#BBBBBB"/>
<path d="M60.6573 90.4454C60.9059 90.1969 60.9059 89.7934 60.6573 89.5448C60.4088 89.2963 60.0053 89.2963 59.7567 89.5448C59.5082 89.7934 59.5082 90.1969 59.7567 90.4454C60.0053 90.694 60.4088 90.694 60.6573 90.4454Z" fill="#BBBBBB"/>
<path d="M58.337 91.8612C58.0885 91.6127 57.685 91.6127 57.4364 91.8612C57.1879 92.1098 57.1879 92.5133 57.4364 92.7618C57.685 93.0104 58.0885 93.0104 58.337 92.7618C58.5856 92.5133 58.5856 92.1098 58.337 91.8612Z" fill="#BBBBBB"/>
<path d="M75.995 77.945C75.7465 78.1936 75.7465 78.5971 75.995 78.8456C76.2436 79.0942 76.6471 79.0942 76.8956 78.8456C77.0757 78.6655 77.1262 78.4025 77.0433 78.1756C76.856 78.0315 76.6651 77.891 76.4705 77.7613C76.2976 77.7541 76.1247 77.8153 75.995 77.945Z" fill="#BBBBBB"/>
<path d="M73.6747 80.2646C73.4261 80.5131 73.4261 80.9166 73.6747 81.1652C73.9233 81.4137 74.3267 81.4137 74.5753 81.1652C74.8239 80.9166 74.8239 80.5131 74.5753 80.2646C74.3267 80.016 73.9233 80.016 73.6747 80.2646Z" fill="#BBBBBB"/>
<path d="M71.3544 82.581C71.1058 82.8295 71.1058 83.233 71.3544 83.4816C71.603 83.7301 72.0064 83.7301 72.255 83.4816C72.5036 83.233 72.5036 82.8295 72.255 82.581C72.0064 82.3324 71.603 82.3324 71.3544 82.581Z" fill="#BBBBBB"/>
<path d="M69.9386 84.9013C69.69 84.6527 69.2866 84.6527 69.038 84.9013C68.7894 85.1498 68.7894 85.5533 69.038 85.8019C69.2866 86.0504 69.69 86.0504 69.9386 85.8019C70.1872 85.5533 70.1872 85.1498 69.9386 84.9013Z" fill="#BBBBBB"/>
<path d="M67.6183 88.1251C67.8669 87.8766 67.8669 87.4731 67.6183 87.2245C67.3697 86.9759 66.9662 86.9759 66.7177 87.2245C66.4691 87.4731 66.4691 87.8766 66.7177 88.1251C66.9662 88.3737 67.3697 88.3737 67.6183 88.1251Z" fill="#BBBBBB"/>
<path d="M65.298 90.4454C65.5465 90.1969 65.5465 89.7934 65.298 89.5448C65.0494 89.2963 64.6459 89.2963 64.3974 89.5448C64.1488 89.7934 64.1488 90.1969 64.3974 90.4454C64.6459 90.694 65.0494 90.694 65.298 90.4454Z" fill="#BBBBBB"/>
<path d="M62.9774 91.8612C62.7288 91.6127 62.3254 91.6127 62.0768 91.8612C61.8282 92.1098 61.8282 92.5133 62.0768 92.7618C62.3254 93.0104 62.7288 93.0104 62.9774 92.7618C63.226 92.5133 63.226 92.1098 62.9774 91.8612Z" fill="#BBBBBB"/>
<path d="M78.3153 80.265C78.0668 80.5136 78.0668 80.9171 78.3153 81.1656C78.5639 81.4142 78.9674 81.4142 79.2159 81.1656C79.3564 81.0251 79.4141 80.8378 79.3961 80.6577C79.2664 80.474 79.1331 80.2938 78.9998 80.1245C78.7692 80.0345 78.4991 80.0813 78.3117 80.265H78.3153Z" fill="#BBBBBB"/>
<path d="M75.995 82.581C75.7465 82.8295 75.7465 83.233 75.995 83.4816C76.2436 83.7301 76.6471 83.7301 76.8956 83.4816C77.1442 83.233 77.1442 82.8295 76.8956 82.581C76.6471 82.3324 76.2436 82.3324 75.995 82.581Z" fill="#BBBBBB"/>
<path d="M74.5753 84.9013C74.3267 84.6527 73.9233 84.6527 73.6747 84.9013C73.4261 85.1498 73.4261 85.5533 73.6747 85.8019C73.9233 86.0504 74.3267 86.0504 74.5753 85.8019C74.8239 85.5533 74.8239 85.1498 74.5753 84.9013Z" fill="#BBBBBB"/>
<path d="M72.255 88.1251C72.5036 87.8766 72.5036 87.4731 72.255 87.2245C72.0064 86.9759 71.603 86.9759 71.3544 87.2245C71.1058 87.4731 71.1058 87.8766 71.3544 88.1251C71.603 88.3737 72.0064 88.3737 72.255 88.1251Z" fill="#BBBBBB"/>
<path d="M69.9386 90.4454C70.1872 90.1969 70.1872 89.7934 69.9386 89.5448C69.69 89.2963 69.2866 89.2963 69.038 89.5448C68.7894 89.7934 68.7894 90.1969 69.038 90.4454C69.2866 90.694 69.69 90.694 69.9386 90.4454Z" fill="#BBBBBB"/>
<path d="M67.6183 91.8612C67.3697 91.6127 66.9662 91.6127 66.7177 91.8612C66.4691 92.1098 66.4691 92.5133 66.7177 92.7618C66.9662 93.0104 67.3697 93.0104 67.6183 92.7618C67.8669 92.5133 67.8669 92.1098 67.6183 91.8612Z" fill="#BBBBBB"/>
<path d="M78.3153 84.9013C78.0668 85.1498 78.0668 85.5533 78.3153 85.8019C78.5639 86.0504 78.9674 86.0504 79.2159 85.8019C79.4645 85.5533 79.4645 85.1498 79.2159 84.9013C78.9674 84.6527 78.5639 84.6527 78.3153 84.9013Z" fill="#BBBBBB"/>
<path d="M76.8956 88.1251C77.1442 87.8766 77.1442 87.4731 76.8956 87.2245C76.6471 86.9759 76.2436 86.9759 75.995 87.2245C75.7465 87.4731 75.7465 87.8766 75.995 88.1251C76.2436 88.3737 76.6471 88.3737 76.8956 88.1251Z" fill="#BBBBBB"/>
<path d="M74.5753 90.4454C74.8239 90.1969 74.8239 89.7934 74.5753 89.5448C74.3267 89.2963 73.9233 89.2963 73.6747 89.5448C73.4261 89.7934 73.4261 90.1969 73.6747 90.4454C73.9233 90.694 74.3267 90.694 74.5753 90.4454Z" fill="#BBBBBB"/>
<path d="M72.255 91.8612C72.0064 91.6127 71.603 91.6127 71.3544 91.8612C71.1058 92.1098 71.1058 92.5133 71.3544 92.7618C71.603 93.0104 72.0064 93.0104 72.255 92.7618C72.5036 92.5133 72.5036 92.1098 72.255 91.8612Z" fill="#BBBBBB"/>
<path d="M80.6356 87.2206C80.3871 87.4692 80.3871 87.8726 80.6356 88.1212C80.8842 88.3698 81.2877 88.3698 81.5363 88.1212C81.7848 87.8726 81.7848 87.4692 81.5363 87.2206C81.2877 86.972 80.8842 86.972 80.6356 87.2206Z" fill="#BBBBBB"/>
<path d="M79.2159 90.4454C79.4645 90.1969 79.4645 89.7934 79.2159 89.5448C78.9674 89.2963 78.5639 89.2963 78.3153 89.5448C78.0668 89.7934 78.0668 90.1969 78.3153 90.4454C78.5639 90.694 78.9674 90.694 79.2159 90.4454Z" fill="#BBBBBB"/>
<path d="M76.8956 91.8612C76.6471 91.6127 76.2436 91.6127 75.995 91.8612C75.7465 92.1098 75.7465 92.5133 75.995 92.7618C76.2436 93.0104 76.6471 93.0104 76.8956 92.7618C77.1442 92.5133 77.1442 92.1098 76.8956 91.8612Z" fill="#BBBBBB"/>
<path d="M81.5363 91.8612C81.2877 91.6127 80.8842 91.6127 80.6356 91.8612C80.3871 92.1098 80.3871 92.5133 80.6356 92.7618C80.8842 93.0104 81.2877 93.0104 81.5363 92.7618C81.7848 92.5133 81.7848 92.1098 81.5363 91.8612Z" fill="#BBBBBB"/>
<path d="M45.6189 81.3746C46.0168 81.3746 46.3394 81.052 46.3394 80.6541C46.3394 80.2562 46.0168 79.9336 45.6189 79.9336C45.221 79.9336 44.8984 80.2562 44.8984 80.6541C44.8984 81.052 45.221 81.3746 45.6189 81.3746Z" fill="#111111"/>
<path d="M82.8242 94.9192C82.4531 94.9192 82.1397 94.6346 82.1073 94.2599C81.7615 90.1315 81.1491 85.0197 79.4523 82.0837C77.6619 78.9856 75.4248 77.6743 72.1718 76.4531L68.6486 75.0517C68.3424 74.9293 68.0038 74.9149 67.6904 75.0121C65.2335 75.7794 58.7419 77.6059 51.5659 78.0202C51.1768 78.0454 50.8274 77.7392 50.8058 77.3429C50.7842 76.9466 51.0868 76.6044 51.483 76.5828C58.6951 76.1649 65.3848 74.2232 67.2617 73.636C67.8885 73.4415 68.5694 73.4667 69.1818 73.7116L72.6905 75.1058C76.1489 76.4027 78.703 77.9049 80.6988 81.3596C82.1541 83.8777 83.0043 87.6963 83.5411 94.1374C83.5735 94.5337 83.2781 94.8831 82.8818 94.9156C82.8602 94.9156 82.8422 94.9156 82.8206 94.9156L82.8242 94.9192Z" fill="#111111"/>
<path d="M14.7229 94.9196C14.7013 94.9196 14.6833 94.9196 14.6617 94.9196C14.2654 94.8872 13.97 94.5378 14.0024 94.1415C14.5392 87.7039 15.3894 83.8818 16.8448 81.3637C18.8441 77.9089 21.3946 76.4067 24.8674 75.1062L28.3617 73.7157C28.9741 73.4743 29.655 73.4455 30.2854 73.6437C32.364 74.2921 39.7418 76.4247 47.451 76.6481C48.5858 76.6805 49.5044 77.5955 49.544 78.7267C49.6449 81.6302 49.8466 88.9576 49.49 94.2496C49.4648 94.6458 49.1261 94.9448 48.7227 94.9196C48.3264 94.8944 48.0238 94.5486 48.0526 94.1523C48.4021 88.9288 48.2039 81.6591 48.1031 78.7771C48.0886 78.4025 47.7824 78.0999 47.4078 78.0891C39.5149 77.8585 31.9786 75.679 29.8567 75.0198C29.5433 74.9225 29.2011 74.9333 28.8949 75.0558L25.3861 76.4499C22.1151 77.6748 19.8816 78.9897 18.0912 82.0842C16.3944 85.0201 15.782 90.132 15.4362 94.2604C15.4038 94.635 15.0904 94.9196 14.7193 94.9196H14.7229Z" fill="#111111"/>
<path d="M62.5108 39.4707L61.8264 31.6463C61.6282 29.3911 60.8717 27.2153 59.6109 25.3348C57.208 21.7396 52.6257 17.7085 45.3993 18.3101L45.2732 18.3209C38.0503 18.9837 34.2425 23.7497 32.499 27.7052C31.5875 29.7766 31.2165 32.0497 31.4146 34.3049L32.0991 42.1293C30.3591 41.6394 28.0932 42.2554 28.6047 47.1799C29.0586 51.5425 31.8901 53.6499 33.8535 53.722C34.1201 54.5397 34.4371 55.3323 34.8117 56.0311C37.2217 60.4153 43.1045 64.8463 47.6004 65.6532C47.6004 65.6532 48.4037 65.7901 49.4844 65.6964C50.5688 65.6028 51.3325 65.3254 51.3325 65.3254C55.6194 63.7511 60.6448 58.3655 62.255 53.6283C62.5 52.8754 62.6765 52.0396 62.7954 51.1895C64.7155 50.7788 67.1399 48.2066 66.8265 43.8333C66.4735 38.898 64.1355 38.6818 62.5072 39.4671L62.5108 39.4707Z" fill="white"/>
<path d="M48.7178 66.4528C47.9901 66.4528 47.5002 66.3699 47.475 66.3663C42.7738 65.5233 36.6893 60.9518 34.1748 56.3804C33.865 55.8004 33.5768 55.1339 33.3174 54.3918C30.9182 54.0027 28.3281 51.4955 27.885 47.2554C27.6184 44.6833 28.0507 42.9001 29.1674 41.9598C29.7474 41.4735 30.4823 41.2393 31.3001 41.2718L30.6985 34.3695C30.4895 31.9919 30.8858 29.5855 31.8404 27.4168C33.3138 24.0737 37.0063 18.3567 45.2091 17.6038L45.3387 17.593C53.5523 16.9085 58.1814 21.9015 60.2096 24.9347C61.5281 26.9053 62.335 29.2072 62.544 31.5848L63.1492 38.4871C63.9489 38.3106 64.7126 38.415 65.3683 38.7933C66.6327 39.5246 67.3676 41.2069 67.5513 43.7863C67.8539 48.0407 65.7357 50.9587 63.441 51.7584C63.3113 52.5366 63.1456 53.239 62.9438 53.855C61.2615 58.8012 56.0596 64.3597 51.5854 66.0061C51.5457 66.0205 50.7136 66.3159 49.55 66.4167C49.251 66.4419 48.9736 66.4528 48.725 66.4528H48.7178ZM31.1488 42.7127C30.7957 42.7127 30.4139 42.7956 30.0969 43.0622C29.5961 43.4836 29.0521 44.5284 29.3187 47.1077C29.7294 51.074 32.2331 52.9436 33.8758 53.0049C34.1784 53.0157 34.4414 53.2138 34.535 53.502C34.8088 54.345 35.115 55.0835 35.4429 55.6959C37.7304 59.8603 43.4727 64.1868 47.7236 64.9505C47.7236 64.9505 48.4548 65.0694 49.4203 64.9866C50.3857 64.9037 51.0846 64.6587 51.0918 64.6551C55.141 63.1673 60.0439 57.9078 61.5749 53.4047C61.7874 52.7563 61.9604 51.9746 62.0864 51.0956C62.1297 50.7966 62.353 50.5552 62.6484 50.494C64.2587 50.1481 66.3986 47.8714 66.114 43.8943C65.9302 41.3114 65.2134 40.3747 64.6478 40.0469C63.9921 39.6687 63.2284 39.9353 62.8285 40.1262C62.616 40.2307 62.3638 40.2198 62.1585 40.1046C61.9532 39.9893 61.8163 39.7767 61.7983 39.5426L61.1138 31.7181C60.9265 29.5783 60.2024 27.5141 59.0172 25.7453C57.1619 22.975 52.9399 18.4179 45.4648 19.0375L45.3423 19.0484C37.8781 19.7328 34.5098 24.9563 33.1625 28.0076C32.3051 29.9565 31.9485 32.118 32.1358 34.2542L32.8203 42.0787C32.8419 42.3129 32.7446 42.547 32.5609 42.6947C32.3808 42.846 32.1322 42.8965 31.9053 42.8316C31.7107 42.7776 31.4406 42.7199 31.1488 42.7199V42.7127Z" fill="#111111"/>
<path d="M44.8291 35.923C44.8291 35.923 47.9488 35.4295 48.536 30.1375C48.7377 28.3183 48.2874 25.5156 48.0965 24.5177C50.1679 24.0746 51.3891 25.6345 51.3891 25.6345C51.3891 25.6345 52.6716 29.5755 54.3359 31.8126C57.5529 36.1392 59.9125 36.3409 59.9125 36.3409C59.9125 36.3409 62.499 43.3873 62.7548 46.8708C62.8592 48.2938 63.2843 55.6319 58.4607 59.926C58.4607 59.926 58.9794 59.89 60.0421 61.3706C60.8131 62.4441 63.0358 60.8014 63.0358 60.8014C63.0358 60.8014 63.2555 59.4469 64.0985 58.7588C64.9631 58.0528 65.7196 57.8618 65.7196 57.8618C73.4144 52.9157 69.567 43.0883 68.4934 39.8569C67.4199 36.6255 61.656 24.388 57.5096 20.0795C51.9403 14.2904 47.5957 17.6767 47.5957 17.6767L45.3874 17.4137C45.3874 17.4137 42.5055 15.3964 37.5954 18.6926C32.7033 21.9744 27.5302 34.3271 25.8587 43.5241C23.7512 55.1348 31.619 59.6739 31.619 59.6739L32.8005 60.4376C32.8005 60.4376 33.6795 60.8843 34.6774 61.63C35.7365 62.4189 35.3907 63.7626 35.3907 63.7626C35.3907 63.7626 37.7791 64.321 38.5752 63.2439C39.3498 62.192 38.9895 60.9527 38.9895 60.9527C34.8756 56.5794 34.101 53.683 33.4634 48.9206C32.9194 44.839 33.3229 41.9715 33.8236 39.403C33.9137 38.9455 35.877 36.856 39.058 36.4238C42.1669 35.9987 44.8291 35.9194 44.8291 35.9194V35.923Z" fill="#FFDB43"/>
<path d="M32.8036 61.165C32.6703 61.165 32.5334 61.129 32.4146 61.0497L31.2402 60.2896C30.743 59.987 23.041 55.0481 25.1557 43.4014C26.8776 33.9306 32.1264 21.5022 37.1986 18.0979C42.4617 14.5676 45.6715 16.7326 45.8048 16.8263C46.1326 17.0532 46.2083 17.5035 45.9813 17.8314C45.7544 18.1556 45.3077 18.2348 44.9834 18.0115C44.8646 17.9322 42.3753 16.358 37.9983 19.2976C33.3008 22.4497 28.2033 34.6691 26.5714 43.6608C24.5829 54.6014 31.6797 58.8811 31.9823 59.0576L33.1927 59.8393C33.5277 60.0555 33.6214 60.5022 33.4052 60.8372C33.2683 61.0497 33.0342 61.165 32.8 61.165H32.8036Z" fill="#111111"/>
<path d="M65.723 58.5854C65.4852 58.5854 65.2547 58.4701 65.1178 58.2539C64.9016 57.9189 64.9989 57.4722 65.3339 57.2597C72.1641 52.8683 69.2462 44.2981 67.9997 40.638C67.9313 40.4399 67.87 40.2562 67.816 40.0905C66.7389 36.8483 61.0254 24.7729 56.9979 20.5869C51.9761 15.3706 48.2044 18.1336 48.0459 18.2561C47.7324 18.4975 47.2785 18.4363 47.0372 18.1228C46.7958 17.8094 46.8499 17.3591 47.1633 17.1178C47.2137 17.0781 52.0878 13.4073 58.039 19.589C62.3907 24.1137 68.151 36.5241 69.1849 39.6402C69.239 39.8023 69.3002 39.9824 69.3651 40.1769C70.6043 43.8154 73.8897 53.4771 66.1121 58.4773C65.9932 58.5565 65.8563 58.5926 65.723 58.5926V58.5854Z" fill="#111111"/>
<path d="M39.6542 62.2918C39.4849 62.2918 39.3119 62.2306 39.175 62.1117C28.991 53.0804 32.9176 39.2651 33.8074 36.5885C36.1454 29.5601 39.8019 24.2285 39.9568 24.0052C40.1837 23.6773 40.6304 23.5945 40.9583 23.8214C41.2861 24.0484 41.3689 24.4951 41.142 24.8229C41.1059 24.8769 37.4423 30.2158 35.1727 37.0424C34.3334 39.5713 30.6229 52.6049 40.1297 61.0346C40.4287 61.2975 40.4539 61.755 40.1909 62.0504C40.0504 62.2126 39.8523 62.2918 39.6506 62.2918H39.6542Z" fill="#111111"/>
<path d="M58.458 60.6493C58.2851 60.6493 58.1085 60.588 57.9716 60.4584C57.6799 60.1882 57.6618 59.7343 57.9284 59.4389C60.5906 56.5497 61.7326 52.4141 61.3255 47.1474L61.3147 46.9853C60.9473 41.9491 59.2937 36.3077 56.6676 31.0985C56.4874 30.7419 56.6315 30.3096 56.9846 30.1295C57.3376 29.9494 57.7735 30.0935 57.9536 30.4465C60.6663 35.8213 62.3702 41.6573 62.7521 46.8772L62.7629 47.0321C63.3105 54.1109 61.0121 58.214 58.9875 60.4115C58.847 60.5664 58.6525 60.6421 58.458 60.6421V60.6493Z" fill="#111111"/>
<path d="M62.3517 61.712C62.0635 61.712 61.7898 61.5355 61.6781 61.2509C61.2458 60.1341 61.0801 57.6196 63.5369 56.085C63.8756 55.8724 64.3187 55.9769 64.5312 56.3119C64.7438 56.6506 64.6393 57.0937 64.3043 57.3062C62.2329 58.6031 62.993 60.6457 63.0254 60.7321C63.1695 61.1032 62.9858 61.5211 62.6147 61.6652C62.5283 61.6976 62.4418 61.7156 62.3553 61.7156L62.3517 61.712Z" fill="#111111"/>
<path d="M36.0883 64.6121C35.9982 64.6121 35.9081 64.5941 35.8217 64.5617C35.4542 64.414 35.2741 63.9961 35.4182 63.6287C35.4542 63.535 36.1675 61.5681 34.0673 59.9578C33.7503 59.7164 33.6926 59.2625 33.934 58.9491C34.1754 58.6321 34.6293 58.5745 34.9427 58.8158C37.3347 60.6531 37.1762 63.1171 36.7547 64.1618C36.643 64.4428 36.3728 64.6157 36.0846 64.6157L36.0883 64.6121Z" fill="#111111"/>
<path d="M44.8279 36.6427C44.4785 36.6427 44.1723 36.3905 44.1182 36.0339C44.057 35.6448 44.32 35.2774 44.709 35.2125C44.8315 35.1873 47.31 34.6542 47.8215 30.0575C48.225 26.4154 47.0686 23.4902 47.0578 23.4614C46.9101 23.094 47.0866 22.6725 47.4577 22.5248C47.8287 22.3771 48.2466 22.5536 48.3943 22.9246C48.4483 23.0579 49.6984 26.2209 49.2553 30.2196C48.6141 35.9871 45.0945 36.6139 44.9432 36.6355C44.9036 36.6427 44.8675 36.6427 44.8279 36.6427Z" fill="#111111"/>
<path d="M39.0588 37.1509C38.7994 37.1509 38.5472 37.0104 38.4175 36.7618C38.2338 36.4088 38.3707 35.9729 38.7238 35.7892C43.0251 33.5485 43.533 26.866 43.5366 26.7975C43.5654 26.4012 43.904 26.1022 44.3039 26.1275C44.7002 26.1527 44.9992 26.4985 44.974 26.8948C44.9524 27.201 44.412 34.4527 39.3866 37.068C39.2785 37.1221 39.1669 37.1509 39.0552 37.1509H39.0588Z" fill="#111111"/>
<path d="M59.8783 37.5945C59.7702 37.5945 59.6622 37.5693 59.5613 37.5188C59.2695 37.3747 52.3997 33.8912 50.4651 24.8707C50.3823 24.4816 50.6309 24.0998 51.0199 24.0169C51.409 23.9341 51.7908 24.1826 51.8737 24.5717C53.6569 32.8861 60.1341 36.1967 60.1989 36.2291C60.5556 36.4057 60.6997 36.838 60.5231 37.1946C60.3971 37.4468 60.1413 37.5945 59.8783 37.5945Z" fill="#111111"/>
<path d="M55.8705 41.2289C55.4958 40.9083 55.0455 40.739 54.6349 40.7642C54.3142 40.7858 53.9936 40.9551 53.7306 41.2433C53.3596 41.6468 53.1579 42.2232 53.2011 42.7455C53.2407 43.2246 53.5145 43.7074 53.9396 44.0424C54.271 44.3018 54.6421 44.4279 54.9915 44.4026C55.0023 44.4026 55.0167 44.4026 55.0275 44.4026C55.7876 44.3234 56.5117 43.3183 56.4901 42.3781C56.4793 41.9818 56.2487 41.5531 55.8741 41.2325L55.8705 41.2289Z" fill="#111111"/>
<path d="M57.0617 42.5906C56.7771 42.5906 56.507 42.4213 56.3917 42.1403C56.3268 41.9854 55.664 40.5733 53.8448 40.8146C52.764 40.9587 52.2705 41.8737 52.2633 41.8809C52.0832 42.234 51.6473 42.3745 51.2942 42.1944C50.9412 42.0142 50.8007 41.5783 50.9808 41.2253C51.0132 41.1605 51.8166 39.6294 53.6538 39.3881C56.0386 39.071 57.3607 40.6957 57.7282 41.6C57.8759 41.9674 57.6994 42.3889 57.3319 42.5366C57.2418 42.5726 57.1518 42.5906 57.0617 42.5906Z" fill="#111111"/>
<path d="M40.0676 42.6951C40.381 42.3132 40.7953 42.0683 41.2059 42.025C41.5265 41.989 41.8688 42.1043 42.1822 42.3421C42.6145 42.6735 42.9171 43.2066 42.9675 43.729C43.0144 44.2081 42.8234 44.7341 42.4632 45.1339C42.1822 45.4473 41.8364 45.6347 41.4905 45.6707C41.4797 45.6707 41.4653 45.6707 41.4545 45.6707C40.6908 45.7247 39.8046 44.8602 39.6605 43.9307C39.6028 43.5417 39.7542 43.0769 40.0676 42.6951Z" fill="#111111"/>
<path d="M37.4979 44.7228C37.4546 44.7228 37.415 44.7192 37.3718 44.712C36.9827 44.6435 36.7197 44.2725 36.7882 43.8834C36.9719 42.8243 38.0202 40.7565 40.7004 40.5224C41.8856 40.4179 42.8403 41.1924 42.9447 41.2789C43.2473 41.5383 43.2834 41.9922 43.024 42.2948C42.7682 42.5974 42.3143 42.6334 42.0117 42.3776C41.9937 42.3632 41.4353 41.9057 40.8265 41.9597C38.6038 42.1543 38.2256 44.0564 38.2111 44.1356C38.1463 44.4814 37.8437 44.7264 37.5015 44.7264L37.4979 44.7228Z" fill="#111111"/>
<path d="M57.1477 38.2924C57.0468 38.2924 56.9459 38.2672 56.8523 38.2203C56.827 38.2059 54.2405 36.8802 51.8449 38.0186C51.5315 38.1663 51.1532 38.033 51.0055 37.7196C50.8578 37.4062 50.9911 37.0279 51.3045 36.8802C54.2801 35.4681 57.317 37.0423 57.4431 37.1072C57.7493 37.2693 57.8681 37.6511 57.706 37.961C57.5944 38.1735 57.3746 38.296 57.1477 38.296V38.2924Z" fill="#111111"/>
<path d="M36.9964 40.4727C36.8271 40.4727 36.6542 40.4043 36.5317 40.2674C36.2976 40.0116 36.3156 39.6117 36.5714 39.3776C36.6902 39.2695 39.4965 36.7478 42.7027 37.6304C43.0377 37.7241 43.2359 38.0699 43.1422 38.4049C43.0485 38.7399 42.7027 38.9381 42.3677 38.8444C39.8388 38.1491 37.4431 40.2854 37.4179 40.307C37.2954 40.4151 37.1441 40.4691 36.9928 40.4691L36.9964 40.4727Z" fill="#111111"/>
<path d="M47.3553 51.0277C47.4597 50.8836 47.784 51.0061 48.1946 50.9772C48.6017 50.9304 48.9007 50.7575 49.0304 50.88C49.1601 51.0061 49.0844 51.7085 48.2703 51.8022C47.4525 51.8526 47.2508 51.1754 47.3589 51.0277H47.3553Z" fill="#111111"/>
<path d="M48.3634 57.483C46.5334 57.483 45.4923 56.3627 45.4454 56.3086C45.2113 56.0529 45.2293 55.653 45.4887 55.4188C45.748 55.1847 46.1443 55.2027 46.3785 55.4621C46.4073 55.4945 47.2178 56.3338 48.6516 56.2114C50.0854 56.0853 50.7374 55.1162 50.7626 55.0766C50.9535 54.7884 51.3426 54.7019 51.6344 54.8893C51.9262 55.0766 52.0127 55.4621 51.8289 55.7539C51.7893 55.8151 50.8383 57.2849 48.7633 57.4686C48.6264 57.4794 48.4931 57.4866 48.3634 57.4866V57.483Z" fill="#111111"/>
<path d="M47.3553 51.0277C47.4597 50.8836 47.784 51.0061 48.1946 50.9772C48.6017 50.9304 48.9007 50.7575 49.0304 50.88C49.1601 51.0061 49.0844 51.7085 48.2703 51.8022C47.4525 51.8526 47.2508 51.1754 47.3589 51.0277H47.3553Z" fill="#111111"/>
<path d="M53.3818 69.1799C52.2542 67.5011 51.0438 65.8584 49.9739 65.6963C48.9364 65.5378 47.218 66.4816 45.3124 67.2742C43.1293 68.182 41.1912 68.8628 41.0435 69.8535C40.7625 71.7124 43.5292 71.7952 43.5292 71.7952L42.452 75.3832C42.452 75.3832 41.4109 75.7831 41.3677 77.4258C41.3425 78.4093 42.0846 79.5693 42.0846 79.5693C42.0846 79.5693 40.7589 81.4569 41.3713 82.8547C41.9837 84.256 46.0148 86.7561 46.0148 86.7561C46.0148 86.7561 44.6711 88.6618 44.5378 89.9767C44.3433 91.9112 45.1539 93.5647 45.1539 93.5647L45.2151 97.2795H54.6499V92.8947C54.6499 92.8947 54.8804 88.6654 55.4388 83.1213C55.9503 78.0526 56.4511 74.3602 56.3682 73.7333C56.271 73.0056 54.5994 70.9919 53.3782 69.1763L53.3818 69.1799Z" fill="white"/>
<path d="M54.6546 96.0001C54.2583 96.0001 53.9341 95.6759 53.9341 95.2796V92.8948C53.9341 92.8948 53.9341 92.8696 53.9341 92.8552C53.9341 92.8119 54.1719 88.5466 54.7267 83.0493C54.9176 81.1725 55.1085 79.4541 55.2634 78.0708C55.4868 76.0606 55.6993 74.1621 55.6597 73.8307C55.5948 73.4885 54.7086 72.2709 54.0638 71.3811C53.6351 70.7903 53.192 70.1814 52.7886 69.5798C52.1761 68.6684 50.746 66.5394 49.8706 66.4061C49.2726 66.316 48.0514 66.86 46.8662 67.3824C46.4555 67.5661 46.0304 67.7534 45.5945 67.9335C45.3567 68.0308 45.1226 68.1281 44.8956 68.2217C43.6024 68.7513 41.8336 69.4754 41.7615 69.9581C41.7183 70.2463 41.8011 70.394 41.8804 70.4877C42.2478 70.9308 43.2385 71.0604 43.5555 71.0712C43.7789 71.0785 43.9878 71.1901 44.1175 71.3703C44.2472 71.5504 44.2868 71.7845 44.222 71.9971L43.1448 75.5887C43.08 75.8012 42.9215 75.9742 42.7126 76.0534C42.6693 76.075 42.1182 76.3596 42.0893 77.4404C42.0749 78.06 42.5216 78.9029 42.6945 79.1767C42.8494 79.4217 42.8458 79.7387 42.6765 79.9801C42.3739 80.4124 41.6678 81.7272 42.0317 82.563C42.3919 83.388 44.7984 85.1496 46.3942 86.1402C46.5635 86.2447 46.6824 86.414 46.7221 86.6085C46.7617 86.8031 46.7221 87.0048 46.6068 87.1669C46.2645 87.6568 45.3531 89.123 45.2595 90.0453C45.0866 91.7384 45.7998 93.2262 45.807 93.2442C45.8503 93.3343 45.8755 93.4351 45.8791 93.5324L45.9403 95.2472C45.9547 95.6434 45.6449 95.9785 45.2451 95.9929C44.8308 96.0037 44.5138 95.6975 44.4994 95.2976L44.4417 93.7233C44.2328 93.2442 43.642 91.688 43.8221 89.8976C43.923 88.8961 44.5714 87.6929 45.0145 86.9652C43.7501 86.1366 41.2608 84.393 40.7096 83.1358C40.126 81.7957 40.8285 80.2647 41.2464 79.5442C40.9906 79.0542 40.6267 78.2113 40.6484 77.4007C40.6844 76.0426 41.3148 75.2573 41.8444 74.8934L42.5937 72.3897C41.9957 72.2565 41.2464 71.9827 40.7672 71.4099C40.3854 70.9524 40.2341 70.376 40.3277 69.742C40.5223 68.4523 42.2082 67.7642 44.3409 66.8888C44.5678 66.7952 44.7984 66.7015 45.0325 66.6042C45.4576 66.4277 45.8755 66.244 46.2754 66.0639C47.774 65.401 49.0672 64.8246 50.0795 64.9795C51.3296 65.1669 52.4968 66.5718 53.9774 68.7729C54.3664 69.3493 54.8023 69.9509 55.2238 70.5309C56.355 72.0871 56.9962 72.9949 57.0826 73.6362C57.1439 74.1009 57.0142 75.3041 56.69 78.2293C56.5351 79.609 56.3442 81.3238 56.1568 83.1934C55.6237 88.4674 55.3895 92.5958 55.3715 92.9128V95.2796C55.3715 95.6759 55.0473 96.0001 54.651 96.0001H54.6546Z" fill="#111111"/>
<path d="M51.4917 71.5755L49.2149 70.7325C47.7776 70.1525 45.2234 69.2231 44.3264 69.5185C43.4871 69.7887 43.0115 71.0495 42.8458 71.5791C42.7269 71.9573 42.9359 72.3608 43.3177 72.4833C43.696 72.6022 44.0995 72.3932 44.222 72.0114C44.366 71.5539 44.6326 71.0351 44.7875 70.891C45.2883 70.8622 47.1795 71.4638 48.6998 72.0762L50.9945 72.9264C51.0774 72.9552 51.1602 72.9696 51.2431 72.9696C51.5349 72.9696 51.8123 72.7895 51.9203 72.4977C52.0572 72.123 51.8663 71.7088 51.4953 71.5719L51.4917 71.5755Z" fill="#111111"/>
<path d="M42.4528 76.1074C42.0925 76.1074 41.7827 75.8372 41.7395 75.4733C41.6926 75.0771 41.9736 74.7204 42.3699 74.6736L48.4724 73.9387C48.8687 73.8919 49.2253 74.1728 49.2722 74.5691C49.319 74.9654 49.038 75.322 48.6417 75.3689L42.5392 76.1038C42.5104 76.1038 42.4816 76.1074 42.4528 76.1074Z" fill="#111111"/>
<path d="M42.092 80.2898C41.7389 80.2898 41.4327 80.0304 41.3787 79.6702C41.321 79.2775 41.5984 78.9101 41.9911 78.856L47.6433 78.0527C48.036 77.9987 48.4034 78.2724 48.4575 78.6651C48.5151 79.0578 48.2377 79.4252 47.845 79.4793L42.1928 80.2826C42.1568 80.2862 42.1244 80.2898 42.092 80.2898Z" fill="#111111"/>
<path d="M46.02 87.4763C45.9408 87.4763 45.8579 87.4618 45.7786 87.433C45.404 87.2997 45.2095 86.8855 45.3428 86.5108L46.3586 83.6685L45.8939 83.0273L44.1431 83.3983C43.7505 83.4812 43.3722 83.2326 43.2894 82.8435C43.2065 82.4545 43.4551 82.0726 43.8441 81.9897L46.0524 81.525C46.3334 81.4674 46.618 81.5755 46.7837 81.806L47.7456 83.1317C47.8861 83.3226 47.9221 83.5748 47.8392 83.7982L46.6937 87.0007C46.5892 87.2961 46.3118 87.4799 46.0164 87.4799L46.02 87.4763Z" fill="#111111"/>
<path d="M49.6807 72.3966C49.4466 72.3966 49.216 72.2814 49.0791 72.0724L48.1317 70.6423C47.9119 70.3108 48.002 69.8641 48.337 69.6444C48.6684 69.4246 49.1152 69.5147 49.3349 69.8497L50.2823 71.2799C50.5021 71.6113 50.412 72.058 50.077 72.2778C49.9545 72.357 49.8176 72.3966 49.6807 72.3966Z" fill="#111111"/>
</g>
<defs>
<clipPath id="clip0_368_383">
<rect width="96" height="96" rx="48" fill="white"/>
</clipPath>
</defs>
</svg>
