<svg width="96" height="96" viewBox="0 0 96 96" fill="none" xmlns="http://www.w3.org/2000/svg">
<g clip-path="url(#clip0_368_690)">
<rect width="96" height="96" rx="48" fill="#F0EAF3"/>
<path d="M27.2328 75.2381C33.9751 72.7043 36.0101 71.1971 37.1787 69.8829C38.3437 68.5687 38.7004 66.8941 38.7004 62.642V49.416L48.1512 51.7423L57.6019 49.416V62.642C57.6019 66.8977 57.9587 68.5723 59.1236 69.8829C60.2886 71.1935 62.3273 72.7007 69.0695 75.2381C75.8044 77.7719 55.6943 89.8875 55.6943 89.8875H40.6117C40.6117 89.8875 20.5052 77.7719 27.2365 75.2381H27.2328Z" fill="white"/>
<path d="M40.6089 90.6158C40.8564 90.6158 41.0967 90.492 41.2314 90.2627C41.4389 89.9168 41.3297 89.469 40.9839 89.2615C35.2901 85.8285 26.3454 79.403 26.5857 76.7673C26.6002 76.6217 26.633 76.2395 27.4885 75.9154C34.0924 73.4326 36.3568 71.9 37.722 70.3637C39.0289 68.8929 39.4294 67.0872 39.4294 62.6385V50.3409L47.9773 52.4451C48.0901 52.4743 48.2103 52.4743 48.3267 52.4451L56.8746 50.3409V62.6385C56.8746 67.0872 57.2715 68.8929 58.582 70.3637C59.9472 71.9 62.208 73.4326 68.8155 75.9154C69.671 76.2358 69.7074 76.6217 69.7183 76.7673C69.9586 79.403 61.0139 85.8285 55.3201 89.2615C54.9743 89.469 54.8651 89.9168 55.0726 90.2627C55.2801 90.6085 55.7279 90.7177 56.0737 90.5102C58.6621 88.9484 71.5641 80.9466 71.1709 76.6363C71.1126 75.981 70.7413 75.0854 69.3288 74.5539C62.6303 72.0347 60.7299 70.5858 59.6742 69.3989C58.6476 68.2449 58.3345 66.6649 58.3345 62.6422V49.4162C58.3345 49.1942 58.2326 48.983 58.0542 48.8447C57.8794 48.7063 57.6464 48.659 57.4316 48.71L48.1556 50.9926L38.8797 48.71C38.6612 48.6554 38.4319 48.7063 38.2571 48.8447C38.0824 48.983 37.9768 49.1942 37.9768 49.4162V62.6422C37.9768 66.6649 37.6637 68.2449 36.6371 69.3989C35.5814 70.5894 33.6774 72.0383 26.9825 74.5539C25.57 75.0854 25.2023 75.9773 25.1404 76.6363C24.7472 80.943 37.6455 88.9484 40.2376 90.5102C40.354 90.5794 40.4851 90.6158 40.6125 90.6158H40.6089Z" fill="#111111"/>
<path d="M48.1453 77.1019C56.7114 77.1019 65.1901 76.0098 65.1901 76.0098L68.3828 75.5547L67.9205 104.544H28.3773L27.7985 75.5547L31.1296 76.0098C31.1296 76.0098 39.5828 77.1019 48.1453 77.1019Z" fill="white"/>
<path d="M48.1458 77.8304C51.3385 77.8304 54.8734 77.6811 58.6486 77.3862L63.9856 76.8838C64.3861 76.8474 64.6809 76.4907 64.6409 76.0902C64.6045 75.6897 64.2477 75.3949 63.8473 75.4349L58.5212 75.9373C54.7933 76.2285 51.2985 76.3742 48.1421 76.3742C39.7253 76.3742 31.3012 75.3002 31.2175 75.2893L28.458 74.9544C28.0575 74.907 27.6971 75.191 27.6461 75.5915C27.5988 75.9919 27.8828 76.3523 28.2832 76.4033L31.0391 76.7382C31.1192 76.7491 39.6307 77.834 48.1421 77.834L48.1458 77.8304Z" fill="#111111"/>
<path d="M72.0485 75.9299C75.6853 77.7283 77.8405 78.5802 79.7809 81.9368C81.3936 84.7254 82.1108 89.1923 82.5586 94.5438H61.9861C65.3827 84.0082 67.2758 73.833 67.2758 73.833L72.0485 75.9299Z" fill="#FFDB43"/>
<path d="M61.9899 95.2723C62.2957 95.2723 62.5833 95.0757 62.6816 94.7662C65.4739 86.1055 67.2723 77.5904 67.8184 74.8636L71.7574 76.5929L72.562 76.9897C75.6273 78.4896 77.4766 79.3961 79.1549 82.2975C80.8696 85.2645 81.4885 90.4304 81.838 94.6024C81.8707 95.0029 82.2238 95.3014 82.6243 95.2686C83.0248 95.2359 83.3233 94.8827 83.2905 94.4823C82.7481 87.9767 81.8889 84.1141 80.4182 81.5694C78.5178 78.2857 76.4063 77.2482 73.2063 75.6827L72.3763 75.275L67.5745 73.1635C67.3706 73.0725 67.1376 73.0834 66.941 73.1854C66.7444 73.2909 66.6061 73.4766 66.566 73.695C66.5478 73.797 64.6439 83.9503 61.2982 94.3148C61.1745 94.6971 61.3856 95.1085 61.7679 95.2322C61.8407 95.2577 61.9171 95.2686 61.9899 95.2686V95.2723Z" fill="#111111"/>
<path d="M24.2463 75.9299L29.0189 73.833C29.0189 73.833 30.912 84.0082 34.3086 94.5438H13.7361C14.1839 89.1923 14.9011 84.7254 16.5138 81.9368C18.4542 78.5802 20.6094 77.7283 24.2463 75.9299Z" fill="#FFDB43"/>
<path d="M34.3041 95.2718C34.3769 95.2718 34.4534 95.2609 34.5262 95.2354C34.9085 95.1117 35.1196 94.7003 34.9958 94.318C31.6539 83.9499 29.7462 73.7965 29.728 73.6982C29.688 73.4798 29.5496 73.2905 29.3531 73.1886C29.1565 73.083 28.9235 73.0757 28.7196 73.1667L23.9469 75.2636L23.0878 75.6859C19.8878 77.2514 17.7763 78.2889 15.8759 81.5726C14.4052 84.1173 13.546 87.9763 13.0036 94.4855C12.9708 94.8859 13.2693 95.2391 13.6698 95.2718C14.0702 95.3046 14.4234 95.0061 14.4561 94.6056C14.802 90.4336 15.4209 85.2677 17.1392 82.3007C18.8174 79.3993 20.6668 78.4928 23.7321 76.9929L24.5658 76.5815L28.4757 74.8632C29.0218 77.5899 30.8202 86.1051 33.6124 94.7658C33.7107 95.0753 33.9983 95.2718 34.3041 95.2718Z" fill="#111111"/>
<path d="M31.4283 27.2052C34.3917 20.2482 39.7577 17.07 44.0463 16.7715C49.3323 16.4038 51.3273 18.4134 51.3273 18.4134C51.3273 18.4134 54.0285 17.252 58.2697 19.815C63.6249 23.0514 67.2035 31.6502 69.1075 37.4677C69.9994 40.1908 70.7748 43.0413 70.2943 45.8482C69.821 48.6077 68.6888 51.3308 67.1416 53.6971C65.6308 56.0088 64.3238 57.6907 66.2497 59.8714H32.7207C32.7207 59.8714 33.3687 57.5815 30.2779 55.561C24.3147 51.6584 24.7734 45.4805 27.5439 38.2978C29.2258 33.9365 29.2695 32.2727 31.4283 27.2052Z" fill="#111111"/>
<path d="M66.2517 60.5998C66.4228 60.5998 66.5939 60.5415 66.7323 60.4178C67.0344 60.152 67.0636 59.6933 66.7978 59.3911C65.4108 57.8184 66.0115 56.7481 67.5041 54.4837L67.7553 54.1015C69.4117 51.5677 70.5366 48.7609 71.0135 45.9795C71.5377 42.9361 70.664 39.8781 69.8012 37.2496C67.697 30.8205 64.0529 22.4692 58.6467 19.2C55.0827 17.0448 52.4797 17.3579 51.4822 17.6091C50.6558 17.0084 48.3587 15.7488 43.9937 16.051C39.7088 16.3495 33.9787 19.3602 30.7569 26.9252C29.5154 29.8412 28.9548 31.6833 28.4087 33.4635C28.001 34.8032 27.5787 36.1866 26.8615 38.0432C24.5425 44.0501 22.7914 51.5386 29.8759 56.1766C32.4351 57.8512 32.031 59.6168 32.0128 59.6897C31.9182 60.0756 32.1475 60.4724 32.5298 60.5743C32.9157 60.6762 33.3088 60.4578 33.4144 60.0756C33.4472 59.9627 34.168 57.2469 30.6695 54.957C25.7584 51.7424 25.0231 46.8387 28.2158 38.5675C28.9512 36.6599 29.3807 35.251 29.7958 33.8894C30.3528 32.0655 30.877 30.3436 32.0893 27.4967C35.0563 20.5288 40.4078 17.7584 44.0884 17.5035C48.912 17.1686 50.7905 18.9197 50.8087 18.9379C51.0199 19.1418 51.3366 19.2037 51.606 19.0872C51.697 19.0508 54.0633 18.1333 57.8859 20.4451C62.9098 23.4812 66.3792 31.5049 68.4069 37.701C69.2115 40.162 70.0342 43.0162 69.5682 45.732C69.1241 48.3204 68.072 50.9379 66.5248 53.3042L66.2772 53.6828C64.8574 55.8416 63.5141 57.8803 65.6984 60.3559C65.844 60.5197 66.0442 60.6034 66.2445 60.6034L66.2517 60.5998Z" fill="#111111"/>
<path d="M34.3937 39.0084C34.3937 39.0084 40.3787 36.3581 44.4269 32.3827C49.0358 27.8539 50.0369 22.5679 50.0369 22.5679L51.6533 21.7051C52.4215 22.506 52.3741 23.3178 52.3741 23.3178C56.8847 24.2389 59.4076 28.1342 60.052 33.7988C60.7801 40.2134 63.5723 40.5774 63.5723 40.5774C63.8417 40.5774 64.0747 40.5083 64.2786 40.3845C65.8586 40.1224 67.606 41.0143 67.5368 45.3538C67.464 49.7843 64.7992 52.1579 62.8297 52.4018C62.6331 53.2464 62.3855 54.0728 62.0688 54.8118C60.0301 59.4389 54.4966 64.4191 50.0406 65.6277C50.0406 65.6277 49.2433 65.8389 48.1475 65.8389C47.0517 65.8389 46.2545 65.6277 46.2545 65.6277C41.7985 64.4191 36.2649 59.4389 34.2263 54.8118C34.0479 54.3931 33.1814 52.1178 33.3707 46.9956C33.5309 42.6525 34.3937 39.0047 34.3937 39.0047V39.0084Z" fill="white"/>
<path d="M48.1494 66.5668C49.329 66.5668 50.1918 66.3411 50.2282 66.3338C54.8844 65.0706 60.6109 59.9302 62.7369 55.1102C62.9954 54.5022 63.2284 53.8069 63.425 53.0351C65.8059 52.4308 68.194 49.6822 68.2632 45.3718C68.3033 42.9363 67.7899 41.2435 66.7378 40.337C66.0461 39.74 65.1542 39.5106 64.1604 39.6744C64.0694 39.689 63.9856 39.7218 63.9055 39.7655C63.8218 39.8164 63.7344 39.8455 63.6325 39.8528C63.3631 39.7691 61.3681 38.9755 60.7711 33.7222C60.0903 27.7336 57.349 23.8528 53.0277 22.7279C52.9294 22.3129 52.7001 21.7523 52.1722 21.2025C51.8919 20.9113 51.4332 20.904 51.1419 21.1807C50.8507 21.461 50.8434 21.9197 51.1201 22.211C51.6407 22.7534 51.6407 23.274 51.6407 23.2958C51.637 23.6453 51.881 23.9657 52.2232 24.0349C57.2835 25.0688 58.878 29.9616 59.3221 33.8824C60.0939 40.6683 63.1301 41.2581 63.4723 41.3018C63.5051 41.3054 63.5488 41.3163 63.567 41.309C63.9019 41.309 64.215 41.2362 64.5062 41.0906C65.0195 41.0287 65.4491 41.1452 65.784 41.4365C66.2719 41.8551 66.8434 42.8744 66.8034 45.3463C66.7378 49.3764 64.3824 51.4806 62.7333 51.6845C62.4311 51.7209 62.1836 51.9466 62.1144 52.2415C61.9105 53.1188 61.6666 53.887 61.3936 54.5313C59.4568 58.9254 54.058 63.7855 49.8459 64.9286C49.8459 64.9286 49.1215 65.1143 48.1422 65.1143C47.1629 65.1143 46.4384 64.9286 46.4311 64.9286C42.2227 63.7891 36.8238 58.9254 34.8871 54.524C34.7269 54.1454 33.9114 51.9684 34.0935 47.0283C34.2209 43.5552 34.8106 40.5154 35.0218 39.5215C36.3651 38.8917 41.3453 36.4308 44.9312 32.9068C49.6493 28.2688 50.7014 22.9318 50.7451 22.7061C50.8216 22.3093 50.5595 21.9306 50.1663 21.8542C49.7695 21.7777 49.3909 22.0399 49.3144 22.433C49.3035 22.4949 48.2841 27.5661 43.9119 31.8656C40.2896 35.426 34.9781 37.9379 34.1918 38.2983C33.7658 38.3857 33.6821 38.7862 33.5365 39.5033C33.46 39.8856 33.3399 40.4972 33.2161 41.2617C32.9977 42.6087 32.721 44.6947 32.6373 46.9773C32.448 52.0922 33.2889 54.4913 33.551 55.1065C35.6807 59.9375 41.4072 65.0742 46.0562 66.3375C46.0962 66.3484 46.9626 66.5741 48.1422 66.5741L48.1494 66.5668Z" fill="#111111"/>
<path d="M63.5216 42.6263L63.5726 40.5767C65.2799 39.9287 67.6171 40.351 67.5371 45.3531C67.4642 49.7836 64.7994 52.1572 62.8299 52.4011L63.3104 48.1635L63.5216 42.6227V42.6263Z" fill="white"/>
<path d="M62.8281 53.1325C62.8572 53.1325 62.8864 53.1325 62.9191 53.1252C65.4529 52.8085 68.1906 49.9798 68.2634 45.3637C68.3071 42.7498 67.7137 40.9951 66.505 40.1469C65.6349 39.5352 64.4991 39.4442 63.3123 39.8957C63.0356 40.0012 62.85 40.2633 62.8427 40.5582L62.7917 42.6078C62.7808 43.0083 63.1011 43.3432 63.5016 43.3541C63.9021 43.3614 64.237 43.0447 64.2479 42.6442L64.2843 41.1261C64.703 41.0388 65.2272 41.0315 65.6677 41.3409C66.2101 41.7232 66.8472 42.728 66.8072 45.3455C66.7526 48.6547 65.158 50.6606 63.6763 51.3887L64.0331 48.2506C64.0768 47.8502 63.7928 47.4897 63.3924 47.4461C62.9919 47.3987 62.6315 47.6863 62.5878 48.0868L62.1073 52.3243C62.0818 52.5464 62.1583 52.7685 62.3184 52.925C62.4568 53.0597 62.6388 53.1362 62.8318 53.1362L62.8281 53.1325Z" fill="#111111"/>
<path d="M63.4506 60.982C63.7455 60.982 64.0258 60.8 64.1351 60.5051C64.2734 60.1265 64.0804 59.7078 63.7018 59.5695C63.6363 59.544 61.8889 58.8232 62.1947 56.0928C62.2384 55.6923 61.9508 55.3319 61.5503 55.2882C61.1498 55.2409 60.7894 55.5322 60.7457 55.9326C60.3963 59.0525 62.1983 60.5706 63.1994 60.9383C63.2832 60.9674 63.3669 60.982 63.4506 60.982Z" fill="#111111"/>
<path d="M34.3975 39.7355C34.7398 39.7355 35.0456 39.4916 35.1111 39.1457C35.122 39.0948 36.094 34.0781 38.0016 29.1307C38.1473 28.7557 37.958 28.3334 37.583 28.1878C37.208 28.0422 36.7857 28.2315 36.6401 28.6065C34.6851 33.6813 33.7168 38.6615 33.6767 38.8727C33.6003 39.2659 33.8588 39.6481 34.2556 39.7246C34.3029 39.7318 34.3466 39.7391 34.3939 39.7391L34.3975 39.7355Z" fill="#111111"/>
<path d="M34.0172 31.8514C34.2975 31.8514 34.5633 31.6913 34.6834 31.4182C34.6834 31.4109 35.0329 30.6392 35.5644 30.0312C35.8302 29.729 35.801 29.2703 35.4989 29.0046C35.1967 28.7388 34.738 28.7679 34.4723 29.0737C33.7915 29.8528 33.3692 30.7921 33.351 30.8321C33.1872 31.1998 33.3546 31.6294 33.7223 31.7932C33.817 31.8369 33.9189 31.8551 34.0172 31.8551V31.8514Z" fill="#777777"/>
<path d="M36.5637 32.3604C36.844 32.3604 37.1097 32.2002 37.2299 31.9272C37.2299 31.9272 37.3937 31.5632 37.6631 31.1409L38.0999 31.5413C38.2711 31.7015 38.5113 31.767 38.7407 31.7197C38.97 31.6724 39.163 31.5158 39.2576 31.301C39.2576 31.2938 39.6071 30.5183 40.1386 29.914C40.4044 29.6118 40.3753 29.1531 40.0731 28.8874C39.7709 28.6216 39.3122 28.6508 39.0465 28.9566C38.7916 29.2478 38.5732 29.5609 38.3985 29.8412L38.0563 29.5281C37.9106 29.3934 37.7213 29.3279 37.5247 29.3352C37.3282 29.3461 37.1461 29.4335 37.0151 29.5827C36.3343 30.3618 35.912 31.301 35.8938 31.3411C35.73 31.7088 35.8974 32.1384 36.2651 32.3022C36.3598 32.3459 36.4617 32.3641 36.56 32.3641L36.5637 32.3604Z" fill="#777777"/>
<path d="M61.8828 32.0477C62.0867 32.0477 62.2796 31.964 62.4216 31.8111L63.2625 30.89C63.5101 31.2832 63.6557 31.6072 63.6594 31.6145C63.8232 31.9822 64.2528 32.146 64.6205 31.9858C64.9881 31.822 65.1556 31.3924 64.9918 31.0247C64.9736 30.9847 64.5549 30.0454 63.8705 29.2663C63.7322 29.1098 63.5392 29.0188 63.3317 29.0188C63.1242 29.0188 62.9276 29.1025 62.7856 29.2554L62.0357 30.0782C61.8682 29.8161 61.668 29.5321 61.435 29.2663C61.1693 28.9642 60.7106 28.9351 60.4084 29.1972C60.1062 29.4629 60.0771 29.9216 60.3392 30.2238C60.8671 30.8281 61.2166 31.6035 61.2202 31.6108C61.3185 31.8365 61.526 31.9967 61.7699 32.0368C61.81 32.044 61.85 32.0477 61.8864 32.0477H61.8828Z" fill="#777777"/>
<path d="M53.8763 54.8838C53.9928 54.8838 54.1093 54.8474 54.2112 54.7709C54.4479 54.5853 54.4916 54.2431 54.3095 54.0064L53.92 53.5004C53.7343 53.2601 53.3921 53.2164 53.1555 53.4021C52.9152 53.5878 52.8752 53.93 53.0572 54.1666L53.4467 54.6726C53.5559 54.811 53.7161 54.8838 53.88 54.8838H53.8763Z" fill="#111111"/>
<path d="M38.0246 39.1496C38.1375 39.1496 38.2503 39.1205 38.3523 39.0586C38.3778 39.0441 40.9807 37.5223 43.4963 38.5781C43.8203 38.7128 44.1953 38.5599 44.33 38.2359C44.4647 37.9119 44.3118 37.5369 43.9878 37.4022C40.8679 36.0916 37.8208 37.8864 37.6933 37.9665C37.3912 38.1485 37.2929 38.538 37.4749 38.8402C37.5951 39.0404 37.8062 39.1496 38.021 39.1496H38.0246Z" fill="#111111"/>
<path d="M48.9976 50.8831C48.8811 50.7484 48.5643 50.8977 48.1493 50.9086C47.7343 50.8977 47.4176 50.7484 47.3011 50.8831C47.1809 51.0215 47.3193 51.7241 48.1493 51.7459C48.9794 51.7241 49.1177 51.0251 48.9976 50.8868V50.8831Z" fill="#111111"/>
<path d="M49.2552 58.9829L47.0382 58.9429C45.4218 57.9964 44.7192 55.2842 44.7192 55.2842H51.5742C51.5742 55.2842 50.9044 58.0764 49.2552 58.9829Z" fill="white"/>
<path d="M49.2565 59.6208C49.3584 59.6208 49.464 59.5953 49.5623 59.5407C51.4408 58.5105 52.1653 55.5508 52.1944 55.427C52.2381 55.2377 52.1944 55.0374 52.0742 54.8845C51.9541 54.7316 51.7684 54.6406 51.5755 54.6406H44.7204C44.5238 54.6443 44.3382 54.7353 44.218 54.8918C44.0979 55.0484 44.0579 55.2522 44.1052 55.4415C44.138 55.5617 44.8988 58.4231 46.7191 59.4898C47.0212 59.6682 47.4144 59.5662 47.5891 59.2604C47.7675 58.9583 47.6656 58.5651 47.3598 58.3903C46.5407 57.9098 45.94 56.7703 45.6014 55.9184H50.7054C50.3814 56.7885 49.7844 57.9644 48.9471 58.4231C48.6376 58.5942 48.5248 58.9801 48.6959 59.2895C48.8124 59.5007 49.0308 59.6208 49.2565 59.6208Z" fill="#111111"/>
<path d="M58.2687 39.1495C58.4871 39.1495 58.6983 39.0402 58.8148 38.84C58.9968 38.5379 58.8985 38.1483 58.5964 37.9663C58.4689 37.8898 55.4255 36.0951 52.3019 37.402C51.9779 37.5367 51.825 37.9117 51.9597 38.2357C52.0944 38.5597 52.4694 38.7126 52.7934 38.5779C55.309 37.5222 57.9119 39.0439 57.9374 39.0585C58.0394 39.1203 58.1522 39.1495 58.2614 39.1495H58.2687Z" fill="#111111"/>
<path d="M43.9874 41.644C43.0737 41.1453 42.007 41.0543 41.0095 41.2763C40.3251 41.4365 39.7208 41.6477 39.0873 41.9316C38.8725 42.0299 38.6905 42.1173 38.4466 42.2593C38.1008 42.4631 37.9843 42.9109 38.1918 43.2568C38.3956 43.6026 38.8434 43.7191 39.1893 43.5116C39.3203 43.4315 39.5096 43.3369 39.6917 43.2531C40.205 43.0201 40.7911 42.8199 41.3262 42.6961C41.9706 42.5505 42.6951 42.6051 43.2775 42.9146C44.1221 43.3478 44.7993 42.1355 43.9838 41.644H43.9874Z" fill="#111111"/>
<path d="M53.2191 42.8993C54.1547 42.3533 55.6036 42.7319 56.6084 43.1942C56.7249 43.2488 56.9105 43.3653 56.9688 43.409C57.2637 43.6821 57.7224 43.6675 57.9991 43.3726C58.9638 42.1021 56.1024 41.4249 55.2578 41.2538C54.2566 41.0827 53.0443 41.141 52.2179 41.84C51.5335 42.5098 52.5092 43.5437 53.2154 42.8993H53.2191Z" fill="#111111"/>
<path d="M68.4207 74.9402C68.4207 74.9402 66.7497 73.2255 69.0068 71.5363C70.0188 70.7791 71.7991 70.9283 72.8876 71.165C73.9761 71.4016 76.5171 72.3991 76.8776 73.9864C76.8776 73.9864 78.028 71.5654 77.5328 68.9079C77.0268 66.1848 76.4006 65.0453 76.0548 63.9422C75.709 62.8391 76.1567 61.7069 77.1033 61.5176C78.2901 61.2774 79.1019 62.4387 79.3895 62.992C79.6771 63.5454 80.8384 64.9834 81.359 69.1117C81.6685 71.5581 80.7656 75.5773 80.7656 75.5773C80.7656 75.5773 82.7679 73.16 83.3394 65.129C83.4305 63.8476 83.9765 62.6972 85.1342 62.7845C86.4484 62.8792 86.7433 64.1242 86.8234 64.9215C86.8889 65.5768 87.4386 70.608 84.5809 77.6378C86.5613 75.2496 87.6061 73.5677 88.0502 72.7668C89.3535 70.4041 90.6168 69.7233 91.6398 70.5497C92.63 71.3506 91.5196 74.0665 90.1909 76.5311C88.9203 78.8974 87.4532 81.0307 87.4532 81.0307L82.513 93.4594L82.5495 94.5406H71.06L71.0455 92.5238C71.0455 92.5238 69.7713 89.6806 68.4134 87.0485C67.0045 84.3145 65.0095 81.2492 64.9294 80.1279C64.8712 79.3597 65.5847 76.7968 66.5822 75.5518C67.2593 74.7035 68.4134 74.9365 68.4134 74.9365L68.4207 74.9402ZM69.4655 76.4364C69.5565 77.4048 69.3417 78.719 69.3417 78.719C70.372 79.6146 71.0637 80.7905 71.7954 80.8414C72.5272 80.8924 73.5574 80.3463 73.9506 79.1704C75.0464 75.8758 71.6389 74.6708 71.6389 74.6708C71.6389 74.6708 70.8416 75.2605 70.1244 75.2969C69.5456 75.3261 68.9376 75.1186 68.7301 75.0385C68.6791 75.013 68.6464 75.0057 68.6464 75.0057C68.6464 75.0057 68.6791 75.0203 68.7301 75.0385C68.9194 75.1295 69.3745 75.4426 69.4655 76.4328V76.4364Z" fill="white"/>
<path d="M68.7305 75.0416C68.6831 75.0233 68.6467 75.0088 68.6467 75.0088C68.6467 75.0088 68.6795 75.0161 68.7305 75.0416Z" fill="white"/>
<path d="M82.5601 95.2718C82.5601 95.2718 82.5747 95.2718 82.5856 95.2718C82.986 95.2572 83.3028 94.9223 83.2882 94.5182L83.2591 93.5862L88.1119 81.3724C88.3776 80.9828 89.6809 79.0388 90.8422 76.8727C92.8664 73.1084 93.2668 70.9169 92.1055 69.9776C91.5849 69.5589 90.9915 69.3988 90.3799 69.5189C89.3533 69.7191 88.3849 70.6657 87.4202 72.4095C87.2891 72.6424 87.0598 73.0393 86.703 73.5853C87.8061 69.3442 87.6932 66.2206 87.5549 64.8663C87.3219 62.5473 85.9749 62.1105 85.1922 62.0522C84.617 62.0085 84.0855 62.1796 83.6632 62.5473C83.0698 63.0607 82.6984 63.9562 82.6183 65.0702C82.5018 66.7121 82.3235 68.11 82.116 69.2968C82.1087 69.2022 82.0978 69.1075 82.0868 69.0129C81.6136 65.2704 80.6015 63.5885 80.1719 62.875C80.1173 62.784 80.0736 62.7112 80.0409 62.6493C79.4766 61.568 78.3699 60.5159 76.9646 60.7999C76.3858 60.9164 75.8907 61.2732 75.5776 61.8047C75.1844 62.4709 75.1043 63.33 75.3665 64.1564C75.4648 64.4732 75.5849 64.7899 75.7123 65.1248C76.0472 66.0095 76.4623 67.1089 76.8227 69.0347C77.0484 70.2506 76.8918 71.4302 76.6807 72.293C75.5776 71.2154 73.8375 70.6183 73.0475 70.4472C72.1592 70.2543 69.9494 69.9157 68.5733 70.946C67.6668 71.6231 67.1753 72.4058 67.1062 73.2723C67.077 73.6509 67.1317 73.9931 67.2299 74.2916C66.804 74.419 66.3671 74.6629 66.0249 75.0925C64.9401 76.4468 64.1428 79.1808 64.2156 80.1783C64.2811 81.052 65.0566 82.4682 66.3125 84.7034C66.8113 85.5881 67.3246 86.5018 67.7797 87.3792C68.9446 89.6363 70.0586 92.0791 70.3317 92.6798L70.3462 94.5437C70.3462 94.9442 70.6739 95.2682 71.0743 95.2682H71.078C71.4784 95.2682 71.8024 94.9369 71.8024 94.5364L71.7879 92.5196C71.7879 92.4176 71.766 92.3194 71.726 92.2283C71.7114 92.1992 70.4299 89.3378 69.0757 86.7166C68.6097 85.8138 68.0891 84.8891 67.5867 83.9935C66.7094 82.4354 65.7155 80.6698 65.6718 80.0763C65.6318 79.523 66.2689 77.1312 67.1644 76.0099C67.5503 75.5294 68.2602 75.6495 68.2893 75.6568C68.3039 75.6568 68.3185 75.6604 68.333 75.6641C68.3439 75.6677 68.3512 75.675 68.3621 75.6786C68.3731 75.6823 68.3985 75.6932 68.435 75.7077C68.4896 75.7478 68.6934 75.9225 68.7444 76.505C68.8099 77.2258 68.6825 78.2634 68.6279 78.6056C68.5879 78.8531 68.6789 79.108 68.8682 79.2718C69.2031 79.563 69.5089 79.898 69.8001 80.2183C70.4372 80.9173 70.9869 81.518 71.7478 81.5726C72.7781 81.6454 74.1433 80.91 74.642 79.4029C75.6868 76.2611 73.2914 74.4882 71.8789 73.9858C71.6495 73.9057 71.3983 73.9421 71.2017 74.0877C70.9578 74.2661 70.4409 74.5537 70.0841 74.5756C69.6982 74.5974 69.2286 74.4554 69.0102 74.3753C68.9337 74.3426 68.8755 74.3207 68.839 74.3134C68.7153 74.135 68.5187 73.7892 68.5551 73.3924C68.5915 72.9664 68.89 72.5405 69.4434 72.1291C70.1751 71.5831 71.675 71.6559 72.7344 71.8889C73.7719 72.1146 75.9125 73.0393 76.171 74.1605C76.2402 74.4627 76.495 74.6884 76.8008 74.7212C77.1066 74.7539 77.4051 74.5901 77.5362 74.3098C77.5872 74.2006 78.7813 71.645 78.2497 68.7872C77.8675 66.7339 77.427 65.5653 77.0702 64.6261C76.9464 64.2984 76.8372 64.0145 76.7499 63.7378C76.6188 63.3155 76.6479 62.8677 76.8263 62.5619C76.9319 62.3872 77.0702 62.2779 77.2486 62.2415C78.0604 62.0777 78.6793 63.2099 78.7448 63.3373C78.7885 63.4211 78.8468 63.5194 78.9196 63.6395C79.3346 64.3312 80.2047 65.7728 80.6379 69.2131C80.9291 71.503 80.0664 75.3874 80.0554 75.4274C79.9826 75.7551 80.1428 76.0936 80.445 76.2393C80.7471 76.3885 81.1112 76.3084 81.326 76.05C81.4133 75.9444 83.4848 73.3596 84.0673 65.1903C84.1182 64.4877 84.3221 63.9162 84.6133 63.665C84.7444 63.5521 84.89 63.5084 85.083 63.5194C85.3451 63.5376 85.9603 63.5849 86.1023 65.001C86.2734 66.6975 86.4008 71.2518 83.9107 77.3715C83.776 77.7027 83.9034 78.085 84.2129 78.2707C84.5223 78.4563 84.9191 78.3872 85.1485 78.1105C87.2127 75.6204 88.2575 73.9166 88.6943 73.1266C89.6882 71.3246 90.3981 71.0115 90.6602 70.9605C90.784 70.9351 90.9551 70.9314 91.1917 71.1244C91.4029 71.2955 91.523 72.5405 89.5608 76.1956C88.3266 78.4964 86.8777 80.6079 86.8632 80.6297C86.834 80.6734 86.8049 80.7244 86.7867 80.7717L81.8466 93.2004C81.8102 93.295 81.7919 93.3933 81.7956 93.4916L81.832 94.5728C81.8466 94.966 82.1669 95.2754 82.5601 95.2754V95.2718ZM71.8461 80.1164C71.6604 80.0982 71.169 79.5558 70.8741 79.2354C70.6447 78.9842 70.3935 78.7112 70.1169 78.4418C70.1788 77.9503 70.2588 77.0875 70.1933 76.3703C70.1824 76.2502 70.1678 76.1373 70.146 76.0281C70.1533 76.0281 70.1569 76.0281 70.1642 76.0281C70.754 75.9953 71.3437 75.7114 71.7078 75.4966C72.4213 75.8461 73.9503 76.8654 73.2586 78.9442C72.9747 79.7924 72.2502 80.1455 71.8461 80.12V80.1164Z" fill="#111111"/>
<path d="M78.0829 88.1761C78.112 88.1761 78.1411 88.1761 78.1703 88.1725C78.5707 88.1251 78.8547 87.7647 78.8073 87.3643C78.7891 87.1932 78.2831 83.1559 75.236 81.8234C74.8683 81.6633 74.4387 81.8307 74.2786 82.1984C74.1184 82.5661 74.2858 82.9957 74.6535 83.1559C76.9325 84.1534 77.3584 87.5026 77.3657 87.5354C77.4094 87.9067 77.7261 88.1761 78.0865 88.1761H78.0829Z" fill="#111111"/>
<path d="M37.0366 69.1075V66.0058C37.0366 65.001 37.852 64.1855 38.8568 64.1855H51.2891C52.2939 64.1855 53.1094 65.001 53.1094 66.0058V92.3594C53.1094 93.3642 52.2939 94.1796 51.2891 94.1796H38.8568C37.852 94.1796 37.0366 93.3642 37.0366 92.3594V69.1075Z" fill="white"/>
<path d="M38.8553 94.9083H51.2876C52.6928 94.9083 53.8359 93.7652 53.8359 92.3599V66.0064C53.8359 64.6011 52.6928 63.458 51.2876 63.458H38.8553C37.45 63.458 36.3069 64.6011 36.3069 66.0064V92.3599C36.3069 93.7652 37.45 94.9083 38.8553 94.9083ZM51.2839 64.9142C51.8846 64.9142 52.3761 65.4057 52.3761 66.0064V92.3599C52.3761 92.9606 51.8846 93.4521 51.2839 93.4521H38.8516C38.251 93.4521 37.7595 92.9606 37.7595 92.3599V66.0064C37.7595 65.4057 38.251 64.9142 38.8516 64.9142H51.2839Z" fill="#111111"/>
<path d="M37.0331 75.4851V81.39C37.0331 81.39 39.7962 78.6997 42.6031 76.0239C45.297 73.4538 48.0092 70.869 49.3453 71.9794C50.7032 73.1079 48.2458 75.4633 45.8649 77.9935C43.4695 80.5382 41.1469 83.2503 41.1469 83.2503C41.1469 83.2503 43.8117 82.0963 46.502 80.8767C49.2579 79.628 52.3268 77.502 53.419 78.9109C54.7587 80.6365 51.5004 82.6315 51.5004 82.6315C51.5004 82.6315 53.2297 82.2419 53.5792 83.7309C53.8922 85.0742 51.8499 86.3666 51.8499 86.3666C51.8499 86.3666 53.1023 86.1591 53.4882 87.4187C53.7393 88.2378 53.6338 89.5266 51.8499 91.2449C49.9969 93.0251 47.3685 95.2749 47.3685 95.2749H26.8724C26.8724 95.2749 31.6415 81.0041 32.4096 79.6681C33.1778 78.332 37.0331 75.4888 37.0331 75.4888V75.4851Z" fill="white"/>
<path d="M26.8733 96.0003C27.1791 96.0003 27.4631 95.8073 27.565 95.5015C29.4727 89.7932 32.5052 80.9614 33.044 80.0258C33.4299 79.3595 34.9625 78.0271 36.3059 76.9605V81.3909C36.3059 81.6822 36.4806 81.9479 36.75 82.0608C37.0194 82.1737 37.3325 82.1154 37.54 81.9115C37.5691 81.8861 40.3359 79.1921 43.1063 76.5491C45.0722 74.6742 48.0429 71.8419 48.8802 72.5372C48.9894 72.6283 49.0003 72.6974 49.0039 72.7593C49.0513 73.5748 47.322 75.4023 45.9314 76.8658L45.338 77.492C42.9571 80.0185 40.6199 82.7488 40.5944 82.7743C40.3723 83.0328 40.3614 83.4078 40.5616 83.6808C40.7619 83.9539 41.1259 84.0521 41.4353 83.9174C41.4608 83.9065 44.1366 82.7452 46.8014 81.5366C47.424 81.2526 48.0611 80.9286 48.6763 80.6155C50.2308 79.8219 52.3641 78.7334 52.8447 79.3559C52.9939 79.5452 53.0413 79.7272 53.0012 79.9457C52.8665 80.6883 51.7744 81.6057 51.1191 82.0098C50.8169 82.1955 50.6931 82.5741 50.8242 82.9054C50.9589 83.2367 51.312 83.4187 51.6579 83.3422C51.8945 83.2913 52.6991 83.1821 52.8665 83.8992C53.0121 84.5218 51.96 85.4319 51.4576 85.7523C51.1664 85.9379 51.0426 86.3056 51.1664 86.626C51.2902 86.95 51.6251 87.1429 51.9637 87.0847C52.1457 87.0592 52.6153 87.0628 52.7864 87.6308C53.1177 88.7156 52.1821 89.9061 51.3375 90.7179C49.5209 92.4617 46.9143 94.697 46.8852 94.7188C46.5794 94.9809 46.543 95.4396 46.8051 95.7454C47.0672 96.0512 47.5259 96.0876 47.8317 95.8255C47.8572 95.8037 50.4966 93.5429 52.3459 91.7664C54.4064 89.7859 54.4793 88.1914 54.1771 87.2048C54.006 86.6515 53.7111 86.2801 53.3725 86.0362C53.9587 85.4137 54.5047 84.54 54.279 83.568C54.1152 82.869 53.722 82.4248 53.2524 82.1627C53.7803 81.6385 54.29 80.9577 54.4283 80.2078C54.5411 79.5853 54.3919 78.9809 53.9914 78.464C52.7719 76.8913 50.4565 78.0708 48.0101 79.3195C47.4094 79.6253 46.7905 79.942 46.1971 80.2114C45.3926 80.5755 44.588 80.9359 43.8563 81.2635C44.6135 80.4153 45.5018 79.4396 46.3937 78.4931L46.9835 77.8706C48.8911 75.861 50.5402 74.1245 50.4565 72.6756C50.4274 72.1841 50.2053 71.7509 49.8085 71.4196C47.9737 69.8942 45.1195 72.6173 42.0979 75.497C40.4633 77.0551 38.8287 78.6314 37.7584 79.669V75.4824C37.7584 75.2094 37.6019 74.9545 37.358 74.8308C37.1141 74.707 36.8192 74.7325 36.5971 74.8963C36.1894 75.1985 32.5962 77.8742 31.7771 79.2977C30.9944 80.6556 26.6695 93.5684 26.1816 95.0355C26.0542 95.4178 26.2617 95.8292 26.6404 95.9566C26.7168 95.9821 26.7933 95.993 26.8697 95.993L26.8733 96.0003Z" fill="#111111"/>
<path d="M35.7966 82.7556C35.9095 82.7556 36.0223 82.7301 36.1279 82.6755L37.3657 82.0384C37.7225 81.8564 37.8644 81.4159 37.6824 81.0591C37.5004 80.7024 37.0599 80.5604 36.7031 80.7424L35.4653 81.3795C35.1086 81.5615 34.9666 82.002 35.1486 82.3588C35.276 82.61 35.5309 82.7556 35.7966 82.7556Z" fill="#111111"/>
<path d="M42.3927 88.6138C42.5165 88.6138 42.6403 88.5811 42.7568 88.5156L51.8653 83.2623C52.2148 83.0621 52.335 82.6179 52.1311 82.2685C51.9309 81.919 51.4867 81.7988 51.1372 82.0027L42.0287 87.2559C41.6792 87.4562 41.5591 87.9003 41.7629 88.2498C41.8976 88.4828 42.1416 88.6138 42.3927 88.6138Z" fill="#111111"/>
<path d="M43.8089 93.1427C43.9618 93.1427 44.1147 93.0953 44.2458 92.997L52.2877 86.9465C52.608 86.7063 52.6736 86.2475 52.4333 85.9272C52.193 85.6068 51.7343 85.5413 51.4139 85.7816L43.3721 91.8321C43.0517 92.0723 42.9862 92.5311 43.2265 92.8514C43.3684 93.0407 43.5869 93.1427 43.8089 93.1427Z" fill="#111111"/>
<path d="M49.7133 69.9124C50.1138 69.9124 50.4414 69.5848 50.4414 69.1843V67.7281C50.4414 67.3276 50.1138 67 49.7133 67C49.3129 67 48.9852 67.3276 48.9852 67.7281V69.1843C48.9852 69.5848 49.3129 69.9124 49.7133 69.9124Z" fill="#111111"/>
</g>
<defs>
<clipPath id="clip0_368_690">
<rect width="96" height="96" rx="48" fill="white"/>
</clipPath>
</defs>
</svg>
