<svg width="56" height="66" viewBox="0 0 56 66" fill="none" xmlns="http://www.w3.org/2000/svg">
<path d="M5.72675 47.2816L6.499 38.4211C6.8648 33.9258 10.8073 34.1127 10.8073 34.1127H28.5203C28.5203 34.1127 32.4629 33.9095 32.8368 38.4048L33.5928 47.2654" fill="white"/>
<path d="M19.8306 31.5525C24.9438 31.5525 27.4719 30.7396 29.5854 29.3902C29.9281 29.1666 30.235 28.8925 30.4958 28.5773C32.6663 26.3581 32.6419 19.6761 32.6419 19.6761C32.5508 17.0443 32.0545 14.4423 31.1705 11.9617L27.6344 2.14193C27.5484 1.81245 27.3559 1.52063 27.0869 1.31188C26.8178 1.10312 26.4874 0.989122 26.1468 0.987621C25.8041 0.995197 25.4726 1.11091 25.1996 1.31822C24.9265 1.52553 24.7261 1.81384 24.6267 2.14193L23.0253 6.36899H16.5222L14.9126 2.1338C14.8133 1.80571 14.6128 1.5174 14.3398 1.31009C14.0668 1.10278 13.7352 0.987068 13.3925 0.979492C13.0513 0.981939 12.7203 1.09614 12.4501 1.30462C12.18 1.51309 11.9856 1.80435 11.8968 2.1338L8.36068 11.9942C7.47673 14.4748 6.98045 17.0768 6.88934 19.7086C6.88934 19.7086 6.88934 26.3906 9.03539 28.6098C9.29622 28.9251 9.60316 29.1991 9.94583 29.4227C12.0431 30.7477 14.5631 31.585 19.7006 31.585L19.8306 31.5525Z" fill="white"/>
<path d="M19.8306 31.5525C24.9438 31.5525 27.4719 30.7396 29.5854 29.3902C29.9281 29.1666 30.235 28.8925 30.4958 28.5773C32.6663 26.3581 32.6419 19.6761 32.6419 19.6761C32.5508 17.0443 32.0545 14.4423 31.1705 11.9617L27.6344 2.14193C27.5484 1.81245 27.3559 1.52063 27.0869 1.31188C26.8178 1.10312 26.4874 0.989122 26.1468 0.987621C25.8041 0.995197 25.4726 1.11091 25.1996 1.31822C24.9265 1.52553 24.7261 1.81384 24.6267 2.14193L23.0253 6.36899H16.5222L14.9126 2.1338C14.8133 1.80571 14.6128 1.5174 14.3398 1.31009C14.0668 1.10278 13.7352 0.987068 13.3925 0.979492C13.0513 0.981939 12.7203 1.09614 12.4501 1.30462C12.18 1.51309 11.9856 1.80435 11.8968 2.1338L8.36068 11.9942C7.47673 14.4748 6.98045 17.0768 6.88934 19.7086C6.88934 19.7086 6.88934 26.3906 9.03539 28.6098C9.29622 28.9251 9.60316 29.1991 9.94583 29.4227C12.0431 30.7477 14.5631 31.585 19.7006 31.585L19.8306 31.5525Z" stroke="#221714" stroke-width="1.95908" stroke-linecap="round" stroke-linejoin="round"/>
<path d="M20.3833 21.6594L22.1635 20.2938C22.3405 20.17 22.4696 19.9892 22.5293 19.7816C22.5422 19.5664 22.4789 19.3534 22.3505 19.1801L21.944 18.5217C21.8616 18.4002 21.7532 18.2985 21.6267 18.224C21.5001 18.1495 21.3587 18.104 21.2124 18.0908H18.3266C18.179 18.1028 18.0359 18.1478 17.9079 18.2223C17.7799 18.2969 17.6702 18.3992 17.5869 18.5217L17.1805 19.1801C17.0613 19.3538 17.0141 19.567 17.049 19.7747C17.0839 19.9824 17.198 20.1685 17.3674 20.2938L19.1477 21.6594H20.3833Z" fill="#221714"/>
<path d="M13.7013 4.62131C13.6864 4.56191 13.6518 4.50937 13.603 4.4724C13.5542 4.43543 13.4942 4.41627 13.433 4.41809C13.3738 4.41697 13.3161 4.43672 13.27 4.47388C13.224 4.51104 13.1924 4.56323 13.181 4.62131L12.3681 6.67794C12.2462 7.0031 12.3681 7.33638 12.7583 7.33638H13.8963C14.3678 7.33638 14.4816 7.10064 14.3597 6.67794L13.7013 4.62131Z" fill="#221714"/>
<path d="M25.8055 4.62131C25.8203 4.56191 25.855 4.50937 25.9038 4.4724C25.9526 4.43543 26.0126 4.41627 26.0738 4.41809C26.1326 4.4185 26.1895 4.43882 26.2352 4.47572C26.281 4.51263 26.3129 4.56395 26.3258 4.62131L27.1387 6.67794C27.2606 7.0031 27.1387 7.33638 26.7485 7.33638H25.6104C25.1389 7.33638 25.0251 7.10064 25.1471 6.67794L25.8055 4.62131Z" fill="#221714"/>
<path d="M15.62 12.7422H15.0022C14.679 12.7422 14.4169 13.0042 14.4169 13.3275V15.7255C14.4169 16.0488 14.679 16.3108 15.0022 16.3108H15.62C15.9433 16.3108 16.2053 16.0488 16.2053 15.7255V13.3275C16.2053 13.0042 15.9433 12.7422 15.62 12.7422Z" fill="#221714"/>
<path d="M24.5535 12.7422H23.9357C23.6125 12.7422 23.3505 13.0042 23.3505 13.3275V15.7255C23.3505 16.0488 23.6125 16.3108 23.9357 16.3108H24.5535C24.8768 16.3108 25.1388 16.0488 25.1388 15.7255V13.3275C25.1388 13.0042 24.8768 12.7422 24.5535 12.7422Z" fill="#221714"/>
<path d="M16.5871 23.2124L17.3025 23.7652C17.3476 23.8075 17.4041 23.8358 17.4651 23.8465C17.5278 23.8387 17.587 23.8134 17.6358 23.7733L19.0909 22.7734V21.4484C19.1091 21.2833 19.1876 21.1307 19.3113 21.0198C19.4351 20.909 19.5954 20.8477 19.7615 20.8477C19.9276 20.8477 20.0879 20.909 20.2117 21.0198C20.3354 21.1307 20.4139 21.2833 20.4321 21.4484V23.123C20.4316 23.2319 20.4047 23.3391 20.3537 23.4353C20.3028 23.5316 20.2293 23.6141 20.1395 23.6757L17.8309 25.3015C17.7162 25.3733 17.5841 25.4127 17.4488 25.4153C17.3014 25.4179 17.1577 25.3691 17.0424 25.2771L15.6848 24.196C15.6347 24.156 15.5933 24.1061 15.5631 24.0495C15.533 23.9929 15.5146 23.9308 15.5093 23.8668C15.504 23.8029 15.5118 23.7386 15.5322 23.6778C15.5526 23.617 15.5851 23.5609 15.6279 23.5132L15.9937 23.1799C16.0755 23.1073 16.1811 23.0672 16.2904 23.0672C16.3998 23.0672 16.5053 23.1073 16.5871 23.1799" fill="#221714"/>
<path d="M22.9361 23.2124L22.2207 23.7652C22.1756 23.8075 22.1191 23.8358 22.0581 23.8465C21.9976 23.8396 21.9408 23.814 21.8956 23.7733L20.4323 22.7734V21.4484C20.4141 21.2833 20.3356 21.1307 20.2119 21.0198C20.0881 20.909 19.9278 20.8477 19.7617 20.8477C19.5956 20.8477 19.4353 20.909 19.3115 21.0198C19.1878 21.1307 19.1093 21.2833 19.0911 21.4484V23.123C19.0916 23.2319 19.1185 23.3391 19.1695 23.4353C19.2204 23.5316 19.2939 23.6141 19.3837 23.6757L21.7005 25.3015C21.8141 25.3757 21.9468 25.4153 22.0825 25.4153C22.2275 25.4181 22.3687 25.3691 22.4808 25.2771L23.8384 24.2285C23.8885 24.1885 23.9299 24.1386 23.9601 24.082C23.9902 24.0254 24.0086 23.9633 24.0139 23.8994C24.0192 23.8354 24.0114 23.7711 23.991 23.7103C23.9707 23.6495 23.9381 23.5935 23.8953 23.5457L23.5701 23.1799C23.4892 23.1056 23.3833 23.0644 23.2734 23.0644C23.1635 23.0644 23.0577 23.1056 22.9767 23.1799" fill="#221714"/>
<path d="M28.6017 33.9418C28.6017 33.9418 32.6093 33.7386 32.9833 38.307L33.7962 47.3139" stroke="#221714" stroke-width="1.95908" stroke-linecap="round" stroke-linejoin="round"/>
<path d="M10.5636 33.9418C10.5636 33.9418 6.556 33.7386 6.17394 38.307L5.4342 47.3139" stroke="#221714" stroke-width="1.95908" stroke-linecap="round" stroke-linejoin="round"/>
<path d="M8.12492 33.4881H3.55645C2.88164 33.4881 2.23447 33.2201 1.75731 32.7429C1.28015 32.2658 1.01208 31.6186 1.01208 30.9438C1.01208 30.269 1.28015 29.6218 1.75731 29.1446C2.23447 28.6675 2.88164 28.3994 3.55645 28.3994H8.12492" fill="#D71718"/>
<path d="M8.12492 33.4881H3.55645C2.88164 33.4881 2.23447 33.2201 1.75731 32.7429C1.28015 32.2658 1.01208 31.6186 1.01208 30.9438C1.01208 30.269 1.28015 29.6218 1.75731 29.1446C2.23447 28.6675 2.88164 28.3994 3.55645 28.3994H8.12492" stroke="#221714" stroke-width="2.02411" stroke-linecap="round" stroke-linejoin="round"/>
<path d="M19.6113 36.3405C11.71 36.2836 7.47479 33.4791 7.47479 33.4791L8.12511 28.4229C12.4009 31.7395 19.5056 31.6257 19.5056 31.6257H19.8471C19.8471 31.6257 26.9355 31.7395 31.2276 28.4229L31.886 33.5034C31.886 33.5034 27.6346 36.2836 19.717 36.3405H19.6113Z" fill="#D71718"/>
<path d="M19.6113 36.3405C11.71 36.2836 7.47479 33.4791 7.47479 33.4791L8.12511 28.4229C12.4009 31.7395 19.5056 31.6257 19.5056 31.6257H19.8471C19.8471 31.6257 26.9355 31.7395 31.2276 28.4229L31.886 33.5034C31.886 33.5034 27.6346 36.2836 19.717 36.3405H19.6113Z" stroke="#221714" stroke-width="2.00785" stroke-linecap="round" stroke-linejoin="round"/>
<path d="M53.7365 48.6968L39.21 36.6822C37.9744 35.6661 36.9664 36.1376 36.9664 37.739V41.9986H3.77591C3.0924 42.0029 2.43822 42.2768 1.95565 42.7609C1.47308 43.245 1.20116 43.9001 1.19904 44.5836V56.5088C1.20116 57.1923 1.47308 57.8473 1.95565 58.3314C2.43822 58.8155 3.0924 59.0895 3.77591 59.0938H36.9664V63.3777C36.9664 65.0035 37.9744 65.4587 39.21 64.4345L53.7365 52.3955C54.0241 52.1806 54.2577 51.9015 54.4185 51.5804C54.5794 51.2594 54.6632 50.9053 54.6632 50.5462C54.6632 50.1871 54.5794 49.8329 54.4185 49.5119C54.2577 49.1909 54.0241 48.9118 53.7365 48.6968Z" fill="#D71718"/>
<path d="M53.7365 48.6968L39.21 36.6822C37.9744 35.6661 36.9664 36.1376 36.9664 37.739V41.9986H3.77591C3.0924 42.0029 2.43822 42.2768 1.95565 42.7609C1.47308 43.245 1.20116 43.9001 1.19904 44.5836V56.5088C1.20116 57.1923 1.47308 57.8473 1.95565 58.3314C2.43822 58.8155 3.0924 59.0895 3.77591 59.0938H36.9664V63.3777C36.9664 65.0035 37.9744 65.4587 39.21 64.4345L53.7365 52.3955C54.0241 52.1806 54.2577 51.9015 54.4185 51.5804C54.5794 51.2594 54.6632 50.9053 54.6632 50.5462C54.6632 50.1871 54.5794 49.8329 54.4185 49.5119C54.2577 49.1909 54.0241 48.9118 53.7365 48.6968Z" stroke="#221714" stroke-width="1.82089"/>
<path d="M6.54799 41.2501C6.2779 41.4267 6.08586 41.7002 6.01147 42.0142C5.92158 42.3611 5.95314 42.7283 6.10089 43.0548C6.16448 43.1776 6.25644 43.2835 6.36915 43.3637C6.50052 43.4493 6.65147 43.5001 6.80785 43.5115C6.96424 43.5229 7.12096 43.4944 7.26333 43.4287C7.34822 43.3887 7.42319 43.3304 7.48282 43.258C7.59827 43.1211 7.75568 43.0262 7.9306 42.988C8.10551 42.9498 8.28815 42.9704 8.45016 43.0466H8.49081C8.63099 43.1259 8.74069 43.2498 8.80253 43.3985C8.86438 43.5472 8.87482 43.7123 8.83222 43.8676C8.81098 44.0268 8.81098 44.1881 8.83222 44.3473C8.87287 44.77 9.56383 44.9 9.56383 44.9C10.2792 45.0138 10.3767 44.2091 10.3767 44.2091C10.3864 44.0548 10.3864 43.9 10.3767 43.7457C10.3742 43.5606 10.4428 43.3816 10.5683 43.2455C10.6938 43.1094 10.8667 43.0266 11.0514 43.0141C11.2 43.0015 11.3484 43.0396 11.4724 43.1223C11.5965 43.205 11.6888 43.3274 11.7343 43.4693C11.779 43.5857 11.85 43.6902 11.9416 43.7748C12.0332 43.8594 12.1431 43.9217 12.2626 43.9571C12.3362 43.9814 12.4128 43.9951 12.4903 43.9977C12.6071 43.9969 12.7217 43.9657 12.8229 43.9073C12.924 43.8489 13.0083 43.7652 13.0674 43.6644C13.248 43.4007 13.37 43.1013 13.4251 42.7865C13.4251 42.6483 13.4251 42.5426 13.4739 42.5101C13.5277 42.293 13.5308 42.0663 13.4829 41.8478C13.435 41.6293 13.3373 41.4248 13.1975 41.2501C12.9723 41.0378 12.6896 40.8965 12.3846 40.8437C12.2615 40.8172 12.1364 40.8009 12.0106 40.7949H11.8481C11.8481 40.7949 11.6205 40.7949 11.3522 40.7949H10.4174C9.78331 40.7949 9.20615 40.7949 9.20615 40.7949H9.15738C8.25333 40.6842 7.33775 40.8696 6.54799 41.3233" fill="white"/>
<path d="M4.45889 42.2989C4.40982 42.9776 4.62212 43.6494 5.05231 44.1767C5.27316 44.4373 5.5514 44.6432 5.8652 44.7782C6.02503 44.8458 6.19112 44.8976 6.36107 44.9327C6.76383 45.0365 7.19041 44.9933 7.56415 44.8108C7.76738 45.9488 9.47446 46.2171 9.49071 46.2171C9.89763 46.2715 10.3107 46.1796 10.6561 45.9578C11.0015 45.7359 11.2569 45.3985 11.3766 45.0058C11.6566 45.2933 12.033 45.467 12.4334 45.4936C12.7984 45.5308 13.1665 45.4634 13.4946 45.2993C13.8228 45.1352 14.0975 44.8812 14.2868 44.5669L14.3925 44.4206C14.6379 43.9591 14.8211 43.467 14.9371 42.9574C14.9371 42.8192 14.9778 42.7054 14.9859 42.6566C15.0644 42.2154 15.0431 41.7622 14.9236 41.3304C14.804 40.8985 14.5892 40.4989 14.2949 40.161C13.8448 39.736 13.2792 39.4532 12.6691 39.3481C12.4639 39.299 12.2541 39.2718 12.0432 39.2668C11.8169 39.2361 11.5888 39.2198 11.3604 39.218C10.5475 39.218 9.36878 39.218 9.17369 39.218C7.93786 39.0959 6.69601 39.3814 5.63759 40.0309C5.31442 40.2441 5.03788 40.5207 4.82469 40.8438C4.57537 41.3028 4.42839 41.8103 4.39386 42.3314M10.3036 43.7865C10.3133 43.9408 10.3133 44.0956 10.3036 44.2499C10.3036 44.2499 10.2223 45.0628 9.49071 44.9408C9.49071 44.9408 8.79975 44.8108 8.75911 44.388C8.73787 44.2289 8.73787 44.0676 8.75911 43.9084C8.81518 43.7408 8.80717 43.5583 8.73661 43.3961C8.66606 43.234 8.53797 43.1038 8.37705 43.0305C8.21504 42.9543 8.0324 42.9337 7.85748 42.9719C7.68257 43.0101 7.52516 43.105 7.4097 43.2419C7.35007 43.3143 7.27511 43.3726 7.19022 43.4126C7.04785 43.4783 6.89113 43.5068 6.73474 43.4954C6.57835 43.484 6.42741 43.4331 6.29604 43.3475C6.21175 43.2643 6.14537 43.1647 6.10094 43.0549C5.96243 42.7404 5.93102 42.3891 6.01152 42.055C6.08591 41.741 6.27794 41.4675 6.54803 41.2909C7.34053 40.8366 8.25888 40.6512 9.16556 40.7625H9.2062C9.2062 40.7625 9.78336 40.7625 10.4174 40.7625H11.3766C11.6368 40.7625 11.8725 40.7625 11.8725 40.7625H12.0269C12.1527 40.7685 12.2778 40.7848 12.4009 40.8113C12.7059 40.8641 12.9886 41.0054 13.2138 41.2178C13.3536 41.3924 13.4513 41.5969 13.4992 41.8154C13.5472 42.034 13.5441 42.2606 13.4902 42.4777C13.4902 42.4777 13.4902 42.6159 13.4414 42.7541C13.3863 43.069 13.2643 43.3683 13.0837 43.6321C13.0246 43.7328 12.9403 43.8165 12.8392 43.8749C12.738 43.9334 12.6234 43.9645 12.5066 43.9653C12.4291 43.9627 12.3525 43.949 12.2789 43.9247C12.1594 43.8894 12.0495 43.827 11.9579 43.7424C11.8663 43.6579 11.7953 43.5533 11.7506 43.437C11.7051 43.295 11.6128 43.1727 11.4887 43.09C11.3647 43.0073 11.2163 42.9691 11.0677 42.9817C10.883 42.9942 10.7101 43.077 10.5846 43.2131C10.4591 43.3492 10.3905 43.5282 10.393 43.7133" fill="#221714"/>
<path d="M26.5777 41.2502C26.3034 41.4241 26.1079 41.6983 26.0331 42.0144C25.9477 42.3616 25.9791 42.7273 26.1225 43.0549C26.1861 43.1777 26.2781 43.2836 26.3908 43.3638C26.5222 43.4494 26.6731 43.5002 26.8295 43.5116C26.9859 43.523 27.1426 43.4945 27.285 43.4288C27.3731 43.3904 27.451 43.3319 27.5126 43.2581C27.6208 43.1214 27.7701 43.0231 27.9384 42.9777C28.1067 42.9324 28.2852 42.9423 28.4474 43.0061C28.6103 43.0733 28.7423 43.1988 28.8175 43.3582C28.8927 43.5176 28.9056 43.6993 28.8539 43.8678C28.8367 44.0272 28.8367 44.188 28.8539 44.3474C28.9026 44.7701 29.5855 44.9001 29.5855 44.9001C30.3089 45.0139 30.3984 44.2092 30.3984 44.2092C30.409 44.0549 30.409 43.9001 30.3984 43.7458C30.3959 43.5607 30.4644 43.3817 30.5899 43.2456C30.7154 43.1095 30.8883 43.0267 31.0731 43.0142C31.2219 43.0001 31.371 43.0376 31.4953 43.1205C31.6197 43.2034 31.7117 43.3266 31.7559 43.4694C31.8007 43.5858 31.8716 43.6903 31.9632 43.7749C32.0548 43.8595 32.1647 43.9219 32.2843 43.9572C32.3578 43.9815 32.4345 43.9952 32.5119 43.9978C32.6287 43.997 32.7433 43.9658 32.8445 43.9074C32.9457 43.849 33.0299 43.7653 33.089 43.6645C33.2697 43.4008 33.3916 43.1015 33.4467 42.7866C33.4703 42.6959 33.4866 42.6035 33.4955 42.5102C33.5489 42.2925 33.551 42.0654 33.5016 41.8467C33.4523 41.6281 33.3528 41.4239 33.211 41.2502C32.9858 41.0379 32.7031 40.8966 32.3981 40.8438C32.2751 40.8164 32.15 40.8001 32.0241 40.795H31.8616C31.8616 40.795 31.6258 40.795 31.3657 40.795H30.4471C29.8131 40.795 29.2278 40.795 29.2278 40.795H29.1871C28.283 40.6819 27.3667 40.8675 26.5777 41.3234" fill="white"/>
<path d="M24.4885 42.2989C24.4317 42.9785 24.6449 43.6531 25.082 44.1767C25.3011 44.4391 25.5798 44.6453 25.8949 44.7782C26.0519 44.8457 26.2153 44.8975 26.3826 44.9327C26.8007 45.0465 27.2461 45.0031 27.6344 44.8107C27.8295 45.9488 29.5366 46.217 29.5529 46.217C29.9657 46.2785 30.3869 46.1901 30.7403 45.9679C31.0937 45.7458 31.3559 45.4045 31.4794 45.0058C31.75 45.2891 32.1137 45.4652 32.5037 45.5017C32.8685 45.5369 33.2358 45.4686 33.5636 45.3047C33.8914 45.1408 34.1664 44.8879 34.3571 44.575L34.4546 44.4287C34.7049 43.9685 34.8909 43.4762 35.0074 42.9655C35.0074 42.8273 35.0074 42.7135 35.0074 42.6647C35.0896 42.2235 35.07 41.7695 34.9503 41.337C34.8306 40.9046 34.6138 40.5052 34.3165 40.1691C33.8683 39.7412 33.3019 39.458 32.6907 39.3562C32.4882 39.3072 32.2811 39.28 32.0729 39.2749C31.8465 39.2444 31.6184 39.2282 31.39 39.2261C30.5771 39.2261 29.3984 39.2261 29.1952 39.2261C27.9621 39.1058 26.7234 39.3912 25.6672 40.039C25.3448 40.2531 25.0684 40.5295 24.8543 40.8519C24.609 41.312 24.4649 41.8192 24.4316 42.3395M30.3333 43.7946C30.3439 43.9489 30.3439 44.1037 30.3333 44.258C30.3333 44.258 30.252 45.0709 29.5204 44.9489C29.5204 44.9489 28.8375 44.8189 28.7888 44.3961C28.7716 44.2367 28.7716 44.0759 28.7888 43.9165C28.8591 43.7499 28.8628 43.5627 28.7993 43.3933C28.7358 43.224 28.6099 43.0854 28.4473 43.0061C28.2863 42.9319 28.1054 42.9124 27.9322 42.9505C27.759 42.9887 27.6031 43.0824 27.4881 43.2174C27.4266 43.2913 27.3486 43.3497 27.2605 43.3882C27.1181 43.4539 26.9614 43.4823 26.805 43.471C26.6486 43.4596 26.4977 43.4087 26.3663 43.3231C26.2536 43.243 26.1617 43.1371 26.0981 43.0142C25.9635 42.6987 25.9322 42.3487 26.0087 42.0144C26.083 41.7004 26.2751 41.4268 26.5452 41.2502C27.3377 40.7959 28.256 40.6105 29.1627 40.7219H29.2602C29.2602 40.7219 29.8455 40.7219 30.4796 40.7219H31.3982C31.6583 40.7219 31.894 40.7219 31.894 40.7219H32.0566C32.1825 40.7269 32.3076 40.7432 32.4305 40.7706C32.7355 40.8234 33.0182 40.9648 33.2434 41.1771C33.3852 41.3507 33.4847 41.5549 33.5341 41.7736C33.5835 41.9922 33.5814 42.2194 33.5279 42.4371C33.519 42.5303 33.5027 42.6228 33.4792 42.7135C33.4241 43.0283 33.3021 43.3277 33.1215 43.5914C33.0624 43.6921 32.9781 43.7758 32.8769 43.8343C32.7758 43.8927 32.6612 43.9238 32.5443 43.9247C32.4669 43.922 32.3903 43.9083 32.3167 43.884C32.1971 43.8487 32.0873 43.7863 31.9957 43.7018C31.904 43.6172 31.8331 43.5127 31.7883 43.3963C31.7442 43.2535 31.6522 43.1303 31.5278 43.0474C31.4034 42.9645 31.2543 42.9269 31.1055 42.9411C30.9215 42.9554 30.7497 43.0388 30.6246 43.1745C30.4995 43.3101 30.4302 43.4881 30.4308 43.6727" fill="#221714"/>
</svg>
