<svg width="96" height="96" viewBox="0 0 96 96" fill="none" xmlns="http://www.w3.org/2000/svg">
<g clip-path="url(#clip0_368_971)">
<rect width="96" height="96" rx="48" fill="#F0EAF3"/>
<path d="M69.2053 73.9561C62.7975 71.548 61.3824 69.4236 60.2718 68.1746C59.1646 66.9256 58.9986 66.026 58.9986 61.9848V49.415L49.3247 51.6259L39.6508 49.415V61.9848C39.6508 66.0295 39.4847 66.929 38.3776 68.1746C37.2704 69.4236 35.8518 71.5445 29.4441 73.9561C23.0433 76.3642 42.1558 87.8787 42.1558 87.8787H56.4901C56.4901 87.8787 75.5991 76.3642 69.2018 73.9561H69.2053Z" fill="white"/>
<path d="M56.4922 88.5719C56.2569 88.5719 56.0285 88.4508 55.9005 88.2363C55.7033 87.9076 55.8071 87.482 56.1358 87.2848C61.5471 84.0221 70.048 77.9154 69.8197 75.4104C69.8058 75.272 69.7747 74.9087 68.9616 74.6008C62.9345 72.3346 61.1942 70.3036 60.042 68.9612C59.9417 68.847 59.8483 68.7363 59.7548 68.6325C58.447 67.162 58.3051 65.9856 58.3051 61.9825V50.2812L49.4789 52.2983C49.3786 52.3225 49.2713 52.3225 49.171 52.2983L40.3448 50.2812V61.9825C40.3448 65.9856 40.203 67.162 38.8951 68.6325C38.8017 68.7363 38.7083 68.847 38.6079 68.9612C37.4558 70.3036 35.712 72.3346 29.6883 74.6008C28.8752 74.9053 28.8406 75.272 28.8303 75.4104C28.6019 77.9154 37.1029 84.0221 42.5142 87.2848C42.8429 87.482 42.9467 87.9076 42.7494 88.2363C42.5522 88.5649 42.1267 88.6687 41.798 88.4715C39.338 86.9872 27.0761 79.3824 27.4498 75.2859C27.5051 74.6631 27.858 73.8119 29.2005 73.3068C34.8955 71.1651 36.4974 69.2968 37.5561 68.0616C37.6599 67.9405 37.7603 67.8229 37.8571 67.7121C38.7636 66.6949 38.9574 66.086 38.9574 61.9825V49.4127C38.9574 49.2017 39.0543 49.0045 39.2169 48.873C39.383 48.7415 39.5975 48.6931 39.8016 48.7381L49.3198 50.9143L58.838 48.7381C59.0421 48.6896 59.2601 48.7381 59.4227 48.873C59.5888 49.0045 59.6822 49.2051 59.6822 49.4127V61.9825C59.6822 66.0894 59.8759 66.6949 60.7824 67.7121C60.8793 67.8229 60.9796 67.937 61.0834 68.0581C62.1422 69.2933 63.7476 71.1617 69.4391 73.3033C70.7815 73.8085 71.131 74.6562 71.1898 75.2824C71.5635 79.3755 59.305 86.9838 56.8416 88.4681C56.7309 88.5338 56.6063 88.5684 56.4852 88.5684L56.4922 88.5719Z" fill="#111111"/>
<path d="M49.326 77.3439L47.8729 74.3407L47.4681 69.1301C47.4681 69.1301 44.8835 68.6076 41.4444 67.1026C38.9844 66.0266 37.8911 64.6599 37.2198 64.653C36.5486 64.6461 33.5039 70.4276 33.5039 70.4276L39.531 77.7902L40.6763 76.472C40.6763 76.472 47.7552 87.5056 49.326 87.5056C50.8968 87.5056 57.9758 76.472 57.9758 76.472L59.121 77.7902L64.9751 69.9155C64.9751 69.9155 62.2003 64.7672 61.4322 64.653C60.6641 64.5388 59.422 65.9504 56.5745 67.2341C54.2737 68.272 51.184 69.1301 51.184 69.1301L50.7792 74.3407L49.326 77.3439Z" fill="white"/>
<path d="M61.5325 63.964C60.8821 63.8705 60.28 64.2615 59.3701 64.8601C58.64 65.3375 57.6436 65.9915 56.2908 66.6004C54.1629 67.5588 51.3189 68.3719 51.0041 68.4584C50.9487 68.4722 50.8899 68.4964 50.8414 68.5241C50.6408 68.6383 50.5127 68.8424 50.4954 69.0708L50.101 74.1499L49.326 75.7484L48.551 74.1499L48.1566 69.0708C48.1393 68.8355 48.0009 68.6244 47.7933 68.5137C47.7344 68.4826 47.6687 68.4584 47.6064 68.4445C47.34 68.3892 44.9285 67.8633 41.7211 66.462C40.441 65.9015 39.5414 65.251 38.8806 64.777C38.199 64.2857 37.7492 63.9605 37.2233 63.9536C36.8185 63.957 36.1299 63.9432 32.888 70.0984C32.76 70.344 32.7877 70.645 32.9641 70.8595L38.9913 78.2222C39.1193 78.3814 39.3131 78.4713 39.5172 78.4748C39.7213 78.4679 39.9151 78.3917 40.05 78.236L40.5932 77.6098C41.261 78.6305 42.5135 80.5127 43.8455 82.381C47.9836 88.1902 48.8209 88.1902 49.3225 88.1902C49.8242 88.1902 50.6615 88.1902 54.7996 82.381C56.1316 80.5127 57.3841 78.627 58.0519 77.6098L58.5951 78.236C58.7335 78.3952 58.9341 78.4852 59.1452 78.4748C59.3562 78.4679 59.55 78.3641 59.6746 78.1945L65.5287 70.3198C65.6879 70.1053 65.7086 69.8147 65.5841 69.5794C62.6466 64.1231 61.837 64.0055 61.5325 63.9605V63.964ZM59.0795 76.686L58.4982 76.0148C58.3563 75.8487 58.1418 75.7657 57.9273 75.7795C57.7093 75.7968 57.5121 75.911 57.3945 76.0944C54.3083 80.9036 50.4055 86.2699 49.326 86.7924C48.2465 86.2699 44.3437 80.9036 41.2575 76.0944C41.1399 75.911 40.9427 75.7934 40.7247 75.7795C40.7074 75.7795 40.6901 75.7795 40.6763 75.7795C40.4756 75.7795 40.2853 75.866 40.1538 76.0183L39.5449 76.7172L34.3273 70.344C35.4414 68.2646 36.7769 66.0088 37.334 65.4033C37.5243 65.5071 37.8218 65.7216 38.071 65.905C38.7802 66.417 39.749 67.1159 41.1641 67.7353C43.7556 68.8701 45.8696 69.4548 46.8141 69.6866L47.1809 74.3921C47.1878 74.4786 47.2085 74.5616 47.2466 74.6412L48.6998 77.6479C48.8139 77.8866 49.0561 78.0388 49.3225 78.0388C49.589 78.0388 49.8311 77.8866 49.9453 77.6479L51.3985 74.6412C51.4365 74.5651 51.4573 74.4786 51.4642 74.3921L51.831 69.659C52.8067 69.3683 55.0625 68.6694 56.8547 67.8633C58.3044 67.2093 59.3562 66.5208 60.1243 66.0191C60.5395 65.7458 61.0447 65.4171 61.2661 65.3479C61.7747 65.7943 63.0826 67.9048 64.1517 69.8562L59.076 76.686H59.0795Z" fill="#111111"/>
<path d="M57.63 77.161C57.3878 77.161 57.156 77.033 57.028 76.8081L54.0732 71.5871H53.3951C53.0145 71.5871 52.7031 71.2757 52.7031 70.8951C52.7031 70.5145 53.0145 70.2031 53.3951 70.2031H54.4746C54.7237 70.2031 54.9555 70.3381 55.0766 70.5526L58.232 76.123C58.4189 76.4552 58.3047 76.8773 57.9691 77.0676C57.8618 77.1298 57.7442 77.1575 57.63 77.1575V77.161Z" fill="#111111"/>
<path d="M41.3666 77.1597C41.2524 77.1597 41.1348 77.132 41.0275 77.0698C40.6954 76.8829 40.5777 76.4608 40.7646 76.1252L43.92 70.5548C44.1068 70.2226 44.5289 70.105 44.8645 70.2953C45.1967 70.4821 45.3143 70.9042 45.1275 71.2398L41.9721 76.8103C41.8441 77.0352 41.6088 77.1632 41.37 77.1632L41.3666 77.1597Z" fill="#111111"/>
<path d="M77.4403 73.3749L65.303 69.0293C65.303 69.0293 60.5006 75.6135 49.3286 75.6135C38.1566 75.6135 33.3543 69.0293 33.3543 69.0293L21.217 73.3749C19.3036 74.06 12.4288 75.7311 11.633 86.0312C11.6088 86.3461 11.5431 99.0794 11.4531 102.307H87.1972C87.1073 99.0794 87.0415 86.3461 87.0173 86.0312C86.2215 75.7277 79.3467 74.06 77.4334 73.3749H77.4403Z" fill="#FFDB43"/>
<path d="M11.4579 93.0001C11.4579 93.0001 11.444 93.0001 11.4371 93.0001C11.0565 92.9897 10.7555 92.6714 10.7659 92.2908L10.8385 89.5471C10.8974 87.3605 10.9285 86.2083 10.9458 85.9834C11.7277 75.8459 18.1735 73.6766 20.5989 72.86C20.7442 72.8116 20.8722 72.7666 20.983 72.7286L33.1203 68.3829C33.4109 68.2791 33.7327 68.3795 33.9126 68.6251C33.9576 68.6874 38.6769 74.9221 49.3265 74.9221C59.976 74.9221 64.6953 68.6839 64.7403 68.6217C64.9202 68.376 65.2454 68.2757 65.5326 68.3795L77.6699 72.7251C77.7806 72.7666 77.9121 72.8081 78.054 72.8566C80.4794 73.6731 86.9252 75.8425 87.7071 85.98C87.7244 86.2049 87.7555 87.3639 87.8144 89.5575L87.887 92.2874C87.8974 92.668 87.5964 92.9863 87.2158 92.9966C86.8317 93.0174 86.5169 92.706 86.5065 92.3254L86.4339 89.5921C86.3854 87.8172 86.3474 86.2844 86.3301 86.0838C85.6173 76.8597 79.8047 74.9014 77.6146 74.1644C77.4623 74.1125 77.3239 74.0675 77.2029 74.0226L65.5292 69.8396C64.2455 71.3308 59.2183 76.2957 49.3265 76.2957C39.4346 76.2957 34.4108 71.3273 33.1237 69.8396L21.4501 74.0226C21.3324 74.0641 21.194 74.1125 21.0383 74.1644C18.8482 74.9014 13.0356 76.8597 12.3228 86.0838C12.309 86.2844 12.2675 87.8103 12.219 89.5783L12.1464 92.3254C12.136 92.7026 11.8281 92.9966 11.4544 92.9966L11.4579 93.0001Z" fill="#111111"/>
<path d="M46.4755 19.3971C53.25 18.9508 57.5541 22.7602 59.8342 26.1647C61.0452 27.9742 61.7717 30.0605 61.962 32.2264L62.6194 39.7379C64.1833 38.9836 66.4322 39.1878 66.7678 43.9313C67.0654 48.1316 64.7369 50.5985 62.8962 50.9964C62.8962 50.9964 62.9204 54.6327 62.2319 55.9025C60.9414 58.2829 58.6924 60.0406 56.0871 62.3552C53.679 64.4969 51.9387 64.3378 50.0738 64.5038C48.2089 64.6665 46.5205 65.1232 43.7768 63.4347C40.8082 61.6079 37.9123 59.7707 36.6044 58.148C35.6357 56.9474 35.0959 53.4322 35.0959 53.4322C33.2137 53.363 30.4908 51.3355 30.0549 47.149C29.5635 42.4193 31.7433 41.8277 33.4144 42.2982L32.757 34.7868C32.5667 32.6209 32.9231 30.4377 33.7985 28.4482C34.7499 26.2927 36.338 23.8881 38.798 22.0924C39.3516 21.6911 40.4069 22.3311 41.0504 21.999C41.5867 21.7222 41.6974 20.4593 42.2994 20.2448C43.3512 19.8711 44.5103 19.5978 45.7766 19.4594L46.479 19.3971H46.4755Z" fill="white"/>
<path d="M47.7864 65.3759C46.5546 65.3759 45.1776 65.113 43.4096 64.0197C40.1919 62.0371 37.417 60.2588 36.0608 58.5772C35.2131 57.5254 34.6976 55.1416 34.4969 54.0552C32.2168 53.6365 29.7811 51.2423 29.3624 47.2149C29.1064 44.7446 29.5216 43.0319 30.5941 42.1289C31.1512 41.6618 31.857 41.4369 32.6424 41.4715L32.0611 34.8423C31.8605 32.5588 32.241 30.2476 33.1579 28.1647C33.9952 26.2653 35.5798 23.57 38.3824 21.5287C38.9013 21.1515 39.5276 21.2553 40.0327 21.3384C40.2645 21.3764 40.6175 21.4352 40.7247 21.3799C40.7766 21.328 40.9081 21.0408 40.9842 20.8713C41.1987 20.3938 41.4651 19.8022 42.0602 19.5911C43.202 19.1863 44.4233 18.9095 45.6966 18.7711L46.4128 18.7088C46.4128 18.7088 46.4232 18.7088 46.4266 18.7088C54.1318 18.2002 58.4913 22.923 60.4046 25.7843C61.6709 27.6769 62.446 29.8878 62.6466 32.1713L63.2279 38.8005C63.996 38.6309 64.7295 38.7278 65.3592 39.0946C66.5736 39.7969 67.2794 41.4127 67.4559 43.89C67.7431 47.9311 65.7571 50.7198 63.5808 51.5225C63.56 52.6366 63.4459 55.1174 62.8369 56.2384C61.6709 58.3835 59.8061 60.02 57.6402 61.9126C57.2838 62.224 56.917 62.5458 56.5434 62.8779C54.2529 64.9158 52.4918 65.0334 50.793 65.1476C50.5716 65.1614 50.3536 65.1787 50.1322 65.196C49.9107 65.2168 49.6893 65.2375 49.4713 65.2618C48.9247 65.3206 48.3745 65.3794 47.7898 65.3794L47.7864 65.3759ZM32.4971 42.8555C32.158 42.8555 31.7913 42.935 31.4868 43.1911C31.0059 43.5959 30.4834 44.5993 30.7394 47.0765C31.1339 50.8859 33.5385 52.6816 35.1162 52.7404C35.4484 52.7542 35.7252 52.9999 35.7736 53.3286C35.9155 54.2558 36.4379 56.8508 37.1368 57.7157C38.3547 59.2242 41.1399 61.0061 44.1327 62.8502C46.3401 64.21 47.7206 64.0612 49.3156 63.8882C49.544 63.864 49.7723 63.8398 50.0042 63.819C50.236 63.7982 50.4643 63.7844 50.6927 63.7671C52.2946 63.6598 53.682 63.5664 55.6196 61.8434C55.9967 61.5078 56.3669 61.186 56.7267 60.8712C58.7888 59.0651 60.5707 57.5047 61.6156 55.5775C62.055 54.7679 62.2038 52.346 62.1968 51.007C62.1968 50.6783 62.4217 50.3946 62.7435 50.3254C64.2901 49.9932 66.3453 47.8066 66.0719 43.9869C65.8955 41.5061 65.207 40.6065 64.6637 40.2917C64.034 39.9284 63.2971 40.1844 62.9165 40.3678C62.7124 40.4681 62.4702 40.4578 62.273 40.347C62.0757 40.2363 61.9443 40.0322 61.927 39.8073L61.2696 32.2959C61.0897 30.2407 60.3942 28.2582 59.2559 26.5594C57.5087 23.9471 53.5333 19.6396 46.527 20.0963L45.8315 20.1585C44.6828 20.2831 43.5653 20.5357 42.5239 20.9059C42.4685 20.9578 42.3301 21.2657 42.2471 21.4491C42.0499 21.885 41.8284 22.3798 41.3579 22.622C40.8423 22.8884 40.268 22.7915 39.8044 22.7154C39.6072 22.6843 39.2785 22.6289 39.1851 22.667C36.642 24.5215 35.1889 26.9918 34.4208 28.7356C33.5973 30.6074 33.2548 32.6834 33.4347 34.7351L34.0921 42.2465C34.1128 42.4714 34.0194 42.6963 33.843 42.8382C33.6665 42.9835 33.4312 43.0319 33.2133 42.9696C33.0264 42.9177 32.7669 42.8624 32.4867 42.8624L32.4971 42.8555Z" fill="#111111"/>
<path d="M63.2329 26.9046L64.52 26.9807C64.52 26.9807 63.783 24.2197 61.15 21.9638C58.6589 19.8291 56.5103 19.6561 56.5103 19.6561L57.6728 19.1232C57.6728 19.1232 55.673 17.4521 53.8289 18.9883C53.8289 18.9883 53.3237 16.2792 49.8396 16.7428C50.4486 17.3068 51.0644 18.1787 51.0644 18.1787C51.0644 18.1787 42.6949 13.4801 34.9379 21.1507C36.0485 20.9501 36.5502 21.3134 36.5502 21.3134C36.5502 21.3134 34.0452 21.8254 31.7928 25.1884C30.5818 26.9945 29.1875 30.5374 29.1875 30.5374L30.0559 30.271C30.0559 30.271 28.9107 34.1946 30.2947 38.3741C31.2669 41.3046 31.2254 45.4704 31.2254 45.4704L33.4086 42.2942L33.0245 37.8932L37.4221 32.0252L37.0657 33.5822C39.5326 32.9836 41.5463 30.1672 41.5463 30.1672L41.0653 32.6134C41.0653 32.6134 49.3103 32.0425 52.6387 23.1955L53.9327 24.7975C53.5175 30.0288 57.9946 31.3886 57.9946 31.3886L58.0223 30.06C58.0223 30.06 58.5724 32.0356 59.9425 33.3815C61.1777 34.5924 62.1811 34.9211 62.1811 34.9211L62.6136 39.7442L64.4369 43.1488C64.4369 43.1488 64.2778 41.5365 64.4473 39.1353C64.5719 37.3431 65.0528 34.98 64.9594 33.2258C64.6791 28.0394 63.2294 26.9115 63.2294 26.9115L63.2329 26.9046Z" fill="white"/>
<path d="M31.2232 46.1628C31.154 46.1628 31.0848 46.1525 31.0156 46.1317C30.725 46.0383 30.5278 45.7684 30.5312 45.464C30.5312 45.4224 30.5589 41.3744 29.6351 38.5926C28.6421 35.5963 28.8808 32.7523 29.1369 31.2265C28.9639 31.2161 28.7978 31.1365 28.6767 31.005C28.4968 30.8113 28.4414 30.5276 28.5418 30.2819C28.6006 30.1331 29.9776 26.649 31.2163 24.8014C32.2992 23.1857 33.4445 22.1858 34.3855 21.5699C34.3613 21.5388 34.3406 21.5042 34.3233 21.4696C34.1849 21.1997 34.2333 20.871 34.4513 20.6565C40.0286 15.1414 45.9935 15.778 49.1455 16.6984C49.1489 16.643 49.1593 16.5876 49.1766 16.5357C49.2562 16.2797 49.4776 16.0963 49.744 16.0583C52.2559 15.7227 53.5914 16.8748 54.1727 17.9508C55.7608 17.2139 57.3904 17.9854 58.1135 18.5909C58.2969 18.7432 58.3869 18.9784 58.3557 19.2137C58.3453 19.2864 58.3246 19.3556 58.2934 19.4178C59.193 19.7638 60.359 20.3728 61.5976 21.435C64.3587 23.8015 65.151 26.6767 65.1856 26.7978C65.2444 27.0123 65.1925 27.2407 65.0541 27.4137C64.9295 27.5694 64.7427 27.6593 64.5455 27.6662C65.0056 28.6696 65.5004 30.3719 65.6492 33.1779C65.7115 34.3577 65.535 35.7451 65.3655 37.0875C65.2721 37.8349 65.1821 38.5407 65.1371 39.1739C64.978 41.4816 65.1267 43.0593 65.1267 43.0732C65.1579 43.4018 64.9538 43.7063 64.6389 43.8032C64.324 43.9001 63.985 43.7582 63.8293 43.4676L62.0059 40.063C61.9609 39.98 61.9333 39.8901 61.9263 39.7966L61.5319 35.3818C61.2897 35.2607 60.961 35.0773 60.5735 34.804C60.2621 34.5826 60.1895 34.1501 60.4109 33.8387C60.6323 33.5273 61.0648 33.4546 61.3762 33.6761C61.9817 34.1086 62.4003 34.2539 62.4038 34.2539C62.6633 34.3438 62.8501 34.5756 62.8744 34.849L63.293 39.5302L63.6978 40.2845C63.7116 39.9108 63.7289 39.506 63.7601 39.0735C63.8051 38.4023 63.8985 37.6757 63.9954 36.9076C64.158 35.6275 64.3275 34.3023 64.2687 33.247C64.0196 28.5866 62.7982 27.4379 62.7844 27.4275C62.5457 27.2407 62.4661 26.9293 62.5699 26.6456C62.6737 26.3619 62.9643 26.1889 63.2688 26.2062L63.4902 26.22C63.0646 25.2789 62.2135 23.7842 60.6981 22.4833C58.4042 20.5181 56.4701 20.3416 56.4528 20.3382C56.1379 20.3139 55.8819 20.0787 55.8265 19.7673C55.7816 19.5078 55.8888 19.2483 56.093 19.0926C55.5567 18.9646 54.8958 18.9888 54.2696 19.5113C54.0793 19.6669 53.8233 19.7119 53.5914 19.6323C53.3596 19.5493 53.1901 19.3486 53.1451 19.1099C53.1105 18.9507 52.8233 17.7848 51.3944 17.4595C51.5328 17.6394 51.6158 17.7605 51.6262 17.7744C51.8131 18.0373 51.7923 18.3972 51.5743 18.6359C51.3563 18.8746 51.0034 18.9335 50.7232 18.7743C50.4187 18.6048 43.5128 14.875 36.6068 20.5631C36.7971 20.6357 36.9113 20.7118 36.9563 20.743C37.1777 20.9056 37.2849 21.1824 37.2261 21.4488C37.1673 21.7187 36.9563 21.9263 36.6898 21.9816C36.6725 21.9851 34.4132 22.511 32.3684 25.5626C31.6349 26.6559 30.8184 28.4447 30.3132 29.6176C30.3963 29.6522 30.4724 29.7007 30.5381 29.7664C30.7181 29.9463 30.7873 30.2093 30.7181 30.4549C30.7077 30.493 29.6524 34.2331 30.9499 38.1463C31.5035 39.8174 31.7422 41.8449 31.8425 43.3396L32.6971 42.0975L32.3338 37.9421C32.32 37.7726 32.3684 37.6031 32.4688 37.4681L33.441 36.1707C33.6693 35.8662 34.1053 35.8039 34.4098 36.0323C34.7142 36.2606 34.7765 36.6966 34.5482 37.001L33.7351 38.0874L34.0984 42.2255C34.1122 42.3846 34.0707 42.5473 33.9807 42.6787L31.7975 45.8549C31.6661 46.0452 31.4516 46.1559 31.2267 46.1559L31.2232 46.1628Z" fill="#111111"/>
<path d="M62.6133 39.7413L62.7378 41.6857L62.9039 47.1212L62.8901 50.9998C64.7342 50.6053 67.0627 48.135 66.7617 43.9346C66.4226 39.1911 64.1772 38.987 62.6133 39.7413Z" fill="white"/>
<path d="M62.8915 51.6883C62.7358 51.6883 62.5801 51.6329 62.4556 51.5326C62.293 51.4011 62.1996 51.2004 62.1996 50.9928L62.2134 47.1143C62.2134 46.7337 62.5248 46.4258 62.9054 46.4258C63.286 46.4258 63.5974 46.7371 63.5939 47.1212L63.5835 49.9756C64.9363 49.1729 66.2961 47.135 66.0712 43.9796C65.8947 41.4989 65.2062 40.5993 64.663 40.2844C64.2201 40.0284 63.7254 40.0803 63.3344 40.1945L63.4244 41.6373C63.4486 42.0178 63.1579 42.3465 62.7774 42.3708C62.3968 42.3915 62.0681 42.1043 62.0439 41.7238L61.9193 39.7793C61.902 39.499 62.0542 39.2361 62.3103 39.1115C63.3967 38.5856 64.4796 38.5787 65.355 39.0839C66.5694 39.7862 67.2752 41.402 67.4517 43.8793C67.7631 48.256 65.4069 51.1589 63.0334 51.671C62.985 51.6813 62.9365 51.6848 62.8881 51.6848L62.8915 51.6883Z" fill="#111111"/>
<path d="M33.6246 44.2292L33.4066 42.2951C31.7355 41.8245 29.5557 42.4162 30.047 47.1459C30.483 51.3358 33.2025 53.3598 35.0881 53.429L34.4031 49.6128L33.6246 44.2292Z" fill="white"/>
<path d="M35.092 54.1211C35.092 54.1211 35.0747 54.1211 35.0678 54.1211C32.6424 54.0312 29.8157 51.5815 29.3624 47.2152C29.1064 44.7448 29.5216 43.0321 30.5941 42.1291C31.3691 41.4786 32.4348 41.2987 33.5973 41.6274C33.8672 41.7035 34.0644 41.9353 34.0955 42.2156L34.3135 44.1497C34.355 44.5303 34.0817 44.8728 33.7011 44.9143C33.3205 44.9558 32.978 44.6825 32.9365 44.3019L32.7773 42.8661C32.3725 42.8176 31.8778 42.8557 31.4868 43.1844C31.0059 43.5892 30.4834 44.5926 30.7394 47.0698C31.0647 50.2149 32.76 51.9864 34.2305 52.5434L33.7253 49.734C33.6561 49.3568 33.9087 48.997 34.2824 48.9313C34.6595 48.8621 35.0193 49.1146 35.0851 49.4883L35.7701 53.3046C35.8082 53.5122 35.7494 53.7232 35.611 53.8824C35.4795 54.0346 35.2892 54.1211 35.0885 54.1211H35.092Z" fill="#111111"/>
<path d="M48.3853 30.6111C48.1501 30.6111 47.9183 30.49 47.7902 30.272C47.593 29.9433 47.7003 29.5178 48.029 29.324C50.2675 27.9885 50.5685 25.6115 50.5789 25.5112C50.6239 25.1341 50.9664 24.8573 51.3436 24.9023C51.7207 24.9438 51.994 25.2828 51.956 25.6634C51.9421 25.7914 51.5823 28.8154 48.7382 30.5142C48.6275 30.5799 48.5064 30.6111 48.3853 30.6111Z" fill="#A3A3A3"/>
<path d="M43.3971 32.8452C43.1445 32.8452 42.9023 32.7068 42.7778 32.4646C42.6048 32.1221 42.7432 31.7069 43.0822 31.5339C45.4108 30.3575 45.8744 28.0082 45.8951 27.9079C45.9643 27.5342 46.3242 27.2851 46.7013 27.3543C47.075 27.4235 47.3241 27.7799 47.2583 28.157C47.2341 28.285 46.6667 31.2744 43.7085 32.7691C43.6082 32.821 43.5009 32.8452 43.3971 32.8452Z" fill="#A3A3A3"/>
<path d="M35.2108 35.6616C35.0655 35.6616 34.9201 35.6167 34.7956 35.5232C34.4911 35.2949 34.4288 34.8589 34.6572 34.5545L36.8646 31.6101C37.0618 31.3471 37.4147 31.2606 37.7088 31.399C38.0064 31.5374 38.1655 31.8627 38.0929 32.181L38.0306 32.4543C39.6948 31.534 40.9646 29.7833 40.9819 29.7625C41.1722 29.4996 41.5216 29.4027 41.8192 29.5307C42.1167 29.6587 42.2863 29.9805 42.224 30.2988L41.7431 32.7449C41.6704 33.1186 41.3071 33.3643 40.93 33.2916C40.5563 33.219 40.3107 32.8522 40.3833 32.4785L40.3902 32.4405C39.5426 33.1947 38.4458 33.9559 37.2244 34.2535C37.0376 34.2984 36.8404 34.2638 36.6812 34.16L35.7609 35.3848C35.626 35.5648 35.4184 35.6616 35.2073 35.6616H35.2108Z" fill="#A3A3A3"/>
<path d="M59.4682 33.5386C59.264 33.5386 59.0633 33.4486 58.9284 33.2791C58.6066 32.8777 58.3437 32.4591 58.1257 32.0647C58.0185 32.0854 57.9043 32.082 57.7936 32.0474C57.7451 32.0335 52.7871 30.4593 53.2403 24.74C53.2715 24.3595 53.6036 24.0757 53.9842 24.1034C54.3648 24.1346 54.6485 24.4667 54.6208 24.8473C54.3613 28.0961 56.1813 29.6669 57.323 30.3209L57.3299 30.0372C57.3369 29.6946 57.5964 29.4075 57.9354 29.3659C58.278 29.321 58.5963 29.5355 58.6897 29.8676C58.6931 29.8815 59.091 31.2654 60.0079 32.4106C60.2466 32.7082 60.1982 33.1441 59.9006 33.3829C59.7726 33.4867 59.6204 33.5351 59.4682 33.5351V33.5386Z" fill="#A3A3A3"/>
<path d="M46.5287 43.036C46.3522 43.036 46.1792 42.946 46.0824 42.7869C45.9371 42.5412 46.0097 42.2264 46.2519 42.0776C46.3211 42.0361 46.9508 41.6659 48.0822 41.5655C49.2309 41.4652 49.9298 41.7801 50.0059 41.8181C50.2654 41.9427 50.3726 42.2506 50.2516 42.5101C50.127 42.7661 49.8225 42.8768 49.563 42.7557C49.5457 42.7488 49.0267 42.5239 48.1722 42.6C47.2864 42.6762 46.7951 42.9599 46.7917 42.9633C46.7086 43.0118 46.6187 43.036 46.5252 43.036H46.5287Z" fill="#111111"/>
<path d="M40.5245 48.5369C39.2513 48.5369 38.0645 48.312 37.376 47.7307C36.2135 46.7516 35.8087 45.1566 35.7741 43.8557C35.0925 43.5754 34.7292 43.2398 34.698 42.8592C34.6807 42.6585 34.7465 42.4579 34.8883 42.3022C35.2343 41.9147 36.0162 41.842 36.4522 41.8316C36.6217 41.8247 36.7809 41.9077 36.8812 42.0427C36.9816 42.1776 37.0092 42.3541 36.9573 42.5132C36.8881 42.7277 36.8328 43.0668 36.8189 43.4716C36.8189 43.4958 36.8189 43.52 36.8189 43.5443C36.7947 44.6168 37.0577 46.1011 38.0507 46.935C39.3447 48.0248 43.7526 47.3398 44.9497 46.5509C46.3094 45.6548 46.1018 42.9665 46.0257 42.6378C45.9808 42.4475 45.9081 42.2503 45.9081 42.2503C45.8078 41.9804 45.9462 41.6828 46.216 41.5825C46.4859 41.4822 46.7834 41.6206 46.8838 41.8904C46.8872 41.9008 46.9772 42.1465 47.036 42.4025C47.1606 42.9422 47.4201 46.1703 45.5206 47.4194C44.621 48.0145 42.4724 48.5369 40.528 48.5369H40.5245Z" fill="#111111"/>
<path d="M54.5207 47.3013C53.3305 47.3013 52.251 47.1456 51.6386 46.8792C49.5523 45.9762 49.2443 42.755 49.2755 42.2014C49.2893 41.9419 49.3343 41.6824 49.3377 41.672C49.3896 41.3918 49.6595 41.205 49.9398 41.2534C50.22 41.3053 50.4103 41.5752 50.3584 41.8554C50.3584 41.8554 50.3204 42.063 50.31 42.2568C50.2927 42.5958 50.5556 45.2807 52.0468 45.9243C53.3616 46.4917 57.8249 46.4017 58.9113 45.1043C59.7451 44.1113 59.7451 42.6028 59.5341 41.551C59.5271 41.5267 59.5237 41.5025 59.5202 41.4783C59.4372 41.0839 59.323 40.7586 59.2192 40.558C59.1396 40.4092 59.1362 40.2327 59.2123 40.0805C59.2884 39.9317 59.4303 39.8245 59.5963 39.8002C60.0254 39.7345 60.8073 39.6688 61.2156 39.9905C61.3816 40.1186 61.482 40.3019 61.4993 40.5061C61.5339 40.8867 61.2329 41.2776 60.6101 41.672C60.8038 42.9626 60.6793 44.6026 59.7071 45.7686C58.7936 46.8584 56.5067 47.2944 54.5172 47.2944L54.5207 47.3013Z" fill="#111111"/>
<path d="M48.7344 57.1542C46.7519 57.1542 45.6136 56.4726 45.5582 56.438C45.2745 56.265 45.1845 55.8914 45.3575 55.6042C45.5305 55.3205 45.9042 55.2305 46.1914 55.4035C46.1983 55.407 47.3746 56.0886 49.4091 55.9121C51.4193 55.7357 52.3396 54.8915 52.35 54.8811C52.5922 54.6527 52.9728 54.6596 53.2046 54.9018C53.4364 55.1406 53.4295 55.5177 53.1942 55.753C53.1458 55.8014 51.9936 56.9051 49.5163 57.1196C49.243 57.1438 48.9835 57.1542 48.7344 57.1542Z" fill="#111111"/>
<path d="M44.0489 55.9816C43.9659 55.9816 43.8828 55.9609 43.8067 55.9228C43.5541 55.7879 43.4572 55.473 43.5922 55.2204L43.8344 54.7637C43.9693 54.5112 44.2842 54.4143 44.5367 54.5492C44.7893 54.6842 44.8862 54.999 44.7512 55.2516L44.5091 55.7083C44.4156 55.8847 44.2357 55.9851 44.0489 55.9851V55.9816Z" fill="#111111"/>
<path d="M56.2373 41.437C55.8775 41.129 55.445 40.9664 55.0506 40.9906C54.7426 41.0114 54.4347 41.174 54.1821 41.4508C53.8258 41.8383 53.632 42.3919 53.6735 42.8936C53.7116 43.3538 53.9745 43.8174 54.3828 44.1392C54.7011 44.3883 55.0575 44.5094 55.3931 44.4851C55.4035 44.4851 55.4173 44.4851 55.4277 44.4851C56.1577 44.409 56.8532 43.4437 56.8324 42.5407C56.822 42.1601 56.6006 41.7484 56.2408 41.4404L56.2373 41.437Z" fill="#111111"/>
<path d="M57.4252 42.855C57.1069 42.855 56.8197 42.6336 56.7505 42.3084C56.6882 42.0454 56.2696 40.7203 54.3147 41.0386C53.2629 41.2081 52.7751 42.0696 52.7716 42.0766C52.5917 42.4122 52.1731 42.5402 51.834 42.3603C51.4984 42.1804 51.3704 41.7617 51.5503 41.4226C51.5814 41.3638 52.3564 39.9522 54.0933 39.6719C56.7747 39.236 57.8888 41.0178 58.1068 42.0177C58.1864 42.3914 57.9511 42.7582 57.5774 42.8412C57.529 42.8516 57.4806 42.8585 57.4321 42.8585L57.4252 42.855Z" fill="#111111"/>
<path d="M41.0627 42.8451C41.3637 42.4783 41.7616 42.2431 42.156 42.2015C42.464 42.1669 42.7926 42.2777 43.0937 42.506C43.5088 42.8243 43.7995 43.3364 43.8479 43.8381C43.8929 44.2982 43.7095 44.8034 43.3635 45.1874C43.0937 45.4884 42.7615 45.6684 42.4294 45.703C42.419 45.703 42.4051 45.703 42.3948 45.703C41.6613 45.7549 40.8101 44.9245 40.6717 44.0318C40.6164 43.6582 40.7617 43.2118 41.0627 42.8451Z" fill="#111111"/>
<path d="M38.5927 44.7972C38.5166 44.7972 38.437 44.7833 38.3574 44.7557C37.9976 44.6276 37.8107 44.2297 37.9388 43.8699C37.9768 43.7592 38.9421 41.1608 41.7758 40.9359C42.8864 40.846 43.6787 41.3823 43.7652 41.4445C44.0766 41.666 44.1527 42.095 43.9313 42.4098C43.7133 42.7212 43.2843 42.7939 42.9729 42.5794C42.9556 42.5655 42.492 42.268 41.883 42.3164C39.9282 42.4721 39.2431 44.3197 39.2397 44.337C39.1393 44.6207 38.8729 44.7972 38.5892 44.7972H38.5927Z" fill="#111111"/>
<path d="M48.0653 50.8404C48.1656 50.702 48.477 50.8197 48.8714 50.792C49.2624 50.747 49.5496 50.581 49.6741 50.6986C49.7987 50.8197 49.726 51.4944 48.9441 51.5843C48.1587 51.6328 47.9649 50.9823 48.0687 50.8404H48.0653Z" fill="#111111"/>
<path d="M37.9464 40.0141C37.6938 40.0141 37.4585 39.855 37.372 39.6024C37.2648 39.2875 37.4343 38.9415 37.7492 38.8343C37.8668 38.7928 40.6728 37.8517 43.7486 38.3291C44.0773 38.381 44.3057 38.689 44.2538 39.0211C44.2019 39.3533 43.894 39.5782 43.5618 39.5263C40.7904 39.0972 38.1644 39.9726 38.1367 39.9795C38.0709 40.0003 38.0052 40.0107 37.9429 40.0107L37.9464 40.0141Z" fill="#111111"/>
<path d="M51.9347 38.8101C51.6821 38.8101 51.4468 38.651 51.3603 38.3984C51.2531 38.0835 51.4226 37.7376 51.7375 37.6303C54.6818 36.6269 57.6124 37.0663 57.7335 37.0871C58.0622 37.139 58.2905 37.4469 58.2386 37.7791C58.1867 38.1078 57.8788 38.3361 57.5466 38.2842C57.5189 38.2808 54.7822 37.8725 52.125 38.779C52.0592 38.7997 51.9935 38.8101 51.9312 38.8101H51.9347Z" fill="#111111"/>
<path d="M48.0653 50.8404C48.1656 50.702 48.477 50.8197 48.8714 50.792C49.2624 50.747 49.5496 50.581 49.6741 50.6986C49.7987 50.8197 49.726 51.4944 48.9441 51.5843C48.1587 51.6328 47.9649 50.9823 48.0687 50.8404H48.0653Z" fill="#111111"/>
<path d="M54.3342 67.2376C53.2513 65.6253 52.0888 64.0476 51.0612 63.8919C50.0647 63.7397 48.4144 64.6462 46.5841 65.4073C44.4874 66.2792 42.6259 66.9331 42.4841 67.8846C42.2142 69.6699 44.8714 69.7495 44.8714 69.7495L43.8369 73.1956C43.8369 73.1956 42.837 73.5796 42.7955 75.1573C42.7713 76.1019 43.484 77.216 43.484 77.216C43.484 77.216 42.2108 79.029 42.7989 80.3714C43.3871 81.7173 47.2588 84.1185 47.2588 84.1185C47.2588 84.1185 45.9682 85.9487 45.8402 87.2116C45.6534 89.0696 46.4318 90.6577 46.4318 90.6577L46.4907 102.305H53.5521V100.014C53.5521 100.014 55.7736 85.9522 56.3098 80.6274C56.8012 75.7593 57.2821 72.2129 57.2025 71.6109C57.1091 70.912 55.5037 68.9779 54.3308 67.2342L54.3342 67.2376Z" fill="white"/>
<path d="M46.494 102.999C46.1238 102.999 45.8158 102.705 45.802 102.331L45.7466 90.8195C45.546 90.3593 44.9785 88.8647 45.1515 87.1451C45.2484 86.1832 45.8712 85.0276 46.2968 84.3287C45.0823 83.533 42.6915 81.8584 42.1622 80.6509C41.6017 79.3638 42.2763 77.8933 42.6777 77.2013C42.432 76.7308 42.0826 75.9212 42.1034 75.1427C42.138 73.8383 42.7434 73.0841 43.252 72.7346L43.9717 70.33C43.3974 70.202 42.6777 69.939 42.2175 69.3889C41.8508 68.9495 41.7055 68.3959 41.7954 67.787C41.9823 66.5483 43.6015 65.884 45.6498 65.0467C45.8677 64.9568 46.0892 64.8668 46.3141 64.7734C46.7223 64.6039 47.1237 64.4274 47.5077 64.2544C48.947 63.6178 50.1891 63.0677 51.1614 63.213C52.362 63.3929 53.483 64.7422 54.905 66.8562C55.2786 67.4098 55.6973 67.9876 56.0986 68.5412C57.1851 70.0359 57.8009 70.9112 57.8839 71.5236C57.9428 71.97 57.8182 73.1256 57.5068 75.935C57.358 77.2567 57.1747 78.9036 56.9948 80.6993C56.4827 85.7646 54.2578 99.7296 54.2405 100.034V102.307C54.2405 102.688 53.9291 102.999 53.5485 102.999C53.1679 102.999 52.8565 102.688 52.8565 102.307V100.017C52.8565 100.017 52.8565 99.9926 52.8565 99.9787C52.8565 99.9372 55.0849 85.8407 55.6177 80.5609C55.8011 78.7583 55.9845 77.1079 56.1298 75.7828C56.3443 73.8522 56.5484 72.0288 56.5104 71.707C56.4446 71.3783 55.597 70.2089 54.9742 69.3543C54.5625 68.7869 54.1369 68.2021 53.7494 67.6278C53.1612 66.7524 51.7876 64.7076 50.9469 64.5796C50.3725 64.4931 49.1996 65.0156 48.0613 65.5173C47.6669 65.6937 47.2586 65.8736 46.84 66.0466C46.6116 66.14 46.3867 66.2335 46.1687 66.3234C44.9266 66.832 43.2278 67.5275 43.1586 67.9911C43.1171 68.2679 43.1967 68.4097 43.2728 68.4997C43.6257 68.9253 44.5772 69.0498 44.8817 69.0602C45.0962 69.0671 45.2968 69.1744 45.4214 69.3474C45.546 69.5204 45.584 69.7453 45.5217 69.9494L44.4872 73.3955C44.4249 73.5996 44.2727 73.7657 44.072 73.8418C44.0305 73.8625 43.5012 74.1359 43.4735 75.1738C43.4562 75.7724 43.899 76.5993 44.0547 76.8415C44.207 77.0768 44.2001 77.3847 44.0374 77.6131C43.7468 78.0283 43.0687 79.2911 43.4181 80.0938C43.7641 80.8861 46.0753 82.578 47.6081 83.5295C47.7707 83.6298 47.8848 83.7924 47.9229 83.9793C47.961 84.1661 47.9229 84.3599 47.8122 84.5156C47.4835 84.9861 46.6081 86.3943 46.5182 87.28C46.3521 88.9062 47.0372 90.3351 47.0441 90.3524C47.0856 90.4389 47.1098 90.5358 47.1133 90.6292L47.1721 102.276C47.1859 102.657 46.8884 102.978 46.5043 102.992C46.4974 102.992 46.487 102.992 46.4801 102.992L46.494 102.999Z" fill="#111111"/>
<path d="M52.5194 69.5416L50.3327 68.732C48.9522 68.1749 46.506 67.2858 45.6376 67.566C44.8315 67.829 44.3748 69.0365 44.2156 69.5451C44.1014 69.9084 44.3021 70.2959 44.6688 70.4135C45.0321 70.5277 45.4231 70.327 45.5373 69.9603C45.6757 69.5209 45.9317 69.0226 46.0805 68.8842C46.5718 68.8635 48.3779 69.4344 49.8379 70.0225L52.0419 70.8391C52.1215 70.8667 52.201 70.8806 52.2806 70.8806C52.5609 70.8806 52.8273 70.7076 52.9311 70.4273C53.0626 70.0675 52.8792 69.6696 52.5228 69.5381L52.5194 69.5416Z" fill="#111111"/>
<path d="M43.8345 73.8905C43.4885 73.8905 43.1909 73.631 43.1494 73.2815C43.1044 72.901 43.3743 72.5584 43.7549 72.5134L49.616 71.8076C49.9966 71.7627 50.3391 72.0325 50.3841 72.4131C50.4291 72.7937 50.1592 73.1362 49.7786 73.1812L43.9175 73.887C43.8898 73.887 43.8622 73.8905 43.8345 73.8905Z" fill="#111111"/>
<path d="M43.4893 77.9111C43.1502 77.9111 42.8527 77.6619 42.8042 77.316C42.7489 76.9388 43.0118 76.5859 43.3924 76.534L48.821 75.7625C49.2016 75.7106 49.551 75.9701 49.6029 76.3506C49.6583 76.7278 49.3919 77.0807 49.0148 77.1326L43.5862 77.9041C43.5516 77.9076 43.5204 77.9111 43.4893 77.9111Z" fill="#111111"/>
<path d="M47.259 84.813C47.1829 84.813 47.1033 84.7991 47.0272 84.7715C46.6674 84.6434 46.4805 84.2456 46.6085 83.8857L47.5842 81.1559L47.1379 80.54L45.4564 80.8929C45.0827 80.9725 44.716 80.7338 44.6364 80.3601C44.5568 79.9864 44.7955 79.6197 45.1692 79.5401L47.2901 79.0938C47.5565 79.0384 47.8333 79.1422 47.9925 79.3636L48.9163 80.6369C49.0512 80.8203 49.0858 81.0625 49.0062 81.277L47.906 84.3528C47.8057 84.6365 47.5392 84.813 47.2555 84.813H47.259Z" fill="#111111"/>
<path d="M50.7749 70.3269C50.55 70.3269 50.3285 70.2197 50.1971 70.0155L49.2871 68.642C49.076 68.3237 49.1625 67.8946 49.4843 67.6836C49.8026 67.4725 50.2316 67.559 50.4427 67.8808L51.3527 69.2544C51.5637 69.5727 51.4772 70.0017 51.1554 70.2128C51.0378 70.2889 50.9063 70.3269 50.7749 70.3269Z" fill="#111111"/>
<path d="M24.1237 55.0683C23.7154 54.1964 22.6809 53.8193 21.8056 54.2241L11.0107 59.2582C10.1388 59.6665 9.76165 60.7045 10.1665 61.5764L11.6092 64.673L13.616 68.9771L20.8333 84.4567C21.2416 85.3286 22.2796 85.7057 23.1515 85.3009L33.9463 80.2667C34.8182 79.8585 35.1954 78.8239 34.7906 77.9486L24.1202 55.0683H24.1237Z" fill="white"/>
<path d="M22.4265 86.1528C21.5097 86.1528 20.6274 85.6304 20.2157 84.7481L12.9983 69.2685C12.8357 68.9226 12.9879 68.5108 13.3339 68.3482C13.6799 68.1856 14.0916 68.3378 14.2543 68.6838L21.4716 84.1634C21.7173 84.6893 22.3435 84.9177 22.8694 84.672L33.6643 79.6379C34.1902 79.3922 34.4185 78.766 34.1729 78.2401L23.5026 55.3598C23.3849 55.1037 23.1739 54.9134 22.9075 54.8166C22.6445 54.7197 22.3573 54.7335 22.1048 54.8511L11.3099 59.8853C11.0538 60.0029 10.8636 60.214 10.7667 60.4804C10.6698 60.7434 10.6836 61.0305 10.8013 61.2831L12.2441 64.3797C12.4067 64.7257 12.2544 65.1374 11.9084 65.3C11.5625 65.4627 11.1507 65.3104 10.9881 64.9644L9.54533 61.8678C9.272 61.2796 9.24086 60.6153 9.46576 60.0064C9.68719 59.394 10.137 58.9061 10.7252 58.6328L21.52 53.5987C22.1082 53.3253 22.7725 53.2942 23.3815 53.5156C23.9939 53.7371 24.4817 54.1868 24.755 54.775L35.4254 77.6553C35.9928 78.8732 35.4634 80.3229 34.2455 80.8938L23.4507 85.928C23.1185 86.0837 22.7691 86.1563 22.4265 86.1563V86.1528Z" fill="#111111"/>
<path d="M22.4598 59.9993C22.2003 59.9993 21.9512 59.8505 21.8336 59.598L21.2488 58.342C21.0862 57.996 21.2385 57.5843 21.5845 57.4217C21.9304 57.2591 22.3422 57.4113 22.5048 57.7573L23.0895 59.0132C23.2521 59.3592 23.0999 59.771 22.7539 59.9336C22.6605 59.9786 22.5601 59.9993 22.4633 59.9993H22.4598Z" fill="#111111"/>
<path d="M23.0561 86.8303C22.807 85.2284 21.8555 82.9276 21.8555 82.9276L24.5577 80.2219C24.5577 80.2219 29.2632 78.1114 29.6922 76.6029C30.1212 75.0944 28.931 74.5477 28.931 74.5477C28.931 74.5477 30.2631 73.7969 29.7994 72.5409C29.3358 71.285 27.637 71.7555 27.637 71.7555C27.637 71.7555 28.9276 70.9598 28.1975 69.8353C27.4709 68.7074 25.1563 69.3405 25.1563 69.3405C25.1563 69.3405 20.6515 70.4235 19.444 71.0982C18.0323 71.887 13.8286 74.1879 13.8286 74.1879L14.7178 70.4581C14.7178 70.4581 18.3437 66.365 17.7486 64.898C17.1466 63.4137 15.6242 64.1161 15.0983 64.7493C14.5724 65.3824 12.1678 68.268 11.6281 69.0568C11.0883 69.8422 9.68014 75.2673 9.6836 76.0216C9.6836 76.4368 10.9119 79.3812 12.0433 82.7165C13.1262 85.9135 13.9081 92.3039 18.752 92.3039C22.3088 92.3039 23.5301 89.9512 23.0457 86.8303H23.0561Z" fill="white"/>
<path d="M18.7638 93.0002C14.2106 93.0002 12.8924 88.2324 11.9305 84.7518C11.7472 84.0909 11.5742 83.4647 11.3977 82.9422C10.8787 81.413 10.339 79.9667 9.9065 78.8042C9.173 76.8321 9.00001 76.3373 9.00001 76.0259C8.99655 75.1817 10.4324 69.5905 11.0656 68.6667C11.5327 67.9851 13.2176 65.9438 14.4424 64.4698L14.5739 64.3107C15.0583 63.7294 16.0098 63.2139 16.8955 63.3488C17.5702 63.4526 18.103 63.9128 18.3971 64.6394C19.0718 66.3036 16.3834 69.6147 15.3593 70.7876L14.8715 72.8324C16.2277 72.0885 18.231 70.9883 19.1133 70.4935C20.3658 69.7912 24.5315 68.7809 25.002 68.6667C25.2684 68.594 27.808 67.954 28.7837 69.459C29.0847 69.9226 29.1851 70.4278 29.0743 70.9191C29.064 70.9675 29.0501 71.016 29.0363 71.061C29.6245 71.2063 30.178 71.5661 30.4514 72.3031C30.8008 73.2476 30.4548 74.0261 29.9981 74.552C30.3822 75.0433 30.6451 75.7906 30.3614 76.794C29.8978 78.4305 26.2545 80.2158 24.9605 80.804L22.6701 83.0979C22.9642 83.8591 23.5489 85.4714 23.7426 86.7274C24.0506 88.703 23.7115 90.3326 22.76 91.4398C21.8743 92.4743 20.5284 93.0002 18.7638 93.0002ZM10.384 75.9948C10.4359 76.2612 10.8268 77.3061 11.204 78.3198C11.6399 79.4893 12.1831 80.9493 12.709 82.4994C12.8993 83.0564 13.0758 83.7034 13.2661 84.385C14.1587 87.6096 15.2659 91.6197 18.7638 91.6197C20.1063 91.6197 21.0958 91.2564 21.7082 90.5436C22.5663 89.5437 22.542 88.0352 22.3725 86.9454C22.1407 85.4438 21.2273 83.2225 21.2169 83.2017C21.1097 82.9422 21.1685 82.6447 21.3657 82.4475L24.0679 79.7418C24.1267 79.683 24.1959 79.6346 24.2755 79.6C26.3964 78.6485 28.8183 77.1608 29.0294 76.4238C29.2681 75.5796 28.7872 75.2578 28.6349 75.1817C28.4066 75.0675 28.2543 74.8322 28.2509 74.5762C28.244 74.3202 28.3754 74.0814 28.5969 73.9569C28.6764 73.9119 29.403 73.4621 29.1574 72.7944C28.9221 72.1543 27.8357 72.4311 27.8253 72.4345C27.4932 72.521 27.1472 72.355 27.0088 72.0401C26.8738 71.7253 26.988 71.3585 27.2787 71.1786C27.3721 71.1198 27.6696 70.8776 27.725 70.6215C27.7423 70.5454 27.7492 70.4209 27.6212 70.2237C27.2856 69.7047 25.9154 69.8673 25.3446 70.0195C24.099 70.3205 20.7083 71.1994 19.788 71.7149C18.3902 72.4968 14.2106 74.7838 14.1691 74.808C13.9304 74.9395 13.6328 74.9153 13.4183 74.7527C13.2003 74.5866 13.1 74.3063 13.1657 74.0434L14.0549 70.3136C14.0826 70.2029 14.1345 70.0991 14.2106 70.0161C15.9579 68.0405 17.3453 65.7327 17.1169 65.1757C16.9543 64.7743 16.7571 64.7432 16.6844 64.7328C16.3557 64.6809 15.861 64.9439 15.6396 65.2103L15.5081 65.3694C13.6397 67.6184 12.5291 68.9954 12.2073 69.4659C11.7852 70.0818 10.422 75.1748 10.384 76.0086V75.9948Z" fill="#111111"/>
<path d="M16.7344 76.9665L27.6365 71.7559L21.3222 74.119L16.7344 76.9665Z" fill="white"/>
<path d="M16.7347 77.6619C16.5028 77.6619 16.2779 77.5443 16.1465 77.3332C15.9458 77.008 16.0461 76.5824 16.3679 76.3817L20.9557 73.5308C20.9938 73.5066 21.0353 73.4858 21.0768 73.472L27.3946 71.1088C27.7544 70.9739 28.1523 71.1573 28.2838 71.5137C28.4187 71.87 28.2354 72.2714 27.879 72.4029L21.6269 74.7417L17.0979 77.5546C16.9838 77.6238 16.8592 77.6584 16.7347 77.6584V77.6619Z" fill="#111111"/>
<path d="M19.0117 79.9245L28.9312 74.5479L23.1186 76.9767L19.0117 79.9245Z" fill="white"/>
<path d="M19.0136 80.6172C18.7991 80.6172 18.5846 80.5169 18.4497 80.33C18.2282 80.0187 18.2974 79.5862 18.6088 79.3647L22.7123 76.4169C22.7538 76.3858 22.8022 76.3615 22.8507 76.3408L28.6667 73.9119C29.0196 73.7666 29.4245 73.9327 29.5732 74.2856C29.722 74.6385 29.5525 75.0433 29.1996 75.1921L23.4596 77.5898L19.4184 80.4927C19.2973 80.5792 19.1555 80.6241 19.0136 80.6241V80.6172Z" fill="#111111"/>
</g>
<defs>
<clipPath id="clip0_368_971">
<rect width="96" height="96" rx="48" fill="white"/>
</clipPath>
</defs>
</svg>
