<svg width="96" height="96" viewBox="0 0 96 96" fill="none" xmlns="http://www.w3.org/2000/svg">
<rect width="96" height="96" rx="48" fill="#F7F6EB"/>
<g clip-path="url(#clip0_368_755)">
<path d="M67.8743 76.5007C61.3119 74.0345 59.8626 71.8588 58.7252 70.5797C57.5913 69.3005 57.4212 68.3792 57.4212 64.2405V51.3672L47.5138 53.6314L37.6064 51.3672V64.2405C37.6064 68.3827 37.4363 69.304 36.3024 70.5797C35.1685 71.8588 33.7157 74.031 27.1533 76.5007C20.5979 78.967 40.1718 90.7595 40.1718 90.7595H54.8522C54.8522 90.7595 74.4226 78.967 67.8708 76.5007H67.8743Z" fill="white"/>
<path d="M40.1753 91.4647C40.0513 91.4647 39.9237 91.4328 39.8103 91.3619C37.291 89.8418 24.7331 82.0533 25.1157 77.8579C25.1724 77.2201 25.5339 76.3484 26.9087 75.8311C32.7412 73.6377 34.3818 71.7242 35.4661 70.4592C35.5724 70.3352 35.6752 70.2147 35.7744 70.1013C36.7028 69.0596 36.9012 68.4359 36.9012 64.2334V51.3601C36.9012 51.144 37.0004 50.942 37.1669 50.8074C37.337 50.6727 37.5567 50.6231 37.7658 50.6692L47.5138 52.898L57.2617 50.6692C57.4708 50.6196 57.694 50.6692 57.8606 50.8074C58.0307 50.942 58.1263 51.1475 58.1263 51.3601V64.2334C58.1263 68.4395 58.3248 69.0596 59.2531 70.1013C59.3524 70.2147 59.4551 70.3317 59.5614 70.4592C60.6493 71.7242 62.2899 73.6377 68.1188 75.8311C69.4936 76.3484 69.8515 77.2165 69.9118 77.8579C70.2945 82.0498 57.7401 89.8418 55.2172 91.3619C54.8805 91.5639 54.4447 91.4576 54.2427 91.121C54.0408 90.7843 54.1471 90.3485 54.4837 90.1465C60.0256 86.8051 68.7318 80.5509 68.4979 77.9855C68.4838 77.8437 68.4519 77.4717 67.6192 77.1563C61.4501 74.8354 59.6642 72.7589 58.4842 71.3805C58.3815 71.26 58.2858 71.1502 58.1901 71.0439C56.8507 69.5379 56.7054 68.3332 56.7054 64.2334V52.2495L47.6661 54.3154C47.5634 54.3402 47.4535 54.3402 47.3508 54.3154L38.3115 52.2495V64.2334C38.3115 68.3332 38.1662 69.5379 36.8268 71.0439C36.7311 71.1502 36.6354 71.2636 36.5327 71.3805C35.3527 72.7554 33.5704 74.8354 27.3977 77.1563C26.565 77.4681 26.5296 77.8437 26.5189 77.9855C26.2851 80.5509 34.9913 86.8051 40.5332 90.1465C40.8698 90.3485 40.9761 90.7843 40.7742 91.121C40.6395 91.3406 40.4056 91.4647 40.1682 91.4647H40.1753Z" fill="#111111"/>
<path d="M76.3076 75.9016L63.4981 71.3129L63.491 71.0613L59.2105 65.1969C59.2105 65.1969 57.5841 67.0749 55.6884 68.8218C53.7891 70.5758 49.7815 72.6133 49.7779 72.6133L49.3634 76.8867L47.5208 79.9624L45.6782 76.8867L45.2636 72.6133C45.2636 72.6133 41.256 70.5758 39.3532 68.8218C37.4539 67.0678 35.831 65.1934 35.831 65.1934L31.5505 71.0577L31.6072 71.2881C29.3501 72.096 18.734 75.8981 18.734 75.8981C16.7744 76.5997 9.73364 78.3111 8.91865 88.8599C8.87968 89.3843 8.80526 92.0667 8.71313 95.2877H86.3249C86.2327 92.0703 86.1619 89.3843 86.1193 88.8599C85.3044 78.3076 78.2636 76.5997 76.304 75.8981L76.3076 75.9016Z" fill="white"/>
<path d="M86.3253 96.0004C85.9426 96.0004 85.6273 95.6957 85.6166 95.313L85.5777 93.9558C85.5068 91.4861 85.4466 89.3529 85.4147 88.9206C84.6847 79.4738 78.7318 77.4683 76.4888 76.7135C76.3329 76.6604 76.1911 76.6143 76.0671 76.5682L63.2576 71.9795C62.9848 71.8803 62.797 71.6251 62.7899 71.3346V71.3027L59.1543 66.3206C58.5059 67.0329 57.3932 68.2128 56.1672 69.3432C54.5443 70.842 51.4792 72.5181 50.4446 73.0673L50.0654 76.958C50.0548 77.0643 50.0229 77.1635 49.9697 77.2521L48.1272 80.3278C47.9996 80.5404 47.7693 80.6715 47.5177 80.6715C47.2661 80.6715 47.0393 80.5404 46.9082 80.3278L45.0656 77.2486C45.0125 77.16 44.9771 77.0572 44.97 76.9545L44.5908 73.0638C43.5561 72.5181 40.4946 70.842 38.8682 69.3396C37.6351 68.2022 36.526 67.0258 35.8811 66.3171L32.3057 71.2176C32.3376 71.5366 32.1498 71.8448 31.838 71.9547L18.9647 76.5647C18.8443 76.6072 18.7025 76.6568 18.5431 76.71C16.3001 77.4647 10.3471 79.4703 9.61717 88.9171C9.58528 89.3458 9.52504 91.479 9.45417 93.9452L9.4152 95.3094C9.40457 95.6992 9.08566 96.011 8.68525 95.9968C8.29547 95.9862 7.9872 95.6602 7.99783 95.2669L8.0368 93.9027C8.11476 91.2132 8.16791 89.2714 8.20334 88.8072C9.00416 78.425 15.6056 76.2033 18.0895 75.367C18.2383 75.3174 18.3694 75.2713 18.4828 75.2324L30.8813 70.7924C30.9025 70.7393 30.9309 70.6897 30.9628 70.6436L35.2433 64.7792C35.3708 64.6056 35.5692 64.4993 35.7854 64.4887C36.0051 64.4816 36.2106 64.5702 36.3523 64.7332C36.3701 64.7509 37.9752 66.597 39.8214 68.305C41.6285 69.9739 45.5334 71.9653 45.5723 71.9866C45.7885 72.0964 45.9338 72.309 45.955 72.55L46.3554 76.6639L47.5071 78.588L48.6587 76.6639L49.0591 72.55C49.0803 72.3197 49.215 72.1177 49.4134 72.0043C49.6048 71.9051 53.4033 69.9562 55.1928 68.305C57.0601 66.5828 58.6441 64.7544 58.6582 64.7367C58.8 64.5737 59.0055 64.4816 59.2252 64.4922C59.4413 64.5029 59.6398 64.6092 59.7673 64.7828L64.0478 70.6472C64.0797 70.6932 64.108 70.7428 64.1293 70.796L76.5313 75.2394C76.6447 75.282 76.7793 75.3245 76.9246 75.3741C79.4086 76.2103 86.01 78.4321 86.8108 88.8143C86.8462 89.2785 86.9029 91.2239 86.9773 93.9169L87.0163 95.274C87.0269 95.6638 86.7186 95.9898 86.3289 96.0039C86.3218 96.0039 86.3147 96.0039 86.3076 96.0039L86.3253 96.0004Z" fill="#111111"/>
<path d="M37.4847 81.1323C37.2827 81.1323 37.0878 81.0438 36.9532 80.8914C36.8859 80.817 35.309 79.0027 33.1582 75.5727C31.3758 72.7273 30.8975 71.3525 30.8762 71.2922C30.7487 70.9237 30.9471 70.5198 31.3156 70.3922C31.6841 70.2646 32.0881 70.4631 32.2156 70.8316C32.2263 70.867 32.6975 72.1639 34.3594 74.818C35.6847 76.9369 36.8008 78.4323 37.4386 79.2472L41.3081 73.6699C41.5313 73.3474 41.9742 73.2695 42.2931 73.4927C42.6156 73.7159 42.6936 74.1589 42.4703 74.4778L38.0658 80.8276C37.9418 81.0083 37.7398 81.1182 37.5237 81.1323C37.5095 81.1323 37.4953 81.1323 37.4847 81.1323Z" fill="#111111"/>
<path d="M57.5508 81.1318C57.3063 81.1318 57.083 81.0077 56.9555 80.8058L52.7742 74.7819H52.0372C51.6474 74.7819 51.3285 74.463 51.3285 74.0732C51.3285 73.6835 51.6474 73.3646 52.0372 73.3646H53.1427C53.3766 73.3646 53.5927 73.478 53.7239 73.6693L57.5933 79.2431C58.2311 78.4317 59.3473 76.9328 60.6725 74.8174C62.3486 72.1385 62.8127 70.8416 62.8163 70.8275C62.9439 70.459 63.3513 70.2641 63.7163 70.3916C64.0848 70.5192 64.2833 70.9196 64.1557 71.2917C64.1344 71.3483 63.6561 72.7267 61.8737 75.5686C59.854 78.7931 58.3409 80.5861 58.1071 80.8554C57.9724 81.0255 57.7669 81.1282 57.5472 81.1282L57.5508 81.1318Z" fill="#111111"/>
<path d="M42.8157 95.5573C42.5889 95.5573 42.3656 95.4475 42.2274 95.2455C34.9705 84.4983 30.0203 74.116 29.9707 74.0097C29.8042 73.6554 29.953 73.2337 30.3074 73.0672C30.6617 72.9006 31.0834 73.0494 31.2499 73.4038C31.2995 73.5065 36.2072 83.8002 43.4003 94.4518C43.62 94.7777 43.535 95.2171 43.209 95.4368C43.0885 95.5183 42.9503 95.5573 42.8121 95.5573H42.8157Z" fill="#FFDB43"/>
<path d="M52.2276 95.5573C52.093 95.5573 51.9548 95.5183 51.8308 95.4368C51.5048 95.2171 51.4197 94.7777 51.6394 94.4518C58.8326 83.7967 63.7438 73.5065 63.7898 73.4038C63.9564 73.0494 64.378 72.9006 64.7324 73.0672C65.0867 73.2337 65.2355 73.6589 65.069 74.0097C65.0194 74.1125 60.0657 84.4983 52.8123 95.2455C52.6741 95.4475 52.4509 95.5573 52.2241 95.5573H52.2276Z" fill="#FFDB43"/>
<path d="M62.5615 42.764V35.0394C62.5615 32.8105 62.0052 30.6172 60.9315 28.6647C58.8834 24.937 54.7411 20.5928 47.6082 20.5645H47.4842C40.3513 20.5963 36.209 24.937 34.1609 28.6647C33.0872 30.6172 32.5309 32.8105 32.5309 35.0394V42.764C30.869 42.1333 28.5942 42.5443 28.6721 47.413C28.743 51.7254 31.3368 54.0357 33.2538 54.2731C33.4451 55.0952 33.6861 55.8995 33.9943 56.6188C35.9787 61.1225 41.3647 65.97 45.7018 67.1428C45.7018 67.1428 46.4778 67.3483 47.5444 67.3483C48.611 67.3483 49.387 67.1428 49.387 67.1428C53.7242 65.9664 59.1102 61.119 61.0945 56.6188C61.3992 55.9031 61.6437 55.0987 61.8351 54.2731C63.7521 54.0357 66.3459 51.7254 66.4167 47.413C66.4947 42.5443 64.2198 42.1368 62.5579 42.764H62.5615Z" fill="white"/>
<path d="M47.5474 68.06C46.3993 68.06 45.5595 67.8403 45.5241 67.8332C40.9921 66.6037 35.4183 61.6004 33.3489 56.9089C33.0938 56.3171 32.8705 55.6403 32.6756 54.8891C30.3582 54.3009 28.0337 51.6256 27.9664 47.4302C27.9239 44.886 28.5015 43.1781 29.6779 42.3524C30.2874 41.9237 31.0279 41.7607 31.8252 41.8635V35.0459C31.8252 32.6966 32.4205 30.3757 33.5402 28.3311C35.2694 25.1845 39.3798 19.8977 47.4801 19.8623H47.6076C55.7115 19.8977 59.8218 25.1845 61.551 28.3311C62.6743 30.3757 63.2661 32.7001 63.2661 35.0459V41.8635C64.0633 41.7607 64.8074 41.9237 65.4134 42.3524C66.5898 43.1781 67.1638 44.8895 67.1249 47.4302C67.0575 51.6256 64.733 54.3044 62.4156 54.8891C62.2207 55.6403 61.9975 56.3136 61.7459 56.9018C59.673 61.6039 54.0992 66.6072 49.5742 67.8332C49.5353 67.8439 48.6919 68.0636 47.5439 68.0636L47.5474 68.06ZM31.3681 43.2454C31.074 43.2454 30.7657 43.3127 30.4893 43.5041C29.9614 43.8761 29.3413 44.8541 29.3802 47.3983C29.444 51.3209 31.7366 53.369 33.3418 53.5674C33.6359 53.6028 33.8769 53.8225 33.9442 54.1095C34.1426 54.96 34.3765 55.7112 34.6458 56.3348C36.5309 60.6117 41.7858 65.3422 45.8855 66.4549C45.8855 66.4549 46.5907 66.6356 47.5439 66.6356C48.497 66.6356 49.2022 66.4549 49.2093 66.4549C53.3055 65.3458 58.5604 60.6117 60.4455 56.3277C60.7077 55.7076 60.9451 54.96 61.1435 54.1095C61.2109 53.819 61.4518 53.6028 61.7459 53.5674C63.3511 53.3654 65.6437 51.3209 65.7075 47.3983C65.75 44.8506 65.1264 43.8726 64.5984 43.5005C63.9889 43.0718 63.2165 43.2667 62.809 43.4226C62.5893 43.5041 62.3448 43.4757 62.1534 43.3446C61.9621 43.2135 61.8487 42.9938 61.8487 42.7635V35.0388C61.8487 32.9269 61.3172 30.8398 60.3073 29.0044C58.7269 26.1306 54.978 21.3009 47.6041 21.269H47.4836C40.1098 21.3009 36.3608 26.1271 34.784 29.0044C33.7741 30.8398 33.2426 32.9269 33.2426 35.0388V42.7635C33.2426 42.9974 33.1292 43.2135 32.9379 43.3482C32.7465 43.4793 32.502 43.5112 32.2859 43.4261C32.0626 43.3411 31.7295 43.2454 31.3717 43.2454H31.3681Z" fill="#111111"/>
<path d="M57.4815 20.2241C57.4815 20.2241 57.9634 19.806 59.1115 19.9159C47.7265 13.3003 41.3093 19.0513 41.3093 19.0513C38.3754 17.9741 35.3847 20.2312 35.3847 20.2312L36.8127 20.9576C36.8127 20.9576 34.9914 21.5175 32.9964 23.2219C30.2999 25.5286 29.453 28.5016 29.453 28.5016L31.285 28.2323C31.285 28.2323 28.6699 31.0068 28.8506 36.3219C28.9109 38.122 29.6125 40.489 29.8995 42.3068C30.2822 44.7447 30.268 46.403 30.268 46.403L32.5323 42.7674C32.9362 41.1197 33.4004 39.6209 33.9036 38.2602C34.3925 39.8299 35.041 40.8646 35.041 40.8646C35.041 40.8646 36.3343 34.3553 40.1719 28.9445L41.7841 26.9248C48.832 29.4441 52.7298 36.2936 52.7298 36.2936L53.0912 33.31C53.0912 33.31 55.5185 34.04 58.4843 37.9236L59.76 36.2617C59.76 36.2617 61.84 39.0539 62.5628 42.7674L65.0751 45.8112C65.0751 45.8112 65.3692 41.5627 66.0992 38.487C67.2012 33.8415 66.6236 31.0847 65.4294 28.3386C62.5593 21.7372 57.4851 20.2241 57.4851 20.2241H57.4815Z" fill="#111111"/>
<path d="M30.2648 47.1078C30.1974 47.1078 30.1337 47.0972 30.0663 47.0795C29.7616 46.9909 29.5525 46.7109 29.5561 46.392C29.5561 46.3743 29.5667 44.755 29.1982 42.4163C29.0954 41.7749 28.9431 41.0627 28.7801 40.308C28.486 38.9544 28.1812 37.5547 28.1423 36.3464C28.0289 32.9695 28.9856 30.5635 29.7758 29.171L29.5561 29.2029C29.3187 29.2383 29.0777 29.1497 28.9218 28.969C28.7624 28.7883 28.7092 28.5402 28.773 28.3064C28.8084 28.1753 29.7085 25.0996 32.5361 22.683C33.5035 21.8573 34.4283 21.2868 35.1547 20.9077L35.0626 20.8616C34.8464 20.7518 34.7011 20.5356 34.6799 20.2911C34.6586 20.0466 34.7649 19.8092 34.9598 19.6639C35.0909 19.5647 38.0461 17.3713 41.1679 18.2572C42.6632 17.1446 49.0768 13.2645 59.4697 19.3025C59.7567 19.4691 59.8914 19.8128 59.7886 20.1317C59.7496 20.2522 59.6823 20.3549 59.5973 20.4364C61.4363 21.5136 64.2037 23.7495 66.0782 28.0583C67.329 30.9356 67.9279 33.8377 66.7869 38.6532C66.0782 41.6368 65.7841 45.818 65.7806 45.8605C65.7593 46.1511 65.568 46.3991 65.2916 46.4877C65.0152 46.5763 64.714 46.4877 64.5297 46.2645L62.0174 43.2207C61.943 43.1285 61.8899 43.0222 61.8686 42.9053C61.408 40.5383 60.3556 38.5398 59.7178 37.4874L59.0516 38.3591C58.9169 38.5327 58.7079 38.6355 58.4882 38.6355C58.2685 38.6355 58.0594 38.5327 57.9248 38.3555C56.1495 36.031 54.5762 34.8901 53.6798 34.3727L53.4353 36.3783C53.3998 36.683 53.173 36.9275 52.8719 36.9878C52.5707 37.048 52.2659 36.9098 52.1171 36.6441C52.0781 36.5767 48.2548 29.9895 41.5506 27.5906C41.1821 27.4595 40.9907 27.052 41.1218 26.6835C41.2529 26.315 41.6604 26.1236 42.029 26.2547C47.1457 28.0831 50.6182 32.0482 52.2624 34.2983L52.3935 33.2211C52.4183 33.012 52.5352 32.8278 52.7089 32.7144C52.8825 32.601 53.1022 32.5691 53.3006 32.6294C53.4034 32.6612 55.6712 33.3735 58.4811 36.7716L59.204 35.8291C59.3386 35.6519 59.5477 35.5491 59.7709 35.5527C59.9941 35.5527 60.2032 35.659 60.3343 35.8397C60.4229 35.9566 62.4533 38.717 63.2257 42.4553L64.5226 44.0286C64.6786 42.4943 64.962 40.2123 65.412 38.3272C66.468 33.8802 65.9542 31.3183 64.7813 28.6253C62.0741 22.3995 57.333 20.9183 57.2834 20.9041C57.0354 20.8297 56.8476 20.6278 56.7944 20.3726C56.7413 20.1175 56.8263 19.8588 57.0212 19.6888C57.0354 19.6746 57.0602 19.6569 57.0956 19.6321C47.3228 14.7846 41.8447 19.5258 41.788 19.5789C41.5931 19.7525 41.3167 19.8057 41.0722 19.7171C39.5096 19.1431 37.8831 19.6852 36.8591 20.1848L37.139 20.3266C37.3977 20.4577 37.5465 20.7305 37.5217 21.0211C37.4969 21.3081 37.2985 21.5526 37.0221 21.6376C37.0079 21.6412 35.3035 22.1869 33.4609 23.7637C31.9373 25.0677 31.0372 26.6162 30.566 27.626L31.1861 27.5339C31.4837 27.4914 31.7778 27.6402 31.916 27.9095C32.0542 28.1753 32.0117 28.5048 31.8026 28.7245C31.7814 28.7493 29.3931 31.3821 29.5596 36.3039C29.5951 37.3846 29.8856 38.7205 30.1656 40.0139C30.3321 40.7899 30.4916 41.5198 30.6014 42.2002C30.7148 42.9195 30.7927 43.5679 30.8494 44.1349L31.8735 42.4943C32.2526 40.9529 32.7133 39.4505 33.2413 38.0189C33.3476 37.7354 33.6239 37.5476 33.9251 37.5547C34.2299 37.5618 34.4921 37.7638 34.5842 38.0543C34.6657 38.313 34.7508 38.5575 34.8358 38.7843C35.5161 36.4067 36.9654 32.2467 39.5946 28.5402C39.8214 28.2213 40.2643 28.1469 40.5832 28.3737C40.9021 28.6005 40.9766 29.0434 40.7498 29.3623C37.0504 34.5782 35.75 40.9458 35.7358 41.0096C35.6791 41.293 35.4559 41.5163 35.1689 41.5694C34.8854 41.6226 34.5948 41.495 34.4389 41.247C34.4248 41.2222 34.2157 40.8891 33.9499 40.3257C33.6806 41.1796 33.4361 42.0549 33.22 42.9407C33.2023 43.0151 33.1739 43.0825 33.1314 43.1463L30.8672 46.7818C30.736 46.9944 30.5057 47.1149 30.2648 47.1149V47.1078Z" fill="#111111"/>
<path d="M32.5805 44.7588L32.5309 42.7638C30.869 42.1331 28.5942 42.5441 28.6721 47.4128C28.743 51.7252 31.3368 54.0355 33.2538 54.2729L32.786 50.1483L32.5805 44.7552V44.7588Z" fill="white"/>
<path d="M33.2568 54.9854C33.2284 54.9854 33.2001 54.9854 33.1682 54.9783C30.7019 54.67 28.0373 51.9203 27.9664 47.4237C27.9239 44.8795 28.5015 43.1716 29.6779 42.3459C30.5248 41.7506 31.6303 41.6656 32.7855 42.1014C33.0548 42.2042 33.2355 42.4593 33.2426 42.7463L33.2922 44.7413C33.3028 45.1311 32.991 45.4571 32.6012 45.4677C32.2114 45.4783 31.8855 45.1665 31.8748 44.7767L31.8394 43.2991C31.4319 43.2141 30.9216 43.207 30.4929 43.5082C29.9649 43.8802 29.3448 44.8582 29.3838 47.406C29.4369 50.6269 30.989 52.5794 32.4311 53.2881L32.0839 50.2336C32.0414 49.8438 32.3178 49.493 32.7075 49.4505C33.0973 49.4045 33.4481 49.6844 33.4906 50.0742L33.9584 54.1987C33.9832 54.4149 33.9052 54.631 33.7528 54.7834C33.6182 54.9145 33.441 54.9889 33.2532 54.9889L33.2568 54.9854Z" fill="#111111"/>
<path d="M62.5617 42.7671L62.5121 44.7621L62.3066 50.1552L61.8389 54.2797C63.7559 54.0423 66.3497 51.732 66.4205 47.4196C66.4985 42.551 64.2236 42.1399 62.5617 42.7707V42.7671Z" fill="white"/>
<path d="M61.8386 54.9845C61.6544 54.9845 61.4736 54.9101 61.339 54.779C61.1831 54.6267 61.1087 54.4105 61.1335 54.1944L61.6012 50.0698C61.6437 49.68 61.9981 49.4036 62.3843 49.4462C62.7741 49.4887 63.054 49.843 63.0079 50.2293L62.6607 53.2837C64.1029 52.575 65.6549 50.619 65.708 47.4016C65.7506 44.8539 65.1269 43.8759 64.5989 43.5038C64.1702 43.2026 63.6599 43.2097 63.2524 43.2948L63.217 44.7724C63.2064 45.1622 62.8839 45.474 62.4906 45.4633C62.1008 45.4527 61.789 45.1303 61.7996 44.7369L61.8492 42.742C61.8563 42.455 62.037 42.1998 62.3063 42.0971C63.4651 41.6577 64.5671 41.7463 65.4139 42.3416C66.5904 43.1672 67.1644 44.8787 67.1254 47.4193C67.051 51.9124 64.3899 54.6656 61.9237 54.9739C61.8953 54.9775 61.8634 54.981 61.8351 54.981L61.8386 54.9845Z" fill="#111111"/>
<path d="M63.1908 31.3859C62.9179 31.3859 62.6592 31.23 62.5423 30.9643C62.5423 30.9572 62.2021 30.206 61.6848 29.6142C61.4261 29.3201 61.4545 28.8736 61.7521 28.615C62.0462 28.3563 62.4927 28.3847 62.7514 28.6823C63.414 29.4406 63.825 30.3548 63.8427 30.3938C64.0022 30.7517 63.8392 31.1698 63.4813 31.3292C63.3892 31.3718 63.29 31.3895 63.1943 31.3895L63.1908 31.3859Z" fill="#777777"/>
<path d="M60.7103 31.8819C60.4375 31.8819 60.1788 31.726 60.0619 31.4602C60.0619 31.4602 59.9024 31.1059 59.6402 30.6948L59.215 31.0846C59.0485 31.2405 58.8146 31.3043 58.5914 31.2583C58.3681 31.2122 58.1803 31.0598 58.0882 30.8508C58.0882 30.8437 57.748 30.0889 57.2307 29.5007C56.972 29.2066 57.0004 28.7601 57.298 28.5015C57.5921 28.2428 58.0386 28.2747 58.2973 28.5688C58.5453 28.8523 58.7579 29.157 58.928 29.4298L59.2611 29.1251C59.4028 28.994 59.5835 28.9267 59.7784 28.9373C59.9698 28.9479 60.1469 29.033 60.2745 29.1783C60.9371 29.9366 61.3482 30.8508 61.3659 30.8897C61.5253 31.2476 61.3623 31.6657 61.0045 31.8252C60.9123 31.8677 60.8131 31.8854 60.7174 31.8854L60.7103 31.8819Z" fill="#777777"/>
<path d="M32.6316 31.577C32.5359 31.577 32.4367 31.5558 32.3446 31.5168C31.9867 31.3573 31.8273 30.9392 31.9832 30.5813C32.0009 30.5424 32.4084 29.6282 33.071 28.8699C33.2057 28.7175 33.3935 28.6289 33.5954 28.6289C33.801 28.6289 33.9888 28.7104 34.1269 28.8592L34.8604 29.66C35.0234 29.4049 35.2183 29.1285 35.4451 28.8699C35.7038 28.5758 36.1502 28.5474 36.4443 28.8061C36.7385 29.0647 36.7668 29.5112 36.5117 29.8053C35.9943 30.3971 35.6542 31.1483 35.6506 31.1554C35.5549 31.3751 35.353 31.5274 35.1156 31.5664C34.8782 31.6054 34.6407 31.5203 34.4777 31.3467L33.6592 30.4502C33.4183 30.8329 33.2765 31.1483 33.273 31.1554C33.156 31.4176 32.8974 31.577 32.6245 31.577H32.6316Z" fill="#777777"/>
<path d="M43.2284 40.868C43.1787 40.868 43.1291 40.8609 43.0795 40.8503C40.2908 40.1629 37.5341 40.822 37.5057 40.829C37.1726 40.9105 36.836 40.7086 36.7545 40.3755C36.673 40.0424 36.875 39.7093 37.2081 39.6243C37.3321 39.5924 40.2802 38.8837 43.3772 39.6455C43.7103 39.727 43.9122 40.0637 43.8307 40.3968C43.7599 40.6802 43.5083 40.868 43.2284 40.868Z" fill="#111111"/>
<path d="M47.4952 45.3328C47.4952 45.3328 47.4597 45.3328 47.442 45.3328C47.1514 45.3044 46.9353 45.0422 46.9636 44.7516C46.9707 44.6808 47.1089 42.902 45.4683 41.7929C45.2238 41.6299 45.16 41.2968 45.3266 41.0558C45.4896 40.8113 45.8227 40.7476 46.0636 40.9141C48.2393 42.3846 48.0302 44.7552 48.0196 44.8579C47.9912 45.1308 47.7609 45.3363 47.4916 45.3363L47.4952 45.3328Z" fill="#111111"/>
<path d="M51.7355 40.8682C51.4556 40.8682 51.204 40.6804 51.1332 40.3969C51.0517 40.0638 51.2536 39.7272 51.5867 39.6457C54.6801 38.8839 57.6318 39.5961 57.7558 39.6244C58.0889 39.7059 58.2909 40.0426 58.2094 40.3756C58.1279 40.7087 57.7913 40.9107 57.4582 40.8292C57.4298 40.8221 54.6731 40.163 51.8844 40.8505C51.8348 40.8611 51.7852 40.8682 51.7355 40.8682Z" fill="#111111"/>
<path d="M37.8315 45.1412C37.6898 45.1412 37.5445 45.0987 37.4205 45.0101C37.1016 44.7833 37.0272 44.344 37.2539 44.025C37.2823 43.9825 38.0016 42.9833 39.3056 42.3667C40.56 41.7714 41.9738 41.9238 43.0864 42.7707C43.3982 43.0081 43.4585 43.451 43.2211 43.7628C42.9837 44.0747 42.5407 44.1349 42.2289 43.8975C41.2155 43.1286 40.2021 43.5112 39.9115 43.6459C38.9583 44.0995 38.4162 44.8365 38.4091 44.8471C38.2709 45.0385 38.0512 45.1412 37.8315 45.1412Z" fill="#111111"/>
<path d="M40.9471 46.7354C41.8277 46.7354 42.5416 45.9818 42.5416 45.0523C42.5416 44.1227 41.8277 43.3691 40.9471 43.3691C40.0664 43.3691 39.3525 44.1227 39.3525 45.0523C39.3525 45.9818 40.0664 46.7354 40.9471 46.7354Z" fill="#111111"/>
<path d="M57.1937 45.1409C56.9705 45.1409 56.7508 45.0381 56.6126 44.8397C56.6126 44.8361 56.0669 44.0956 55.1137 43.642C54.8267 43.5073 53.8097 43.1211 52.7963 43.8936C52.4845 44.131 52.0416 44.0707 51.8041 43.7589C51.5667 43.4471 51.627 43.0042 51.9388 42.7668C53.0514 41.9199 54.4653 41.7675 55.7196 42.3628C57.0236 42.9794 57.7394 43.9786 57.7713 44.0211C57.9981 44.3401 57.9201 44.783 57.6012 45.0098C57.4772 45.0983 57.3354 45.1409 57.1937 45.1409Z" fill="#111111"/>
<path d="M54.0786 46.7354C54.9592 46.7354 55.6731 45.9818 55.6731 45.0523C55.6731 44.1227 54.9592 43.3691 54.0786 43.3691C53.1979 43.3691 52.484 44.1227 52.484 45.0523C52.484 45.9818 53.1979 46.7354 54.0786 46.7354Z" fill="#111111"/>
<path d="M46.6545 52.7918C46.7679 52.6607 47.0762 52.806 47.4801 52.8166C47.8841 52.806 48.1924 52.6607 48.3058 52.7918C48.4227 52.9264 48.288 53.6103 47.4801 53.6316C46.6722 53.6103 46.5376 52.93 46.6545 52.7953V52.7918Z" fill="#111111"/>
<path d="M47.481 59.2231C45.3372 59.2231 43.7143 58.3691 43.647 58.3337C43.3458 58.1742 43.2289 57.7951 43.3919 57.4939C43.5513 57.1927 43.9269 57.0758 44.2316 57.2388C44.2458 57.2459 45.6632 57.9829 47.4845 57.9829C49.3058 57.9829 50.7232 57.2459 50.7374 57.2388C51.0386 57.0758 51.4142 57.1927 51.5772 57.4939C51.7402 57.7951 51.6232 58.1707 51.322 58.3337C51.2547 58.3691 49.6283 59.2231 47.4881 59.2231H47.481Z" fill="#111111"/>
<path d="M43.1033 73.6309L34.9711 78.7299C34.9711 78.7299 26.0771 83.5277 25.2869 84.2789C23.6746 85.8096 22.0695 95.2883 22.0695 95.2883H38.6137L42.919 89.1404L40.4421 84.4241L38.2275 81.8374L43.2025 78.1771L43.1068 73.6309H43.1033Z" fill="white"/>
<path d="M22.0692 95.9999C22.0302 95.9999 21.9912 95.9999 21.9487 95.9893C21.5625 95.9255 21.3038 95.557 21.3676 95.1707C21.6404 93.5478 23.1003 85.3802 24.7976 83.768C25.6126 82.9955 33.068 78.9525 34.6129 78.1198L42.7238 73.0314C42.94 72.8967 43.2128 72.8861 43.436 73.0066C43.6593 73.1271 43.801 73.3609 43.8081 73.6161L43.9038 78.1623C43.9073 78.3926 43.801 78.6123 43.6168 78.7469L39.2583 81.9537L40.9769 83.9593C41.0123 83.9983 41.0407 84.0444 41.0655 84.0904L43.5423 88.8067C43.6664 89.0406 43.6487 89.3241 43.4963 89.5438L39.191 95.6916C38.9678 96.0105 38.5249 96.092 38.2024 95.8652C37.8835 95.642 37.8055 95.1991 38.0288 94.8766L42.086 89.0831L39.8466 84.8204L37.6815 82.2939C37.554 82.1451 37.4937 81.9467 37.515 81.7518C37.5362 81.5569 37.639 81.3797 37.7984 81.2628L42.4758 77.8186L42.4155 74.8881L35.3429 79.3245C35.3429 79.3245 35.3181 79.3422 35.3039 79.3493C31.0411 81.649 26.2504 84.3385 25.7685 84.7885C24.7197 85.7842 23.3661 91.8257 22.7601 95.4011C22.6999 95.7483 22.4023 95.9928 22.0621 95.9928L22.0692 95.9999Z" fill="#111111"/>
<path d="M34.4386 91.0567C34.3181 91.0567 34.2366 91.0567 34.2047 91.0532C33.815 91.0355 33.5102 90.7024 33.5279 90.3126C33.5457 89.9228 33.8823 89.6181 34.2685 89.6358C34.7575 89.6571 35.6115 89.5862 35.9729 89.363C36.8233 88.8386 37.1564 88.1972 37.0218 87.3432C36.9155 86.6593 34.6725 84.9302 32.6456 83.7431C32.309 83.5447 32.1956 83.1124 32.394 82.7722C32.5925 82.4356 33.0248 82.3222 33.3649 82.5206C34.4847 83.1762 38.1627 85.451 38.425 87.1235C38.6482 88.5515 38.06 89.7457 36.717 90.5713C36.0154 91.0036 34.924 91.0567 34.4386 91.0567Z" fill="#111111"/>
<path d="M32.299 91.8968C30.2403 91.8968 28.6954 90.1393 28.6245 90.0578C28.3694 89.7602 28.4013 89.3137 28.6989 89.0586C28.993 88.8034 29.4395 88.8353 29.6982 89.1294C29.7194 89.1542 31.1545 90.7629 32.7384 90.4334C33.0821 90.3625 33.3692 90.1429 33.5286 89.8275C33.72 89.4448 33.7058 88.9771 33.4896 88.5093C33.2806 88.0735 31.438 86.7766 29.8541 85.8447C29.5175 85.6462 29.4041 85.2104 29.6025 84.8738C29.8009 84.5371 30.2368 84.4238 30.5734 84.6222C31.438 85.1289 34.294 86.8687 34.7759 87.914C35.1728 88.7715 35.1834 89.7035 34.7972 90.4688C34.4428 91.174 33.7979 91.6665 33.0255 91.826C32.7774 91.8756 32.5365 91.9004 32.3026 91.9004L32.299 91.8968Z" fill="#111111"/>
<path d="M55.4533 73.3683V66.8059C55.4533 65.8279 54.6596 65.0342 53.6816 65.0342H41.5808C40.6028 65.0342 39.8091 65.8279 39.8091 66.8059V92.4568C39.8091 93.4348 40.6028 94.2285 41.5808 94.2285H53.6816C54.6596 94.2285 55.4533 93.4348 55.4533 92.4568V73.3683Z" fill="#FFDB43"/>
<path d="M53.6816 94.9369H41.5807C40.213 94.9369 39.1003 93.8242 39.1003 92.4565V66.8056C39.1003 65.4378 40.213 64.3252 41.5807 64.3252H53.6816C55.0493 64.3252 56.162 65.4378 56.162 66.8056V92.4565C56.162 93.8242 55.0493 94.9369 53.6816 94.9369ZM41.5807 65.7426C40.9961 65.7426 40.5177 66.2209 40.5177 66.8056V92.4565C40.5177 93.0411 40.9961 93.5195 41.5807 93.5195H53.6816C54.2662 93.5195 54.7446 93.0411 54.7446 92.4565V66.8056C54.7446 66.2209 54.2662 65.7426 53.6816 65.7426H41.5807Z" fill="#111111"/>
<path d="M55.4566 76.0333V78.698C55.4566 78.698 55.2652 78.5102 53.2242 76.5577C50.6056 74.0525 47.9622 71.5402 46.6618 72.621C45.3401 73.7194 47.7319 76.012 50.0493 78.4747C52.3809 80.9516 55.7188 84.4631 55.7188 84.4631C55.7188 84.4631 52.5297 82.989 49.4292 81.2811C46.8496 79.8602 43.7597 77.9964 42.6967 79.3677C41.3927 81.0473 44.5641 82.989 44.5641 82.989C44.5641 82.989 42.8809 82.6099 42.5408 84.0592C42.236 85.3667 44.2239 86.6246 44.2239 86.6246C44.2239 86.6246 43.0049 86.4226 42.6293 87.6487C42.3848 88.4459 42.4876 89.7003 44.2239 91.3728C46.0275 93.1055 48.5858 95.2954 48.5858 95.2954H68.5354C68.5354 95.2954 63.7163 82.2981 62.9686 80.9976C62.221 79.6972 55.4601 76.0368 55.4601 76.0368L55.4566 76.0333Z" fill="white"/>
<path d="M68.5321 96.0001C68.2451 96.0001 67.9722 95.823 67.8659 95.536C65.9383 90.3342 62.8732 82.2623 62.3488 81.3445C61.9909 80.7244 59.0428 78.8464 56.162 77.2306V78.694C56.162 78.9811 55.9919 79.2362 55.7261 79.346C55.4639 79.4559 55.1592 79.3992 54.9536 79.1972C54.943 79.1866 54.7127 78.9598 52.7284 77.0641C50.9319 75.349 47.9306 72.4789 47.1085 73.1592C47.0022 73.2478 46.9916 73.3151 46.988 73.3753C46.942 74.1726 48.6251 75.9479 49.9822 77.3723L50.5598 77.9818C52.8914 80.4587 56.2257 83.9667 56.2257 83.9702C56.4596 84.2182 56.4844 84.5938 56.2895 84.8702C56.0911 85.1466 55.7226 85.2423 55.4178 85.1006C55.3859 85.0864 52.1721 83.5946 49.0822 81.8938L48.5365 81.5926C46.7896 80.6217 43.8663 78.9988 43.2497 79.796C43.1044 79.9803 43.0584 80.1575 43.0973 80.3701C43.2462 81.1851 44.5005 82.117 44.9293 82.3792C45.2234 82.5599 45.3474 82.9284 45.2163 83.2509C45.0852 83.5733 44.7415 83.7505 44.4049 83.6761C44.1745 83.6265 43.3914 83.5202 43.2284 84.2182C43.0867 84.8242 44.1108 85.71 44.5997 86.0218C44.8832 86.2026 45.0002 86.5569 44.8832 86.8723C44.7663 87.1876 44.4368 87.3719 44.1072 87.3187C43.93 87.2939 43.4729 87.2975 43.3064 87.8503C42.9839 88.9062 43.8946 90.0649 44.7131 90.8551C46.4813 92.5524 49.0219 94.7281 49.0468 94.7493C49.3444 95.0044 49.3798 95.4509 49.1247 95.7486C48.8696 96.0462 48.4231 96.0816 48.1255 95.8265C48.1007 95.8053 45.5281 93.6048 43.7316 91.8756C41.726 89.948 41.6552 88.3959 41.9493 87.4357C42.1158 86.8971 42.4028 86.5356 42.7324 86.2982C42.1619 85.6923 41.6304 84.8419 41.85 83.8958C42.0095 83.2155 42.3922 82.7832 42.8493 82.528C42.3355 82.0178 41.8394 81.3552 41.7048 80.6252C41.5949 80.0193 41.7402 79.4311 42.13 78.9279C43.4907 77.1739 46.4069 78.7897 49.2239 80.3559L49.7661 80.6536C50.6944 81.1674 51.637 81.6599 52.4981 82.0957C51.5307 81.0752 50.45 79.9307 49.5287 78.9527L48.9546 78.3468C47.0979 76.3908 45.4927 74.7006 45.5742 73.2903C45.6025 72.8119 45.8187 72.3867 46.2049 72.0678C47.9979 70.5796 50.7724 73.2301 53.7099 76.0365C54.128 76.4369 54.4682 76.7593 54.7446 77.0251V76.0223C54.7446 75.7743 54.8757 75.5404 55.0918 75.4128C55.308 75.2853 55.5737 75.2782 55.7934 75.3986C57.4199 76.281 62.7917 79.261 63.5784 80.6287C64.3331 81.9434 68.7022 93.6969 69.1982 95.0328C69.3329 95.4013 69.1486 95.8088 68.7801 95.9434C68.6986 95.9718 68.6171 95.9895 68.5356 95.9895L68.5321 96.0001Z" fill="#111111"/>
<path d="M58.6453 82.0889L59.85 82.3972L55.4562 78.6943L58.6453 82.0889Z" fill="white"/>
<path d="M59.8503 83.1057C59.7936 83.1057 59.7334 83.0986 59.6731 83.0844L58.4684 82.7762C58.3373 82.7443 58.2203 82.6734 58.1282 82.5742L54.9391 79.1831C54.6698 78.8997 54.684 78.4496 54.971 78.1803C55.2545 77.911 55.7045 77.9252 55.9738 78.2122L59.0212 81.4545L60.0275 81.7131C60.4066 81.8088 60.6334 82.195 60.5377 82.5742C60.4562 82.8931 60.1692 83.1057 59.8503 83.1057Z" fill="#111111"/>
<path d="M54.4486 89.1616C54.3317 89.1616 54.2148 89.1333 54.1049 89.0731L44.2152 83.6055C43.8715 83.4177 43.7475 82.9854 43.9388 82.6417C44.1266 82.298 44.5589 82.174 44.9026 82.3653L54.7923 87.8329C55.1361 88.0207 55.2601 88.453 55.0687 88.7967C54.9412 89.0305 54.6967 89.1616 54.4486 89.1616Z" fill="#111111"/>
<path d="M53.0704 93.5729C52.9286 93.5729 52.7869 93.5304 52.6629 93.4418L43.8114 87.2019C43.4925 86.9751 43.4145 86.5357 43.6413 86.2132C43.8681 85.8943 44.3075 85.8164 44.6299 86.0432L53.4814 92.2831C53.8003 92.5099 53.8783 92.9493 53.6515 93.2718C53.5133 93.4666 53.2936 93.5729 53.0704 93.5729Z" fill="#111111"/>
<path d="M43.1081 70.6082C42.7183 70.6082 42.3994 70.2893 42.3994 69.8995V68.4821C42.3994 68.0923 42.7183 67.7734 43.1081 67.7734C43.4979 67.7734 43.8168 68.0923 43.8168 68.4821V69.8995C43.8168 70.2893 43.4979 70.6082 43.1081 70.6082Z" fill="#111111"/>
</g>
<defs>
<clipPath id="clip0_368_755">
<rect width="79.0291" height="80" fill="white" transform="translate(8 16)"/>
</clipPath>
</defs>
</svg>
