<svg width="96" height="96" viewBox="0 0 96 96" fill="none" xmlns="http://www.w3.org/2000/svg">
<g clip-path="url(#clip0_368_821)">
<rect width="96" height="96" rx="48" fill="#E3F3FB"/>
<g clip-path="url(#clip1_368_821)">
<path d="M66.4924 73.9294C60.1399 71.5365 58.737 69.4256 57.636 68.1845C56.5384 66.9434 56.3737 66.0496 56.3737 62.034V49.5439L46.7833 51.7408L37.1929 49.5439V62.034C37.1929 66.053 37.0283 66.9469 35.9307 68.1845C34.833 69.4256 33.4267 71.5331 27.0743 73.9294C20.7287 76.3222 39.6763 87.7637 39.6763 87.7637H53.8869C53.8869 87.7637 72.8311 76.3222 66.4889 73.9294H66.4924Z" fill="white"/>
<path d="M53.8939 88.4519C53.6606 88.4519 53.4342 88.335 53.3073 88.1185C53.1118 87.7918 53.2147 87.369 53.5406 87.173C58.9052 83.931 67.3328 77.863 67.1064 75.3739C67.0927 75.2364 67.0618 74.8754 66.2557 74.5695C60.2806 72.3176 58.5553 70.2995 57.4131 68.9656C57.3136 68.8487 57.221 68.7421 57.1284 68.639C55.8318 67.1779 55.6912 66.009 55.6912 62.0312V50.4041L46.9412 52.4084C46.8417 52.4325 46.7353 52.4325 46.6359 52.4084L37.8858 50.4041V62.0312C37.8858 66.009 37.7452 67.1779 36.4486 68.639C36.356 68.7421 36.2634 68.8521 36.1639 68.9656C35.0217 70.2995 33.2964 72.3176 27.3213 74.5695C26.5152 74.872 26.4809 75.2364 26.4706 75.3739C26.2442 77.863 34.6719 83.931 40.0365 87.173C40.3623 87.369 40.4652 87.7918 40.2697 88.1185C40.0742 88.4451 39.6523 88.5482 39.3264 88.3522C36.8877 86.8773 24.7316 79.3207 25.102 75.2502C25.1569 74.6313 25.5068 73.7856 26.8376 73.2837C32.4835 71.1556 34.0716 69.2991 35.1212 68.0717C35.2241 67.9514 35.3236 67.8345 35.4196 67.7245C36.3183 66.7137 36.5104 66.1087 36.5104 62.0312V49.5412C36.5104 49.3314 36.6064 49.1355 36.7676 49.0048C36.9323 48.8742 37.1449 48.8261 37.3473 48.8708L46.7834 51.0332L56.2194 48.8708C56.4218 48.8226 56.6379 48.8708 56.7991 49.0048C56.9637 49.1355 57.0564 49.3349 57.0564 49.5412V62.0312C57.0564 66.1121 57.2484 66.7137 58.1471 67.7245C58.2432 67.8345 58.3426 67.948 58.4455 68.0717C59.4986 69.2991 61.0867 71.1556 66.7291 73.2837C68.06 73.7856 68.4064 74.6279 68.4647 75.2502C68.8351 79.3173 56.6825 86.8773 54.2403 88.3522C54.1305 88.4175 54.0071 88.4519 53.887 88.4519H53.8939Z" fill="#111111"/>
<path d="M33.5845 71.0078L38.7879 92.1615L54.789 91.8521L59.9272 71.0078C59.9272 71.0078 55.4922 74.1982 46.7936 74.1982C38.095 74.1982 33.5879 71.0078 33.5879 71.0078H33.5845Z" fill="white"/>
<path d="M46.7904 74.889C43.8166 74.889 41.0039 74.5246 38.428 73.806C38.0644 73.7029 37.8483 73.3247 37.9512 72.9603C38.0541 72.5959 38.4314 72.3793 38.795 72.4824C41.2509 73.1666 43.9401 73.5138 46.787 73.5138C55.1289 73.5138 59.4816 70.4815 59.5228 70.4506C59.8315 70.2306 60.2602 70.3028 60.4798 70.6122C60.6993 70.9216 60.6307 71.3479 60.322 71.5714C60.1333 71.7054 55.6057 74.8924 46.787 74.8924L46.7904 74.889Z" fill="#111111"/>
<path d="M35.0808 69.1641C35.0808 69.1641 35.9177 68.3287 36.3945 67.5998C36.9193 66.8022 37.0496 65.7158 37.0496 65.7158L34.827 65.9118L30.1552 69.6317L15.4575 74.211C15.4575 74.211 11.314 74.5135 10.0483 79.7667C9.67442 81.3276 9.39659 86.182 9.19421 92.1606H38.7852C38.6755 91.6552 38.5691 91.1464 38.4628 90.641C35.4718 78.1853 35.0774 69.1607 35.0774 69.1607L35.0808 69.1641Z" fill="#FFDB43"/>
<path d="M38.7883 92.8483C38.4728 92.8483 38.1881 92.6282 38.1195 92.3051C38.0097 91.7963 37.9 91.2874 37.7971 90.7786C34.8301 78.4226 34.4013 69.2811 34.3979 69.1883C34.391 68.9957 34.4631 68.8067 34.6003 68.6691C34.6071 68.6623 35.3926 67.875 35.8248 67.2149C35.9757 66.9845 36.0855 66.7233 36.1678 66.4757L35.0942 66.572L30.5837 70.1646C30.5185 70.2162 30.443 70.2575 30.3607 70.2815L15.663 74.8609C15.6149 74.8746 15.5635 74.885 15.512 74.8884C15.3646 74.9021 11.8419 75.2494 10.7203 79.9216C10.4973 80.8464 10.1715 83.7274 9.88334 92.1779C9.86962 92.556 9.55062 92.8551 9.17332 92.8414C8.79601 92.8276 8.4976 92.5114 8.51132 92.1297C8.74799 85.1541 9.03612 81.0561 9.38598 79.595C10.6585 74.2971 14.6614 73.6026 15.32 73.5235L29.8291 69.0026L34.4013 65.3618C34.5076 65.2793 34.6346 65.2277 34.7683 65.214L36.991 65.018C37.1968 65.0008 37.3992 65.0765 37.5432 65.2243C37.6873 65.3721 37.7559 65.5784 37.7319 65.7847C37.725 65.8363 37.5741 67.0395 36.967 67.9644C36.6068 68.5144 36.0752 69.1023 35.7802 69.4117C35.8797 71.0585 36.4868 79.4609 39.1314 90.4692C39.2411 90.9918 39.3474 91.4972 39.4572 92.0025C39.5361 92.3738 39.3029 92.7383 38.9324 92.8208C38.8844 92.8311 38.8329 92.838 38.7849 92.838L38.7883 92.8483Z" fill="#111111"/>
<path d="M29.8491 90.3633C29.5953 90.3633 29.3517 90.2223 29.2317 89.9782C27.0056 85.4401 25.5478 82.2497 25.5307 82.2153C25.4141 81.9609 25.4621 81.6618 25.6542 81.459L28.7995 78.0898L26.2441 75.9617C25.9629 75.7279 25.9148 75.3154 26.1309 75.0231L28.8098 71.4064C29.0362 71.1004 29.4649 71.0386 29.7702 71.2655C30.0755 71.4924 30.1372 71.9221 29.9108 72.2281L27.6196 75.3222L30.2367 77.4985C30.3808 77.6188 30.4699 77.7941 30.4837 77.9832C30.494 78.1723 30.4288 78.358 30.2984 78.4955L26.9713 82.0572C27.4343 83.0611 28.7103 85.7943 30.4631 89.3663C30.6312 89.7066 30.4905 90.1192 30.1509 90.2877C30.0549 90.3358 29.952 90.3599 29.8491 90.3599V90.3633Z" fill="#111111"/>
<path d="M78.0538 74.2125L63.3561 69.6331L58.6844 65.9132L56.5234 65.7207C56.5234 65.7207 56.592 66.8002 57.1168 67.6013C57.5936 68.3301 58.4305 69.1655 58.4305 69.1655C58.4305 69.1655 58.0361 78.1902 55.0451 90.6459C54.9422 91.1513 54.8324 95.9066 54.7227 96.4155H84.3137C84.1113 90.4368 83.8335 81.329 83.4596 79.7716C82.1973 74.5184 78.0538 74.2159 78.0504 74.2159L78.0538 74.2125Z" fill="#FFDB43"/>
<path d="M54.7255 92.8494C54.6774 92.8494 54.6294 92.8459 54.578 92.8322C54.2075 92.7531 53.9743 92.3852 54.0532 92.0139C54.1629 91.5086 54.2693 91.0032 54.3756 90.5012C57.0236 79.4757 57.6341 71.0699 57.7302 69.4231C57.4352 69.1103 56.9035 68.5224 56.5434 67.9758C55.9363 67.0509 55.8471 65.8924 55.8402 65.7617C55.8265 65.5623 55.902 65.3663 56.046 65.2254C56.1901 65.0844 56.3856 65.0157 56.5845 65.0329L58.7455 65.2254C58.8792 65.2357 59.0062 65.2873 59.1125 65.3732L63.6847 69.014L78.1938 73.5349C78.8524 73.614 82.8553 74.3119 84.1278 79.6064C84.4777 81.0641 84.7624 85.1655 85.0025 92.1411C85.0162 92.5193 84.7178 92.839 84.3405 92.8528C83.9598 92.8666 83.6442 92.5674 83.6305 92.1893C83.3423 83.7353 83.0165 80.8578 82.7935 79.933C81.6719 75.2642 78.1493 74.9136 77.9983 74.8998C77.9503 74.8964 77.8954 74.886 77.8474 74.8723L63.1497 70.2929C63.0673 70.2689 62.9919 70.2276 62.9267 70.176L58.4162 66.5834L57.3597 66.4906C57.4318 66.7347 57.5381 66.9994 57.6856 67.2263C58.1178 67.8864 58.9033 68.6702 58.9101 68.6805C59.0473 68.8181 59.1193 69.0037 59.1125 69.1997C59.1091 69.2891 58.6803 78.434 55.7099 90.8107C55.6104 91.2954 55.5006 91.8042 55.3909 92.3165C55.3223 92.6396 55.0376 92.8597 54.722 92.8597L54.7255 92.8494Z" fill="#111111"/>
<path d="M63.6622 90.3628C63.5593 90.3628 63.4564 90.3387 63.3603 90.2906C63.0208 90.1221 62.8801 89.7096 63.0482 89.3692C64.8009 85.7972 66.0735 83.064 66.54 82.0601L63.2128 78.4984C63.0825 78.3609 63.0173 78.1752 63.0276 77.9861C63.0379 77.797 63.1271 77.6217 63.2746 77.5014L65.8917 75.3251L63.6004 72.231C63.374 71.925 63.4392 71.4953 63.7411 71.2684C64.0463 71.0415 64.4751 71.1068 64.7015 71.4093L67.3803 75.026C67.5964 75.3183 67.5484 75.7308 67.2672 75.9646L64.7118 78.0927L67.8571 81.4619C68.0458 81.6647 68.0972 81.9638 67.9806 82.2182C67.9669 82.2492 66.5057 85.4431 64.2796 89.9812C64.1595 90.2252 63.916 90.3662 63.6622 90.3662V90.3628Z" fill="#111111"/>
<path d="M61.2916 41.1999V33.7052C61.2916 31.5427 60.7531 29.4146 59.7138 27.5203C57.7312 23.9036 53.7215 19.6886 46.8168 19.6611H46.6968C39.7921 19.6921 35.7823 23.9036 33.7998 27.5203C32.7605 29.4146 32.222 31.5427 32.222 33.7052V41.1999C30.6133 40.588 28.4112 40.9868 28.4866 45.7105C28.5552 49.8945 31.066 52.1361 32.9217 52.3664C33.1069 53.164 33.3401 53.9444 33.6386 54.6423C35.5594 59.012 40.7731 63.7151 44.9714 64.8565C44.9714 64.8565 45.7226 65.0559 46.7551 65.0559C47.7875 65.0559 48.5387 64.8565 48.5387 64.8565C52.7371 63.7151 57.9507 59.012 59.8716 54.6423C60.1665 53.9479 60.4032 53.1674 60.5884 52.3664C62.4441 52.1361 64.9549 49.8945 65.0235 45.7105C65.099 40.9868 62.8969 40.5914 61.2882 41.1999H61.2916Z" fill="white"/>
<path d="M46.7579 65.7435C45.6466 65.7435 44.8337 65.5304 44.7994 65.5235C40.4124 64.3305 35.0169 59.4761 33.0137 54.9243C32.7702 54.3501 32.5507 53.6935 32.362 52.9647C30.1188 52.394 27.8687 49.7983 27.8035 45.7278C27.7623 43.2593 28.3214 41.6022 29.4602 40.8012C30.0502 40.3852 30.7671 40.227 31.5388 40.3267V33.7121C31.5388 31.4327 32.1151 29.1809 33.2024 27.1972C34.8763 24.1443 38.8551 19.0148 46.6962 18.9805H46.8197C54.6642 19.0148 58.6431 24.1443 60.3169 27.1972C61.4043 29.1809 61.9771 31.4327 61.9771 33.7121V40.3267C62.7488 40.227 63.4691 40.3852 64.0557 40.8012C65.1945 41.6022 65.7501 43.2627 65.7124 45.7278C65.6472 49.7983 63.3971 52.3974 61.1539 52.9647C60.9652 53.6935 60.7491 54.3501 60.5056 54.9174C58.499 59.4796 53.1035 64.3305 48.7234 65.5235C48.6856 65.5338 47.8693 65.747 46.7579 65.747V65.7435ZM31.0998 41.6675C30.8151 41.6675 30.5167 41.7329 30.2491 41.9185C29.7381 42.2795 29.1378 43.2284 29.1755 45.6968C29.2373 49.5026 31.4565 51.4898 33.0103 51.6823C33.295 51.7167 33.5283 51.9298 33.5934 52.2083C33.7855 53.0368 34.0153 53.7623 34.2726 54.3708C36.0974 58.5204 41.1841 63.1101 45.1527 64.1896C45.1527 64.1896 45.8353 64.3649 46.7579 64.3649C47.6806 64.3649 48.3632 64.1896 48.3701 64.1896C52.3352 63.1135 57.422 58.5204 59.2468 54.3639C59.5006 53.7657 59.7304 53.0368 59.9225 52.2117C59.9876 51.9298 60.2209 51.7201 60.5056 51.6857C62.0594 51.4898 64.2786 49.5061 64.3404 45.7003C64.3815 43.2284 63.7778 42.2795 63.2668 41.9185C62.6768 41.5025 61.929 41.6916 61.5346 41.8429C61.3219 41.9219 61.0853 41.8944 60.9 41.7672C60.7148 41.64 60.605 41.4269 60.605 41.2034V33.7087C60.605 31.6596 60.0905 29.6347 59.113 27.8538C57.5832 25.0656 53.9542 20.3797 46.8163 20.3488H46.6996C39.5617 20.3797 35.9327 25.0622 34.4064 27.8538C33.4288 29.6347 32.9143 31.6596 32.9143 33.7087V41.2034C32.9143 41.4303 32.8045 41.64 32.6193 41.7707C32.4341 41.8979 32.1974 41.9288 31.9882 41.8463C31.7721 41.7638 31.4496 41.671 31.1066 41.671L31.0998 41.6675Z" fill="#111111"/>
<path d="M57.2921 21.26C57.2921 21.26 55.2855 19.4619 52.4386 18.3308C49.5951 17.1998 46.1753 16.6875 46.1753 16.6875L45.9387 17.7189L44.6009 17.2479L44.1687 17.9595L39.1094 18.1658C39.1094 18.1658 38.5195 19.6579 35.7617 21.8066C34.3417 22.9136 32.8324 24.4367 31.5908 26.9464C29.5773 31.0203 29.3921 37.1296 29.718 38.2572C30.0164 39.2886 30.1433 42.8125 30.1433 42.8125L30.9048 43.8267L32.2253 41.1932C32.2253 41.1932 32.0744 38.4291 32.582 37.1055C33.0897 35.7819 33.8683 35.7785 34.1942 34.864C34.6778 33.5094 34.352 30.8897 34.5372 29.9374C34.8939 28.1049 36.4923 27.3383 36.4923 27.3383L38.8865 26.2175C38.8865 26.2175 41.7266 24.8423 45.4379 24.7976C50.161 24.7392 54.1262 26.1659 54.1262 26.1659C54.1262 26.1659 56.0813 26.8295 57.3264 28.2803C58.5784 29.7414 58.1325 30.2709 58.8631 32.0242C59.3227 33.1278 60.0396 33.9254 60.5369 35.0152C61.1029 36.2495 60.8696 37.6625 60.777 39.0033C60.6707 40.5847 61.2881 41.1932 61.2881 41.1932L62.8042 43.4142C62.8042 43.4142 63.305 40.65 63.6823 39.4846C64.1316 36.0088 63.7097 32.4402 62.4509 29.1466C60.1733 23.199 57.2887 21.2497 57.2887 21.2497L57.2921 21.26Z" fill="#111111"/>
<path d="M30.9052 44.5217C30.6925 44.5217 30.4867 44.422 30.3564 44.2467L29.5949 43.2325C29.5091 43.119 29.4611 42.9849 29.4577 42.844C29.4234 41.8882 29.2828 39.2307 29.0598 38.4537C28.7134 37.247 28.8437 30.959 30.9772 26.6443C32.4007 23.7668 34.15 22.1956 35.3402 21.2674C37.8682 19.294 38.4684 17.9222 38.4753 17.9085C38.5782 17.6644 38.8183 17.4925 39.0824 17.4822L43.7747 17.2896L44.0148 16.8908C44.1829 16.6124 44.5225 16.492 44.8277 16.5986L45.4417 16.8152L45.5069 16.5333C45.5858 16.1826 45.9219 15.9557 46.2752 16.0073C46.4193 16.0279 49.8082 16.5436 52.6928 17.6919C55.454 18.792 57.4366 20.4732 57.7178 20.7173C58.1054 20.9958 60.8838 23.141 63.0927 28.9065C64.3893 32.2929 64.8318 35.9818 64.3653 39.5779C64.3584 39.6192 64.3516 39.6604 64.3378 39.7017C63.9811 40.8121 63.4872 43.5144 63.4838 43.5419C63.4323 43.8169 63.2231 44.0335 62.9521 44.0919C62.6811 44.1504 62.3999 44.0369 62.2421 43.8066L60.75 41.6235C60.5511 41.3897 59.9885 40.5749 60.0983 38.9625C60.112 38.7597 60.1292 38.5534 60.1463 38.3471C60.2389 37.2401 60.3247 36.1915 59.9199 35.3045C59.7038 34.8335 59.4397 34.4175 59.1619 33.9775C58.836 33.4618 58.4999 32.9323 58.2358 32.2929C57.9374 31.5744 57.8173 31.0346 57.7213 30.598C57.5704 29.9207 57.4812 29.5116 56.8123 28.7312C55.7044 27.4385 53.9311 26.8265 53.9105 26.8197C53.8591 26.8025 49.9865 25.4307 45.4486 25.4892C41.9465 25.5304 39.2127 26.8265 39.1887 26.8403C38.8492 27.0053 38.4376 26.8609 38.2729 26.5171C38.1083 26.1768 38.2523 25.7642 38.5919 25.5992C38.712 25.5407 41.6138 24.1587 45.4314 24.1106C50.2163 24.0521 54.1918 25.4582 54.3598 25.5201C54.4353 25.5442 56.4968 26.2558 57.8482 27.8339C58.74 28.8756 58.8944 29.5666 59.0556 30.2989C59.1482 30.7217 59.2442 31.1549 59.498 31.76C59.7176 32.2894 60.0091 32.7501 60.3178 33.2349C60.6094 33.6956 60.9078 34.17 61.1651 34.727C61.7207 35.9406 61.6144 37.2195 61.5115 38.4537C61.4943 38.6531 61.4772 38.8525 61.4669 39.0485C61.388 40.2414 61.7756 40.7021 61.7893 40.7193C61.8202 40.7503 61.8305 40.7674 61.8579 40.8018L62.4513 41.6682C62.6194 40.8603 62.8286 39.9286 63.0138 39.3304C63.4357 35.9784 63.0207 32.5439 61.8133 29.3878C59.6558 23.7564 56.9324 21.8312 56.9049 21.814C56.8809 21.7968 56.8569 21.7796 56.8363 21.759C56.8158 21.7418 54.8743 20.0263 52.1852 18.9571C50.158 18.1491 47.7982 17.6644 46.6971 17.4615L46.6045 17.8603C46.5599 18.0494 46.4364 18.2145 46.2684 18.3073C46.0969 18.4001 45.8945 18.4173 45.7093 18.352L44.8963 18.0666L44.7523 18.3038C44.6322 18.4998 44.423 18.6236 44.1932 18.6339L39.5317 18.8264C39.1647 19.4556 38.2523 20.7242 36.1806 22.34C35.0933 23.1857 33.5017 24.6159 32.2052 27.2425C30.2535 31.1893 30.1094 37.1266 30.3769 38.0583C30.6445 38.9866 30.7748 41.5341 30.816 42.4658L31.5294 41.039C31.502 40.3446 31.4574 38.1099 31.941 36.8516C32.2738 35.9852 32.7128 35.5796 33.0627 35.2495C33.3268 35.002 33.4571 34.8748 33.5463 34.6238C33.8036 33.9053 33.7967 32.6264 33.7864 31.5984C33.7796 30.8627 33.7761 30.2301 33.8619 29.7969C34.2803 27.6482 36.1188 26.7475 36.1977 26.7096C36.5407 26.5446 36.9489 26.6925 37.1136 27.0363C37.2748 27.3766 37.1307 27.7857 36.7911 27.9507C36.7363 27.9782 35.4911 28.6074 35.2099 30.0617C35.1516 30.3608 35.155 30.959 35.1619 31.5915C35.1687 32.7879 35.179 34.1425 34.8394 35.0914C34.6336 35.6655 34.2941 35.9818 33.9956 36.2603C33.6972 36.5388 33.4365 36.7794 33.2205 37.3467C32.8466 38.3196 32.8672 40.4236 32.9083 41.1525C32.9152 41.2728 32.8912 41.3897 32.8363 41.4997L31.5157 44.1332C31.4094 44.3464 31.2002 44.4873 30.9635 44.5079C30.9429 44.5079 30.9223 44.5079 30.9017 44.5079L30.9052 44.5217Z" fill="#111111"/>
<path d="M32.2727 43.1359L32.2246 41.2004C30.6159 40.5884 28.4139 40.9872 28.4893 45.711C28.5579 49.895 31.0687 52.1365 32.9244 52.3669L32.4716 48.3651L32.2727 43.1325V43.1359Z" fill="white"/>
<path d="M32.9246 53.0576C32.8971 53.0576 32.8697 53.0576 32.8388 53.0507C30.4515 52.7516 27.8721 50.0837 27.8035 45.721C27.7623 43.2525 28.3214 41.5954 29.4602 40.7944C30.28 40.2168 31.3502 40.1343 32.4684 40.5571C32.7291 40.6568 32.904 40.9044 32.9108 41.1829L32.9589 43.1184C32.9692 43.4966 32.6673 43.8129 32.29 43.8232C31.9127 43.8335 31.5971 43.531 31.5869 43.1528L31.5526 41.7192C31.1581 41.6367 30.6642 41.6298 30.2491 41.922C29.7381 42.283 29.1378 43.2319 29.1755 45.7038C29.227 48.8289 30.7293 50.7232 32.1254 51.4108L31.7892 48.4473C31.7481 48.0691 32.0156 47.7287 32.3929 47.6875C32.7702 47.6428 33.1098 47.9144 33.151 48.2925L33.6037 52.2943C33.6277 52.504 33.5523 52.7138 33.4048 52.8616C33.2744 52.9888 33.1029 53.061 32.9211 53.061L32.9246 53.0576Z" fill="#111111"/>
<path d="M61.2908 41.1999L61.2428 43.1354L61.0438 48.368L60.5911 52.3698C62.4467 52.1394 64.9575 49.8979 65.0261 45.7139C65.1016 40.9902 62.8995 40.5913 61.2908 41.2033V41.1999Z" fill="white"/>
<path d="M60.5908 53.0576C60.4124 53.0576 60.2375 52.9854 60.1072 52.8582C59.9562 52.7103 59.8842 52.5006 59.9082 52.2909L60.361 48.2891C60.4022 47.9109 60.7452 47.6393 61.119 47.684C61.4963 47.7253 61.7673 48.0691 61.7227 48.4438L61.3866 51.4073C62.7826 50.7198 64.285 48.822 64.3364 45.7003C64.3776 43.2285 63.7739 42.2796 63.2628 41.9186C62.8478 41.6264 62.3538 41.6332 61.9594 41.7158L61.9251 43.1494C61.9148 43.5276 61.5958 43.8301 61.2219 43.8198C60.8446 43.8095 60.5428 43.4966 60.5531 43.115L60.6011 41.1794C60.608 40.901 60.7829 40.6534 61.0436 40.5537C62.1652 40.1274 63.2319 40.2134 64.0517 40.7909C65.1905 41.592 65.7462 43.2525 65.7084 45.7175C65.6364 50.0769 63.0604 52.7481 60.6731 53.0472C60.6457 53.0507 60.6148 53.0541 60.5874 53.0541L60.5908 53.0576Z" fill="#111111"/>
<path d="M42.6356 39.3573C42.5876 39.3573 42.5396 39.3504 42.4916 39.3401C39.7921 38.6732 37.1235 39.3126 37.0961 39.3195C36.7771 39.3986 36.4478 39.2026 36.3689 38.8794C36.29 38.5563 36.4855 38.2331 36.808 38.1506C36.928 38.1196 39.7818 37.4321 42.7762 38.1712C43.0987 38.2503 43.2942 38.5769 43.2153 38.9001C43.1467 39.1751 42.9032 39.3573 42.6322 39.3573H42.6356Z" fill="#111111"/>
<path d="M50.8706 39.3575C50.5996 39.3575 50.3561 39.1753 50.2875 38.9002C50.2086 38.5771 50.4041 38.2505 50.7265 38.1714C53.7244 37.4322 56.5748 38.1232 56.6948 38.1508C57.0172 38.2298 57.2128 38.5564 57.1339 38.8796C57.055 39.2028 56.7291 39.3987 56.4067 39.3197C56.3793 39.3128 53.7107 38.6733 51.0112 39.3403C50.9632 39.3506 50.9152 39.3575 50.8672 39.3575H50.8706Z" fill="#111111"/>
<path d="M37.4142 43.504C37.277 43.504 37.1364 43.4628 37.0163 43.3768C36.7076 43.1568 36.6356 42.7305 36.8551 42.4211C36.8825 42.3798 37.5788 41.4103 38.8411 40.8121C40.0553 40.2345 41.4239 40.3824 42.5009 41.204C42.8028 41.4344 42.8611 41.8641 42.6313 42.1667C42.4015 42.4692 41.9727 42.5276 41.6709 42.2973C40.6899 41.5513 39.7055 41.9226 39.4276 42.0532C38.5049 42.4933 37.9801 43.2084 37.9733 43.2152C37.8395 43.4009 37.6269 43.5006 37.4142 43.5006V43.504Z" fill="#111111"/>
<path d="M40.43 45.0541C41.2825 45.0541 41.9735 44.323 41.9735 43.4211C41.9735 42.5192 41.2825 41.7881 40.43 41.7881C39.5775 41.7881 38.8865 42.5192 38.8865 43.4211C38.8865 44.323 39.5775 45.0541 40.43 45.0541Z" fill="#111111"/>
<path d="M56.1567 43.5075C55.9407 43.5075 55.728 43.4078 55.5942 43.2152C55.5942 43.2118 55.066 42.4933 54.1433 42.0532C53.8655 41.9226 52.881 41.5478 51.9001 42.2973C51.5982 42.5276 51.1695 42.4692 50.9396 42.1667C50.7098 41.8641 50.7681 41.4344 51.07 41.204C52.147 40.3824 53.5156 40.2345 54.7298 40.8121C55.9921 41.4103 56.685 42.3798 56.7158 42.4211C56.9354 42.7305 56.8599 43.1602 56.5512 43.3802C56.4311 43.4662 56.2939 43.5075 56.1567 43.5075Z" fill="#111111"/>
<path d="M53.1413 45.0541C53.9938 45.0541 54.6848 44.323 54.6848 43.4211C54.6848 42.5192 53.9938 41.7881 53.1413 41.7881C52.2888 41.7881 51.5978 42.5192 51.5978 43.4211C51.5978 44.323 52.2888 45.0541 53.1413 45.0541Z" fill="#111111"/>
<path d="M45.9562 50.9298C46.066 50.8026 46.3644 50.9436 46.7554 50.9539C47.1464 50.9436 47.4448 50.8026 47.5546 50.9298C47.6678 51.0605 47.5375 51.724 46.7554 51.7446C45.9734 51.724 45.843 51.0639 45.9562 50.9333V50.9298Z" fill="#111111"/>
<path d="M46.7547 57.1691C44.6795 57.1691 43.1086 56.3406 43.0434 56.3062C42.7518 56.1515 42.6421 55.7836 42.7964 55.4914C42.9542 55.1992 43.3178 55.0891 43.6093 55.2439C43.6231 55.2507 44.9951 55.9658 46.7581 55.9658C48.5212 55.9658 49.8932 55.2507 49.9069 55.2439C50.1985 55.0891 50.5621 55.1992 50.7164 55.4948C50.8708 55.787 50.761 56.1515 50.4694 56.3062C50.4043 56.3406 48.8299 57.1691 46.7581 57.1691H46.7547Z" fill="#111111"/>
<path d="M48.4989 43.6682C48.4166 43.6682 48.3309 43.6475 48.252 43.6063C48.252 43.6063 47.7066 43.3244 46.7565 43.3244C45.8063 43.3244 45.2644 43.6028 45.2575 43.6063C45.0071 43.7369 44.695 43.6441 44.5647 43.3931C44.4309 43.1421 44.5201 42.8327 44.7705 42.6986C44.8459 42.6574 45.5457 42.293 46.7599 42.293C47.9741 42.293 48.6739 42.6574 48.7493 42.6986C48.9997 42.8362 49.0889 43.149 48.9517 43.4C48.8591 43.5719 48.6807 43.6682 48.4989 43.6682Z" fill="#111111"/>
<path d="M39.7695 48.9357C37.9036 48.9357 36.4595 48.1656 35.6912 47.3577C33.9041 45.484 34.0756 42.8711 34.6279 41.5716C34.7376 41.3103 35.0429 41.1865 35.3036 41.3C35.5643 41.41 35.6878 41.716 35.5746 41.9773C35.2659 42.7027 34.82 44.9545 36.4355 46.646C37.2381 47.4883 38.9806 48.2756 41.2479 47.7221C44.5853 46.9107 44.3761 43.8131 44.3726 43.7822C44.2457 42.9846 44.0296 42.4792 43.7278 42.2764C43.4911 42.1182 43.4259 41.7985 43.5837 41.5613C43.7415 41.3241 44.0605 41.2587 44.2972 41.4169C45.0449 41.9119 45.2816 42.9124 45.3914 43.6206C45.5148 44.4148 45.2164 47.8149 41.4914 48.7225C40.8877 48.8704 40.3115 48.9357 39.7695 48.9357Z" fill="#111111"/>
<path d="M53.7394 48.9357C53.1975 48.9357 52.6246 48.8704 52.0175 48.7226C48.2959 47.8149 47.9941 44.4148 48.1176 43.6206C48.2273 42.9124 48.464 41.912 49.2117 41.4169C49.4484 41.2588 49.7674 41.3241 49.9252 41.5613C50.083 41.7985 50.0178 42.1182 49.7811 42.2764C49.4793 42.4758 49.2598 42.9846 49.1363 43.7788C49.1328 43.8097 48.9236 46.9039 52.2611 47.7187C54.5283 48.2722 56.2708 47.4849 57.0734 46.6426C58.689 44.9511 58.2431 42.6993 57.9344 41.9739C57.8246 41.7126 57.9446 41.41 58.2053 41.2966C58.466 41.1866 58.7679 41.3069 58.881 41.5682C59.4333 42.8677 59.6048 45.4806 57.8177 47.3543C57.0494 48.1622 55.6053 48.9323 53.7394 48.9323V48.9357Z" fill="#111111"/>
<path d="M67.792 92.6828C65.192 90.7369 61.0897 91.7133 56.3013 89.7468C54.3291 88.9388 52.9399 90.3037 51.4513 91.6479C49.4721 93.4322 47.5444 95.5947 47.5444 95.5947L51.9486 96.8736L70.3577 96.8427C70.3577 96.8427 69.2498 93.776 67.792 92.6828Z" fill="white"/>
<path d="M51.948 97.5615C51.8863 97.5615 51.8211 97.5512 51.756 97.534L47.3518 96.2551C47.1254 96.1897 46.947 96.011 46.8853 95.7841C46.8201 95.5572 46.875 95.3131 47.0328 95.1377C47.1117 95.0483 49.0051 92.9237 50.9911 91.1359L51.1763 90.9709C52.6272 89.6576 54.2736 88.169 56.5614 89.111C58.7704 90.0186 60.8593 90.2799 62.7047 90.5102C64.8519 90.7784 66.7041 91.0087 68.203 92.133C69.8083 93.3362 70.9539 96.4751 71.0019 96.6092C71.1323 96.9667 70.9471 97.3586 70.5903 97.4893C70.2336 97.6199 69.8426 97.4343 69.7123 97.0767C69.4241 96.2757 68.4397 94.0273 67.3798 93.2331C66.1724 92.3289 64.4849 92.1158 62.5332 91.8717C60.6055 91.631 58.4171 91.356 56.0401 90.3796C54.6235 89.7986 53.6185 90.6099 52.0921 91.9886L51.9069 92.157C50.7166 93.2297 49.5299 94.457 48.7958 95.2409L52.1367 96.2104C52.5003 96.3169 52.7095 96.6986 52.6032 97.063C52.5174 97.3621 52.243 97.558 51.9446 97.558L51.948 97.5615Z" fill="#111111"/>
<path d="M56.0982 97.5297C55.9267 97.5297 55.7586 97.4678 55.6249 97.3406C55.3505 97.0794 55.3402 96.6427 55.6008 96.3677C55.7037 96.2577 58.1665 93.6723 59.909 92.61C60.2348 92.414 60.6533 92.5172 60.8522 92.8404C61.0478 93.1635 60.9449 93.5864 60.6224 93.7858C59.0343 94.7553 56.6196 97.2891 56.5956 97.3166C56.4618 97.4575 56.28 97.5297 56.0982 97.5297Z" fill="#111111"/>
<path d="M61.4284 97.5296C61.2638 97.5296 61.0991 97.4712 60.9688 97.3509C60.6875 97.0965 60.6669 96.6598 60.9208 96.3779C62.6941 94.4183 64.3577 93.5485 64.4263 93.5141C64.7624 93.3422 65.1774 93.4728 65.3489 93.8098C65.5239 94.1467 65.3901 94.5627 65.054 94.7346C65.0402 94.7415 63.531 95.5391 61.9361 97.2993C61.8023 97.4471 61.6136 97.5262 61.4284 97.5262V97.5296Z" fill="#111111"/>
<path d="M51.9473 96.7739C51.7758 96.7739 51.6078 96.712 51.474 96.5848C51.1996 96.3235 51.1893 95.8869 51.45 95.6118C51.5529 95.5018 54.0156 92.9165 55.7581 91.8542C56.0805 91.6582 56.5024 91.7613 56.7014 92.0845C56.8969 92.4077 56.794 92.8305 56.4716 93.0299C54.8834 93.9994 52.4687 96.5332 52.4447 96.5607C52.3109 96.7017 52.1291 96.7739 51.9473 96.7739Z" fill="#111111"/>
<path d="M46.9715 64.2129H2.40145C1.38272 64.2129 0.590382 65.0964 0.696714 66.1106L3.92782 96.8735H51.9485L48.6796 65.7531C48.587 64.8799 47.853 64.2129 46.9749 64.2129H46.9715Z" fill="white"/>
<path d="M51.9453 97.5617C51.5989 97.5617 51.3005 97.3004 51.2628 96.9463L47.9939 65.8259C47.939 65.2999 47.5 64.9011 46.9718 64.9011H2.40174C2.10676 64.9011 1.83578 65.0214 1.63684 65.2414C1.4379 65.4615 1.34872 65.7434 1.37959 66.039L4.61069 96.8019C4.65185 97.18 4.37745 97.517 4.00014 97.5582C3.61941 97.5995 3.28669 97.3244 3.24553 96.9463L0.0144288 66.1834C-0.0576022 65.5062 0.161921 64.8289 0.618117 64.3201C1.07431 63.8147 1.72259 63.5225 2.40174 63.5225H46.9718C48.2032 63.5225 49.2322 64.4473 49.3591 65.6781L52.6279 96.7984C52.6691 97.1766 52.3947 97.5135 52.0174 97.5548C51.9934 97.5548 51.9694 97.5582 51.9453 97.5582V97.5617Z" fill="#111111"/>
<path d="M26.2223 83.1218C27.6431 83.1218 28.7949 81.9674 28.7949 80.5433C28.7949 79.1193 27.6431 77.9648 26.2223 77.9648C24.8015 77.9648 23.6498 79.1193 23.6498 80.5433C23.6498 81.9674 24.8015 83.1218 26.2223 83.1218Z" fill="white"/>
<path d="M26.2224 83.8095C24.4251 83.8095 22.9639 82.3449 22.9639 80.5434C22.9639 78.7419 24.4251 77.2773 26.2224 77.2773C28.0198 77.2773 29.481 78.7419 29.481 80.5434C29.481 82.3449 28.0198 83.8095 26.2224 83.8095ZM26.2224 78.6525C25.1831 78.6525 24.3359 79.5017 24.3359 80.5434C24.3359 81.5851 25.1831 82.4343 26.2224 82.4343C27.2617 82.4343 28.1089 81.5851 28.1089 80.5434C28.1089 79.5017 27.2617 78.6525 26.2224 78.6525Z" fill="#111111"/>
</g>
</g>
<defs>
<clipPath id="clip0_368_821">
<rect width="96" height="96" rx="48" fill="white"/>
</clipPath>
<clipPath id="clip1_368_821">
<rect width="85" height="85" fill="white" transform="translate(0 16)"/>
</clipPath>
</defs>
</svg>
