<svg width="96" height="96" viewBox="0 0 96 96" fill="none" xmlns="http://www.w3.org/2000/svg">
<g clip-path="url(#clip0_368_886)">
<rect width="96" height="96" rx="48" fill="#E5F5EF"/>
<path d="M61.2018 65.7656L67.6773 74.5164V91.6168H29.4453V74.5164L35.9208 65.7656H61.2018Z" fill="white"/>
<path d="M76.5943 72.6912L65.558 68.7274C63.1983 65.6594 62.0874 62.8751 60.8454 62.2006C59.4758 61.457 58.2097 62.2006 58.2097 62.2006C58.2097 62.2006 58.0406 64.1168 58.5133 65.8082C58.8997 67.1986 59.6656 67.6379 59.6656 67.6379C59.6656 67.6379 59.255 71.446 58.8376 72.8883C57.6232 77.0666 55.9672 79.7956 55.1358 81.3451C54.332 82.8393 54.4355 85.0288 54.9702 86.2981C55.5084 87.5675 59.8194 101.618 59.8194 101.618H89.3093C89.223 98.6398 86.1885 85.8208 86.1506 85.3435C85.3571 75.0432 78.5021 73.376 76.5943 72.6912Z" fill="#DDDDDD"/>
<path d="M59.8214 102.309C59.5316 102.309 59.259 102.122 59.1659 101.832C59.1521 101.79 54.8549 87.7953 54.3374 86.5674C53.7406 85.1597 53.606 82.7351 54.5306 81.016C54.6341 80.8258 54.748 80.6148 54.8756 80.3865C55.776 78.754 57.1319 76.2878 58.1772 72.6941C58.5015 71.5839 58.8258 68.9206 58.9396 67.9383C58.605 67.6166 58.1323 67.0148 57.8494 65.9944C57.3527 64.2028 57.5182 62.2243 57.5251 62.1413C57.5458 61.9165 57.67 61.7193 57.8632 61.6052C57.9288 61.5672 59.4847 60.6782 61.1752 61.5948C62.048 62.0687 62.738 63.1824 63.6936 64.7285C64.3318 65.7592 65.0529 66.9214 65.9809 68.1493L76.824 72.0439C76.9344 72.0854 77.0655 72.1269 77.2069 72.1753C79.6253 72.9916 86.0525 75.1603 86.8322 85.2946C86.8529 85.5644 86.8701 86.4083 86.8977 87.6915C86.9219 88.8018 89.9495 100.182 89.9909 101.6C90.0012 101.98 89.7011 102.299 89.3216 102.313C88.9352 102.323 88.6247 102.022 88.6109 101.641C88.5695 100.22 85.5419 88.8329 85.5178 87.7227C85.4936 86.557 85.4729 85.6335 85.4557 85.4018C84.745 76.1806 78.9491 74.2229 76.7653 73.4862C76.6135 73.4343 76.4755 73.3894 76.3548 73.3444L65.3185 69.3806C65.1943 69.3356 65.0839 69.2561 65.0046 69.1523C63.973 67.8138 63.1658 66.5063 62.5137 65.4583C61.7341 64.1993 61.0613 63.1098 60.5093 62.8123C59.8573 62.4595 59.2329 62.5564 58.8672 62.6705C58.8499 63.2931 58.8603 64.5244 59.1673 65.6243C59.4606 66.6862 59.9918 67.0355 60.0125 67.0494C60.2333 67.1912 60.3679 67.454 60.3403 67.7135C60.323 67.8726 59.9194 71.5977 59.4882 73.0815C58.4014 76.8205 56.9421 79.4734 56.0693 81.0541C55.9451 81.2789 55.8347 81.483 55.7312 81.6698C55.0481 82.9426 55.1275 84.921 55.5932 86.0244C56.1348 87.3041 60.4113 101.233 60.4631 101.399C60.5804 101.763 60.3837 102.153 60.0215 102.271C59.949 102.295 59.88 102.306 59.8076 102.306L59.8214 102.309Z" fill="#111111"/>
<path d="M67.2637 87.1629C67.1464 87.1629 67.0326 87.1352 66.9291 87.0764C66.8187 87.0141 64.2209 85.558 62.4028 84.2021C62.044 83.9323 61.7197 83.6729 61.4092 83.4204C60.0569 82.3309 59.5221 81.9781 58.8321 82.3101C58.2043 82.6111 58.1284 83.4204 58.1284 83.4308C58.0973 83.8078 57.7661 84.0949 57.3866 84.0638C57.0106 84.0361 56.7242 83.711 56.7518 83.3305C56.7553 83.2648 56.876 81.7152 58.2388 81.0615C59.774 80.3282 60.9883 81.3071 62.2752 82.3413C62.5719 82.5799 62.8858 82.8359 63.2308 83.0918C64.2934 83.8874 65.6802 84.7382 66.6014 85.2882C66.6393 82.1649 66.5807 73.5213 64.9143 68.9695C64.7832 68.6098 64.9661 68.212 65.3249 68.0806C65.6837 67.9492 66.0804 68.1325 66.2115 68.4922C68.3539 74.341 67.9744 86.0042 67.9572 86.4988C67.9503 86.7409 67.8157 86.9588 67.6053 87.0764C67.5018 87.1352 67.3845 87.1663 67.2672 87.1663L67.2637 87.1629Z" fill="#111111"/>
<path d="M59.6673 68.3292C59.6397 68.3292 59.6155 68.3292 59.5879 68.3257C59.2085 68.2808 58.9394 67.9384 58.9808 67.5613C58.9808 67.551 59.1119 66.3923 59.0429 65.3442C59.0187 64.9638 59.3051 64.6317 59.6845 64.6075C60.0675 64.5868 60.3952 64.8704 60.4194 65.2509C60.4987 66.4268 60.3573 67.6686 60.3538 67.7204C60.3124 68.0732 60.0157 68.3327 59.6707 68.3327L59.6673 68.3292Z" fill="#111111"/>
<path d="M35.5933 67.7173C35.5933 67.6792 35.6313 67.6343 35.6968 67.5858C36.1832 67.2296 38.2394 66.6969 38.2394 66.6969C38.2394 66.6969 38.6154 66.1989 38.8017 64.7531C38.988 63.3108 38.8983 62.1348 38.8983 62.1348C36.8215 62.4288 34.7101 62.7954 33.9649 63.6601C33.3716 64.3449 32.6816 66.2888 31.3016 68.8241L20.531 72.6876C18.6232 73.3724 11.7682 75.043 10.9747 85.3399C10.9368 85.8172 10.8402 98.6327 10.7539 101.614H42.3103C42.362 100.718 42.3172 89.2069 42.362 88.9094C43.0106 84.7588 42.5173 82.8669 41.7756 81.3415C40.8475 79.4323 35.5002 74.4827 35.5933 67.7138V67.7173Z" fill="#DDDDDD"/>
<path d="M42.3126 92.3091C42.3126 92.3091 42.285 92.3091 42.2712 92.3091C41.8917 92.2884 41.6019 91.9598 41.6226 91.5793C41.6502 91.1401 41.6502 90.5348 41.6502 89.9987C41.6502 89.345 41.6502 88.9956 41.6812 88.8054C42.3436 84.558 41.7571 82.8839 41.1569 81.6491C40.9637 81.2548 40.491 80.6253 39.9425 79.8955C38.0312 77.3533 34.8297 73.0989 34.9056 67.7066C34.9056 67.5233 34.9781 67.2535 35.292 67.0253C35.7612 66.6828 37.0791 66.2955 37.7725 66.1052C37.8656 65.8804 38.0174 65.4273 38.1175 64.6663C38.2037 63.9953 38.2279 63.3831 38.2279 62.9335C36.8479 63.1445 35.0195 63.4973 34.4847 64.1164C34.2225 64.4173 33.8568 65.1955 33.4325 66.0983C33.0358 66.9422 32.5424 67.9903 31.9042 69.1593C31.8214 69.3081 31.6903 69.4222 31.5316 69.4776L20.761 73.341C20.6437 73.3825 20.5057 73.431 20.3504 73.4829C18.1666 74.2196 12.3708 76.1773 11.6601 85.3985C11.6256 85.855 11.5255 88.6532 11.4427 91.6381C11.4324 92.0186 11.1184 92.323 10.732 92.3091C10.3526 92.2988 10.0524 91.9806 10.0628 91.5966C10.1387 88.9195 10.2422 85.8273 10.2836 85.2912C11.0632 75.1569 17.4904 72.9882 19.9088 72.172C20.0537 72.1235 20.1814 72.0786 20.2918 72.0405L30.814 68.2635C31.3729 67.2224 31.8179 66.2747 32.1802 65.5034C32.6873 64.4277 33.0496 63.6529 33.4359 63.2067C34.3433 62.1587 36.4891 61.7782 38.7937 61.4497C38.9834 61.422 39.1732 61.4739 39.3215 61.5949C39.4699 61.716 39.563 61.8889 39.5768 62.0826C39.5802 62.1345 39.6699 63.3451 39.4768 64.8428C39.2767 66.3888 38.8627 67.0045 38.7833 67.1117C38.6902 67.2362 38.5556 67.3262 38.4038 67.3642C37.6241 67.5648 36.6927 67.8588 36.2752 68.0456C36.3408 72.8188 39.2698 76.7099 41.0361 79.0585C41.6502 79.8782 42.1366 80.5215 42.3885 81.0369C43.1337 82.5657 43.7271 84.5925 43.0336 89.0129C43.0198 89.1236 43.0198 89.6044 43.0198 89.9952C43.0198 90.5486 43.0198 91.1747 42.9888 91.6554C42.9681 92.0221 42.6645 92.3057 42.3022 92.3057L42.3126 92.3091Z" fill="#111111"/>
<path d="M35.5963 68.4083C35.5963 68.4083 35.586 68.4083 35.5825 68.4083C35.2031 68.4014 34.8995 68.0832 34.9064 67.7027L34.934 66.4472C34.9409 66.0667 35.2514 65.7519 35.6377 65.7692C36.0172 65.7762 36.3208 66.0944 36.3139 66.4748L36.2863 67.7304C36.2794 68.1074 35.9724 68.4083 35.5963 68.4083Z" fill="#111111"/>
<path d="M58.2099 48.7422L48.564 50.9524L38.918 48.7422V61.308C38.918 65.3514 38.7524 66.2507 37.6484 67.4958L39.4838 69.7717C39.4838 69.7717 42.7681 72.6841 48.5674 72.6841C58.0754 72.6841 59.4795 67.4958 59.4795 67.4958C58.3755 66.2472 58.2099 65.3479 58.2099 61.308V48.7422Z" fill="white"/>
<path d="M48.5672 73.3752C42.5747 73.3752 39.1696 70.4144 39.0282 70.2899C38.7418 70.0374 38.7177 69.5982 38.9695 69.3145C39.2214 69.0275 39.6595 69.0032 39.9424 69.2557C39.9735 69.2834 43.1267 71.9951 48.5672 71.9951C56.1018 71.9951 58.2063 68.6989 58.6892 67.6336C57.6405 66.2985 57.5163 65.0152 57.5163 61.3108V49.6132L48.7155 51.6296C48.6155 51.6539 48.5085 51.6539 48.4085 51.6296L39.6078 49.6132V61.3108C39.6078 65.3127 39.4663 66.4887 38.1622 67.9587C37.9104 68.2458 37.4723 68.27 37.1894 68.0175C36.903 67.765 36.8789 67.3257 37.1307 67.0421C38.0346 66.0252 38.2278 65.4165 38.2278 61.3143V48.7485C38.2278 48.5375 38.3244 48.3403 38.4865 48.2089C38.6521 48.0774 38.866 48.029 39.0696 48.074L48.5603 50.2496L58.051 48.074C58.2546 48.0256 58.4719 48.074 58.6341 48.2089C58.7997 48.3403 58.8928 48.5375 58.8928 48.7485V61.3143C58.8928 65.4199 59.086 66.0252 59.9899 67.0421C60.1451 67.215 60.2003 67.4572 60.1417 67.682C60.0796 67.9137 58.4857 73.3821 48.5637 73.3821L48.5672 73.3752Z" fill="#111111"/>
<path d="M63.1534 40.3472V32.807C63.1534 30.6314 62.6118 28.4904 61.5664 26.5846C59.5724 22.9459 55.5394 18.7054 48.5948 18.6777H48.474C41.5293 18.7089 37.4964 22.9459 35.5023 26.5846C34.457 28.4904 33.9154 30.6314 33.9154 32.807V40.3472C32.2973 39.7315 30.0825 40.1327 30.1584 44.8851C30.2274 49.0945 32.7527 51.3496 34.6191 51.5814C34.8054 52.3838 35.04 53.169 35.3402 53.8711C37.2721 58.2673 42.516 62.9989 46.7387 64.1472C46.7387 64.1472 47.4942 64.3478 48.5326 64.3478C49.5711 64.3478 50.3266 64.1472 50.3266 64.1472C54.5493 62.9989 59.7932 58.2673 61.7251 53.8711C62.0218 53.1724 62.2599 52.3873 62.4462 51.5814C64.3126 51.3496 66.8379 49.0945 66.9069 44.8851C66.9828 40.1327 64.768 39.735 63.15 40.3472H63.1534Z" fill="white"/>
<path d="M48.5317 65.036C47.4139 65.036 46.5963 64.8215 46.5618 64.8146C42.1493 63.6144 36.7226 58.7306 34.7079 54.1511C34.4629 53.5735 34.2421 52.9128 34.0558 52.1796C31.7996 51.6054 29.5364 48.994 29.4709 44.8988C29.4295 42.4154 29.9918 40.7482 31.1372 39.9423C31.7306 39.5238 32.4516 39.3647 33.2278 39.465V32.8103C33.2278 30.5171 33.8074 28.2515 34.8976 26.2558C36.5812 23.1844 40.5831 18.0238 48.4696 17.9893H48.5938C56.4837 18.0238 60.4856 23.1844 62.1692 26.2558C63.2628 28.2515 63.839 30.5171 63.839 32.8103V39.465C64.6152 39.3647 65.3397 39.5238 65.9296 39.9423C67.075 40.7482 67.6339 42.4188 67.5959 44.8988C67.5304 48.994 65.2638 51.6089 63.011 52.1796C62.8212 52.9128 62.6039 53.5735 62.3589 54.1442C60.3407 58.734 54.914 63.6179 50.5085 64.8146C50.4705 64.825 49.6494 65.0394 48.5317 65.0394V65.036ZM32.7828 40.8174C32.4965 40.8174 32.1963 40.8831 31.9272 41.0699C31.4132 41.4331 30.8094 42.3877 30.8474 44.8746C30.9095 48.7035 33.1416 50.7027 34.7044 50.8964C34.9907 50.931 35.2253 51.1419 35.2909 51.4256C35.4841 52.2557 35.7152 52.9889 35.974 53.6012C37.8093 57.7759 42.9256 62.3934 46.9171 63.4795C46.9171 63.4795 47.6036 63.6559 48.5317 63.6559C49.4597 63.6559 50.1462 63.4795 50.1531 63.4795C54.1412 62.3969 59.2575 57.7759 61.0963 53.5942C61.3516 52.9924 61.5827 52.2591 61.7759 51.429C61.8415 51.1454 62.076 50.9344 62.3624 50.8998C63.9252 50.7061 66.1573 48.7069 66.2194 44.878C66.2608 42.3912 65.6536 41.4365 65.1396 41.0733C64.5462 40.6548 63.7941 40.8451 63.3974 40.9973C63.1869 41.0768 62.9454 41.0491 62.7591 40.9212C62.5728 40.7932 62.4624 40.5787 62.4624 40.3505V32.8103C62.4624 30.7488 61.945 28.7116 60.9617 26.9199C59.4231 24.1148 55.773 19.4005 48.5938 19.3693H48.4765C41.2972 19.4005 37.6472 24.1113 36.112 26.9199C35.1287 28.7116 34.6113 30.7488 34.6113 32.8103V40.3505C34.6113 40.5787 34.5009 40.7897 34.3146 40.9212C34.1283 41.0491 33.8902 41.0803 33.6798 41.0007C33.4624 40.9177 33.1381 40.8243 32.7931 40.8243L32.7828 40.8174Z" fill="#111111"/>
<path d="M66.2729 31.9423C65.9141 27.6015 62.0571 24.5404 59.2902 22.0777C56.5234 19.6151 54.2361 16.6924 49.596 16.6924C44.9558 16.6924 41.9924 20.0786 41.9924 20.0786C41.9924 20.0786 40.4364 18.9371 37.8145 20.1927C35.1926 21.4517 35.5893 22.7937 33.9264 25.0558C32.2636 27.3213 30.7456 28.7394 30.5283 31.6206C30.2833 33.5541 30.9561 35.0656 31.546 36.5805C32.1256 38.0609 31.6978 41.7687 31.6978 41.7687L33.9161 40.3403L33.9609 36.4076C33.9609 36.4076 35.4651 36.0686 36.8727 34.6125C38.2802 33.1598 38.3285 31.6379 39.0565 29.8324C39.7844 28.0269 40.7987 26.7679 40.7987 26.7679C40.7987 26.7679 42.1476 27.4043 42.9928 27.4942C43.8415 27.5842 44.3935 26.5707 44.3935 26.5707C44.3935 26.5707 46.6256 26.4013 48.3989 26.4324C51.8936 26.4946 53.9256 27.5323 53.9256 27.5323C53.9256 27.5323 54.3879 32.1671 55.5333 33.3465C57.8068 35.6916 59.0936 34.4534 60.6599 35.6363C62.0053 36.6532 63.1507 40.3403 63.1507 40.3403L64.7963 41.9694L64.9171 40.2054C64.9171 40.2054 66.611 36.0306 66.2694 31.9354L66.2729 31.9423Z" fill="#FFDB43"/>
<path d="M53.9241 28.2277C53.5722 28.2277 53.2721 27.9614 53.2376 27.6051C53.2203 27.4391 52.7546 23.458 48.4594 22.998C44.9819 22.6279 43.5813 25.3604 43.5261 25.478C43.357 25.8204 42.943 25.9588 42.6015 25.7927C42.2599 25.6232 42.1185 25.2117 42.2841 24.8692C42.912 23.5791 45.0371 21.2409 48.6043 21.6214C54.0311 22.199 54.6037 27.4149 54.6072 27.4668C54.6451 27.8473 54.3657 28.1862 53.9862 28.2243C53.9621 28.2243 53.9414 28.2243 53.9172 28.2243L53.9241 28.2277Z" fill="#111111"/>
<path d="M44.9322 27.7124C44.8252 27.7124 44.7183 27.6882 44.6148 27.6363C44.2767 27.4599 44.1456 27.0483 44.3181 26.7093C44.8563 25.6544 46.664 23.8039 49.662 24.3539C50.038 24.423 50.2864 24.7828 50.2174 25.1598C50.1484 25.5368 49.7896 25.7858 49.4136 25.7166C46.6985 25.2186 45.5911 27.2593 45.5462 27.3457C45.422 27.5809 45.1806 27.7158 44.9322 27.7158V27.7124Z" fill="#111111"/>
<path d="M64.7979 42.6679C64.6185 42.6679 64.446 42.5988 64.3149 42.4673L62.6693 40.8382C62.5899 40.7587 62.5278 40.6584 62.4933 40.5512C62.0759 39.2057 61.0961 36.8329 60.244 36.1931C59.73 35.8057 59.14 35.7088 58.4569 35.5981C57.4116 35.4287 56.111 35.2177 54.9898 33.7753C53.8927 32.3676 53.3028 28.1064 53.2407 27.6256C53.1889 27.2486 53.4546 26.8992 53.8341 26.8474C54.2101 26.7989 54.5585 27.0618 54.6103 27.4423C54.8311 29.1163 55.4279 32.0875 56.08 32.9245C56.87 33.9379 57.7083 34.0728 58.6812 34.2319C59.4367 34.353 60.2923 34.4948 61.0789 35.0897C62.4347 36.1135 63.4938 39.1573 63.7595 39.9735L64.2149 40.4266L64.2321 40.1638C64.2356 40.0911 64.2528 40.0185 64.2804 39.9528C64.2977 39.9113 65.9088 35.8748 65.5845 32.001C65.274 28.2724 62.0656 25.4465 59.4885 23.1776C59.2642 22.9804 59.0434 22.7867 58.8295 22.5965C58.4086 22.2229 57.9981 21.839 57.591 21.4551C55.3658 19.3625 53.2614 17.3875 49.5907 17.3875C45.161 17.3875 42.5425 20.4935 42.5183 20.5247C42.3251 20.7599 42.0043 20.8394 41.7214 20.7218C41.7042 20.7149 39.7653 19.9436 38.13 20.8083C36.6328 21.6038 36.274 22.3059 35.7323 23.3643C35.4253 23.9662 35.0769 24.651 34.4731 25.4707C34.1833 25.8685 33.8935 26.2386 33.6175 26.5949C32.3618 28.217 31.3716 29.5003 31.2061 31.6759C31.2061 31.6862 31.2061 31.7001 31.2026 31.7104C30.9956 33.3326 31.5096 34.6366 32.0547 36.0167L32.1789 36.3314C32.5757 37.3483 32.5653 39.1573 32.4929 40.4336L33.2208 39.9632L33.2588 36.4006C33.2588 36.0789 33.4864 35.8057 33.7969 35.733C33.8073 35.733 35.1321 35.4044 36.3637 34.1316C37.2331 33.2358 37.509 32.3296 37.8575 31.1882C38.0127 30.6763 38.1749 30.1436 38.406 29.5729C39.165 27.6913 40.2069 26.3873 40.2517 26.332C40.4898 26.0345 40.9245 25.9896 41.2212 26.2282C41.5179 26.4669 41.5627 26.9027 41.3247 27.2002C41.3143 27.2105 40.3621 28.4073 39.6859 30.0883C39.479 30.6036 39.3272 31.1051 39.1788 31.5894C38.8097 32.8069 38.4578 33.9552 37.3573 35.0932C36.3326 36.1481 35.2597 36.6738 34.6353 36.9125L34.5973 40.3505C34.5973 40.5823 34.4766 40.8002 34.2799 40.9247L32.0616 42.3532C31.8374 42.4985 31.551 42.4985 31.3234 42.3567C31.0957 42.2148 30.9715 41.9554 31.0025 41.6891C31.1164 40.7033 31.3165 37.9121 30.8921 36.8329L30.7714 36.5216C30.1883 35.0447 29.5846 33.5159 29.8295 31.5479C30.0296 28.9676 31.1854 27.4734 32.5239 25.7405C32.793 25.3912 33.0725 25.028 33.3588 24.6441C33.8935 23.9143 34.2178 23.2848 34.5007 22.7279C35.0907 21.5727 35.5978 20.5765 37.4815 19.5769C39.1478 18.6915 40.9486 19.0339 41.78 19.276C42.6874 18.356 45.4163 15.9971 49.5872 15.9971C53.7582 15.9971 56.2076 18.2557 58.5294 20.4382C58.9296 20.8117 59.3298 21.1887 59.7403 21.5554C59.9508 21.7422 60.1716 21.9358 60.3923 22.133C63.1557 24.568 66.5988 27.5945 66.9541 31.8799C67.2784 35.7745 65.8639 39.6588 65.5948 40.3609L65.481 42.0177C65.4637 42.2875 65.2878 42.5227 65.0359 42.6161C64.9566 42.6472 64.8738 42.661 64.791 42.661L64.7979 42.6679Z" fill="#111111"/>
<path d="M33.9634 42.2945L33.9151 40.3472C32.2971 39.7316 30.0823 40.1328 30.1581 44.8852C30.2271 49.0946 32.7525 51.3497 34.6189 51.5814L34.1635 47.5554L33.9634 42.2911V42.2945Z" fill="white"/>
<path d="M34.6177 52.2727C34.5901 52.2727 34.5625 52.2727 34.5315 52.2658C32.1303 51.9649 29.536 49.2774 29.467 44.8916C29.4256 42.4082 29.9879 40.741 31.1333 39.9351C31.9578 39.354 33.0342 39.271 34.1589 39.6965C34.4211 39.7968 34.597 40.0458 34.6039 40.326L34.6522 42.2733C34.6625 42.6537 34.359 42.9719 33.9795 42.9823C33.5965 42.9927 33.2826 42.6883 33.2722 42.3079L33.2377 40.8655C32.841 40.7825 32.3442 40.7756 31.9268 41.0696C31.4127 41.4328 30.809 42.3874 30.8469 44.8743C30.8987 48.0184 32.4098 49.9242 33.8139 50.6159L33.4758 47.6344C33.4344 47.254 33.7035 46.9115 34.083 46.87C34.4625 46.8251 34.804 47.0983 34.8454 47.4788L35.3008 51.5048C35.3249 51.7158 35.2525 51.9268 35.1007 52.0755C34.9696 52.2035 34.7971 52.2761 34.6142 52.2761L34.6177 52.2727Z" fill="#111111"/>
<path d="M63.1492 40.3467L63.1009 42.294L62.9008 47.5583L62.4454 51.5844C64.3118 51.3526 66.8372 49.0975 66.9062 44.8881C66.9821 40.1357 64.7672 39.7345 63.1492 40.3502V40.3467Z" fill="white"/>
<path d="M62.4451 52.2732C62.2657 52.2732 62.0898 52.2006 61.9587 52.0726C61.8069 51.9239 61.7344 51.7129 61.7586 51.5019L62.214 47.4758C62.2554 47.0954 62.5969 46.8221 62.9764 46.8671C63.3559 46.9086 63.6284 47.2545 63.5836 47.6315L63.2455 50.613C64.6496 49.9212 66.1607 48.012 66.2124 44.8714C66.2538 42.3845 65.6466 41.4298 65.1326 41.0667C64.7152 40.7727 64.2184 40.7796 63.8216 40.8626L63.7871 42.3049C63.7768 42.6854 63.4629 43.0001 63.0799 42.9794C62.7004 42.969 62.3968 42.6543 62.4072 42.2703L62.4555 40.323C62.4624 40.0429 62.6383 39.7938 62.9005 39.6935C64.0252 39.2681 65.1016 39.3511 65.9261 39.9322C67.0715 40.7381 67.6303 42.4087 67.5924 44.8887C67.5199 49.2744 64.9291 51.9619 62.5279 52.2628C62.5003 52.2663 62.4693 52.2698 62.4417 52.2698L62.4451 52.2732Z" fill="#111111"/>
<path d="M47.727 50.1323C47.8374 50.0043 48.1376 50.1461 48.5309 50.1565C48.9242 50.1461 49.2243 50.0043 49.3347 50.1323C49.4485 50.2637 49.3174 50.9313 48.5309 50.952C47.7443 50.9313 47.6132 50.2672 47.727 50.1358V50.1323Z" fill="#111111"/>
<path d="M48.5416 42.851C48.5416 42.851 48.5071 42.851 48.4898 42.851C48.2069 42.8233 47.9965 42.5674 48.0241 42.2837C48.031 42.2146 48.1655 40.4782 46.5682 39.3956C46.3302 39.2365 46.2681 38.9114 46.4302 38.6762C46.5889 38.4376 46.9132 38.3753 47.1478 38.5379C49.266 39.9733 49.0625 42.2872 49.0521 42.3875C49.0245 42.6538 48.8003 42.8545 48.5381 42.8545L48.5416 42.851Z" fill="#111111"/>
<path d="M47.2015 57.6411L49.9546 57.6065C51.9486 56.8663 53.0629 54.791 53.0629 54.791H44C44 54.791 45.1488 56.9286 47.2015 57.6376V57.6411Z" fill="white"/>
<path d="M47.1995 58.2462C47.1339 58.2462 47.0684 58.2358 47.0028 58.2116C44.7535 57.4334 43.5184 55.1748 43.4667 55.0779C43.3666 54.8911 43.3701 54.6629 43.4805 54.4795C43.5909 54.2962 43.7875 54.1855 43.998 54.1855H53.0609C53.2748 54.1855 53.4714 54.2962 53.5784 54.4795C53.6888 54.6629 53.6922 54.8911 53.5922 55.0779C53.5439 55.1713 52.3433 57.3607 50.163 58.1736C49.849 58.2912 49.504 58.1286 49.3867 57.8173C49.2694 57.5025 49.4316 57.1567 49.7421 57.0391C50.6908 56.6863 51.4256 55.9772 51.9017 55.3961H45.1537C45.6436 55.991 46.4095 56.7243 47.3961 57.0667C47.7101 57.1774 47.8791 57.5198 47.7687 57.838C47.6825 58.0871 47.4479 58.2462 47.1995 58.2462Z" fill="#111111"/>
<path d="M44.7254 38.9634C44.6392 38.9634 44.5495 38.9426 44.4632 38.9046C41.9448 37.6871 38.9813 38.7524 38.9503 38.7628C38.6363 38.8769 38.2913 38.7178 38.1775 38.403C38.0636 38.0883 38.2223 37.7424 38.5328 37.6283C38.6743 37.5764 42 36.3727 44.9876 37.815C45.2878 37.9603 45.4154 38.3235 45.2705 38.6244C45.167 38.8423 44.9497 38.9668 44.7254 38.9668V38.9634Z" fill="#111111"/>
<path d="M52.2484 38.8389C52 38.8389 51.7688 38.6833 51.6791 38.4377C51.5687 38.1229 51.7309 37.777 52.0448 37.6629C55.3085 36.4973 58.3823 37.5176 58.5134 37.5626C58.8308 37.6698 58.9999 38.0122 58.8895 38.3305C58.7825 38.6452 58.441 38.8147 58.1236 38.7075C58.096 38.6971 55.305 37.784 52.4485 38.8043C52.3829 38.8285 52.3139 38.8389 52.2449 38.8389H52.2484Z" fill="#111111"/>
<path d="M57.2205 43.1765C57.0583 43.1765 56.8927 43.1177 56.7616 43.0001C56.7616 43.0001 56.2511 42.592 55.0677 42.3844C54.0362 42.2046 53.4601 42.4605 53.4359 42.4744C53.0944 42.63 52.6838 42.4882 52.5217 42.1458C52.3596 41.8068 52.4941 41.3987 52.8287 41.2292C52.9253 41.1808 53.8189 40.7623 55.3058 41.0217C56.8927 41.2984 57.6034 41.8968 57.6793 41.9659C57.9657 42.2184 57.9898 42.6577 57.738 42.9413C57.6 43.0935 57.4137 43.1731 57.2205 43.1731V43.1765Z" fill="#111111"/>
<path d="M39.8843 43.0899C39.6705 43.0899 39.4566 42.9896 39.322 42.8028C39.1012 42.495 39.1668 42.0695 39.4704 41.8447C39.5463 41.7894 40.2638 41.2844 41.8197 41.0111C43.3136 40.7517 44.2278 41.2567 44.3278 41.3121C44.6556 41.5057 44.766 41.9277 44.5762 42.2598C44.3865 42.5884 43.969 42.699 43.6413 42.5123C43.6034 42.4915 43.0376 42.2044 42.0543 42.3739C40.8296 42.5884 40.2845 42.9584 40.2776 42.9619C40.1569 43.0449 40.0189 43.0864 39.8809 43.0864L39.8843 43.0899Z" fill="#111111"/>
<path d="M42.2109 54.3515C42.1005 54.3515 41.9901 54.3169 41.8935 54.2442C41.6658 54.0678 41.6244 53.7427 41.8004 53.5179L42.1074 53.1201C42.2834 52.8918 42.6077 52.8538 42.8319 53.0267C43.0562 53.2031 43.101 53.5283 42.9251 53.7531L42.618 54.1508C42.5145 54.2823 42.3627 54.3515 42.2075 54.3515H42.2109Z" fill="#111111"/>
<path d="M9.89869 70.5529C9.89869 70.5529 3.93724 67.4089 3.02646 66.9385C0.387271 65.5826 0.459719 64.3167 0.977207 63.5627C2.33647 61.5877 8.00469 64.9012 8.00469 64.9012L11.6512 66.5096L9.89869 70.5529Z" fill="white"/>
<path d="M9.89823 71.2448C9.78783 71.2448 9.67743 71.2171 9.57738 71.1652C9.51873 71.1341 3.60903 68.0142 2.71205 67.5542C1.19409 66.7725 0.304007 65.8974 0.0659625 64.9463C-0.0892838 64.3341 0.0314633 63.7184 0.407504 63.1684C2.02897 60.813 7.20384 63.6354 8.31816 64.2856L11.9268 65.8767C12.2752 66.0289 12.4339 66.437 12.2821 66.7864L10.5296 70.8262C10.4537 71.0026 10.3053 71.1375 10.1259 71.2033C10.05 71.2309 9.97412 71.2413 9.89823 71.2413V71.2448ZM2.45331 63.625C2.02552 63.625 1.70467 63.7253 1.54253 63.957C1.39073 64.175 1.34588 64.3894 1.40108 64.6108C1.47698 64.9186 1.83232 65.5481 3.33648 66.3229C4.06787 66.6999 7.97662 68.7579 9.55668 69.5949L10.74 66.8694L7.72478 65.5377C7.70063 65.5273 7.67648 65.517 7.65578 65.5031C6.03777 64.5589 3.75737 63.625 2.44986 63.625H2.45331Z" fill="#111111"/>
<path d="M23.8436 69.6636L18.8274 71.4899L8.10507 70.9468L4.48611 75.7304C4.48611 75.7304 0.535951 79.1442 2.30231 80.5831C3.81337 81.8144 6.54916 84.4639 9.87143 87.4661C10.6442 88.1648 10.7615 91.6132 10.7615 91.6132H23.0536C23.0536 91.6132 22.5947 88.1371 22.8086 87.2102C23.2054 85.498 25.5755 77.3353 25.6927 76.346C26.0446 73.3507 24.8027 71.8842 24.8027 71.8842L23.8401 69.6602L23.8436 69.6636Z" fill="white"/>
<path d="M23.0527 92.3084C22.7111 92.3084 22.4144 92.0559 22.3696 91.7066C22.2902 91.1048 21.9038 88.0541 22.1384 87.058C22.304 86.342 22.8077 84.5296 23.339 82.6099C24.0186 80.1576 24.9467 76.7991 25.0088 76.2699C25.3158 73.6516 24.3188 72.3822 24.2739 72.3304C24.236 72.2819 24.198 72.2231 24.1704 72.1643L23.4666 70.5387L19.0611 72.1401C18.9749 72.1712 18.8817 72.1851 18.792 72.1816L8.43191 71.6593L5.03374 76.1523C5.00614 76.1904 4.97164 76.225 4.93369 76.2596C3.92977 77.1277 2.5222 78.7534 2.536 79.6457C2.536 79.8221 2.5981 79.9397 2.73609 80.0504C3.65377 80.801 4.97509 82.0254 6.6483 83.5749C7.74882 84.5953 8.99424 85.7505 10.3294 86.9576C11.2229 87.7636 11.4092 90.4718 11.4471 91.5959C11.4609 91.9764 11.1608 92.2981 10.7813 92.3119C10.3984 92.3292 10.081 92.0248 10.0672 91.6443C10.0085 89.9772 9.70148 88.2651 9.40478 87.9849C8.06277 86.7709 6.8139 85.6122 5.70992 84.5918C4.05396 83.0596 2.74989 81.8455 1.86327 81.1261C1.40788 80.756 1.16293 80.251 1.15258 79.6665C1.12498 77.8644 3.49508 75.6854 3.97116 75.2634L7.54873 70.5352C7.68673 70.3519 7.90752 70.2516 8.13176 70.262L18.7161 70.7981L23.6012 69.0203C23.9427 68.8958 24.3257 69.0583 24.4706 69.3938L25.3986 71.5417C25.6884 71.943 26.7096 73.5755 26.3715 76.4394C26.3025 77.0309 25.647 79.4174 24.6603 82.9869C24.1325 84.8927 23.6357 86.6913 23.4735 87.3796C23.3459 87.933 23.546 90.1398 23.7288 91.5337C23.7806 91.9141 23.5149 92.26 23.1355 92.3119C23.1044 92.3153 23.0734 92.3188 23.0423 92.3188L23.0527 92.3084Z" fill="#111111"/>
<path d="M9.21077 83.6035L20.3597 82.6256C21.2613 82.5465 21.9282 81.7497 21.8494 80.8457L19.7816 57.15C19.7027 56.2461 18.9079 55.5775 18.0063 55.6565L6.85735 56.6345C5.95575 56.7135 5.28882 57.5104 5.36769 58.4143L7.43547 82.11C7.51435 83.014 8.30918 83.6826 9.21077 83.6035Z" fill="white"/>
<path d="M9.06219 84.3049C8.51711 84.3049 7.99272 84.1146 7.56838 83.7584C7.09229 83.3572 6.79905 82.7934 6.74385 82.1743L4.67735 58.478C4.62215 57.8554 4.81189 57.2501 5.21209 56.7728C5.61228 56.2954 6.17461 56.0014 6.79215 55.9461L17.9423 54.9673C19.2222 54.8531 20.3538 55.8078 20.4642 57.091L22.5307 80.7873C22.5859 81.4099 22.3961 82.0152 21.9959 82.4925C21.5957 82.9698 21.0334 83.2638 20.4159 83.3191L9.26574 84.298C9.19674 84.3049 9.12774 84.3083 9.05874 84.3083L9.06219 84.3049ZM18.1493 56.3439C18.1217 56.3439 18.0941 56.3439 18.0665 56.3473L6.91634 57.3262C6.6645 57.3469 6.43681 57.468 6.27121 57.6617C6.10906 57.8554 6.02972 58.1044 6.05387 58.3569L8.12037 82.0532C8.14106 82.3057 8.26181 82.534 8.45501 82.7C8.6482 82.8626 8.8966 82.9387 9.14844 82.9179L20.2986 81.9391C20.5504 81.9183 20.7781 81.7972 20.9437 81.6035C21.1059 81.4099 21.1852 81.1608 21.1611 80.9083L19.0946 57.212C19.0532 56.7174 18.6357 56.3439 18.1493 56.3439Z" fill="#111111"/>
<path d="M15.9122 58.3203L9.38231 58.893C8.93209 58.9325 8.53592 58.5992 8.49653 58.1478L8.35371 56.5112L16.5161 55.7952L16.6589 57.4319C16.6983 57.8833 16.3662 58.2839 15.9125 58.3237L15.9122 58.3203Z" fill="white"/>
<path d="M9.30919 59.5852C8.95385 59.5852 8.61576 59.4607 8.34321 59.2324C8.03272 58.973 7.84642 58.6064 7.80848 58.2051L7.66703 56.5691C7.64978 56.3858 7.70843 56.2059 7.82573 56.0641C7.94302 55.9223 8.11207 55.8359 8.29491 55.8186L16.4574 55.1026C16.6403 55.0853 16.8197 55.1441 16.9611 55.2617C17.1026 55.3793 17.1888 55.5488 17.206 55.7321L17.3475 57.3681C17.382 57.7693 17.2578 58.1636 16.9991 58.4715C16.7403 58.7828 16.3746 58.9695 15.9744 59.0076L9.44374 59.5817C9.39889 59.5852 9.35404 59.5887 9.30919 59.5887V59.5852ZM9.09874 57.1364L9.18154 58.0841C9.18499 58.129 9.20914 58.1567 9.22639 58.1705C9.24364 58.1844 9.27469 58.2017 9.31954 58.2017L15.8502 57.6275C15.8951 57.6241 15.9227 57.5998 15.9365 57.5825C15.9537 57.5653 15.971 57.5307 15.9675 57.4892L15.8847 56.5414L9.09874 57.1364Z" fill="#111111"/>
<path d="M11.3845 74.3166C11.2293 74.3166 11.0706 74.2647 10.9429 74.1541C10.6497 73.9085 10.6117 73.4727 10.8567 73.1787L15.3381 67.8244C15.5831 67.5304 16.0178 67.4924 16.311 67.738C16.6043 67.9835 16.6422 68.4193 16.3973 68.7133L11.9158 74.0676C11.7778 74.2302 11.5846 74.3132 11.388 74.3132L11.3845 74.3166Z" fill="#DDDDDD"/>
<path d="M17.1431 67.4365C16.9603 67.4365 16.7843 67.3639 16.6532 67.2359C16.5256 67.1079 16.4531 66.9281 16.4531 66.7448C16.4531 66.5614 16.5256 66.385 16.6532 66.2571C16.912 65.9976 17.3743 65.9976 17.6295 66.2571C17.7572 66.385 17.8331 66.5649 17.8331 66.7448C17.8331 66.9246 17.7572 67.1079 17.6295 67.2359C17.5019 67.3639 17.3225 67.4365 17.1431 67.4365Z" fill="#DDDDDD"/>
<path d="M11.2244 79.3485C11.0691 79.3485 10.9104 79.2966 10.7828 79.1859C10.4895 78.9403 10.4516 78.5045 10.6965 78.2105L15.3953 72.5969C15.6403 72.3029 16.075 72.2649 16.3682 72.5104C16.6614 72.756 16.6994 73.1918 16.4544 73.4858L11.7557 79.0995C11.6177 79.262 11.4245 79.345 11.2278 79.345L11.2244 79.3485Z" fill="#DDDDDD"/>
<path d="M24.0798 65.5169C23.0413 64.8009 21.3026 65.7175 20.6126 68.1629C19.8985 70.6982 21.3405 73.1574 21.3405 73.1574L25.684 74.3368C25.1182 71.6251 24.5524 71.4176 24.3351 69.792C24.0832 67.8792 25.4218 66.4473 24.0763 65.5203L24.0798 65.5169Z" fill="white"/>
<path d="M25.6841 75.0253C25.3633 75.0253 25.0769 74.8005 25.0079 74.4754C24.725 73.1161 24.449 72.4347 24.2075 71.8328C23.9729 71.2483 23.7659 70.7433 23.6521 69.8786C23.5348 68.9966 23.7073 68.2149 23.8453 67.5854C24.0626 66.6066 24.073 66.3506 23.6866 66.0843C23.4417 65.9148 23.1588 65.9632 22.9621 66.0359C22.4032 66.2365 21.6684 66.949 21.2751 68.3498C20.6472 70.5738 21.9202 72.784 21.934 72.8048C22.1272 73.1333 22.0168 73.5588 21.6891 73.7525C21.3614 73.9462 20.937 73.8355 20.7438 73.5069C20.6783 73.3962 19.1638 70.7606 19.9469 67.9763C20.4023 66.361 21.3545 65.1504 22.4929 64.7388C23.2002 64.4829 23.9005 64.559 24.4697 64.9498C25.6599 65.773 25.4012 66.9455 25.1942 67.8898C25.0666 68.4674 24.9355 69.0623 25.0217 69.7022C25.1114 70.3905 25.2701 70.7779 25.4875 71.3175C25.7393 71.9401 26.0532 72.7183 26.3603 74.1987C26.4396 74.5722 26.1981 74.9388 25.8255 75.0184C25.7772 75.0288 25.7289 75.0322 25.6841 75.0322V75.0253Z" fill="#111111"/>
<path d="M9.98622 73.7034C10.4278 72.7522 10.0173 71.6177 9.06855 71.175L5.62898 69.5667C4.68025 69.1239 3.54868 69.5355 3.10709 70.4867C2.6655 71.4379 3.07604 72.5724 4.02477 73.0151L7.46433 74.6234C8.41306 75.0662 9.54464 74.6546 9.98622 73.7034Z" fill="white"/>
<path d="M8.26455 75.4952C7.89196 75.4952 7.51937 75.4122 7.17092 75.2496L3.73136 73.6412C3.10347 73.3472 2.63083 72.8284 2.39279 72.1782C2.15474 71.5279 2.18579 70.8223 2.47904 70.1963C2.77228 69.5668 3.28977 69.0929 3.93835 68.8543C4.58694 68.6156 5.29072 68.6467 5.91515 68.9407L9.35472 70.5491C10.6484 71.1544 11.2073 72.7005 10.607 73.9975C10.3138 74.627 9.79631 75.1009 9.14773 75.3395C8.85793 75.4433 8.56124 75.4986 8.2611 75.4986L8.26455 75.4952ZM4.82843 70.0787C4.69043 70.0787 4.54899 70.1029 4.41444 70.1513C4.11085 70.262 3.86935 70.4834 3.73136 70.7774C3.44846 71.3826 3.71066 72.1055 4.31439 72.3857L7.75396 73.994C8.0472 74.1289 8.37494 74.1462 8.67854 74.0356C8.98213 73.9249 9.22362 73.7035 9.35817 73.4095C9.64106 72.8042 9.37887 72.0813 8.77513 71.8012L5.33557 70.1928C5.17342 70.1167 5.00093 70.0787 4.82498 70.0787H4.82843Z" fill="#111111"/>
<path d="M10.1035 77.9553C10.5451 77.0042 10.1346 75.8697 9.18586 75.427L5.74629 73.8186C4.79756 73.3759 3.66599 73.7875 3.2244 74.7387C2.78281 75.6898 3.19335 76.8243 4.14208 77.267L7.58164 78.8754C8.53037 79.3181 9.66194 78.9065 10.1035 77.9553Z" fill="white"/>
<path d="M8.38186 79.7467C8.00927 79.7467 7.63668 79.6637 7.28823 79.5011L3.84867 77.8928C3.22078 77.5988 2.74814 77.0799 2.5101 76.4297C2.27205 75.7794 2.3031 75.0738 2.59635 74.4478C2.88959 73.8183 3.40708 73.3444 4.05566 73.1058C4.70425 72.8706 5.40803 72.8982 6.03246 73.1922L9.47203 74.8006C10.0999 75.0946 10.5726 75.6134 10.8106 76.2637C11.0486 76.9139 11.0176 77.6195 10.7243 78.2456C10.4311 78.8751 9.91362 79.3489 9.26504 79.5876C8.97524 79.6913 8.67855 79.7467 8.37841 79.7467H8.38186ZM4.94574 74.3336C4.80774 74.3336 4.6663 74.3579 4.53175 74.4063C4.22816 74.517 3.98666 74.7383 3.84867 75.0323C3.56577 75.6376 3.82797 76.3605 4.4317 76.6407L7.87127 78.249C8.16451 78.3839 8.49225 78.4012 8.79585 78.2905C9.09944 78.1798 9.34093 77.9585 9.47548 77.6645C9.61348 77.3705 9.62728 77.0419 9.51688 76.7375C9.40648 76.4331 9.18569 76.191 8.89244 76.0527L5.45288 74.4443C5.29073 74.3682 5.11824 74.3302 4.94229 74.3302L4.94574 74.3336Z" fill="#111111"/>
<path d="M8.49806 81.4036C8.93965 80.4524 8.52911 79.3179 7.58039 78.8752L4.14082 77.2668C3.19209 76.8241 2.06052 77.2357 1.61893 78.1869C1.17734 79.1381 1.58788 80.2726 2.53661 80.7153L5.97618 82.3236C6.9249 82.7664 8.05648 82.3548 8.49806 81.4036Z" fill="white"/>
<path d="M6.77684 83.1949C6.40425 83.1949 6.03166 83.1119 5.68667 82.9493L2.2471 81.341C1.61922 81.047 1.14658 80.5282 0.908535 79.8779C0.670491 79.2277 0.70154 78.5221 0.994783 77.896C1.28803 77.2665 1.80551 76.7927 2.4541 76.554C3.10268 76.3188 3.80647 76.3465 4.43435 76.6405L7.87392 78.2488C9.16764 78.8541 9.72997 80.4002 9.12624 81.6973C8.833 82.3268 8.31551 82.8006 7.66692 83.0393C7.37713 83.143 7.08044 83.1984 6.78029 83.1984L6.77684 83.1949ZM3.34073 77.7819C3.20273 77.7819 3.06128 77.8061 2.92674 77.8545C2.62314 77.9652 2.38165 78.1866 2.2471 78.4806C2.10911 78.7746 2.09531 79.1031 2.2057 79.4075C2.3161 79.7119 2.5369 79.954 2.83014 80.0924L6.26971 81.7007C6.87344 81.9809 7.59447 81.7215 7.87392 81.1162C8.15681 80.5109 7.89462 79.788 7.29088 79.5078L3.85131 77.8995C3.68917 77.8234 3.51667 77.7853 3.34073 77.7853V77.7819Z" fill="#111111"/>
<path d="M49.4977 79.1303C49.1251 77.9923 48.718 76.1488 48.7698 74.9209C48.8526 72.9943 50.4188 71.8149 49.2562 70.67C48.3592 69.7811 46.4859 70.3829 45.3854 72.6727C44.2435 75.0454 44.9956 77.56 44.9956 77.56C44.9956 77.56 37.8922 73.4371 34.9494 71.5589C32.0066 69.6808 28.3187 67.1593 27.0732 68.4668C26.1245 69.4629 27.2078 70.881 29.5503 72.5551C31.4822 73.9351 34.2111 75.7337 34.2111 75.7337C34.2111 75.7337 32.5586 75.4501 32.0101 76.9547C31.4443 78.5077 32.6276 79.2375 32.6276 79.2375C32.6276 79.2375 31.6168 79.3136 31.2614 80.5449C30.8716 81.8973 31.8376 82.8485 31.8376 82.8485C31.8376 82.8485 30.0333 85.3423 31.4408 86.6774C33.2624 88.4068 34.9114 89.4721 34.9114 89.4721L42.8651 96.3118H57.3754C57.3754 96.3118 52.161 89.7142 51.8022 85.4218C51.54 82.2951 49.6633 79.6283 49.5011 79.1337L49.4977 79.1303Z" fill="white"/>
<path d="M42.8646 97.0001C42.7266 97.0001 42.5851 96.9586 42.4644 96.8721L34.5108 90.0324C34.4694 90.0082 32.8134 88.9325 30.9677 87.1789C29.6809 85.958 30.2846 84.0695 30.9918 82.8762C30.6641 82.3643 30.2743 81.465 30.5986 80.3478C30.7848 79.701 31.1264 79.2652 31.4886 78.985C31.1781 78.4351 31.0125 77.6637 31.361 76.7126C31.599 76.0623 31.9992 75.6438 32.4477 75.3844C31.4886 74.741 30.1984 73.8625 29.1496 73.1154C27.1348 71.6765 26.1516 70.5109 26.0516 69.4491C25.9998 68.906 26.1827 68.401 26.5759 67.986C28.1284 66.3569 31.4748 68.5048 34.7109 70.5801L35.3215 70.9709C37.4708 72.3441 41.9108 74.952 44.0843 76.2214C44.0118 75.1872 44.0912 73.7622 44.7639 72.3648C45.4918 70.8533 46.6407 69.8261 47.8343 69.6185C48.5761 69.4906 49.2523 69.6877 49.7421 70.172C50.7737 71.1888 50.3148 72.2991 49.9457 73.1915C49.7214 73.738 49.4868 74.3018 49.4592 74.9451C49.4144 76.0208 49.7732 77.7537 50.1527 78.9054C50.1768 78.9642 50.301 79.1925 50.4114 79.3931C51.0152 80.4827 52.2709 82.7551 52.4883 85.3527C52.8333 89.4756 57.9855 95.9763 57.9959 96.0005C58.158 96.3464 58.0097 96.758 57.6647 96.9205C57.3197 97.0831 56.9092 96.9344 56.747 96.5885C56.6953 96.4778 51.474 89.8353 51.1118 85.4668C50.9186 83.1632 49.7628 81.0672 49.204 80.0607C49.0108 79.7148 48.8969 79.5038 48.8417 79.3378C48.4381 78.103 48.0241 76.1834 48.0793 74.8829C48.1172 73.9939 48.4243 73.2538 48.6692 72.6588C49.0522 71.7319 49.1074 71.4828 48.7727 71.1543C48.5623 70.9467 48.2725 70.9433 48.0689 70.9779C47.4859 71.0782 46.6372 71.6523 46.0059 72.9632C45.002 75.0523 45.6505 77.3317 45.6574 77.3524C45.7368 77.6257 45.6436 77.9162 45.4228 78.0926C45.2021 78.269 44.895 78.2898 44.6501 78.148C44.5776 78.1065 37.4984 73.9974 34.5798 72.1331L33.9657 71.7388C31.9992 70.4763 28.3389 68.1278 27.573 68.9337C27.4246 69.0893 27.4143 69.2069 27.4246 69.3107C27.4522 69.5909 27.7489 70.4106 29.95 71.9809C31.8474 73.3368 34.5625 75.125 34.5901 75.1423C34.8626 75.3221 34.973 75.668 34.8523 75.9724C34.7316 76.2768 34.4176 76.4566 34.0933 76.4013C33.9864 76.384 32.9893 76.2595 32.6582 77.176C32.3132 78.1238 32.8824 78.5596 32.9997 78.6357C33.2446 78.7982 33.3654 79.1061 33.2929 79.3897C33.217 79.6768 32.9755 79.8877 32.6823 79.9085C32.6064 79.9189 32.1303 80.0123 31.9268 80.7213C31.6577 81.6448 32.2994 82.3158 32.327 82.3435C32.5616 82.5856 32.5961 82.9661 32.3994 83.2393C32.3856 83.2601 30.9849 85.2731 31.9199 86.162C33.669 87.8223 35.2732 88.8668 35.2904 88.8772L43.2716 95.7342C43.5821 95.9555 43.6511 96.3879 43.4303 96.6992C43.2958 96.8859 43.0853 96.9897 42.868 96.9897L42.8646 97.0001Z" fill="#111111"/>
<path d="M38.2884 79.0993C38.1573 79.0993 38.0262 79.0613 37.9123 78.9852L33.8311 76.3046C33.5137 76.0936 33.424 75.6647 33.631 75.3465C33.8414 75.0283 34.2657 74.9384 34.5866 75.1459L38.6678 77.8265C38.9852 78.0375 39.0749 78.4664 38.8679 78.7846C38.7368 78.9886 38.516 79.0959 38.2918 79.0959L38.2884 79.0993Z" fill="#111111"/>
<path d="M37.5799 83.1287C37.4522 83.1287 37.3211 83.0941 37.2073 83.018L32.2532 79.8117C31.9324 79.6042 31.8427 79.1753 32.0462 78.8536C32.2532 78.532 32.681 78.442 32.9984 78.6461L37.9525 81.8524C38.2733 82.0599 38.363 82.4888 38.1595 82.8105C38.0284 83.0146 37.8041 83.1287 37.5799 83.1287Z" fill="#111111"/>
<path d="M36.4016 87.1581C36.2533 87.1581 36.1015 87.1096 35.9738 87.0093L31.4027 83.388C31.1025 83.1493 31.0542 82.717 31.2888 82.416C31.5234 82.1151 31.9581 82.0667 32.2583 82.3019L36.8294 85.9233C37.1295 86.1619 37.1778 86.5943 36.9432 86.8952C36.8087 87.0681 36.6051 87.1581 36.4016 87.1581Z" fill="#111111"/>
</g>
<defs>
<clipPath id="clip0_368_886">
<rect width="96" height="96" rx="48" fill="white"/>
</clipPath>
</defs>
</svg>
