<svg width="80" height="15" viewBox="0 0 80 15" fill="none" xmlns="http://www.w3.org/2000/svg">
<path d="M2.56706 14.1445L4.38606 8.73847L5.66877e-05 5.79747H5.37206L7.29306 0.000467777L9.24806 5.79747H14.5861L10.2001 8.73847L12.0531 14.1445L7.29306 10.6935L2.56706 14.1445ZM18.8864 14.1445L20.7054 8.73847L16.3194 5.79747H21.6914L23.6124 0.000467777L25.5674 5.79747H30.9054L26.5194 8.73847L28.3724 14.1445L23.6124 10.6935L18.8864 14.1445ZM35.2057 14.1445L37.0247 8.73847L32.6387 5.79747H38.0107L39.9317 0.000467777L41.8867 5.79747H47.2247L42.8387 8.73847L44.6917 14.1445L39.9317 10.6935L35.2057 14.1445ZM51.5251 14.1445L53.3441 8.73847L48.9581 5.79747H54.3301L56.2511 0.000467777L58.2061 5.79747H63.5441L59.1581 8.73847L61.0111 14.1445L56.2511 10.6935L51.5251 14.1445Z" fill="#EC4765"/>
<path d="M67.8444 14.1445L69.6634 8.73847L65.2774 5.79747H70.6494L72.5704 0.000467777L74.5254 5.79747H79.8634L75.4774 8.73847L77.3304 14.1445L72.5704 10.6935L67.8444 14.1445Z" fill="#EC4765" fill-opacity="0.2"/>
</svg>
