<svg width="80" height="15" viewBox="0 0 80 15" fill="none" xmlns="http://www.w3.org/2000/svg">
<path d="M2.567 14.1445L4.386 8.73847L-4.34741e-06 5.79747H5.372L7.293 0.000467777L9.248 5.79747H14.586L10.2 8.73847L12.053 14.1445L7.293 10.6935L2.567 14.1445ZM18.8863 14.1445L20.7053 8.73847L16.3193 5.79747H21.6913L23.6123 0.000467777L25.5673 5.79747H30.9053L26.5193 8.73847L28.3723 14.1445L23.6123 10.6935L18.8863 14.1445ZM35.2057 14.1445L37.0247 8.73847L32.6387 5.79747H38.0107L39.9317 0.000467777L41.8867 5.79747H47.2247L42.8387 8.73847L44.6917 14.1445L39.9317 10.6935L35.2057 14.1445Z" fill="#EC4765"/>
<path d="M51.525 14.1445L53.344 8.73847L48.958 5.79747H54.33L56.251 0.000467777L58.206 5.79747H63.544L59.158 8.73847L61.011 14.1445L56.251 10.6935L51.525 14.1445ZM67.8443 14.1445L69.6633 8.73847L65.2773 5.79747H70.6493L72.5703 0.000467777L74.5253 5.79747H79.8633L75.4773 8.73847L77.3303 14.1445L72.5703 10.6935L67.8443 14.1445Z" fill="#EC4765" fill-opacity="0.2"/>
</svg>
