<svg width="50" height="48" viewBox="0 0 50 48" fill="none" xmlns="http://www.w3.org/2000/svg">
<path d="M14.4 48C13.08 48 11.95 47.53 11.01 46.59C10.07 45.65 9.6 44.52 9.6 43.2C9.6 41.88 10.07 40.75 11.01 39.81C11.95 38.87 13.08 38.4 14.4 38.4C15.72 38.4 16.85 38.87 17.79 39.81C18.73 40.75 19.2 41.88 19.2 43.2C19.2 44.52 18.73 45.65 17.79 46.59C16.85 47.53 15.72 48 14.4 48ZM38.4 48C37.08 48 35.95 47.53 35.01 46.59C34.07 45.65 33.6 44.52 33.6 43.2C33.6 41.88 34.07 40.75 35.01 39.81C35.95 38.87 37.08 38.4 38.4 38.4C39.72 38.4 40.85 38.87 41.79 39.81C42.73 40.75 43.2 41.88 43.2 43.2C43.2 44.52 42.73 45.65 41.79 46.59C40.85 47.53 39.72 48 38.4 48ZM10.08 4.8H49.68L37.74 26.4H17.04L14.4 31.2H43.2V36H6.3L13.44 23.04L4.8 4.8H0V0H7.8L10.08 4.8Z" fill="white"/>
</svg>
