<svg width="160" height="80" viewBox="0 0 160 80" fill="none" xmlns="http://www.w3.org/2000/svg">
<path d="M83.5039 32.5957V46.623C83.5039 52.1426 82.8535 56.9414 81.5527 61.0195C80.2871 65.0977 78.459 68.4727 76.0684 71.1445C73.7129 73.8164 70.9004 75.8027 67.6309 77.1035C64.3613 78.4043 60.7578 79.0547 56.8203 79.0547C53.6562 79.0547 50.7031 78.6504 47.9609 77.8418C45.2188 76.998 42.7402 75.7324 40.5254 74.0449C38.3457 72.3223 36.4648 70.1777 34.8828 67.6113C33.3008 65.0449 32.0879 62.0215 31.2441 58.541C30.4004 55.0254 29.9785 51.0527 29.9785 46.623V32.5957C29.9785 27.041 30.6113 22.2422 31.877 18.1992C33.1777 14.1211 35.0234 10.7461 37.4141 8.07422C39.8047 5.40234 42.6348 3.41602 45.9043 2.11523C49.1738 0.814453 52.7773 0.164062 56.7148 0.164062C59.8789 0.164062 62.8145 0.585938 65.5215 1.42969C68.2637 2.23828 70.7422 3.50391 72.957 5.22656C75.1719 6.91406 77.0527 9.04102 78.5996 11.6074C80.1816 14.1738 81.3945 17.2148 82.2383 20.7305C83.082 24.2109 83.5039 28.166 83.5039 32.5957ZM65.7324 48.7852V30.3281C65.7324 27.8672 65.5918 25.7227 65.3105 23.8945C65.0645 22.0664 64.6777 20.5195 64.1504 19.2539C63.6582 17.9883 63.043 16.9688 62.3047 16.1953C61.5664 15.3867 60.7227 14.8066 59.7734 14.4551C58.8594 14.0684 57.8398 13.875 56.7148 13.875C55.3086 13.875 54.043 14.1738 52.918 14.7715C51.8281 15.334 50.8965 16.248 50.123 17.5137C49.3496 18.7793 48.752 20.4668 48.3301 22.5762C47.9434 24.6855 47.75 27.2695 47.75 30.3281V48.7852C47.75 51.2812 47.873 53.4609 48.1191 55.3242C48.4004 57.1523 48.7871 58.7168 49.2793 60.0176C49.8066 61.2832 50.4395 62.3203 51.1777 63.1289C51.916 63.9023 52.7598 64.4648 53.709 64.8164C54.6582 65.168 55.6953 65.3438 56.8203 65.3438C58.1914 65.3438 59.4219 65.0625 60.5117 64.5C61.6016 63.9375 62.5332 63.0234 63.3066 61.7578C64.1152 60.457 64.7129 58.752 65.0996 56.6426C65.5215 54.498 65.7324 51.8789 65.7324 48.7852Z" fill="#2C6FFF"/>
<path d="M89.71 43.24H121.11V49H95.55V78.76H89.71V43.24ZM118.27 43.24H124.15V72.24C124.15 73.7067 123.977 74.8667 123.63 75.72C123.283 76.5733 122.643 77.24 121.71 77.72C120.803 78.2 119.71 78.4933 118.43 78.6C117.15 78.7333 115.617 78.8 113.83 78.8C113.75 78.24 113.59 77.6 113.35 76.88C113.137 76.1867 112.883 75.4933 112.59 74.8C112.323 74.1067 112.043 73.5067 111.75 73C112.443 73.0533 113.163 73.0933 113.91 73.12C114.657 73.12 115.337 73.12 115.95 73.12C116.563 73.12 116.99 73.12 117.23 73.12C117.603 73.12 117.87 73.0533 118.03 72.92C118.19 72.76 118.27 72.5067 118.27 72.16V43.24ZM92.87 58.16H121.15V63.92H92.87V58.16ZM103.71 46.44H109.51V61.04H103.71V46.44Z" fill="#2C6FFF"/>
<path d="M93.772 20.402H102.538V22.958H93.772V20.402ZM93.79 24.686H102.628V27.17H93.79V24.686ZM93.718 28.898H102.484V31.436H93.718V28.898ZM91.918 20.402H94.618V26.594C94.618 27.374 94.57 28.22 94.474 29.132C94.39 30.044 94.228 30.968 93.988 31.904C93.748 32.828 93.394 33.704 92.926 34.532C92.458 35.36 91.846 36.086 91.09 36.71C90.958 36.53 90.766 36.314 90.514 36.062C90.274 35.81 90.016 35.57 89.74 35.342C89.476 35.114 89.248 34.94 89.056 34.82C89.716 34.268 90.238 33.656 90.622 32.984C91.006 32.312 91.288 31.61 91.468 30.878C91.66 30.146 91.78 29.414 91.828 28.682C91.888 27.95 91.918 27.248 91.918 26.576V20.402ZM101.296 20.402H104.086V33.542C104.086 34.274 103.99 34.844 103.798 35.252C103.606 35.66 103.282 35.972 102.826 36.188C102.346 36.416 101.77 36.554 101.098 36.602C100.438 36.662 99.646 36.692 98.722 36.692C98.674 36.428 98.59 36.128 98.47 35.792C98.35 35.456 98.218 35.12 98.074 34.784C97.93 34.448 97.786 34.166 97.642 33.938C98.026 33.962 98.428 33.98 98.848 33.992C99.28 34.004 99.664 34.01 100 34.01C100.348 34.01 100.594 34.01 100.738 34.01C100.942 34.01 101.086 33.974 101.17 33.902C101.254 33.818 101.296 33.686 101.296 33.506V20.402ZM109.774 24.272H113.356V25.982H109.774V24.272ZM110.206 19.682H112.636V22.688H110.206V19.682ZM109.558 30.608H114.49V35.684H109.558V33.722H112.276V32.57H109.558V30.608ZM107.398 21.032H115.516V24.128H113.356V23.03H109.468V24.128H107.398V21.032ZM108.406 30.608H110.584V36.368H108.406V30.608ZM112.942 24.272H113.356L113.734 24.182L115.21 24.848C114.814 25.988 114.274 27.008 113.59 27.908C112.906 28.808 112.114 29.588 111.214 30.248C110.314 30.896 109.342 31.43 108.298 31.85C108.166 31.574 107.968 31.25 107.704 30.878C107.452 30.506 107.212 30.206 106.984 29.978C107.896 29.678 108.754 29.264 109.558 28.736C110.362 28.196 111.058 27.578 111.646 26.882C112.234 26.174 112.666 25.418 112.942 24.614V24.272ZM110.278 23.048L112.384 23.588C111.976 24.536 111.43 25.412 110.746 26.216C110.062 27.008 109.336 27.668 108.568 28.196C108.46 28.052 108.304 27.884 108.1 27.692C107.908 27.5 107.704 27.308 107.488 27.116C107.284 26.924 107.104 26.774 106.948 26.666C107.668 26.258 108.322 25.736 108.91 25.1C109.51 24.464 109.966 23.78 110.278 23.048ZM108.694 27.512L110.044 25.946C110.464 26.222 110.932 26.528 111.448 26.864C111.976 27.188 112.504 27.524 113.032 27.872C113.56 28.208 114.058 28.538 114.526 28.862C115.006 29.174 115.408 29.456 115.732 29.708L114.274 31.544C113.974 31.28 113.596 30.98 113.14 30.644C112.684 30.308 112.198 29.96 111.682 29.6C111.166 29.228 110.65 28.862 110.134 28.502C109.618 28.142 109.138 27.812 108.694 27.512ZM115.462 20.24H123.976V22.454H115.462V20.24ZM118.27 27.818V28.574H121.186V27.818H118.27ZM118.27 30.356V31.112H121.186V30.356H118.27ZM118.27 25.298V26.054H121.186V25.298H118.27ZM115.93 23.39H123.652V33.02H115.93V23.39ZM118.414 21.464L121.276 21.788C121.084 22.352 120.88 22.898 120.664 23.426C120.448 23.954 120.256 24.41 120.088 24.794L117.928 24.398C118 24.11 118.066 23.798 118.126 23.462C118.186 23.114 118.24 22.766 118.288 22.418C118.348 22.07 118.39 21.752 118.414 21.464ZM117.406 32.912L119.458 34.262C119.146 34.562 118.768 34.868 118.324 35.18C117.892 35.492 117.436 35.774 116.956 36.026C116.476 36.29 116.014 36.512 115.57 36.692C115.378 36.452 115.12 36.176 114.796 35.864C114.484 35.552 114.19 35.282 113.914 35.054C114.346 34.898 114.784 34.7 115.228 34.46C115.672 34.22 116.086 33.962 116.47 33.686C116.854 33.41 117.166 33.152 117.406 32.912ZM119.854 34.208L121.744 33.02C122.056 33.248 122.392 33.506 122.752 33.794C123.112 34.07 123.454 34.352 123.778 34.64C124.114 34.916 124.39 35.168 124.606 35.396L122.59 36.71C122.41 36.482 122.164 36.218 121.852 35.918C121.54 35.63 121.204 35.33 120.844 35.018C120.496 34.718 120.166 34.448 119.854 34.208Z" fill="#2C6FFF"/>
</svg>
