<svg width="80" height="80" viewBox="0 0 80 80" fill="none" xmlns="http://www.w3.org/2000/svg">
<g clip-path="url(#clip0_5_635)">
<path d="M69.1822 61.8624C68.5328 59.0683 66.5212 56.9396 63.9688 56.0314C63.9633 56.0296 63.9578 56.0266 63.9516 56.0247C63.5402 55.8794 63.1161 55.7721 62.6797 55.6939C62.6577 55.6897 62.6358 55.6836 62.6131 55.6799C62.1889 55.6072 61.7569 55.5736 61.3156 55.5694C61.2888 55.5694 61.2631 55.5627 61.2362 55.5627C61.2033 55.5627 61.1672 55.5639 61.1338 55.5639C61 55.5658 60.8719 55.5444 60.7377 55.553H60.6778L56.9897 55.9289L55.5402 56.0674C55.8472 55.1042 55.9186 54.0821 55.7636 53.0721C55.5256 51.5572 54.762 50.1499 53.617 49.1238L46.4842 42.7546C43.7414 40.3096 40.0917 39.2721 36.4773 39.9042L22.797 42.2894C22.0219 42.4207 21.2822 42.6716 20.6139 43.0291C20.0939 42.4706 19.3927 42.1056 18.628 41.9421C18.6133 41.9391 18.5994 41.9355 18.5852 41.9324C18.3436 41.8836 18.1 41.8591 17.848 41.8574C17.8402 41.8574 17.8327 41.8549 17.8248 41.8549C17.8053 41.8549 17.7852 41.8591 17.7656 41.8591C17.5941 41.8616 17.4252 41.8463 17.2511 41.8719L10.0114 42.993C9.55422 42.658 9.03734 42.4163 8.49422 42.2374C8.49359 42.2369 8.49312 42.2369 8.4925 42.2369C8.23312 42.1514 7.96828 42.0878 7.69469 42.0428C7.67937 42.0403 7.66422 42.0386 7.64953 42.0361C7.10516 41.9514 6.54422 41.9233 5.9675 42.0153L0.0040625 42.9338V66.0142L0 69.6733H0.00421875V69.6983L10.0116 68.148C11.502 67.921 12.7544 67.1099 13.5777 65.9888L20.8173 64.856C21.8189 64.7125 22.6544 64.1761 23.2384 63.4363C24.0019 63.5913 24.8008 63.6272 25.6005 63.5199L29.7744 62.9474L37.2648 70.8431C39.1733 72.8352 41.8331 73.8367 44.5642 73.6103L44.6119 73.5988L61.9541 71.8331C64.1963 71.6422 66.2598 70.5094 67.6556 68.756C69.0391 66.9794 69.6355 64.6772 69.3009 62.4588C69.2658 62.2553 69.2297 62.0528 69.1822 61.8624ZM40.2822 45.5547C41.1916 45.816 42.043 46.2803 42.7631 46.9292L49.8959 53.2863C50.0863 53.4658 50.2059 53.6805 50.2414 53.9308C50.2773 54.1335 50.2414 54.3483 50.1461 54.551C49.407 56.1017 47.4503 56.5669 46.0911 55.5408L42.4769 52.7974C41.7731 52.261 40.7594 52.5233 40.4017 53.3461L40.187 53.8233C40.0795 54.0619 40.0436 54.3244 40.0917 54.5867C40.127 54.8371 40.2467 55.0872 40.4256 55.2905L45.7328 61.075C46.425 61.8385 47.415 62.2316 48.4525 62.1724L61.0716 61.1349C62.3239 61.0513 63.4572 61.8861 63.7428 63.1147C63.755 63.1861 63.7667 63.246 63.7789 63.305C64.0053 64.7722 62.9439 66.156 61.453 66.2749L44.087 68.0521C43.0495 68.1356 42.0358 67.7419 41.3198 66.9906L33.1977 58.4503C32.4792 57.6813 31.4766 57.2908 30.4366 57.2877C30.4334 57.2877 30.4311 57.2871 30.4286 57.2871C30.4231 57.2871 30.417 57.2883 30.4116 57.2883C30.2511 57.2889 30.0911 57.273 29.93 57.2938L24.8484 57.9853C24.5031 58.0299 24.1716 57.9681 23.8817 57.8266C23.8708 57.8213 23.8603 57.8144 23.85 57.8089C23.7616 57.7631 23.6755 57.7119 23.5961 57.6514L22.332 49.4933C22.3198 48.6585 22.9284 47.9186 23.7511 47.776L37.4436 45.4024C38.3964 45.2358 39.3631 45.2921 40.2725 45.5521C40.2761 45.5528 40.2792 45.5541 40.2822 45.5547ZM16.3925 47.6566L16.7617 50.0185L18.2527 59.6078L14.3052 60.2163L12.4566 48.265L16.3925 47.6566Z" fill="#2C6FFF"/>
<rect x="49.75" y="14" width="26" height="26" rx="13" stroke="#2C6FFF" stroke-width="4"/>
<path d="M65.4297 21.0149L63.3003 23.6892L62.7464 24.375L60.0709 21.0149H58.0267L56.7704 21L56.7822 21.0149H56.75L58.981 23.8155L60.3129 25.5113H57.6647V27.3304V27.3357V27.3601H61.4535V28.053H57.6647V29.8709V29.8762V29.9006H61.4535V33H64.0472V29.9006H67.8019L67.813 29.9012V29.9006H67.8383V28.053H64.0472V27.3601H67.8383V25.5113H66.1623L65.1797 25.4971L67.3903 22.722L68.75 21.0393H68.7302L68.75 21.0149H65.4297Z" fill="#2C6FFF"/>
</g>
<defs>
<clipPath id="clip0_5_635">
<rect width="80" height="80" fill="white"/>
</clipPath>
</defs>
</svg>
