<svg width="83" height="80" viewBox="0 0 83 80" fill="none" xmlns="http://www.w3.org/2000/svg">
<path d="M72.7878 80L48.4882 55.7004L57.8086 46.38L82.1082 70.6796L72.7878 80ZM11.5395 80L2.21914 70.6796L32.8433 40.0555L25.2982 32.5104L22.1914 35.6172L16.5326 29.9584V39.0569L13.4258 42.1637L0 28.7379L3.1068 25.6311H12.2053L6.65742 20.0832L22.4133 4.32732C23.8927 2.8479 25.4831 1.77531 27.1845 1.10957C28.8858 0.443828 30.6241 0.110957 32.3994 0.110957C34.1748 0.110957 35.9131 0.443828 37.6144 1.10957C39.3158 1.77531 40.9062 2.8479 42.3856 4.32732L32.1775 14.5354L37.7254 20.0832L34.6186 23.19L42.1637 30.7351L52.1498 20.749C51.8539 19.9353 51.6135 19.0846 51.4286 18.1969C51.2436 17.3093 51.1512 16.4216 51.1512 15.534C51.1512 11.1697 52.6491 7.4896 55.6449 4.49376C58.6408 1.49792 62.3209 0 66.6852 0C67.7947 0 68.8488 0.110957 69.8474 0.332871C70.8461 0.554785 71.8632 0.887656 72.8988 1.33148L61.914 12.3162L69.9029 20.3051L80.8877 9.32039C81.4055 10.356 81.7568 11.3731 81.9417 12.3717C82.1267 13.3703 82.2191 14.4244 82.2191 15.534C82.2191 19.8983 80.7212 23.5784 77.7254 26.5742C74.7295 29.57 71.0495 31.068 66.6852 31.068C65.7975 31.068 64.9099 30.994 64.0222 30.846C63.1345 30.6981 62.2839 30.4392 61.4702 30.0693L11.5395 80Z" fill="#2C6FFF"/>
</svg>
