<svg width="55" height="80" viewBox="0 0 55 80" fill="none" xmlns="http://www.w3.org/2000/svg">
<path d="M25.4545 18.1818C26.4848 18.1818 27.3485 17.8333 28.0455 17.1364C28.7424 16.4394 29.0909 15.5758 29.0909 14.5455C29.0909 13.5152 28.7424 12.6515 28.0455 11.9545C27.3485 11.2576 26.4848 10.9091 25.4545 10.9091C24.4242 10.9091 23.5606 11.2576 22.8636 11.9545C22.1667 12.6515 21.8182 13.5152 21.8182 14.5455C21.8182 15.5758 22.1667 16.4394 22.8636 17.1364C23.5606 17.8333 24.4242 18.1818 25.4545 18.1818ZM0 80V0H50.9091V18.5455H54.5455V36H50.9091V80H0ZM7.27273 72.7273H43.6364V7.27273H7.27273V72.7273Z" fill="#2C6FFF"/>
</svg>
