<svg width="238" height="37" viewBox="0 0 238 37" fill="none" xmlns="http://www.w3.org/2000/svg">
<path d="M30.8538 0H237.854L207 36.7701H1.43051e-05L30.8538 0Z" fill="url(#paint0_linear_431_438)"/>
<path d="M45.171 12.224H53.539V13.968H45.171V12.224ZM44.643 18.384H54.131V20.112H44.643V18.384ZM44.499 15.36H54.243V17.104H44.499V15.36ZM48.467 10.48H50.291V16.272H48.467V10.48ZM50.531 16.816H52.355V23.424C52.355 23.8933 52.3016 24.256 52.195 24.512C52.0883 24.7787 51.8803 24.9867 51.571 25.136C51.2723 25.2747 50.9043 25.36 50.467 25.392C50.0403 25.424 49.539 25.44 48.963 25.44C48.931 25.1733 48.8616 24.864 48.755 24.512C48.6483 24.1707 48.5363 23.8773 48.419 23.632C48.7816 23.6427 49.1443 23.6533 49.507 23.664C49.8696 23.664 50.1043 23.6587 50.211 23.648C50.339 23.648 50.4243 23.632 50.467 23.6C50.5096 23.5573 50.531 23.4827 50.531 23.376V16.816ZM45.507 21.04L47.027 20.192C47.2616 20.4587 47.4963 20.7573 47.731 21.088C47.9656 21.408 48.179 21.728 48.371 22.048C48.563 22.3573 48.7176 22.6453 48.835 22.912L47.187 23.856C47.1016 23.6 46.9683 23.312 46.787 22.992C46.6056 22.6613 46.403 22.3253 46.179 21.984C45.9656 21.6427 45.7416 21.328 45.507 21.04ZM39.059 18.528C39.7096 18.3787 40.4883 18.1867 41.395 17.952C42.3123 17.7173 43.2296 17.472 44.147 17.216L44.387 18.944C43.5443 19.1893 42.691 19.44 41.827 19.696C40.9736 19.9413 40.1896 20.1653 39.475 20.368L39.059 18.528ZM39.315 13.44H44.259V15.2H39.315V13.44ZM41.123 10.416H42.883V23.312C42.883 23.7493 42.835 24.096 42.739 24.352C42.6536 24.6187 42.4883 24.8267 42.243 24.976C41.9976 25.1147 41.6936 25.2107 41.331 25.264C40.979 25.3173 40.5416 25.3387 40.019 25.328C39.9976 25.0933 39.939 24.8 39.843 24.448C39.747 24.1067 39.6403 23.808 39.523 23.552C39.811 23.5627 40.0776 23.5733 40.323 23.584C40.579 23.584 40.755 23.5787 40.851 23.568C40.947 23.568 41.0163 23.552 41.059 23.52C41.1016 23.4773 41.123 23.4027 41.123 23.296V10.416ZM61.971 11.248C61.8856 11.5253 61.811 11.8027 61.747 12.08C61.6936 12.3467 61.6403 12.6133 61.587 12.88C61.5336 13.136 61.4696 13.4293 61.395 13.76C61.331 14.0907 61.2563 14.4427 61.171 14.816C61.0963 15.1787 61.011 15.5467 60.915 15.92C60.8296 16.2933 60.739 16.6613 60.643 17.024C60.547 17.376 60.4563 17.7013 60.371 18C61.0216 17.6373 61.667 17.3813 62.307 17.232C62.947 17.072 63.6243 16.992 64.339 16.992C65.203 16.992 65.955 17.136 66.595 17.424C67.2456 17.712 67.747 18.112 68.099 18.624C68.4616 19.136 68.643 19.7333 68.643 20.416C68.643 21.312 68.435 22.0693 68.019 22.688C67.6136 23.3067 67.027 23.792 66.259 24.144C65.5016 24.496 64.5896 24.72 63.523 24.816C62.467 24.912 61.2936 24.8907 60.003 24.752L59.443 22.688C60.3176 22.8373 61.171 22.912 62.003 22.912C62.8456 22.912 63.603 22.832 64.275 22.672C64.947 22.512 65.4803 22.256 65.875 21.904C66.2803 21.5413 66.483 21.0667 66.483 20.48C66.483 20 66.2803 19.5893 65.875 19.248C65.4696 18.896 64.8776 18.72 64.099 18.72C63.171 18.72 62.3176 18.88 61.539 19.2C60.771 19.52 60.147 19.984 59.667 20.592C59.5923 20.7093 59.5176 20.8213 59.443 20.928C59.379 21.0347 59.3043 21.1573 59.219 21.296L57.331 20.624C57.6296 20.048 57.907 19.392 58.163 18.656C58.419 17.92 58.6483 17.1787 58.851 16.432C59.0536 15.6853 59.219 14.992 59.347 14.352C59.475 13.7013 59.5656 13.1733 59.619 12.768C59.6723 12.4267 59.7043 12.1387 59.715 11.904C59.7256 11.6587 59.7203 11.408 59.699 11.152L61.971 11.248ZM56.387 13.12C56.899 13.2053 57.4536 13.28 58.051 13.344C58.6483 13.3973 59.1976 13.424 59.699 13.424C60.211 13.424 60.771 13.408 61.379 13.376C61.9976 13.344 62.6483 13.296 63.331 13.232C64.0136 13.168 64.6963 13.088 65.379 12.992C66.0723 12.8853 66.7496 12.7627 67.411 12.624L67.443 14.528C66.931 14.6133 66.3496 14.6987 65.699 14.784C65.059 14.8693 64.387 14.9493 63.683 15.024C62.979 15.088 62.2856 15.1413 61.603 15.184C60.9203 15.2267 60.291 15.248 59.715 15.248C59.0963 15.248 58.5043 15.2373 57.939 15.216C57.3843 15.184 56.867 15.1467 56.387 15.104V13.12ZM74.979 16.64V22.544H73.139V18.416H71.331V16.64H74.979ZM74.979 21.776C75.2883 22.3093 75.7256 22.704 76.291 22.96C76.8563 23.2053 77.5443 23.344 78.355 23.376C78.835 23.3973 79.411 23.4133 80.083 23.424C80.7656 23.424 81.475 23.4187 82.211 23.408C82.9576 23.3973 83.683 23.3813 84.387 23.36C85.1016 23.328 85.7416 23.2853 86.307 23.232C86.2323 23.3707 86.1523 23.5573 86.067 23.792C85.9923 24.016 85.9176 24.2453 85.843 24.48C85.779 24.7147 85.731 24.9227 85.699 25.104C85.2083 25.136 84.643 25.1573 84.003 25.168C83.363 25.1787 82.7016 25.184 82.019 25.184C81.3363 25.1947 80.675 25.1947 80.035 25.184C79.395 25.184 78.8296 25.1733 78.339 25.152C77.379 25.1093 76.563 24.9547 75.891 24.688C75.219 24.4213 74.643 23.9787 74.163 23.36C73.8536 23.68 73.523 23.9947 73.171 24.304C72.8296 24.624 72.4563 24.9547 72.051 25.296L71.139 23.392C71.4803 23.168 71.8376 22.9173 72.211 22.64C72.595 22.3627 72.963 22.0747 73.315 21.776H74.979ZM71.395 11.904L72.851 10.816C73.1603 11.0507 73.4803 11.3173 73.811 11.616C74.1416 11.9147 74.4456 12.2133 74.723 12.512C75.0003 12.8107 75.2243 13.0933 75.395 13.36L73.811 14.576C73.6616 14.3093 73.4536 14.0213 73.187 13.712C72.931 13.392 72.643 13.0773 72.323 12.768C72.003 12.448 71.6936 12.16 71.395 11.904ZM79.763 12.56H81.619V23.008H79.763V12.56ZM78.131 18.176V18.816H83.315V18.176H78.131ZM78.131 16.464V17.088H83.315V16.464H78.131ZM76.499 15.28H85.043V20H76.499V15.28ZM75.731 10.912H85.827V13.104H84.051V12.272H77.411V13.104H75.731V10.912ZM76.179 13.376H85.299V14.688H76.179V13.376ZM75.587 20.576H86.003V21.968H75.587V20.576ZM98.307 12.016C98.3816 12.5173 98.4883 13.0507 98.627 13.616C98.7763 14.1707 98.9736 14.7413 99.219 15.328C99.475 15.9147 99.8056 16.5013 100.211 17.088C100.616 17.6747 101.123 18.2507 101.731 18.816L100.435 20.656C99.8483 20.0053 99.3096 19.28 98.819 18.48C98.339 17.6693 97.891 16.7733 97.475 15.792C97.059 14.8107 96.6643 13.7387 96.291 12.576L98.307 12.016ZM87.779 12.816C88.067 12.8373 88.3656 12.8373 88.675 12.816C89.059 12.7947 89.4963 12.7627 89.987 12.72C90.4776 12.6667 90.9736 12.608 91.475 12.544C91.9763 12.4693 92.4403 12.3893 92.867 12.304C93.2936 12.208 93.6403 12.112 93.907 12.016L94.515 13.792C94.3976 13.8347 94.2643 13.888 94.115 13.952C93.9656 14.0053 93.827 14.0693 93.699 14.144C93.4856 14.304 93.235 14.5333 92.947 14.832C92.6696 15.12 92.3816 15.4613 92.083 15.856C91.795 16.2507 91.5283 16.6933 91.283 17.184C91.0376 17.664 90.835 18.1867 90.675 18.752C90.5256 19.3067 90.451 19.8933 90.451 20.512C90.451 20.9813 90.5203 21.3813 90.659 21.712C90.8083 22.0427 91.0056 22.3093 91.251 22.512C91.4963 22.7147 91.7896 22.8693 92.131 22.976C92.4723 23.072 92.8296 23.12 93.203 23.12C94.419 23.12 95.347 22.704 95.987 21.872C96.6376 21.04 97.0003 19.8667 97.075 18.352C97.1603 16.8267 96.9683 15.0507 96.499 13.024L98.371 16.08C98.5416 16.944 98.6376 17.8133 98.659 18.688C98.691 19.552 98.6216 20.3787 98.451 21.168C98.2803 21.9573 97.9816 22.6613 97.555 23.28C97.1283 23.8987 96.5523 24.384 95.827 24.736C95.1123 25.088 94.227 25.264 93.171 25.264C92.5203 25.264 91.907 25.1733 91.331 24.992C90.7656 24.8213 90.259 24.5547 89.811 24.192C89.3736 23.84 89.027 23.3973 88.771 22.864C88.5256 22.32 88.403 21.6853 88.403 20.96C88.403 20.3093 88.467 19.696 88.595 19.12C88.723 18.544 88.899 18 89.123 17.488C89.3576 16.9653 89.6296 16.4587 89.939 15.968C90.259 15.4773 90.6003 14.992 90.963 14.512C90.771 14.5227 90.5363 14.544 90.259 14.576C89.9923 14.608 89.731 14.64 89.475 14.672C89.2296 14.704 89.027 14.7307 88.867 14.752C88.707 14.7733 88.5523 14.7947 88.403 14.816C88.2643 14.8373 88.1043 14.864 87.923 14.896L87.779 12.816ZM99.747 11.136C99.843 11.3493 99.9496 11.5947 100.067 11.872C100.184 12.1493 100.296 12.4267 100.403 12.704C100.51 12.9707 100.6 13.216 100.675 13.44L99.475 13.84C99.3896 13.584 99.2936 13.3227 99.187 13.056C99.091 12.7787 98.9896 12.5067 98.883 12.24C98.7763 11.9733 98.6643 11.728 98.547 11.504L99.747 11.136ZM101.459 10.528C101.64 10.8587 101.816 11.248 101.987 11.696C102.168 12.1333 102.323 12.512 102.451 12.832L101.251 13.232C101.123 12.8693 100.974 12.48 100.803 12.064C100.643 11.6373 100.478 11.2587 100.307 10.928L101.459 10.528ZM110.723 15.872C111.107 15.872 111.448 15.968 111.747 16.16C112.056 16.3413 112.302 16.5867 112.483 16.896C112.675 17.1947 112.771 17.536 112.771 17.92C112.771 18.2933 112.675 18.6347 112.483 18.944C112.302 19.2533 112.056 19.504 111.747 19.696C111.448 19.8773 111.107 19.968 110.723 19.968C110.35 19.968 110.008 19.8773 109.699 19.696C109.39 19.504 109.139 19.2533 108.947 18.944C108.766 18.6347 108.675 18.2933 108.675 17.92C108.675 17.536 108.766 17.1947 108.947 16.896C109.139 16.5867 109.39 16.3413 109.699 16.16C110.008 15.968 110.35 15.872 110.723 15.872ZM119.667 11.504H133.795V13.376H119.667V11.504ZM124.787 16H131.187V17.856H124.787V16ZM130.483 16H132.499C132.499 16 132.494 16.0533 132.483 16.16C132.483 16.256 132.483 16.3733 132.483 16.512C132.483 16.6507 132.478 16.7627 132.467 16.848C132.403 18.0853 132.334 19.1467 132.259 20.032C132.195 20.9067 132.12 21.6427 132.035 22.24C131.95 22.8267 131.848 23.296 131.731 23.648C131.614 24 131.475 24.2667 131.315 24.448C131.08 24.7253 130.824 24.9173 130.547 25.024C130.28 25.1307 129.966 25.2053 129.603 25.248C129.283 25.28 128.867 25.296 128.355 25.296C127.854 25.296 127.336 25.2853 126.803 25.264C126.782 24.9867 126.707 24.6667 126.579 24.304C126.451 23.952 126.296 23.6427 126.115 23.376C126.67 23.4187 127.198 23.4453 127.699 23.456C128.2 23.4667 128.568 23.472 128.803 23.472C128.974 23.472 129.118 23.4613 129.235 23.44C129.352 23.408 129.459 23.3493 129.555 23.264C129.726 23.1147 129.864 22.784 129.971 22.272C130.088 21.7493 130.184 21.0027 130.259 20.032C130.344 19.0507 130.419 17.8133 130.483 16.32V16ZM123.411 13.104H125.443C125.411 14.0107 125.358 14.928 125.283 15.856C125.219 16.784 125.096 17.7013 124.915 18.608C124.734 19.504 124.467 20.368 124.115 21.2C123.763 22.0213 123.288 22.7947 122.691 23.52C122.094 24.2347 121.336 24.864 120.419 25.408C120.28 25.152 120.078 24.8747 119.811 24.576C119.544 24.288 119.283 24.048 119.027 23.856C119.87 23.376 120.558 22.8267 121.091 22.208C121.635 21.5893 122.062 20.9173 122.371 20.192C122.68 19.4667 122.904 18.7093 123.043 17.92C123.182 17.12 123.272 16.3147 123.315 15.504C123.358 14.6933 123.39 13.8933 123.411 13.104ZM137.635 10.336L139.635 10.752C139.443 11.2427 139.235 11.7387 139.011 12.24C138.798 12.7307 138.579 13.2 138.355 13.648C138.142 14.0853 137.934 14.4747 137.731 14.816L136.051 14.384C136.254 14.0213 136.451 13.6053 136.643 13.136C136.846 12.6667 137.032 12.1867 137.203 11.696C137.384 11.2053 137.528 10.752 137.635 10.336ZM135.203 13.616C135.779 13.5947 136.44 13.5733 137.187 13.552C137.934 13.52 138.718 13.4827 139.539 13.44C140.36 13.3973 141.187 13.36 142.019 13.328L142.003 15.008C141.214 15.0613 140.424 15.1147 139.635 15.168C138.846 15.2213 138.088 15.2693 137.363 15.312C136.638 15.3547 135.971 15.3973 135.363 15.44L135.203 13.616ZM136.163 16.192H141.235V17.76H137.939V25.424H136.163V16.192ZM140.323 16.192H142.227V23.488C142.227 23.904 142.179 24.2347 142.083 24.48C141.987 24.736 141.8 24.9333 141.523 25.072C141.256 25.2213 140.936 25.312 140.563 25.344C140.19 25.376 139.763 25.392 139.283 25.392C139.24 25.136 139.155 24.8427 139.027 24.512C138.91 24.192 138.787 23.92 138.659 23.696C138.947 23.7067 139.23 23.712 139.507 23.712C139.784 23.712 139.971 23.7067 140.067 23.696C140.174 23.696 140.243 23.68 140.275 23.648C140.307 23.616 140.323 23.552 140.323 23.456V16.192ZM136.963 18.608H141.411V20.032H136.963V18.608ZM136.963 20.96H141.411V22.384H136.963V20.96ZM143.491 10.464H145.395V15.28C145.395 15.5573 145.438 15.7333 145.523 15.808C145.608 15.8827 145.8 15.92 146.099 15.92C146.163 15.92 146.275 15.92 146.435 15.92C146.595 15.92 146.766 15.92 146.947 15.92C147.139 15.92 147.315 15.92 147.475 15.92C147.646 15.92 147.774 15.92 147.859 15.92C148.04 15.92 148.174 15.8827 148.259 15.808C148.344 15.7227 148.408 15.5627 148.451 15.328C148.494 15.0827 148.526 14.7253 148.547 14.256C148.675 14.3627 148.84 14.464 149.043 14.56C149.246 14.6453 149.454 14.7253 149.667 14.8C149.88 14.8747 150.072 14.9333 150.243 14.976C150.179 15.6693 150.067 16.208 149.907 16.592C149.758 16.976 149.534 17.248 149.235 17.408C148.936 17.5573 148.536 17.632 148.035 17.632C147.96 17.632 147.848 17.632 147.699 17.632C147.55 17.632 147.379 17.632 147.187 17.632C147.006 17.632 146.824 17.632 146.643 17.632C146.472 17.632 146.312 17.632 146.163 17.632C146.024 17.632 145.918 17.632 145.843 17.632C145.214 17.632 144.728 17.5627 144.387 17.424C144.046 17.2747 143.811 17.0347 143.683 16.704C143.555 16.3627 143.491 15.8933 143.491 15.296V10.464ZM148.291 11.408L149.507 12.816C149.027 13.04 148.51 13.2587 147.955 13.472C147.411 13.6747 146.856 13.8667 146.291 14.048C145.726 14.2293 145.176 14.3893 144.643 14.528C144.6 14.3467 144.52 14.128 144.403 13.872C144.296 13.616 144.195 13.3973 144.099 13.216C144.59 13.056 145.091 12.88 145.603 12.688C146.115 12.4853 146.6 12.272 147.059 12.048C147.528 11.824 147.939 11.6107 148.291 11.408ZM143.491 17.952H145.395V22.992C145.395 23.28 145.438 23.4613 145.523 23.536C145.619 23.6107 145.822 23.648 146.131 23.648C146.195 23.648 146.307 23.648 146.467 23.648C146.627 23.648 146.803 23.648 146.995 23.648C147.198 23.648 147.384 23.648 147.555 23.648C147.736 23.648 147.864 23.648 147.939 23.648C148.131 23.648 148.275 23.6 148.371 23.504C148.467 23.408 148.536 23.2213 148.579 22.944C148.632 22.6667 148.67 22.256 148.691 21.712C148.894 21.8613 149.16 22.0053 149.491 22.144C149.822 22.272 150.115 22.368 150.371 22.432C150.307 23.1787 150.195 23.76 150.035 24.176C149.886 24.6027 149.656 24.9013 149.347 25.072C149.048 25.2427 148.643 25.328 148.131 25.328C148.046 25.328 147.923 25.328 147.763 25.328C147.614 25.328 147.443 25.328 147.251 25.328C147.07 25.328 146.883 25.328 146.691 25.328C146.51 25.328 146.344 25.328 146.195 25.328C146.046 25.328 145.928 25.328 145.843 25.328C145.224 25.328 144.744 25.2533 144.403 25.104C144.062 24.9653 143.822 24.7253 143.683 24.384C143.555 24.0533 143.491 23.5947 143.491 23.008V17.952ZM148.403 18.608L149.667 20.016C149.187 20.2827 148.659 20.5333 148.083 20.768C147.507 20.992 146.926 21.2053 146.339 21.408C145.752 21.6107 145.176 21.792 144.611 21.952C144.568 21.7707 144.488 21.5467 144.371 21.28C144.264 21.0133 144.158 20.7893 144.051 20.608C144.574 20.4373 145.102 20.24 145.635 20.016C146.168 19.792 146.675 19.5627 147.155 19.328C147.635 19.0827 148.051 18.8427 148.403 18.608ZM139.811 12.08L141.427 11.472C141.694 11.856 141.95 12.272 142.195 12.72C142.451 13.168 142.68 13.6107 142.883 14.048C143.096 14.4747 143.256 14.864 143.363 15.216L141.603 15.904C141.518 15.5627 141.379 15.1733 141.187 14.736C141.006 14.2987 140.792 13.8507 140.547 13.392C140.312 12.9227 140.067 12.4853 139.811 12.08ZM159.299 16.176H161.123V25.392H159.299V16.176ZM156.611 11.888L158.851 12.512C158.84 12.6613 158.707 12.752 158.451 12.784V16.368C158.451 16.9973 158.424 17.7013 158.371 18.48C158.318 19.2587 158.222 20.064 158.083 20.896C157.944 21.728 157.736 22.544 157.459 23.344C157.182 24.144 156.814 24.88 156.355 25.552C156.27 25.4133 156.136 25.264 155.955 25.104C155.774 24.944 155.587 24.7893 155.395 24.64C155.203 24.5013 155.027 24.4 154.867 24.336C155.272 23.7387 155.587 23.0987 155.811 22.416C156.046 21.7333 156.216 21.04 156.323 20.336C156.44 19.6213 156.515 18.9227 156.547 18.24C156.59 17.5573 156.611 16.9227 156.611 16.336V11.888ZM164.403 14.096L165.907 15.552C165.235 15.84 164.494 16.1067 163.683 16.352C162.883 16.5973 162.062 16.816 161.219 17.008C160.387 17.1893 159.571 17.3493 158.771 17.488C158.728 17.2853 158.643 17.0347 158.515 16.736C158.398 16.4373 158.286 16.1867 158.179 15.984C158.744 15.8773 159.31 15.7547 159.875 15.616C160.451 15.4667 161.016 15.312 161.571 15.152C162.126 14.992 162.643 14.8213 163.123 14.64C163.614 14.4587 164.04 14.2773 164.403 14.096ZM164.019 10.4L165.587 11.92C164.851 12.2293 164.04 12.5227 163.155 12.8C162.28 13.0773 161.384 13.328 160.467 13.552C159.55 13.776 158.654 13.9733 157.779 14.144C157.736 13.92 157.651 13.6587 157.523 13.36C157.395 13.0507 157.272 12.7947 157.155 12.592C157.774 12.464 158.398 12.3147 159.027 12.144C159.667 11.9733 160.286 11.7973 160.883 11.616C161.491 11.424 162.062 11.2267 162.595 11.024C163.128 10.8107 163.603 10.6027 164.019 10.4ZM163.235 15.632C163.352 16.816 163.528 17.936 163.763 18.992C163.998 20.048 164.323 20.992 164.739 21.824C165.155 22.6453 165.699 23.3013 166.371 23.792C166.232 23.9093 166.072 24.064 165.891 24.256C165.72 24.4587 165.56 24.6667 165.411 24.88C165.262 25.0933 165.134 25.296 165.027 25.488C164.28 24.848 163.683 24.048 163.235 23.088C162.798 22.1173 162.456 21.0187 162.211 19.792C161.966 18.5547 161.779 17.2267 161.651 15.808L163.235 15.632ZM165.155 16.896L166.419 18.336C165.939 18.6667 165.47 19.008 165.011 19.36C164.563 19.712 164.147 20.0053 163.763 20.24L162.883 19.136C163.118 18.9547 163.374 18.736 163.651 18.48C163.928 18.2133 164.2 17.9413 164.467 17.664C164.734 17.3867 164.963 17.1307 165.155 16.896ZM152.003 11.888L153.059 10.464C153.379 10.5813 153.715 10.7307 154.067 10.912C154.43 11.0827 154.771 11.264 155.091 11.456C155.422 11.648 155.683 11.8293 155.875 12L154.755 13.584C154.574 13.4027 154.323 13.2107 154.003 13.008C153.694 12.7947 153.363 12.592 153.011 12.4C152.659 12.1973 152.323 12.0267 152.003 11.888ZM151.171 16.224L152.211 14.784C152.531 14.8907 152.867 15.024 153.219 15.184C153.582 15.344 153.923 15.5147 154.243 15.696C154.563 15.8773 154.824 16.0587 155.027 16.24L153.923 17.84C153.731 17.6587 153.475 17.472 153.155 17.28C152.846 17.0773 152.515 16.8853 152.163 16.704C151.822 16.5227 151.491 16.3627 151.171 16.224ZM151.427 24.112C151.672 23.696 151.944 23.2053 152.243 22.64C152.552 22.0747 152.862 21.4773 153.171 20.848C153.491 20.208 153.784 19.5733 154.051 18.944L155.571 20.096C155.336 20.672 155.08 21.2587 154.803 21.856C154.536 22.4427 154.264 23.024 153.987 23.6C153.71 24.176 153.427 24.7253 153.139 25.248L151.427 24.112ZM176.179 13.04C176.072 13.8507 175.934 14.7147 175.763 15.632C175.592 16.5493 175.363 17.4773 175.075 18.416C174.766 19.4933 174.403 20.4213 173.987 21.2C173.571 21.9787 173.112 22.5813 172.611 23.008C172.12 23.424 171.582 23.632 170.995 23.632C170.408 23.632 169.864 23.4347 169.363 23.04C168.872 22.6347 168.478 22.08 168.179 21.376C167.891 20.672 167.747 19.872 167.747 18.976C167.747 18.048 167.934 17.1733 168.307 16.352C168.68 15.5307 169.198 14.8053 169.859 14.176C170.531 13.536 171.31 13.0347 172.195 12.672C173.091 12.3093 174.056 12.128 175.091 12.128C176.083 12.128 176.974 12.288 177.763 12.608C178.563 12.928 179.246 13.3707 179.811 13.936C180.376 14.5013 180.808 15.1627 181.107 15.92C181.406 16.6773 181.555 17.4933 181.555 18.368C181.555 19.488 181.326 20.4907 180.867 21.376C180.408 22.2613 179.726 22.992 178.819 23.568C177.923 24.144 176.803 24.5387 175.459 24.752L174.259 22.848C174.568 22.816 174.84 22.7787 175.075 22.736C175.31 22.6933 175.534 22.6453 175.747 22.592C176.259 22.464 176.734 22.2827 177.171 22.048C177.619 21.8027 178.008 21.504 178.339 21.152C178.67 20.7893 178.926 20.368 179.107 19.888C179.299 19.408 179.395 18.88 179.395 18.304C179.395 17.6747 179.299 17.0987 179.107 16.576C178.915 16.0533 178.632 15.6 178.259 15.216C177.886 14.8213 177.432 14.5227 176.899 14.32C176.366 14.1067 175.752 14 175.059 14C174.206 14 173.454 14.1547 172.803 14.464C172.152 14.7627 171.603 15.152 171.155 15.632C170.707 16.112 170.366 16.6293 170.131 17.184C169.907 17.7387 169.795 18.2667 169.795 18.768C169.795 19.3013 169.859 19.7493 169.987 20.112C170.115 20.464 170.27 20.7307 170.451 20.912C170.643 21.0827 170.846 21.168 171.059 21.168C171.283 21.168 171.502 21.056 171.715 20.832C171.939 20.5973 172.158 20.2453 172.371 19.776C172.584 19.3067 172.798 18.7147 173.011 18C173.256 17.232 173.464 16.4107 173.635 15.536C173.806 14.6613 173.928 13.808 174.003 12.976L176.179 13.04ZM183.475 12.976H197.987V14.8H183.475V12.976ZM188.819 16.896H194.947V18.704H188.819V16.896ZM194.227 16.896H196.211C196.211 16.896 196.206 16.9493 196.195 17.056C196.195 17.152 196.195 17.264 196.195 17.392C196.195 17.52 196.184 17.632 196.163 17.728C196.067 19.1893 195.96 20.384 195.843 21.312C195.726 22.24 195.592 22.9653 195.443 23.488C195.294 24 195.112 24.3733 194.899 24.608C194.654 24.8747 194.398 25.056 194.131 25.152C193.864 25.248 193.544 25.3173 193.171 25.36C192.862 25.392 192.456 25.4027 191.955 25.392C191.454 25.392 190.936 25.3813 190.403 25.36C190.392 25.0827 190.323 24.7627 190.195 24.4C190.067 24.048 189.907 23.7387 189.715 23.472C190.27 23.5253 190.803 23.5573 191.315 23.568C191.827 23.5787 192.195 23.584 192.419 23.584C192.6 23.584 192.75 23.5733 192.867 23.552C192.995 23.52 193.107 23.4613 193.203 23.376C193.374 23.2373 193.518 22.9333 193.635 22.464C193.763 21.9947 193.875 21.328 193.971 20.464C194.067 19.6 194.152 18.5067 194.227 17.184V16.896ZM188.099 14.064H190.243C190.2 14.9173 190.131 15.7813 190.035 16.656C189.95 17.52 189.8 18.3787 189.587 19.232C189.374 20.0747 189.064 20.88 188.659 21.648C188.254 22.416 187.72 23.1307 187.059 23.792C186.398 24.4533 185.56 25.04 184.547 25.552C184.408 25.2853 184.206 24.9973 183.939 24.688C183.683 24.3787 183.432 24.1227 183.187 23.92C184.115 23.4933 184.872 22.9973 185.459 22.432C186.056 21.856 186.526 21.2373 186.867 20.576C187.208 19.904 187.459 19.2053 187.619 18.48C187.79 17.7547 187.902 17.0187 187.955 16.272C188.019 15.5253 188.067 14.7893 188.099 14.064ZM189.635 10.336H191.635V13.696H189.635V10.336Z" fill="white"/>
<defs>
<linearGradient id="paint0_linear_431_438" x1="15.4269" y1="18.3851" x2="136.899" y2="120.313" gradientUnits="userSpaceOnUse">
<stop stop-color="#2C6FFF"/>
<stop offset="0.5" stop-color="#372CFF"/>
<stop offset="1" stop-color="#2CA7FF"/>
</linearGradient>
</defs>
</svg>
