<svg width="205" height="37" viewBox="0 0 205 37" fill="none" xmlns="http://www.w3.org/2000/svg">
<path d="M30.8538 0H204.854L174 36.7701H-9.53674e-07L30.8538 0Z" fill="url(#paint0_linear_431_437)"/>
<path d="M36.8429 11.728H50.5869V13.456H36.8429V11.728ZM36.4429 21.552H51.0669V23.296H36.4429V21.552ZM42.6669 10.416H44.6509V25.456H42.6669V10.416ZM39.8989 18.176V19.152H47.4509V18.176H39.8989ZM39.8989 15.776V16.736H47.4509V15.776H39.8989ZM38.0429 14.224H49.3869V20.704H38.0429V14.224ZM59.7229 15.872C60.1069 15.872 60.4483 15.968 60.7469 16.16C61.0563 16.3413 61.3016 16.5867 61.4829 16.896C61.6749 17.1947 61.7709 17.536 61.7709 17.92C61.7709 18.2933 61.6749 18.6347 61.4829 18.944C61.3016 19.2533 61.0563 19.504 60.7469 19.696C60.4483 19.8773 60.1069 19.968 59.7229 19.968C59.3496 19.968 59.0083 19.8773 58.6989 19.696C58.3896 19.504 58.1389 19.2533 57.9469 18.944C57.7656 18.6347 57.6749 18.2933 57.6749 17.92C57.6749 17.536 57.7656 17.1947 57.9469 16.896C58.1389 16.5867 58.3896 16.3413 58.6989 16.16C59.0083 15.968 59.3496 15.872 59.7229 15.872ZM69.1789 24V12.144H73.0669C73.9416 12.144 74.7256 12.2613 75.4189 12.496C76.1229 12.7307 76.6776 13.12 77.0829 13.664C77.4989 14.1973 77.7069 14.9333 77.7069 15.872C77.7069 16.768 77.4989 17.5093 77.0829 18.096C76.6776 18.672 76.1283 19.0987 75.4349 19.376C74.7523 19.6533 73.9843 19.792 73.1309 19.792H71.5469V24H69.1789ZM71.5469 17.92H72.9709C73.7816 17.92 74.3843 17.7493 74.7789 17.408C75.1843 17.0667 75.3869 16.5547 75.3869 15.872C75.3869 15.1893 75.1736 14.7147 74.7469 14.448C74.3309 14.1707 73.7123 14.032 72.8909 14.032H71.5469V17.92ZM84.6668 24.224C83.9202 24.224 83.2215 24.096 82.5708 23.84C81.9202 23.5733 81.3442 23.1787 80.8428 22.656C80.3522 22.1333 79.9628 21.4933 79.6748 20.736C79.3975 19.9787 79.2588 19.1093 79.2588 18.128C79.2588 17.1467 79.4028 16.2773 79.6908 15.52C79.9788 14.752 80.3735 14.1013 80.8748 13.568C81.3868 13.0347 81.9735 12.6293 82.6348 12.352C83.3068 12.0747 84.0162 11.936 84.7628 11.936C85.5202 11.936 86.1922 12.0907 86.7788 12.4C87.3762 12.6987 87.8615 13.0507 88.2348 13.456L87.0028 14.96C86.7042 14.6613 86.3735 14.4213 86.0108 14.24C85.6588 14.0587 85.2588 13.968 84.8108 13.968C84.2135 13.968 83.6748 14.1333 83.1948 14.464C82.7255 14.784 82.3575 15.248 82.0908 15.856C81.8242 16.464 81.6908 17.1947 81.6908 18.048C81.6908 18.912 81.8135 19.6533 82.0588 20.272C82.3148 20.88 82.6722 21.3493 83.1308 21.68C83.6002 22.0107 84.1442 22.176 84.7628 22.176C85.2748 22.176 85.7282 22.0693 86.1228 21.856C86.5282 21.632 86.8855 21.3493 87.1948 21.008L88.4588 22.48C87.9682 23.056 87.4082 23.4933 86.7788 23.792C86.1495 24.08 85.4455 24.224 84.6668 24.224ZM102.383 12.24C102.276 12.4213 102.159 12.6613 102.031 12.96C101.903 13.248 101.796 13.488 101.711 13.68C101.519 14.2133 101.279 14.7947 100.991 15.424C100.703 16.0427 100.377 16.6667 100.015 17.296C99.6522 17.9253 99.2522 18.528 98.8148 19.104C98.3242 19.7547 97.7642 20.4107 97.1348 21.072C96.5162 21.7227 95.8068 22.3627 95.0068 22.992C94.2068 23.6213 93.2895 24.224 92.2548 24.8L90.4628 23.184C91.9242 22.48 93.1828 21.6853 94.2388 20.8C95.2948 19.904 96.2388 18.9013 97.0708 17.792C97.7215 16.9707 98.2388 16.1493 98.6228 15.328C99.0175 14.496 99.3482 13.68 99.6148 12.88C99.7002 12.6667 99.7748 12.4213 99.8388 12.144C99.9135 11.856 99.9668 11.6107 99.9988 11.408L102.383 12.24ZM93.5828 13.792C93.9882 14.0373 94.4148 14.3147 94.8628 14.624C95.3215 14.9227 95.7802 15.232 96.2388 15.552C96.7082 15.872 97.1508 16.1867 97.5668 16.496C97.9935 16.8053 98.3775 17.088 98.7188 17.344C99.5722 18.016 100.404 18.7147 101.215 19.44C102.025 20.1653 102.756 20.8747 103.407 21.568L101.759 23.392C101.055 22.5813 100.34 21.8347 99.6148 21.152C98.8895 20.4587 98.1055 19.76 97.2628 19.056C96.9748 18.8107 96.6442 18.544 96.2708 18.256C95.8975 17.968 95.4922 17.664 95.0548 17.344C94.6282 17.024 94.1748 16.704 93.6948 16.384C93.2148 16.0533 92.7242 15.7333 92.2228 15.424L93.5828 13.792ZM105.887 17.776C107.327 17.4027 108.628 16.9707 109.791 16.48C110.964 15.9787 111.993 15.456 112.879 14.912C113.433 14.5707 113.988 14.1813 114.543 13.744C115.108 13.296 115.636 12.8373 116.127 12.368C116.628 11.8987 117.049 11.4507 117.391 11.024L119.119 12.672C118.628 13.152 118.089 13.6373 117.503 14.128C116.927 14.6187 116.324 15.088 115.695 15.536C115.065 15.984 114.441 16.3947 113.823 16.768C113.215 17.12 112.532 17.4827 111.775 17.856C111.028 18.2293 110.239 18.5813 109.407 18.912C108.575 19.2427 107.737 19.536 106.895 19.792L105.887 17.776ZM112.543 15.936L114.815 15.408V22.608C114.815 22.8427 114.82 23.0987 114.831 23.376C114.841 23.6533 114.857 23.9093 114.879 24.144C114.9 24.3893 114.927 24.576 114.959 24.704H112.431C112.452 24.576 112.468 24.3893 112.479 24.144C112.5 23.9093 112.516 23.6533 112.527 23.376C112.537 23.0987 112.543 22.8427 112.543 22.608V15.936ZM124.751 11.84C125.028 12.032 125.353 12.2667 125.727 12.544C126.1 12.8213 126.484 13.1253 126.879 13.456C127.284 13.776 127.663 14.0907 128.015 14.4C128.367 14.7093 128.655 14.9867 128.879 15.232L127.247 16.896C127.044 16.672 126.777 16.4053 126.447 16.096C126.116 15.7867 125.759 15.4667 125.375 15.136C124.991 14.8053 124.612 14.4907 124.239 14.192C123.865 13.8933 123.535 13.6427 123.247 13.44L124.751 11.84ZM122.751 22.496C123.583 22.3787 124.367 22.2133 125.103 22C125.839 21.7867 126.521 21.5413 127.151 21.264C127.78 20.9867 128.356 20.6987 128.879 20.4C129.785 19.856 130.617 19.2373 131.375 18.544C132.132 17.8507 132.793 17.1307 133.359 16.384C133.924 15.6267 134.372 14.8907 134.703 14.176L135.951 16.432C135.545 17.1467 135.044 17.8613 134.447 18.576C133.86 19.2907 133.193 19.9733 132.447 20.624C131.7 21.264 130.895 21.84 130.031 22.352C129.487 22.6827 128.9 22.9973 128.271 23.296C127.641 23.584 126.975 23.84 126.271 24.064C125.577 24.2987 124.852 24.48 124.095 24.608L122.751 22.496ZM146.351 13.04C146.244 13.8507 146.105 14.7147 145.935 15.632C145.764 16.5493 145.535 17.4773 145.247 18.416C144.937 19.4933 144.575 20.4213 144.159 21.2C143.743 21.9787 143.284 22.5813 142.783 23.008C142.292 23.424 141.753 23.632 141.167 23.632C140.58 23.632 140.036 23.4347 139.535 23.04C139.044 22.6347 138.649 22.08 138.351 21.376C138.063 20.672 137.919 19.872 137.919 18.976C137.919 18.048 138.105 17.1733 138.479 16.352C138.852 15.5307 139.369 14.8053 140.031 14.176C140.703 13.536 141.481 13.0347 142.367 12.672C143.263 12.3093 144.228 12.128 145.263 12.128C146.255 12.128 147.145 12.288 147.935 12.608C148.735 12.928 149.417 13.3707 149.983 13.936C150.548 14.5013 150.98 15.1627 151.279 15.92C151.577 16.6773 151.727 17.4933 151.727 18.368C151.727 19.488 151.497 20.4907 151.039 21.376C150.58 22.2613 149.897 22.992 148.991 23.568C148.095 24.144 146.975 24.5387 145.631 24.752L144.431 22.848C144.74 22.816 145.012 22.7787 145.247 22.736C145.481 22.6933 145.705 22.6453 145.919 22.592C146.431 22.464 146.905 22.2827 147.343 22.048C147.791 21.8027 148.18 21.504 148.511 21.152C148.841 20.7893 149.097 20.368 149.279 19.888C149.471 19.408 149.567 18.88 149.567 18.304C149.567 17.6747 149.471 17.0987 149.279 16.576C149.087 16.0533 148.804 15.6 148.431 15.216C148.057 14.8213 147.604 14.5227 147.071 14.32C146.537 14.1067 145.924 14 145.231 14C144.377 14 143.625 14.1547 142.975 14.464C142.324 14.7627 141.775 15.152 141.327 15.632C140.879 16.112 140.537 16.6293 140.303 17.184C140.079 17.7387 139.967 18.2667 139.967 18.768C139.967 19.3013 140.031 19.7493 140.159 20.112C140.287 20.464 140.441 20.7307 140.623 20.912C140.815 21.0827 141.017 21.168 141.231 21.168C141.455 21.168 141.673 21.056 141.887 20.832C142.111 20.5973 142.329 20.2453 142.543 19.776C142.756 19.3067 142.969 18.7147 143.183 18C143.428 17.232 143.636 16.4107 143.807 15.536C143.977 14.6613 144.1 13.808 144.175 12.976L146.351 13.04ZM153.647 12.976H168.159V14.8H153.647V12.976ZM158.991 16.896H165.119V18.704H158.991V16.896ZM164.399 16.896H166.383C166.383 16.896 166.377 16.9493 166.367 17.056C166.367 17.152 166.367 17.264 166.367 17.392C166.367 17.52 166.356 17.632 166.335 17.728C166.239 19.1893 166.132 20.384 166.015 21.312C165.897 22.24 165.764 22.9653 165.615 23.488C165.465 24 165.284 24.3733 165.071 24.608C164.825 24.8747 164.569 25.056 164.303 25.152C164.036 25.248 163.716 25.3173 163.343 25.36C163.033 25.392 162.628 25.4027 162.127 25.392C161.625 25.392 161.108 25.3813 160.575 25.36C160.564 25.0827 160.495 24.7627 160.367 24.4C160.239 24.048 160.079 23.7387 159.887 23.472C160.441 23.5253 160.975 23.5573 161.487 23.568C161.999 23.5787 162.367 23.584 162.591 23.584C162.772 23.584 162.921 23.5733 163.039 23.552C163.167 23.52 163.279 23.4613 163.375 23.376C163.545 23.2373 163.689 22.9333 163.807 22.464C163.935 21.9947 164.047 21.328 164.143 20.464C164.239 19.6 164.324 18.5067 164.399 17.184V16.896ZM158.271 14.064H160.415C160.372 14.9173 160.303 15.7813 160.207 16.656C160.121 17.52 159.972 18.3787 159.759 19.232C159.545 20.0747 159.236 20.88 158.831 21.648C158.425 22.416 157.892 23.1307 157.231 23.792C156.569 24.4533 155.732 25.04 154.719 25.552C154.58 25.2853 154.377 24.9973 154.111 24.688C153.855 24.3787 153.604 24.1227 153.359 23.92C154.287 23.4933 155.044 22.9973 155.631 22.432C156.228 21.856 156.697 21.2373 157.039 20.576C157.38 19.904 157.631 19.2053 157.791 18.48C157.961 17.7547 158.073 17.0187 158.127 16.272C158.191 15.5253 158.239 14.7893 158.271 14.064ZM159.807 10.336H161.807V13.696H159.807V10.336Z" fill="white"/>
<defs>
<linearGradient id="paint0_linear_431_437" x1="15.4269" y1="18.3851" x2="117.534" y2="104.063" gradientUnits="userSpaceOnUse">
<stop stop-color="#2C6FFF"/>
<stop offset="0.5" stop-color="#372CFF"/>
<stop offset="1" stop-color="#2CA7FF"/>
</linearGradient>
</defs>
</svg>
