<svg width="13" height="13" viewBox="0 0 13 13" fill="none" xmlns="http://www.w3.org/2000/svg">
<path d="M0.468634 0.468622C1.09347 -0.156217 2.10654 -0.156217 2.73138 0.468622L11.7823 9.51959C12.4072 10.1444 12.4072 11.1575 11.7823 11.7823C11.1575 12.4072 10.1444 12.4072 9.5196 11.7823L0.468634 2.73136C-0.156205 2.10653 -0.156205 1.09346 0.468634 0.468622Z" fill="#333333"/>
<path d="M11.7823 0.468622C12.4072 1.09346 12.4072 2.10652 11.7823 2.73136L2.73137 11.7823C2.10654 12.4072 1.09347 12.4072 0.468634 11.7823C-0.156205 11.1575 -0.156206 10.1444 0.468633 9.51959L9.5196 0.468622C10.1444 -0.156217 11.1575 -0.156217 11.7823 0.468622Z" fill="#333333"/>
</svg>
